%TF.GenerationSoftware,KiCad,Pcbnew,9.0.3+dfsg-1*%
%TF.CreationDate,2026-10-04T13:47:33-05:00*%
%TF.ProjectId,Lampara_4R,4c616d70-6172-4615-9f34-522e6b696361,rev?*%
%TF.SameCoordinates,Original*%
%TF.FileFunction,Soldermask,Top*%
%TF.FilePolarity,Negative*%
%FSLAX46Y46*%
G04 Gerber Fmt 4.6, Leading zero omitted, Abs format (unit mm)*
G04 Created by KiCad (PCBNEW 9.0.3+dfsg-1) date 2026-10-04 13:47:33*
%MOMM*%
%LPD*%
G01*
G04 APERTURE LIST*
G04 Aperture macros list*
%AMRoundRect*
0 Rectangle with rounded corners*
0 $1 Rounding radius*
0 $2 $3 $4 $5 $6 $7 $8 $9 X,Y pos of 4 corners*
0 Add a 4 corners polygon primitive as box body*
4,1,4,$2,$3,$4,$5,$6,$7,$8,$9,$2,$3,0*
0 Add four circle primitives for the rounded corners*
1,1,$1+$1,$2,$3*
1,1,$1+$1,$4,$5*
1,1,$1+$1,$6,$7*
1,1,$1+$1,$8,$9*
0 Add four rect primitives between the rounded corners*
20,1,$1+$1,$2,$3,$4,$5,0*
20,1,$1+$1,$4,$5,$6,$7,0*
20,1,$1+$1,$6,$7,$8,$9,0*
20,1,$1+$1,$8,$9,$2,$3,0*%
%AMFreePoly0*
4,1,37,0.603843,0.796157,0.639018,0.796157,0.711114,0.766294,0.766294,0.711114,0.796157,0.639018,0.796157,0.603843,0.800000,0.600000,0.800000,-0.600000,0.796157,-0.603843,0.796157,-0.639018,0.766294,-0.711114,0.711114,-0.766294,0.639018,-0.796157,0.603843,-0.796157,0.600000,-0.800000,0.000000,-0.800000,0.000000,-0.796148,-0.078414,-0.796148,-0.232228,-0.765552,-0.377117,-0.705537,
-0.507515,-0.618408,-0.618408,-0.507515,-0.705537,-0.377117,-0.765552,-0.232228,-0.796148,-0.078414,-0.796148,0.078414,-0.765552,0.232228,-0.705537,0.377117,-0.618408,0.507515,-0.507515,0.618408,-0.377117,0.705537,-0.232228,0.765552,-0.078414,0.796148,0.000000,0.796148,0.000000,0.800000,0.600000,0.800000,0.603843,0.796157,0.603843,0.796157,$1*%
%AMFreePoly1*
4,1,37,0.000000,0.796148,0.078414,0.796148,0.232228,0.765552,0.377117,0.705537,0.507515,0.618408,0.618408,0.507515,0.705537,0.377117,0.765552,0.232228,0.796148,0.078414,0.796148,-0.078414,0.765552,-0.232228,0.705537,-0.377117,0.618408,-0.507515,0.507515,-0.618408,0.377117,-0.705537,0.232228,-0.765552,0.078414,-0.796148,0.000000,-0.796148,0.000000,-0.800000,-0.600000,-0.800000,
-0.603843,-0.796157,-0.639018,-0.796157,-0.711114,-0.766294,-0.766294,-0.711114,-0.796157,-0.639018,-0.796157,-0.603843,-0.800000,-0.600000,-0.800000,0.600000,-0.796157,0.603843,-0.796157,0.639018,-0.766294,0.711114,-0.711114,0.766294,-0.639018,0.796157,-0.603843,0.796157,-0.600000,0.800000,0.000000,0.800000,0.000000,0.796148,0.000000,0.796148,$1*%
G04 Aperture macros list end*
%ADD10RoundRect,0.200000X-0.600000X0.600000X-0.600000X-0.600000X0.600000X-0.600000X0.600000X0.600000X0*%
%ADD11C,1.600000*%
%ADD12FreePoly0,270.000000*%
%ADD13FreePoly1,270.000000*%
%ADD14RoundRect,0.250000X-0.350000X-0.625000X0.350000X-0.625000X0.350000X0.625000X-0.350000X0.625000X0*%
%ADD15O,1.200000X1.750000*%
%ADD16C,2.700000*%
%ADD17R,1.900000X1.900000*%
%ADD18C,1.900000*%
%ADD19R,1.500000X1.500000*%
%ADD20C,1.500000*%
%ADD21RoundRect,0.249999X0.850001X-0.850001X0.850001X0.850001X-0.850001X0.850001X-0.850001X-0.850001X0*%
%ADD22C,2.200000*%
%ADD23C,3.200000*%
%ADD24C,2.780000*%
%ADD25RoundRect,0.250000X-0.550000X-0.550000X0.550000X-0.550000X0.550000X0.550000X-0.550000X0.550000X0*%
%ADD26RoundRect,0.250000X0.625000X-0.350000X0.625000X0.350000X-0.625000X0.350000X-0.625000X-0.350000X0*%
%ADD27O,1.750000X1.200000*%
%ADD28RoundRect,0.250000X0.550000X-0.550000X0.550000X0.550000X-0.550000X0.550000X-0.550000X-0.550000X0*%
%ADD29RoundRect,0.250001X-0.949999X-0.949999X0.949999X-0.949999X0.949999X0.949999X-0.949999X0.949999X0*%
%ADD30C,2.400000*%
G04 APERTURE END LIST*
D10*
%TO.C,A1*%
X118755000Y-105110000D03*
D11*
X116215000Y-105110000D03*
D12*
X113675000Y-105110000D03*
D11*
X111135000Y-105110000D03*
X108595000Y-105110000D03*
X106055000Y-105110000D03*
X103515000Y-105110000D03*
D12*
X100975000Y-105110000D03*
D11*
X98435000Y-105110000D03*
X95895000Y-105110000D03*
X93355000Y-105110000D03*
X90815000Y-105110000D03*
D12*
X88275000Y-105110000D03*
D11*
X85735000Y-105110000D03*
X83195000Y-105110000D03*
X80655000Y-105110000D03*
X78115000Y-105110000D03*
D12*
X75575000Y-105110000D03*
D11*
X73035000Y-105110000D03*
X70495000Y-105110000D03*
X70495000Y-122890000D03*
X73035000Y-122890000D03*
D13*
X75575000Y-122890000D03*
D11*
X78115000Y-122890000D03*
X80655000Y-122890000D03*
X83195000Y-122890000D03*
X85735000Y-122890000D03*
D13*
X88275000Y-122890000D03*
D11*
X90815000Y-122890000D03*
X93355000Y-122890000D03*
X95895000Y-122890000D03*
X98435000Y-122890000D03*
D13*
X100975000Y-122890000D03*
D11*
X103515000Y-122890000D03*
X106055000Y-122890000D03*
X108595000Y-122890000D03*
X111135000Y-122890000D03*
D13*
X113675000Y-122890000D03*
D11*
X116215000Y-122890000D03*
X118755000Y-122890000D03*
%TD*%
D14*
%TO.C,J10*%
X88000000Y-141450000D03*
D15*
X90000000Y-141450000D03*
%TD*%
D14*
%TO.C,J1*%
X119200000Y-69000000D03*
D15*
X121200000Y-69000000D03*
X123200000Y-69000000D03*
X125200000Y-69000000D03*
X127200000Y-69000000D03*
X129200000Y-69000000D03*
%TD*%
D11*
%TO.C,R2*%
X95455000Y-136000000D03*
X97995000Y-136000000D03*
%TD*%
D14*
%TO.C,J11*%
X86500000Y-130450000D03*
D15*
X88500000Y-130450000D03*
X90500000Y-130450000D03*
X92500000Y-130450000D03*
X94500000Y-130450000D03*
X96500000Y-130450000D03*
%TD*%
D16*
%TO.C,U2*%
X139630001Y-96475000D03*
X154870000Y-96475000D03*
D17*
X151060000Y-96475000D03*
D18*
X148520000Y-96475000D03*
X145980001Y-96475000D03*
X143440000Y-96475000D03*
X141132000Y-78695000D03*
X144632001Y-78695000D03*
X149768000Y-78695000D03*
X153268000Y-78695000D03*
%TD*%
D19*
%TO.C,Q1*%
X93960000Y-142360000D03*
D20*
X96500000Y-142360000D03*
X99040000Y-142360000D03*
%TD*%
D21*
%TO.C,D1*%
X102500000Y-139215000D03*
D22*
X102500000Y-134135000D03*
%TD*%
D16*
%TO.C,U1*%
X116630001Y-96475000D03*
X131870000Y-96475000D03*
D17*
X128060000Y-96475000D03*
D18*
X125520000Y-96475000D03*
X122980001Y-96475000D03*
X120440000Y-96475000D03*
X118132000Y-78695000D03*
X121632001Y-78695000D03*
X126768000Y-78695000D03*
X130268000Y-78695000D03*
%TD*%
D14*
%TO.C,J9*%
X64500000Y-130450000D03*
D15*
X66500000Y-130450000D03*
X68500000Y-130450000D03*
%TD*%
D23*
%TO.C,H1*%
X102998736Y-129100000D03*
%TD*%
D24*
%TO.C,F1*%
X220300000Y-124960000D03*
X223700000Y-124960000D03*
X220300000Y-115040000D03*
X223700000Y-115040000D03*
%TD*%
D23*
%TO.C,H4*%
X228498736Y-106500000D03*
%TD*%
D11*
%TO.C,C2*%
X79250000Y-131000000D03*
X81750000Y-131000000D03*
%TD*%
D23*
%TO.C,H2*%
X197998736Y-114000000D03*
%TD*%
D25*
%TO.C,C1*%
X210251240Y-110000000D03*
D11*
X213751240Y-110000000D03*
%TD*%
D23*
%TO.C,H5*%
X84998736Y-88000000D03*
%TD*%
D26*
%TO.C,J4*%
X206750000Y-95500000D03*
D27*
X206750000Y-93500000D03*
X206750000Y-91500000D03*
X206750000Y-89500000D03*
X206750000Y-87500000D03*
X206750000Y-85500000D03*
%TD*%
D23*
%TO.C,H3*%
X158698736Y-69000000D03*
%TD*%
D28*
%TO.C,U5*%
X66380000Y-143805000D03*
D11*
X68920000Y-143805000D03*
X71460000Y-143805000D03*
X74000000Y-143805000D03*
X76540000Y-143805000D03*
X79080000Y-143805000D03*
X81620000Y-143805000D03*
X81620000Y-136185000D03*
X79080000Y-136185000D03*
X76540000Y-136185000D03*
X74000000Y-136185000D03*
X71460000Y-136185000D03*
X68920000Y-136185000D03*
X66380000Y-136185000D03*
%TD*%
D16*
%TO.C,U3*%
X162630001Y-96475000D03*
X177870000Y-96475000D03*
D17*
X174060000Y-96475000D03*
D18*
X171520000Y-96475000D03*
X168980001Y-96475000D03*
X166440000Y-96475000D03*
X164132000Y-78695000D03*
X167632001Y-78695000D03*
X172768000Y-78695000D03*
X176268000Y-78695000D03*
%TD*%
D29*
%TO.C,J8*%
X109250000Y-129800000D03*
D30*
X112750000Y-129800000D03*
%TD*%
D14*
%TO.C,J2*%
X142200000Y-69000000D03*
D15*
X144200000Y-69000000D03*
X146200000Y-69000000D03*
X148200000Y-69000000D03*
X150200000Y-69000000D03*
X152200000Y-69000000D03*
%TD*%
D16*
%TO.C,U4*%
X185630001Y-96475000D03*
X200870000Y-96475000D03*
D17*
X197060000Y-96475000D03*
D18*
X194520000Y-96475000D03*
X191980001Y-96475000D03*
X189440000Y-96475000D03*
X187132000Y-78695000D03*
X190632001Y-78695000D03*
X195768000Y-78695000D03*
X199268000Y-78695000D03*
%TD*%
D29*
%TO.C,J6*%
X186250000Y-122800000D03*
D30*
X189750000Y-122800000D03*
%TD*%
D14*
%TO.C,J3*%
X165200000Y-69000000D03*
D15*
X167200000Y-69000000D03*
X169200000Y-69000000D03*
X171200000Y-69000000D03*
X173200000Y-69000000D03*
X175200000Y-69000000D03*
%TD*%
D29*
%TO.C,J7*%
X197250000Y-122800000D03*
D30*
X200750000Y-122800000D03*
%TD*%
D11*
%TO.C,R3*%
X101955000Y-142800000D03*
X104495000Y-142800000D03*
%TD*%
%TO.C,R1*%
X72955000Y-131000000D03*
X75495000Y-131000000D03*
%TD*%
D29*
%TO.C,J5*%
X210250000Y-122800000D03*
D30*
X213750000Y-122800000D03*
%TD*%
M02*
