%TF.GenerationSoftware,KiCad,Pcbnew,9.0.3+dfsg-1*%
%TF.CreationDate,2026-10-04T13:47:33-05:00*%
%TF.ProjectId,Lampara_4R,4c616d70-6172-4615-9f34-522e6b696361,rev?*%
%TF.SameCoordinates,Original*%
%TF.FileFunction,Legend,Bot*%
%TF.FilePolarity,Positive*%
%FSLAX46Y46*%
G04 Gerber Fmt 4.6, Leading zero omitted, Abs format (unit mm)*
G04 Created by KiCad (PCBNEW 9.0.3+dfsg-1) date 2026-10-04 13:47:33*
%MOMM*%
%LPD*%
G01*
G04 APERTURE LIST*
G04 Aperture macros list*
%AMRoundRect*
0 Rectangle with rounded corners*
0 $1 Rounding radius*
0 $2 $3 $4 $5 $6 $7 $8 $9 X,Y pos of 4 corners*
0 Add a 4 corners polygon primitive as box body*
4,1,4,$2,$3,$4,$5,$6,$7,$8,$9,$2,$3,0*
0 Add four circle primitives for the rounded corners*
1,1,$1+$1,$2,$3*
1,1,$1+$1,$4,$5*
1,1,$1+$1,$6,$7*
1,1,$1+$1,$8,$9*
0 Add four rect primitives between the rounded corners*
20,1,$1+$1,$2,$3,$4,$5,0*
20,1,$1+$1,$4,$5,$6,$7,0*
20,1,$1+$1,$6,$7,$8,$9,0*
20,1,$1+$1,$8,$9,$2,$3,0*%
%AMFreePoly0*
4,1,37,0.603843,0.796157,0.639018,0.796157,0.711114,0.766294,0.766294,0.711114,0.796157,0.639018,0.796157,0.603843,0.800000,0.600000,0.800000,-0.600000,0.796157,-0.603843,0.796157,-0.639018,0.766294,-0.711114,0.711114,-0.766294,0.639018,-0.796157,0.603843,-0.796157,0.600000,-0.800000,0.000000,-0.800000,0.000000,-0.796148,-0.078414,-0.796148,-0.232228,-0.765552,-0.377117,-0.705537,
-0.507515,-0.618408,-0.618408,-0.507515,-0.705537,-0.377117,-0.765552,-0.232228,-0.796148,-0.078414,-0.796148,0.078414,-0.765552,0.232228,-0.705537,0.377117,-0.618408,0.507515,-0.507515,0.618408,-0.377117,0.705537,-0.232228,0.765552,-0.078414,0.796148,0.000000,0.796148,0.000000,0.800000,0.600000,0.800000,0.603843,0.796157,0.603843,0.796157,$1*%
%AMFreePoly1*
4,1,37,0.000000,0.796148,0.078414,0.796148,0.232228,0.765552,0.377117,0.705537,0.507515,0.618408,0.618408,0.507515,0.705537,0.377117,0.765552,0.232228,0.796148,0.078414,0.796148,-0.078414,0.765552,-0.232228,0.705537,-0.377117,0.618408,-0.507515,0.507515,-0.618408,0.377117,-0.705537,0.232228,-0.765552,0.078414,-0.796148,0.000000,-0.796148,0.000000,-0.800000,-0.600000,-0.800000,
-0.603843,-0.796157,-0.639018,-0.796157,-0.711114,-0.766294,-0.766294,-0.711114,-0.796157,-0.639018,-0.796157,-0.603843,-0.800000,-0.600000,-0.800000,0.600000,-0.796157,0.603843,-0.796157,0.639018,-0.766294,0.711114,-0.711114,0.766294,-0.639018,0.796157,-0.603843,0.796157,-0.600000,0.800000,0.000000,0.800000,0.000000,0.796148,0.000000,0.796148,$1*%
G04 Aperture macros list end*
%ADD10C,0.180000*%
%ADD11C,0.150000*%
%ADD12RoundRect,0.200000X-0.600000X0.600000X-0.600000X-0.600000X0.600000X-0.600000X0.600000X0.600000X0*%
%ADD13C,1.600000*%
%ADD14FreePoly0,270.000000*%
%ADD15FreePoly1,270.000000*%
%ADD16RoundRect,0.250000X-0.350000X-0.625000X0.350000X-0.625000X0.350000X0.625000X-0.350000X0.625000X0*%
%ADD17O,1.200000X1.750000*%
%ADD18C,2.700000*%
%ADD19R,1.900000X1.900000*%
%ADD20C,1.900000*%
%ADD21R,1.500000X1.500000*%
%ADD22C,1.500000*%
%ADD23RoundRect,0.249999X0.850001X-0.850001X0.850001X0.850001X-0.850001X0.850001X-0.850001X-0.850001X0*%
%ADD24C,2.200000*%
%ADD25C,3.200000*%
%ADD26C,2.780000*%
%ADD27RoundRect,0.250000X-0.550000X-0.550000X0.550000X-0.550000X0.550000X0.550000X-0.550000X0.550000X0*%
%ADD28RoundRect,0.250000X0.625000X-0.350000X0.625000X0.350000X-0.625000X0.350000X-0.625000X-0.350000X0*%
%ADD29O,1.750000X1.200000*%
%ADD30RoundRect,0.250000X0.550000X-0.550000X0.550000X0.550000X-0.550000X0.550000X-0.550000X-0.550000X0*%
%ADD31RoundRect,0.250001X-0.949999X-0.949999X0.949999X-0.949999X0.949999X0.949999X-0.949999X0.949999X0*%
%ADD32C,2.400000*%
G04 APERTURE END LIST*
D10*
X157142857Y-106045782D02*
X157714285Y-106045782D01*
X157714285Y-106045782D02*
X157714285Y-104845782D01*
X156228571Y-106045782D02*
X156228571Y-105417211D01*
X156228571Y-105417211D02*
X156285713Y-105302925D01*
X156285713Y-105302925D02*
X156399999Y-105245782D01*
X156399999Y-105245782D02*
X156628571Y-105245782D01*
X156628571Y-105245782D02*
X156742856Y-105302925D01*
X156228571Y-105988640D02*
X156342856Y-106045782D01*
X156342856Y-106045782D02*
X156628571Y-106045782D01*
X156628571Y-106045782D02*
X156742856Y-105988640D01*
X156742856Y-105988640D02*
X156799999Y-105874354D01*
X156799999Y-105874354D02*
X156799999Y-105760068D01*
X156799999Y-105760068D02*
X156742856Y-105645782D01*
X156742856Y-105645782D02*
X156628571Y-105588640D01*
X156628571Y-105588640D02*
X156342856Y-105588640D01*
X156342856Y-105588640D02*
X156228571Y-105531497D01*
X155657142Y-106045782D02*
X155657142Y-105245782D01*
X155657142Y-105360068D02*
X155599999Y-105302925D01*
X155599999Y-105302925D02*
X155485714Y-105245782D01*
X155485714Y-105245782D02*
X155314285Y-105245782D01*
X155314285Y-105245782D02*
X155199999Y-105302925D01*
X155199999Y-105302925D02*
X155142857Y-105417211D01*
X155142857Y-105417211D02*
X155142857Y-106045782D01*
X155142857Y-105417211D02*
X155085714Y-105302925D01*
X155085714Y-105302925D02*
X154971428Y-105245782D01*
X154971428Y-105245782D02*
X154799999Y-105245782D01*
X154799999Y-105245782D02*
X154685714Y-105302925D01*
X154685714Y-105302925D02*
X154628571Y-105417211D01*
X154628571Y-105417211D02*
X154628571Y-106045782D01*
X154057142Y-105245782D02*
X154057142Y-106445782D01*
X154057142Y-105302925D02*
X153942857Y-105245782D01*
X153942857Y-105245782D02*
X153714285Y-105245782D01*
X153714285Y-105245782D02*
X153599999Y-105302925D01*
X153599999Y-105302925D02*
X153542857Y-105360068D01*
X153542857Y-105360068D02*
X153485714Y-105474354D01*
X153485714Y-105474354D02*
X153485714Y-105817211D01*
X153485714Y-105817211D02*
X153542857Y-105931497D01*
X153542857Y-105931497D02*
X153599999Y-105988640D01*
X153599999Y-105988640D02*
X153714285Y-106045782D01*
X153714285Y-106045782D02*
X153942857Y-106045782D01*
X153942857Y-106045782D02*
X154057142Y-105988640D01*
X152457143Y-106045782D02*
X152457143Y-105417211D01*
X152457143Y-105417211D02*
X152514285Y-105302925D01*
X152514285Y-105302925D02*
X152628571Y-105245782D01*
X152628571Y-105245782D02*
X152857143Y-105245782D01*
X152857143Y-105245782D02*
X152971428Y-105302925D01*
X152457143Y-105988640D02*
X152571428Y-106045782D01*
X152571428Y-106045782D02*
X152857143Y-106045782D01*
X152857143Y-106045782D02*
X152971428Y-105988640D01*
X152971428Y-105988640D02*
X153028571Y-105874354D01*
X153028571Y-105874354D02*
X153028571Y-105760068D01*
X153028571Y-105760068D02*
X152971428Y-105645782D01*
X152971428Y-105645782D02*
X152857143Y-105588640D01*
X152857143Y-105588640D02*
X152571428Y-105588640D01*
X152571428Y-105588640D02*
X152457143Y-105531497D01*
X151885714Y-106045782D02*
X151885714Y-105245782D01*
X151885714Y-105474354D02*
X151828571Y-105360068D01*
X151828571Y-105360068D02*
X151771429Y-105302925D01*
X151771429Y-105302925D02*
X151657143Y-105245782D01*
X151657143Y-105245782D02*
X151542857Y-105245782D01*
X150628572Y-106045782D02*
X150628572Y-105417211D01*
X150628572Y-105417211D02*
X150685714Y-105302925D01*
X150685714Y-105302925D02*
X150800000Y-105245782D01*
X150800000Y-105245782D02*
X151028572Y-105245782D01*
X151028572Y-105245782D02*
X151142857Y-105302925D01*
X150628572Y-105988640D02*
X150742857Y-106045782D01*
X150742857Y-106045782D02*
X151028572Y-106045782D01*
X151028572Y-106045782D02*
X151142857Y-105988640D01*
X151142857Y-105988640D02*
X151200000Y-105874354D01*
X151200000Y-105874354D02*
X151200000Y-105760068D01*
X151200000Y-105760068D02*
X151142857Y-105645782D01*
X151142857Y-105645782D02*
X151028572Y-105588640D01*
X151028572Y-105588640D02*
X150742857Y-105588640D01*
X150742857Y-105588640D02*
X150628572Y-105531497D01*
X148628572Y-105245782D02*
X148628572Y-106045782D01*
X148914286Y-104788640D02*
X149200000Y-105645782D01*
X149200000Y-105645782D02*
X148457143Y-105645782D01*
X147314286Y-106045782D02*
X147714286Y-105474354D01*
X148000000Y-106045782D02*
X148000000Y-104845782D01*
X148000000Y-104845782D02*
X147542857Y-104845782D01*
X147542857Y-104845782D02*
X147428572Y-104902925D01*
X147428572Y-104902925D02*
X147371429Y-104960068D01*
X147371429Y-104960068D02*
X147314286Y-105074354D01*
X147314286Y-105074354D02*
X147314286Y-105245782D01*
X147314286Y-105245782D02*
X147371429Y-105360068D01*
X147371429Y-105360068D02*
X147428572Y-105417211D01*
X147428572Y-105417211D02*
X147542857Y-105474354D01*
X147542857Y-105474354D02*
X148000000Y-105474354D01*
X144285714Y-106045782D02*
X144685714Y-105474354D01*
X144971428Y-106045782D02*
X144971428Y-104845782D01*
X144971428Y-104845782D02*
X144514285Y-104845782D01*
X144514285Y-104845782D02*
X144400000Y-104902925D01*
X144400000Y-104902925D02*
X144342857Y-104960068D01*
X144342857Y-104960068D02*
X144285714Y-105074354D01*
X144285714Y-105074354D02*
X144285714Y-105245782D01*
X144285714Y-105245782D02*
X144342857Y-105360068D01*
X144342857Y-105360068D02*
X144400000Y-105417211D01*
X144400000Y-105417211D02*
X144514285Y-105474354D01*
X144514285Y-105474354D02*
X144971428Y-105474354D01*
X143314285Y-105988640D02*
X143428571Y-106045782D01*
X143428571Y-106045782D02*
X143657143Y-106045782D01*
X143657143Y-106045782D02*
X143771428Y-105988640D01*
X143771428Y-105988640D02*
X143828571Y-105874354D01*
X143828571Y-105874354D02*
X143828571Y-105417211D01*
X143828571Y-105417211D02*
X143771428Y-105302925D01*
X143771428Y-105302925D02*
X143657143Y-105245782D01*
X143657143Y-105245782D02*
X143428571Y-105245782D01*
X143428571Y-105245782D02*
X143314285Y-105302925D01*
X143314285Y-105302925D02*
X143257143Y-105417211D01*
X143257143Y-105417211D02*
X143257143Y-105531497D01*
X143257143Y-105531497D02*
X143828571Y-105645782D01*
X142857143Y-105245782D02*
X142571429Y-106045782D01*
X142571429Y-106045782D02*
X142285714Y-105245782D01*
X140514285Y-105417211D02*
X140342857Y-105474354D01*
X140342857Y-105474354D02*
X140285714Y-105531497D01*
X140285714Y-105531497D02*
X140228571Y-105645782D01*
X140228571Y-105645782D02*
X140228571Y-105817211D01*
X140228571Y-105817211D02*
X140285714Y-105931497D01*
X140285714Y-105931497D02*
X140342857Y-105988640D01*
X140342857Y-105988640D02*
X140457142Y-106045782D01*
X140457142Y-106045782D02*
X140914285Y-106045782D01*
X140914285Y-106045782D02*
X140914285Y-104845782D01*
X140914285Y-104845782D02*
X140514285Y-104845782D01*
X140514285Y-104845782D02*
X140400000Y-104902925D01*
X140400000Y-104902925D02*
X140342857Y-104960068D01*
X140342857Y-104960068D02*
X140285714Y-105074354D01*
X140285714Y-105074354D02*
X140285714Y-105188640D01*
X140285714Y-105188640D02*
X140342857Y-105302925D01*
X140342857Y-105302925D02*
X140400000Y-105360068D01*
X140400000Y-105360068D02*
X140514285Y-105417211D01*
X140514285Y-105417211D02*
X140914285Y-105417211D01*
D11*
X154809524Y-107588152D02*
X154809524Y-108588152D01*
X154809524Y-107635771D02*
X154714286Y-107588152D01*
X154714286Y-107588152D02*
X154523810Y-107588152D01*
X154523810Y-107588152D02*
X154428572Y-107635771D01*
X154428572Y-107635771D02*
X154380953Y-107683390D01*
X154380953Y-107683390D02*
X154333334Y-107778628D01*
X154333334Y-107778628D02*
X154333334Y-108064342D01*
X154333334Y-108064342D02*
X154380953Y-108159580D01*
X154380953Y-108159580D02*
X154428572Y-108207200D01*
X154428572Y-108207200D02*
X154523810Y-108254819D01*
X154523810Y-108254819D02*
X154714286Y-108254819D01*
X154714286Y-108254819D02*
X154809524Y-108207200D01*
X153761905Y-108254819D02*
X153857143Y-108207200D01*
X153857143Y-108207200D02*
X153904762Y-108111961D01*
X153904762Y-108111961D02*
X153904762Y-107254819D01*
X152952381Y-108254819D02*
X152952381Y-107731009D01*
X152952381Y-107731009D02*
X153000000Y-107635771D01*
X153000000Y-107635771D02*
X153095238Y-107588152D01*
X153095238Y-107588152D02*
X153285714Y-107588152D01*
X153285714Y-107588152D02*
X153380952Y-107635771D01*
X152952381Y-108207200D02*
X153047619Y-108254819D01*
X153047619Y-108254819D02*
X153285714Y-108254819D01*
X153285714Y-108254819D02*
X153380952Y-108207200D01*
X153380952Y-108207200D02*
X153428571Y-108111961D01*
X153428571Y-108111961D02*
X153428571Y-108016723D01*
X153428571Y-108016723D02*
X153380952Y-107921485D01*
X153380952Y-107921485D02*
X153285714Y-107873866D01*
X153285714Y-107873866D02*
X153047619Y-107873866D01*
X153047619Y-107873866D02*
X152952381Y-107826247D01*
X152047619Y-108207200D02*
X152142857Y-108254819D01*
X152142857Y-108254819D02*
X152333333Y-108254819D01*
X152333333Y-108254819D02*
X152428571Y-108207200D01*
X152428571Y-108207200D02*
X152476190Y-108159580D01*
X152476190Y-108159580D02*
X152523809Y-108064342D01*
X152523809Y-108064342D02*
X152523809Y-107778628D01*
X152523809Y-107778628D02*
X152476190Y-107683390D01*
X152476190Y-107683390D02*
X152428571Y-107635771D01*
X152428571Y-107635771D02*
X152333333Y-107588152D01*
X152333333Y-107588152D02*
X152142857Y-107588152D01*
X152142857Y-107588152D02*
X152047619Y-107635771D01*
X151190476Y-108254819D02*
X151190476Y-107731009D01*
X151190476Y-107731009D02*
X151238095Y-107635771D01*
X151238095Y-107635771D02*
X151333333Y-107588152D01*
X151333333Y-107588152D02*
X151523809Y-107588152D01*
X151523809Y-107588152D02*
X151619047Y-107635771D01*
X151190476Y-108207200D02*
X151285714Y-108254819D01*
X151285714Y-108254819D02*
X151523809Y-108254819D01*
X151523809Y-108254819D02*
X151619047Y-108207200D01*
X151619047Y-108207200D02*
X151666666Y-108111961D01*
X151666666Y-108111961D02*
X151666666Y-108016723D01*
X151666666Y-108016723D02*
X151619047Y-107921485D01*
X151619047Y-107921485D02*
X151523809Y-107873866D01*
X151523809Y-107873866D02*
X151285714Y-107873866D01*
X151285714Y-107873866D02*
X151190476Y-107826247D01*
X149952380Y-107588152D02*
X149952380Y-108588152D01*
X149952380Y-107635771D02*
X149857142Y-107588152D01*
X149857142Y-107588152D02*
X149666666Y-107588152D01*
X149666666Y-107588152D02*
X149571428Y-107635771D01*
X149571428Y-107635771D02*
X149523809Y-107683390D01*
X149523809Y-107683390D02*
X149476190Y-107778628D01*
X149476190Y-107778628D02*
X149476190Y-108064342D01*
X149476190Y-108064342D02*
X149523809Y-108159580D01*
X149523809Y-108159580D02*
X149571428Y-108207200D01*
X149571428Y-108207200D02*
X149666666Y-108254819D01*
X149666666Y-108254819D02*
X149857142Y-108254819D01*
X149857142Y-108254819D02*
X149952380Y-108207200D01*
X148904761Y-108254819D02*
X148999999Y-108207200D01*
X148999999Y-108207200D02*
X149047618Y-108159580D01*
X149047618Y-108159580D02*
X149095237Y-108064342D01*
X149095237Y-108064342D02*
X149095237Y-107778628D01*
X149095237Y-107778628D02*
X149047618Y-107683390D01*
X149047618Y-107683390D02*
X148999999Y-107635771D01*
X148999999Y-107635771D02*
X148904761Y-107588152D01*
X148904761Y-107588152D02*
X148761904Y-107588152D01*
X148761904Y-107588152D02*
X148666666Y-107635771D01*
X148666666Y-107635771D02*
X148619047Y-107683390D01*
X148619047Y-107683390D02*
X148571428Y-107778628D01*
X148571428Y-107778628D02*
X148571428Y-108064342D01*
X148571428Y-108064342D02*
X148619047Y-108159580D01*
X148619047Y-108159580D02*
X148666666Y-108207200D01*
X148666666Y-108207200D02*
X148761904Y-108254819D01*
X148761904Y-108254819D02*
X148904761Y-108254819D01*
X148142856Y-108254819D02*
X148142856Y-107588152D01*
X148142856Y-107778628D02*
X148095237Y-107683390D01*
X148095237Y-107683390D02*
X148047618Y-107635771D01*
X148047618Y-107635771D02*
X147952380Y-107588152D01*
X147952380Y-107588152D02*
X147857142Y-107588152D01*
X147666665Y-107588152D02*
X147285713Y-107588152D01*
X147523808Y-107254819D02*
X147523808Y-108111961D01*
X147523808Y-108111961D02*
X147476189Y-108207200D01*
X147476189Y-108207200D02*
X147380951Y-108254819D01*
X147380951Y-108254819D02*
X147285713Y-108254819D01*
X146523808Y-108254819D02*
X146523808Y-107731009D01*
X146523808Y-107731009D02*
X146571427Y-107635771D01*
X146571427Y-107635771D02*
X146666665Y-107588152D01*
X146666665Y-107588152D02*
X146857141Y-107588152D01*
X146857141Y-107588152D02*
X146952379Y-107635771D01*
X146523808Y-108207200D02*
X146619046Y-108254819D01*
X146619046Y-108254819D02*
X146857141Y-108254819D01*
X146857141Y-108254819D02*
X146952379Y-108207200D01*
X146952379Y-108207200D02*
X146999998Y-108111961D01*
X146999998Y-108111961D02*
X146999998Y-108016723D01*
X146999998Y-108016723D02*
X146952379Y-107921485D01*
X146952379Y-107921485D02*
X146857141Y-107873866D01*
X146857141Y-107873866D02*
X146619046Y-107873866D01*
X146619046Y-107873866D02*
X146523808Y-107826247D01*
X145619046Y-108254819D02*
X145619046Y-107254819D01*
X145619046Y-108207200D02*
X145714284Y-108254819D01*
X145714284Y-108254819D02*
X145904760Y-108254819D01*
X145904760Y-108254819D02*
X145999998Y-108207200D01*
X145999998Y-108207200D02*
X146047617Y-108159580D01*
X146047617Y-108159580D02*
X146095236Y-108064342D01*
X146095236Y-108064342D02*
X146095236Y-107778628D01*
X146095236Y-107778628D02*
X146047617Y-107683390D01*
X146047617Y-107683390D02*
X145999998Y-107635771D01*
X145999998Y-107635771D02*
X145904760Y-107588152D01*
X145904760Y-107588152D02*
X145714284Y-107588152D01*
X145714284Y-107588152D02*
X145619046Y-107635771D01*
X144999998Y-108254819D02*
X145095236Y-108207200D01*
X145095236Y-108207200D02*
X145142855Y-108159580D01*
X145142855Y-108159580D02*
X145190474Y-108064342D01*
X145190474Y-108064342D02*
X145190474Y-107778628D01*
X145190474Y-107778628D02*
X145142855Y-107683390D01*
X145142855Y-107683390D02*
X145095236Y-107635771D01*
X145095236Y-107635771D02*
X144999998Y-107588152D01*
X144999998Y-107588152D02*
X144857141Y-107588152D01*
X144857141Y-107588152D02*
X144761903Y-107635771D01*
X144761903Y-107635771D02*
X144714284Y-107683390D01*
X144714284Y-107683390D02*
X144666665Y-107778628D01*
X144666665Y-107778628D02*
X144666665Y-108064342D01*
X144666665Y-108064342D02*
X144714284Y-108159580D01*
X144714284Y-108159580D02*
X144761903Y-108207200D01*
X144761903Y-108207200D02*
X144857141Y-108254819D01*
X144857141Y-108254819D02*
X144999998Y-108254819D01*
X144238093Y-108254819D02*
X144238093Y-107588152D01*
X144238093Y-107778628D02*
X144190474Y-107683390D01*
X144190474Y-107683390D02*
X144142855Y-107635771D01*
X144142855Y-107635771D02*
X144047617Y-107588152D01*
X144047617Y-107588152D02*
X143952379Y-107588152D01*
X143190474Y-108254819D02*
X143190474Y-107731009D01*
X143190474Y-107731009D02*
X143238093Y-107635771D01*
X143238093Y-107635771D02*
X143333331Y-107588152D01*
X143333331Y-107588152D02*
X143523807Y-107588152D01*
X143523807Y-107588152D02*
X143619045Y-107635771D01*
X143190474Y-108207200D02*
X143285712Y-108254819D01*
X143285712Y-108254819D02*
X143523807Y-108254819D01*
X143523807Y-108254819D02*
X143619045Y-108207200D01*
X143619045Y-108207200D02*
X143666664Y-108111961D01*
X143666664Y-108111961D02*
X143666664Y-108016723D01*
X143666664Y-108016723D02*
X143619045Y-107921485D01*
X143619045Y-107921485D02*
X143523807Y-107873866D01*
X143523807Y-107873866D02*
X143285712Y-107873866D01*
X143285712Y-107873866D02*
X143190474Y-107826247D01*
X156952380Y-110454819D02*
X156952380Y-109454819D01*
X156952380Y-109454819D02*
X156619047Y-110169104D01*
X156619047Y-110169104D02*
X156285714Y-109454819D01*
X156285714Y-109454819D02*
X156285714Y-110454819D01*
X155952380Y-109454819D02*
X155380952Y-109454819D01*
X155666666Y-110454819D02*
X155666666Y-109454819D01*
X154571428Y-109454819D02*
X155047618Y-109454819D01*
X155047618Y-109454819D02*
X155095237Y-109931009D01*
X155095237Y-109931009D02*
X155047618Y-109883390D01*
X155047618Y-109883390D02*
X154952380Y-109835771D01*
X154952380Y-109835771D02*
X154714285Y-109835771D01*
X154714285Y-109835771D02*
X154619047Y-109883390D01*
X154619047Y-109883390D02*
X154571428Y-109931009D01*
X154571428Y-109931009D02*
X154523809Y-110026247D01*
X154523809Y-110026247D02*
X154523809Y-110264342D01*
X154523809Y-110264342D02*
X154571428Y-110359580D01*
X154571428Y-110359580D02*
X154619047Y-110407200D01*
X154619047Y-110407200D02*
X154714285Y-110454819D01*
X154714285Y-110454819D02*
X154952380Y-110454819D01*
X154952380Y-110454819D02*
X155047618Y-110407200D01*
X155047618Y-110407200D02*
X155095237Y-110359580D01*
X153571428Y-110454819D02*
X154142856Y-110454819D01*
X153857142Y-110454819D02*
X153857142Y-109454819D01*
X153857142Y-109454819D02*
X153952380Y-109597676D01*
X153952380Y-109597676D02*
X154047618Y-109692914D01*
X154047618Y-109692914D02*
X154142856Y-109740533D01*
X153238094Y-109454819D02*
X152571428Y-109454819D01*
X152571428Y-109454819D02*
X152999999Y-110454819D01*
X151428570Y-109454819D02*
X151428570Y-110264342D01*
X151428570Y-110264342D02*
X151380951Y-110359580D01*
X151380951Y-110359580D02*
X151333332Y-110407200D01*
X151333332Y-110407200D02*
X151238094Y-110454819D01*
X151238094Y-110454819D02*
X151047618Y-110454819D01*
X151047618Y-110454819D02*
X150952380Y-110407200D01*
X150952380Y-110407200D02*
X150904761Y-110359580D01*
X150904761Y-110359580D02*
X150857142Y-110264342D01*
X150857142Y-110264342D02*
X150857142Y-109454819D01*
X150380951Y-110454819D02*
X150380951Y-109454819D01*
X150380951Y-109454819D02*
X149809523Y-110454819D01*
X149809523Y-110454819D02*
X149809523Y-109454819D01*
X149333332Y-110454819D02*
X149333332Y-109454819D01*
X148857142Y-110073866D02*
X148095238Y-110073866D01*
X147285714Y-109931009D02*
X147619047Y-109931009D01*
X147619047Y-110454819D02*
X147619047Y-109454819D01*
X147619047Y-109454819D02*
X147142857Y-109454819D01*
X146761904Y-110454819D02*
X146761904Y-109454819D01*
X146285714Y-110454819D02*
X146285714Y-109454819D01*
X146285714Y-109454819D02*
X145952381Y-110169104D01*
X145952381Y-110169104D02*
X145619048Y-109454819D01*
X145619048Y-109454819D02*
X145619048Y-110454819D01*
X144428571Y-109550057D02*
X144380952Y-109502438D01*
X144380952Y-109502438D02*
X144285714Y-109454819D01*
X144285714Y-109454819D02*
X144047619Y-109454819D01*
X144047619Y-109454819D02*
X143952381Y-109502438D01*
X143952381Y-109502438D02*
X143904762Y-109550057D01*
X143904762Y-109550057D02*
X143857143Y-109645295D01*
X143857143Y-109645295D02*
X143857143Y-109740533D01*
X143857143Y-109740533D02*
X143904762Y-109883390D01*
X143904762Y-109883390D02*
X144476190Y-110454819D01*
X144476190Y-110454819D02*
X143857143Y-110454819D01*
X143238095Y-109454819D02*
X143142857Y-109454819D01*
X143142857Y-109454819D02*
X143047619Y-109502438D01*
X143047619Y-109502438D02*
X143000000Y-109550057D01*
X143000000Y-109550057D02*
X142952381Y-109645295D01*
X142952381Y-109645295D02*
X142904762Y-109835771D01*
X142904762Y-109835771D02*
X142904762Y-110073866D01*
X142904762Y-110073866D02*
X142952381Y-110264342D01*
X142952381Y-110264342D02*
X143000000Y-110359580D01*
X143000000Y-110359580D02*
X143047619Y-110407200D01*
X143047619Y-110407200D02*
X143142857Y-110454819D01*
X143142857Y-110454819D02*
X143238095Y-110454819D01*
X143238095Y-110454819D02*
X143333333Y-110407200D01*
X143333333Y-110407200D02*
X143380952Y-110359580D01*
X143380952Y-110359580D02*
X143428571Y-110264342D01*
X143428571Y-110264342D02*
X143476190Y-110073866D01*
X143476190Y-110073866D02*
X143476190Y-109835771D01*
X143476190Y-109835771D02*
X143428571Y-109645295D01*
X143428571Y-109645295D02*
X143380952Y-109550057D01*
X143380952Y-109550057D02*
X143333333Y-109502438D01*
X143333333Y-109502438D02*
X143238095Y-109454819D01*
X142523809Y-109550057D02*
X142476190Y-109502438D01*
X142476190Y-109502438D02*
X142380952Y-109454819D01*
X142380952Y-109454819D02*
X142142857Y-109454819D01*
X142142857Y-109454819D02*
X142047619Y-109502438D01*
X142047619Y-109502438D02*
X142000000Y-109550057D01*
X142000000Y-109550057D02*
X141952381Y-109645295D01*
X141952381Y-109645295D02*
X141952381Y-109740533D01*
X141952381Y-109740533D02*
X142000000Y-109883390D01*
X142000000Y-109883390D02*
X142571428Y-110454819D01*
X142571428Y-110454819D02*
X141952381Y-110454819D01*
X141095238Y-109454819D02*
X141285714Y-109454819D01*
X141285714Y-109454819D02*
X141380952Y-109502438D01*
X141380952Y-109502438D02*
X141428571Y-109550057D01*
X141428571Y-109550057D02*
X141523809Y-109692914D01*
X141523809Y-109692914D02*
X141571428Y-109883390D01*
X141571428Y-109883390D02*
X141571428Y-110264342D01*
X141571428Y-110264342D02*
X141523809Y-110359580D01*
X141523809Y-110359580D02*
X141476190Y-110407200D01*
X141476190Y-110407200D02*
X141380952Y-110454819D01*
X141380952Y-110454819D02*
X141190476Y-110454819D01*
X141190476Y-110454819D02*
X141095238Y-110407200D01*
X141095238Y-110407200D02*
X141047619Y-110359580D01*
X141047619Y-110359580D02*
X141000000Y-110264342D01*
X141000000Y-110264342D02*
X141000000Y-110026247D01*
X141000000Y-110026247D02*
X141047619Y-109931009D01*
X141047619Y-109931009D02*
X141095238Y-109883390D01*
X141095238Y-109883390D02*
X141190476Y-109835771D01*
X141190476Y-109835771D02*
X141380952Y-109835771D01*
X141380952Y-109835771D02*
X141476190Y-109883390D01*
X141476190Y-109883390D02*
X141523809Y-109931009D01*
X141523809Y-109931009D02*
X141571428Y-110026247D01*
%LPC*%
D12*
%TO.C,A1*%
X118755000Y-105110000D03*
D13*
X116215000Y-105110000D03*
D14*
X113675000Y-105110000D03*
D13*
X111135000Y-105110000D03*
X108595000Y-105110000D03*
X106055000Y-105110000D03*
X103515000Y-105110000D03*
D14*
X100975000Y-105110000D03*
D13*
X98435000Y-105110000D03*
X95895000Y-105110000D03*
X93355000Y-105110000D03*
X90815000Y-105110000D03*
D14*
X88275000Y-105110000D03*
D13*
X85735000Y-105110000D03*
X83195000Y-105110000D03*
X80655000Y-105110000D03*
X78115000Y-105110000D03*
D14*
X75575000Y-105110000D03*
D13*
X73035000Y-105110000D03*
X70495000Y-105110000D03*
X70495000Y-122890000D03*
X73035000Y-122890000D03*
D15*
X75575000Y-122890000D03*
D13*
X78115000Y-122890000D03*
X80655000Y-122890000D03*
X83195000Y-122890000D03*
X85735000Y-122890000D03*
D15*
X88275000Y-122890000D03*
D13*
X90815000Y-122890000D03*
X93355000Y-122890000D03*
X95895000Y-122890000D03*
X98435000Y-122890000D03*
D15*
X100975000Y-122890000D03*
D13*
X103515000Y-122890000D03*
X106055000Y-122890000D03*
X108595000Y-122890000D03*
X111135000Y-122890000D03*
D15*
X113675000Y-122890000D03*
D13*
X116215000Y-122890000D03*
X118755000Y-122890000D03*
%TD*%
D16*
%TO.C,J10*%
X88000000Y-141450000D03*
D17*
X90000000Y-141450000D03*
%TD*%
D16*
%TO.C,J1*%
X119200000Y-69000000D03*
D17*
X121200000Y-69000000D03*
X123200000Y-69000000D03*
X125200000Y-69000000D03*
X127200000Y-69000000D03*
X129200000Y-69000000D03*
%TD*%
D13*
%TO.C,R2*%
X95455000Y-136000000D03*
X97995000Y-136000000D03*
%TD*%
D16*
%TO.C,J11*%
X86500000Y-130450000D03*
D17*
X88500000Y-130450000D03*
X90500000Y-130450000D03*
X92500000Y-130450000D03*
X94500000Y-130450000D03*
X96500000Y-130450000D03*
%TD*%
D18*
%TO.C,U2*%
X139630001Y-96475000D03*
X154870000Y-96475000D03*
D19*
X151060000Y-96475000D03*
D20*
X148520000Y-96475000D03*
X145980001Y-96475000D03*
X143440000Y-96475000D03*
X141132000Y-78695000D03*
X144632001Y-78695000D03*
X149768000Y-78695000D03*
X153268000Y-78695000D03*
%TD*%
D21*
%TO.C,Q1*%
X93960000Y-142360000D03*
D22*
X96500000Y-142360000D03*
X99040000Y-142360000D03*
%TD*%
D23*
%TO.C,D1*%
X102500000Y-139215000D03*
D24*
X102500000Y-134135000D03*
%TD*%
D18*
%TO.C,U1*%
X116630001Y-96475000D03*
X131870000Y-96475000D03*
D19*
X128060000Y-96475000D03*
D20*
X125520000Y-96475000D03*
X122980001Y-96475000D03*
X120440000Y-96475000D03*
X118132000Y-78695000D03*
X121632001Y-78695000D03*
X126768000Y-78695000D03*
X130268000Y-78695000D03*
%TD*%
D16*
%TO.C,J9*%
X64500000Y-130450000D03*
D17*
X66500000Y-130450000D03*
X68500000Y-130450000D03*
%TD*%
D25*
%TO.C,H1*%
X102998736Y-129100000D03*
%TD*%
D26*
%TO.C,F1*%
X220300000Y-124960000D03*
X223700000Y-124960000D03*
X220300000Y-115040000D03*
X223700000Y-115040000D03*
%TD*%
D25*
%TO.C,H4*%
X228498736Y-106500000D03*
%TD*%
D13*
%TO.C,C2*%
X79250000Y-131000000D03*
X81750000Y-131000000D03*
%TD*%
D25*
%TO.C,H2*%
X197998736Y-114000000D03*
%TD*%
D27*
%TO.C,C1*%
X210251240Y-110000000D03*
D13*
X213751240Y-110000000D03*
%TD*%
D25*
%TO.C,H5*%
X84998736Y-88000000D03*
%TD*%
D28*
%TO.C,J4*%
X206750000Y-95500000D03*
D29*
X206750000Y-93500000D03*
X206750000Y-91500000D03*
X206750000Y-89500000D03*
X206750000Y-87500000D03*
X206750000Y-85500000D03*
%TD*%
D25*
%TO.C,H3*%
X158698736Y-69000000D03*
%TD*%
D30*
%TO.C,U5*%
X66380000Y-143805000D03*
D13*
X68920000Y-143805000D03*
X71460000Y-143805000D03*
X74000000Y-143805000D03*
X76540000Y-143805000D03*
X79080000Y-143805000D03*
X81620000Y-143805000D03*
X81620000Y-136185000D03*
X79080000Y-136185000D03*
X76540000Y-136185000D03*
X74000000Y-136185000D03*
X71460000Y-136185000D03*
X68920000Y-136185000D03*
X66380000Y-136185000D03*
%TD*%
D18*
%TO.C,U3*%
X162630001Y-96475000D03*
X177870000Y-96475000D03*
D19*
X174060000Y-96475000D03*
D20*
X171520000Y-96475000D03*
X168980001Y-96475000D03*
X166440000Y-96475000D03*
X164132000Y-78695000D03*
X167632001Y-78695000D03*
X172768000Y-78695000D03*
X176268000Y-78695000D03*
%TD*%
D31*
%TO.C,J8*%
X109250000Y-129800000D03*
D32*
X112750000Y-129800000D03*
%TD*%
D16*
%TO.C,J2*%
X142200000Y-69000000D03*
D17*
X144200000Y-69000000D03*
X146200000Y-69000000D03*
X148200000Y-69000000D03*
X150200000Y-69000000D03*
X152200000Y-69000000D03*
%TD*%
D18*
%TO.C,U4*%
X185630001Y-96475000D03*
X200870000Y-96475000D03*
D19*
X197060000Y-96475000D03*
D20*
X194520000Y-96475000D03*
X191980001Y-96475000D03*
X189440000Y-96475000D03*
X187132000Y-78695000D03*
X190632001Y-78695000D03*
X195768000Y-78695000D03*
X199268000Y-78695000D03*
%TD*%
D31*
%TO.C,J6*%
X186250000Y-122800000D03*
D32*
X189750000Y-122800000D03*
%TD*%
D16*
%TO.C,J3*%
X165200000Y-69000000D03*
D17*
X167200000Y-69000000D03*
X169200000Y-69000000D03*
X171200000Y-69000000D03*
X173200000Y-69000000D03*
X175200000Y-69000000D03*
%TD*%
D31*
%TO.C,J7*%
X197250000Y-122800000D03*
D32*
X200750000Y-122800000D03*
%TD*%
D13*
%TO.C,R3*%
X101955000Y-142800000D03*
X104495000Y-142800000D03*
%TD*%
%TO.C,R1*%
X72955000Y-131000000D03*
X75495000Y-131000000D03*
%TD*%
D31*
%TO.C,J5*%
X210250000Y-122800000D03*
D32*
X213750000Y-122800000D03*
%TD*%
%LPD*%
M02*
