%TF.GenerationSoftware,KiCad,Pcbnew,9.0.3+dfsg-1*%
%TF.CreationDate,2026-10-04T13:47:33-05:00*%
%TF.ProjectId,Lampara_4R,4c616d70-6172-4615-9f34-522e6b696361,rev?*%
%TF.SameCoordinates,Original*%
%TF.FileFunction,Drillmap*%
%TF.FilePolarity,Positive*%
%FSLAX45Y45*%
G04 Gerber Fmt 4.5, Leading zero omitted, Abs format (unit mm)*
G04 Created by KiCad (PCBNEW 9.0.3+dfsg-1) date 2026-10-04 13:47:33*
%MOMM*%
%LPD*%
G01*
G04 APERTURE LIST*
%ADD10C,0.100000*%
%ADD11C,0.200000*%
%ADD12C,0.110000*%
%ADD13C,0.120000*%
%ADD14C,0.178000*%
G04 APERTURE END LIST*
D10*
X11476493Y-6177591D02*
X11323058Y-6240428D01*
X22301786Y-8922672D02*
X22194610Y-8796164D01*
X6552755Y-10653272D02*
X6478180Y-10801358D01*
X20047262Y-7323593D02*
X19602249Y-7307898D01*
X15535130Y-5515084D02*
X15369514Y-5507189D01*
X12150000Y-13100000D02*
X12350000Y-12800000D01*
X6629902Y-10506509D02*
X6552755Y-10653272D01*
X20480056Y-7239910D02*
X20353344Y-7156007D01*
X14872192Y-5500860D02*
X14706429Y-5504537D01*
X24226927Y-12738626D02*
X24186056Y-12577938D01*
X23555131Y-10869656D02*
X23481743Y-10720978D01*
X10883160Y-6441958D02*
X10892430Y-6493711D01*
X18439939Y-6144673D02*
X18284868Y-6085986D01*
X11786538Y-6059997D02*
X11631002Y-6117441D01*
X21384925Y-7965604D02*
X21261186Y-7855243D01*
X12100497Y-5953294D02*
X11943052Y-6005276D01*
X8922672Y-7698214D02*
X8796164Y-7805390D01*
X6709599Y-10361115D02*
X6629902Y-10506509D01*
X23625912Y-11019593D02*
X23555131Y-10869656D01*
X9716159Y-7211786D02*
X9662114Y-7169620D01*
X23246173Y-10282942D02*
X23162593Y-10139745D01*
X12850000Y-12100000D02*
X12850000Y-10150000D01*
X9582191Y-7196325D02*
X9446823Y-7292067D01*
X16849967Y-5681866D02*
X16687062Y-5650999D01*
X11323058Y-6240428D02*
X11170742Y-6305934D01*
X7641083Y-8991977D02*
X7537349Y-9121323D01*
X7239910Y-9519944D02*
X7145452Y-9656211D01*
X10117633Y-7349301D02*
X9831084Y-7278817D01*
X12417988Y-5857614D02*
X12258825Y-5904069D01*
X23162593Y-10139745D02*
X23076526Y-9998028D01*
X7336732Y-9385347D02*
X7239910Y-9519944D01*
X13879962Y-5566257D02*
X13715491Y-5587241D01*
X7435889Y-9252459D02*
X7336732Y-9385347D01*
X20747541Y-7435889D02*
X20614653Y-7336732D01*
X22609842Y-9313147D02*
X22509434Y-9181203D01*
X14706429Y-5504537D02*
X14540755Y-5511107D01*
X19112782Y-6462123D02*
X19049276Y-6406202D01*
X11019593Y-6374088D02*
X10883160Y-6441958D01*
X24265000Y-12900000D02*
X24226927Y-12738626D01*
X24095931Y-12258825D02*
X24046705Y-12100497D01*
X20614653Y-7336732D02*
X20480056Y-7239910D01*
X10640408Y-7167451D02*
X10117633Y-7349301D01*
X22988000Y-9857835D02*
X22897040Y-9719209D01*
X8796164Y-7805390D02*
X8671545Y-7914757D01*
X12258825Y-5904069D02*
X12100497Y-5953294D01*
X16195461Y-5575517D02*
X16030799Y-5556089D01*
X9662114Y-7169620D02*
X9582191Y-7196325D01*
X23405772Y-10573603D02*
X23327241Y-10427576D01*
X14209877Y-5532915D02*
X14044774Y-5548146D01*
X17813843Y-5926286D02*
X17655056Y-5878559D01*
X9051031Y-7593262D02*
X8922672Y-7698214D01*
X21506720Y-8078107D02*
X21384925Y-7965604D01*
X13650000Y-11500000D02*
X16100000Y-11500000D01*
X6478180Y-10801358D02*
X6406202Y-10950724D01*
X15369514Y-5507189D02*
X15203785Y-5502186D01*
X24186056Y-12577938D02*
X24142386Y-12417988D01*
X19184355Y-6945566D02*
X19102624Y-6662686D01*
X16523642Y-5622979D02*
X16359758Y-5597816D01*
X15700583Y-5525868D02*
X15535130Y-5515084D01*
X13650000Y-10150000D02*
X13650000Y-11500000D01*
X21626533Y-8192720D02*
X21506720Y-8078107D01*
X23994724Y-11943052D02*
X23940003Y-11786538D01*
X20353344Y-7156007D02*
X20313094Y-7189952D01*
X22707932Y-9446823D02*
X22609842Y-9313147D01*
X23759572Y-11323058D02*
X23694066Y-11170742D01*
X6406202Y-10950724D02*
X6336841Y-11101323D01*
X17450000Y-12600000D02*
X17650000Y-12800000D01*
X6270119Y-11253110D02*
X6206057Y-11406038D01*
X9313147Y-7390158D02*
X9181203Y-7490566D01*
X18128797Y-6030015D02*
X17971773Y-5976776D01*
X11950000Y-13400000D02*
X12150000Y-13100000D01*
X23822409Y-11476493D02*
X23759572Y-11323058D01*
X17655056Y-5878559D02*
X17495461Y-5833612D01*
X8309405Y-8255673D02*
X8192720Y-8373467D01*
X19602249Y-7307898D02*
X19184355Y-6945566D01*
X17495461Y-5833612D02*
X17335105Y-5791456D01*
X23327241Y-10427576D02*
X23246173Y-10282942D01*
X11550000Y-14000000D02*
X11750000Y-13700000D01*
X7145452Y-9656211D02*
X7053386Y-9794106D01*
X8548855Y-8026283D02*
X8428129Y-8139933D01*
X15865823Y-5539537D02*
X15700583Y-5525868D01*
X9181203Y-7490566D02*
X9051031Y-7593262D01*
X21008023Y-7641083D02*
X20878677Y-7537349D01*
X24142386Y-12417988D02*
X24095931Y-12258825D01*
X20878677Y-7537349D02*
X20747541Y-7435889D01*
X13551411Y-5611092D02*
X13387773Y-5637803D01*
X9446823Y-7292067D02*
X9313147Y-7390158D01*
X8192720Y-8373467D02*
X8078107Y-8493280D01*
X8671545Y-7914757D02*
X8548855Y-8026283D01*
X6791822Y-10217134D02*
X6709599Y-10361115D01*
X22406738Y-9051031D02*
X22301786Y-8922672D01*
X12738626Y-5773073D02*
X12577938Y-5813944D01*
X9831084Y-7278817D02*
X9716159Y-7211786D01*
X12577938Y-5813944D02*
X12417988Y-5857614D01*
X7855243Y-8738814D02*
X7747058Y-8864461D01*
X11631002Y-6117441D02*
X11476493Y-6177591D01*
X7053386Y-9794106D02*
X6963741Y-9933586D01*
X6963741Y-9933586D02*
X6876544Y-10074610D01*
X14540755Y-5511107D02*
X14375220Y-5520567D01*
X17174038Y-5752105D02*
X17012309Y-5715571D01*
X6206057Y-11406038D02*
X6200000Y-11420894D01*
X22803675Y-9582191D02*
X22707932Y-9446823D01*
X17335105Y-5791456D02*
X17174038Y-5752105D01*
X19103283Y-6529901D02*
X19112782Y-6462123D01*
X17971773Y-5976776D02*
X17813843Y-5926286D01*
X7537349Y-9121323D02*
X7435889Y-9252459D01*
X16030799Y-5556089D02*
X15865823Y-5539537D01*
X23481743Y-10720978D02*
X23405772Y-10573603D01*
X7965604Y-8615075D02*
X7855243Y-8738814D01*
X6336841Y-11101323D02*
X6270119Y-11253110D01*
X17650000Y-12800000D02*
X17750000Y-12900000D01*
X22194610Y-8796164D02*
X22085243Y-8671545D01*
X13387773Y-5637803D02*
X13224625Y-5667367D01*
X23694066Y-11170742D02*
X23625912Y-11019593D01*
X6200000Y-11420894D02*
X6200000Y-14600000D01*
X15037994Y-5500076D02*
X14872192Y-5500860D01*
X13715491Y-5587241D02*
X13551411Y-5611092D01*
X20233483Y-7244547D02*
X20047262Y-7323593D01*
X22085243Y-8671545D02*
X21973717Y-8548855D01*
X21973717Y-8548855D02*
X21860067Y-8428129D01*
X19049276Y-6406202D02*
X18898677Y-6336841D01*
X11750000Y-13700000D02*
X11950000Y-13400000D01*
X21261186Y-7855243D02*
X21135539Y-7747058D01*
X11943052Y-6005276D02*
X11786538Y-6059997D01*
X12550000Y-12550000D02*
X12750000Y-12300000D01*
X17012309Y-5715571D02*
X16849967Y-5681866D01*
X23882559Y-11631002D02*
X23822409Y-11476493D01*
X16359758Y-5597816D02*
X16195461Y-5575517D01*
X16100000Y-11500000D02*
X16550000Y-12000000D01*
X19102624Y-6662686D02*
X19103283Y-6529901D01*
X11170742Y-6305934D02*
X11019593Y-6374088D01*
X24046705Y-12100497D02*
X23994724Y-11943052D01*
X10875490Y-6790168D02*
X10640408Y-7167451D01*
X16950000Y-12200000D02*
X17250000Y-12400000D01*
X6200000Y-14600000D02*
X11450000Y-14600000D01*
X18284868Y-6085986D02*
X18128797Y-6030015D01*
X22509434Y-9181203D02*
X22406738Y-9051031D01*
X16687062Y-5650999D02*
X16523642Y-5622979D01*
X17750000Y-12900000D02*
X24265000Y-12900000D01*
X23076526Y-9998028D02*
X22988000Y-9857835D01*
X7747058Y-8864461D02*
X7641083Y-8991977D01*
X21744327Y-8309405D02*
X21626533Y-8192720D01*
X21860067Y-8428129D02*
X21744327Y-8309405D01*
X18593962Y-6206057D02*
X18439939Y-6144673D01*
X12850000Y-10150000D02*
X13650000Y-10150000D01*
X14044774Y-5548146D02*
X13879962Y-5566257D01*
X12900003Y-5735011D02*
X12738626Y-5773073D01*
X13062019Y-5699773D02*
X12900003Y-5735011D01*
X17250000Y-12400000D02*
X17450000Y-12600000D01*
X8078107Y-8493280D02*
X7965604Y-8615075D01*
X12350000Y-12800000D02*
X12550000Y-12550000D01*
X15203785Y-5502186D02*
X15037994Y-5500076D01*
X16550000Y-12000000D02*
X16950000Y-12200000D01*
X6876544Y-10074610D02*
X6791822Y-10217134D01*
X13224625Y-5667367D02*
X13062019Y-5699773D01*
X18746890Y-6270119D02*
X18593962Y-6206057D01*
X10892430Y-6493711D02*
X10899930Y-6589781D01*
X18898677Y-6336841D02*
X18746890Y-6270119D01*
X14375220Y-5520567D02*
X14209877Y-5532915D01*
X20313094Y-7189952D02*
X20233483Y-7244547D01*
X10899930Y-6589781D02*
X10875490Y-6790168D01*
X12750000Y-12300000D02*
X12850000Y-12100000D01*
X21135539Y-7747058D02*
X21008023Y-7641083D01*
X11450000Y-14600000D02*
X11550000Y-14000000D01*
X8428129Y-8139933D02*
X8309405Y-8255673D01*
X23940003Y-11786538D02*
X23882559Y-11631002D01*
X22897040Y-9719209D02*
X22803675Y-9582191D01*
D11*
D10*
X8600000Y-12750000D02*
X8650000Y-12800000D01*
X8650000Y-12750000D02*
X8600000Y-12800000D01*
X8900000Y-13350000D02*
X8950000Y-13400000D01*
X8950000Y-13350000D02*
X8900000Y-13400000D01*
X9000000Y-8700000D02*
X9050000Y-8750000D01*
X9050000Y-8700000D02*
X9000000Y-8750000D01*
X9200000Y-8500000D02*
X9250000Y-8550000D01*
X9250000Y-8500000D02*
X9200000Y-8550000D01*
X12275000Y-10150000D02*
X12325000Y-10200000D01*
X12325000Y-10150000D02*
X12275000Y-10200000D01*
X13000000Y-9850000D02*
X13050000Y-9900000D01*
X13050000Y-9850000D02*
X13000000Y-9900000D01*
X13475000Y-9850000D02*
X13525000Y-9900000D01*
X13525000Y-9850000D02*
X13475000Y-9900000D01*
X13575000Y-8500000D02*
X13625000Y-8550000D01*
X13625000Y-8500000D02*
X13575000Y-8550000D01*
X13575000Y-8700000D02*
X13625000Y-8750000D01*
X13625000Y-8700000D02*
X13575000Y-8750000D01*
X13575000Y-9050000D02*
X13625000Y-9100000D01*
X13625000Y-9050000D02*
X13575000Y-9100000D01*
X13575000Y-9400000D02*
X13625000Y-9450000D01*
X13625000Y-9400000D02*
X13575000Y-9450000D01*
X13600000Y-8875000D02*
X13650000Y-8925000D01*
X13650000Y-8875000D02*
X13600000Y-8925000D01*
X13600000Y-9225000D02*
X13650000Y-9275000D01*
X13650000Y-9225000D02*
X13600000Y-9275000D01*
X14275000Y-6500000D02*
X14325000Y-6550000D01*
X14325000Y-6500000D02*
X14275000Y-6550000D01*
X14475000Y-6500000D02*
X14525000Y-6550000D01*
X14525000Y-6500000D02*
X14475000Y-6550000D01*
X16275000Y-9250000D02*
X16325000Y-9300000D01*
X16325000Y-9250000D02*
X16275000Y-9300000D01*
X16500000Y-6425000D02*
X16550000Y-6475000D01*
X16550000Y-6425000D02*
X16500000Y-6475000D01*
X16700000Y-6425000D02*
X16750000Y-6475000D01*
X16750000Y-6425000D02*
X16700000Y-6475000D01*
X18225000Y-8900000D02*
X18275000Y-8950000D01*
X18275000Y-8900000D02*
X18225000Y-8950000D01*
X19300000Y-8550000D02*
X19350000Y-8600000D01*
X19350000Y-8550000D02*
X19300000Y-8600000D01*
X19900000Y-9150000D02*
X19950000Y-9200000D01*
X19950000Y-9150000D02*
X19900000Y-9200000D01*
X20675000Y-9775000D02*
X20725000Y-9825000D01*
X20725000Y-9775000D02*
X20675000Y-9825000D01*
X21225000Y-9225000D02*
X21275000Y-9275000D01*
X21275000Y-9225000D02*
X21225000Y-9275000D01*
X6487500Y-13045000D02*
G75*
G02*
X6412500Y-13045000I-37500J0D01*
G01*
X6412500Y-13045000D02*
G75*
G02*
X6487500Y-13045000I37500J0D01*
G01*
X6687500Y-13045000D02*
G75*
G02*
X6612500Y-13045000I-37500J0D01*
G01*
X6612500Y-13045000D02*
G75*
G02*
X6687500Y-13045000I37500J0D01*
G01*
X6887500Y-13045000D02*
G75*
G02*
X6812500Y-13045000I-37500J0D01*
G01*
X6812500Y-13045000D02*
G75*
G02*
X6887500Y-13045000I37500J0D01*
G01*
X8687500Y-13045000D02*
G75*
G02*
X8612500Y-13045000I-37500J0D01*
G01*
X8612500Y-13045000D02*
G75*
G02*
X8687500Y-13045000I37500J0D01*
G01*
X8837500Y-14145000D02*
G75*
G02*
X8762500Y-14145000I-37500J0D01*
G01*
X8762500Y-14145000D02*
G75*
G02*
X8837500Y-14145000I37500J0D01*
G01*
X8887500Y-13045000D02*
G75*
G02*
X8812500Y-13045000I-37500J0D01*
G01*
X8812500Y-13045000D02*
G75*
G02*
X8887500Y-13045000I37500J0D01*
G01*
X9037500Y-14145000D02*
G75*
G02*
X8962500Y-14145000I-37500J0D01*
G01*
X8962500Y-14145000D02*
G75*
G02*
X9037500Y-14145000I37500J0D01*
G01*
X9087500Y-13045000D02*
G75*
G02*
X9012500Y-13045000I-37500J0D01*
G01*
X9012500Y-13045000D02*
G75*
G02*
X9087500Y-13045000I37500J0D01*
G01*
X9287500Y-13045000D02*
G75*
G02*
X9212500Y-13045000I-37500J0D01*
G01*
X9212500Y-13045000D02*
G75*
G02*
X9287500Y-13045000I37500J0D01*
G01*
X9487500Y-13045000D02*
G75*
G02*
X9412500Y-13045000I-37500J0D01*
G01*
X9412500Y-13045000D02*
G75*
G02*
X9487500Y-13045000I37500J0D01*
G01*
X9687500Y-13045000D02*
G75*
G02*
X9612500Y-13045000I-37500J0D01*
G01*
X9612500Y-13045000D02*
G75*
G02*
X9687500Y-13045000I37500J0D01*
G01*
X11957500Y-6900000D02*
G75*
G02*
X11882500Y-6900000I-37500J0D01*
G01*
X11882500Y-6900000D02*
G75*
G02*
X11957500Y-6900000I37500J0D01*
G01*
X12157500Y-6900000D02*
G75*
G02*
X12082500Y-6900000I-37500J0D01*
G01*
X12082500Y-6900000D02*
G75*
G02*
X12157500Y-6900000I37500J0D01*
G01*
X12357500Y-6900000D02*
G75*
G02*
X12282500Y-6900000I-37500J0D01*
G01*
X12282500Y-6900000D02*
G75*
G02*
X12357500Y-6900000I37500J0D01*
G01*
X12557500Y-6900000D02*
G75*
G02*
X12482500Y-6900000I-37500J0D01*
G01*
X12482500Y-6900000D02*
G75*
G02*
X12557500Y-6900000I37500J0D01*
G01*
X12757500Y-6900000D02*
G75*
G02*
X12682500Y-6900000I-37500J0D01*
G01*
X12682500Y-6900000D02*
G75*
G02*
X12757500Y-6900000I37500J0D01*
G01*
X12957500Y-6900000D02*
G75*
G02*
X12882500Y-6900000I-37500J0D01*
G01*
X12882500Y-6900000D02*
G75*
G02*
X12957500Y-6900000I37500J0D01*
G01*
X14257500Y-6900000D02*
G75*
G02*
X14182500Y-6900000I-37500J0D01*
G01*
X14182500Y-6900000D02*
G75*
G02*
X14257500Y-6900000I37500J0D01*
G01*
X14457500Y-6900000D02*
G75*
G02*
X14382500Y-6900000I-37500J0D01*
G01*
X14382500Y-6900000D02*
G75*
G02*
X14457500Y-6900000I37500J0D01*
G01*
X14657500Y-6900000D02*
G75*
G02*
X14582500Y-6900000I-37500J0D01*
G01*
X14582500Y-6900000D02*
G75*
G02*
X14657500Y-6900000I37500J0D01*
G01*
X14857500Y-6900000D02*
G75*
G02*
X14782500Y-6900000I-37500J0D01*
G01*
X14782500Y-6900000D02*
G75*
G02*
X14857500Y-6900000I37500J0D01*
G01*
X15057500Y-6900000D02*
G75*
G02*
X14982500Y-6900000I-37500J0D01*
G01*
X14982500Y-6900000D02*
G75*
G02*
X15057500Y-6900000I37500J0D01*
G01*
X15257500Y-6900000D02*
G75*
G02*
X15182500Y-6900000I-37500J0D01*
G01*
X15182500Y-6900000D02*
G75*
G02*
X15257500Y-6900000I37500J0D01*
G01*
X16557500Y-6900000D02*
G75*
G02*
X16482500Y-6900000I-37500J0D01*
G01*
X16482500Y-6900000D02*
G75*
G02*
X16557500Y-6900000I37500J0D01*
G01*
X16757500Y-6900000D02*
G75*
G02*
X16682500Y-6900000I-37500J0D01*
G01*
X16682500Y-6900000D02*
G75*
G02*
X16757500Y-6900000I37500J0D01*
G01*
X16957500Y-6900000D02*
G75*
G02*
X16882500Y-6900000I-37500J0D01*
G01*
X16882500Y-6900000D02*
G75*
G02*
X16957500Y-6900000I37500J0D01*
G01*
X17157500Y-6900000D02*
G75*
G02*
X17082500Y-6900000I-37500J0D01*
G01*
X17082500Y-6900000D02*
G75*
G02*
X17157500Y-6900000I37500J0D01*
G01*
X17357500Y-6900000D02*
G75*
G02*
X17282500Y-6900000I-37500J0D01*
G01*
X17282500Y-6900000D02*
G75*
G02*
X17357500Y-6900000I37500J0D01*
G01*
X17557500Y-6900000D02*
G75*
G02*
X17482500Y-6900000I-37500J0D01*
G01*
X17482500Y-6900000D02*
G75*
G02*
X17557500Y-6900000I37500J0D01*
G01*
X20712500Y-8550000D02*
G75*
G02*
X20637500Y-8550000I-37500J0D01*
G01*
X20637500Y-8550000D02*
G75*
G02*
X20712500Y-8550000I37500J0D01*
G01*
X20712500Y-8750000D02*
G75*
G02*
X20637500Y-8750000I-37500J0D01*
G01*
X20637500Y-8750000D02*
G75*
G02*
X20712500Y-8750000I37500J0D01*
G01*
X20712500Y-8950000D02*
G75*
G02*
X20637500Y-8950000I-37500J0D01*
G01*
X20637500Y-8950000D02*
G75*
G02*
X20712500Y-8950000I37500J0D01*
G01*
X20712500Y-9150000D02*
G75*
G02*
X20637500Y-9150000I-37500J0D01*
G01*
X20637500Y-9150000D02*
G75*
G02*
X20712500Y-9150000I37500J0D01*
G01*
X20712500Y-9350000D02*
G75*
G02*
X20637500Y-9350000I-37500J0D01*
G01*
X20637500Y-9350000D02*
G75*
G02*
X20712500Y-9350000I37500J0D01*
G01*
X20712500Y-9550000D02*
G75*
G02*
X20637500Y-9550000I-37500J0D01*
G01*
X20637500Y-9550000D02*
G75*
G02*
X20712500Y-9550000I37500J0D01*
G01*
X6638000Y-13578500D02*
X6638000Y-13658500D01*
X6598000Y-13618500D02*
X6678000Y-13618500D01*
X6638000Y-14340500D02*
X6638000Y-14420500D01*
X6598000Y-14380500D02*
X6678000Y-14380500D01*
X6892000Y-13578500D02*
X6892000Y-13658500D01*
X6852000Y-13618500D02*
X6932000Y-13618500D01*
X6892000Y-14340500D02*
X6892000Y-14420500D01*
X6852000Y-14380500D02*
X6932000Y-14380500D01*
X7146000Y-13578500D02*
X7146000Y-13658500D01*
X7106000Y-13618500D02*
X7186000Y-13618500D01*
X7146000Y-14340500D02*
X7146000Y-14420500D01*
X7106000Y-14380500D02*
X7186000Y-14380500D01*
X7295500Y-13060000D02*
X7295500Y-13140000D01*
X7255500Y-13100000D02*
X7335500Y-13100000D01*
X7400000Y-13578500D02*
X7400000Y-13658500D01*
X7360000Y-13618500D02*
X7440000Y-13618500D01*
X7400000Y-14340500D02*
X7400000Y-14420500D01*
X7360000Y-14380500D02*
X7440000Y-14380500D01*
X7549500Y-13060000D02*
X7549500Y-13140000D01*
X7509500Y-13100000D02*
X7589500Y-13100000D01*
X7654000Y-13578500D02*
X7654000Y-13658500D01*
X7614000Y-13618500D02*
X7694000Y-13618500D01*
X7654000Y-14340500D02*
X7654000Y-14420500D01*
X7614000Y-14380500D02*
X7694000Y-14380500D01*
X7908000Y-13578500D02*
X7908000Y-13658500D01*
X7868000Y-13618500D02*
X7948000Y-13618500D01*
X7908000Y-14340500D02*
X7908000Y-14420500D01*
X7868000Y-14380500D02*
X7948000Y-14380500D01*
X7925000Y-13060000D02*
X7925000Y-13140000D01*
X7885000Y-13100000D02*
X7965000Y-13100000D01*
X8162000Y-13578500D02*
X8162000Y-13658500D01*
X8122000Y-13618500D02*
X8202000Y-13618500D01*
X8162000Y-14340500D02*
X8162000Y-14420500D01*
X8122000Y-14380500D02*
X8202000Y-14380500D01*
X8175000Y-13060000D02*
X8175000Y-13140000D01*
X8135000Y-13100000D02*
X8215000Y-13100000D01*
X9396000Y-14196000D02*
X9396000Y-14276000D01*
X9356000Y-14236000D02*
X9436000Y-14236000D01*
X9545500Y-13560000D02*
X9545500Y-13640000D01*
X9505500Y-13600000D02*
X9585500Y-13600000D01*
X9650000Y-14196000D02*
X9650000Y-14276000D01*
X9610000Y-14236000D02*
X9690000Y-14236000D01*
X9799500Y-13560000D02*
X9799500Y-13640000D01*
X9759500Y-13600000D02*
X9839500Y-13600000D01*
X9904000Y-14196000D02*
X9904000Y-14276000D01*
X9864000Y-14236000D02*
X9944000Y-14236000D01*
X10195500Y-14240000D02*
X10195500Y-14320000D01*
X10155500Y-14280000D02*
X10235500Y-14280000D01*
X10449500Y-14240000D02*
X10449500Y-14320000D01*
X10409500Y-14280000D02*
X10489500Y-14280000D01*
X21025124Y-10960000D02*
X21025124Y-11040000D01*
X20985124Y-11000000D02*
X21065124Y-11000000D01*
X21375124Y-10960000D02*
X21375124Y-11040000D01*
X21335124Y-11000000D02*
X21415124Y-11000000D01*
X7084856Y-10546356D02*
X7084856Y-10475644D01*
X7014144Y-10475644D01*
X7014144Y-10546356D01*
X7084856Y-10546356D01*
X7084856Y-12324356D02*
X7084856Y-12253644D01*
X7014144Y-12253644D01*
X7014144Y-12324356D01*
X7084856Y-12324356D01*
X7338856Y-10546356D02*
X7338856Y-10475644D01*
X7268144Y-10475644D01*
X7268144Y-10546356D01*
X7338856Y-10546356D01*
X7338856Y-12324356D02*
X7338856Y-12253644D01*
X7268144Y-12253644D01*
X7268144Y-12324356D01*
X7338856Y-12324356D01*
X7592856Y-10546356D02*
X7592856Y-10475644D01*
X7522144Y-10475644D01*
X7522144Y-10546356D01*
X7592856Y-10546356D01*
X7592856Y-12324356D02*
X7592856Y-12253644D01*
X7522144Y-12253644D01*
X7522144Y-12324356D01*
X7592856Y-12324356D01*
X7846856Y-10546356D02*
X7846856Y-10475644D01*
X7776144Y-10475644D01*
X7776144Y-10546356D01*
X7846856Y-10546356D01*
X7846856Y-12324356D02*
X7846856Y-12253644D01*
X7776144Y-12253644D01*
X7776144Y-12324356D01*
X7846856Y-12324356D01*
X8100856Y-10546356D02*
X8100856Y-10475644D01*
X8030144Y-10475644D01*
X8030144Y-10546356D01*
X8100856Y-10546356D01*
X8100856Y-12324356D02*
X8100856Y-12253644D01*
X8030144Y-12253644D01*
X8030144Y-12324356D01*
X8100856Y-12324356D01*
X8354856Y-10546356D02*
X8354856Y-10475644D01*
X8284144Y-10475644D01*
X8284144Y-10546356D01*
X8354856Y-10546356D01*
X8354856Y-12324356D02*
X8354856Y-12253644D01*
X8284144Y-12253644D01*
X8284144Y-12324356D01*
X8354856Y-12324356D01*
X8608856Y-10546356D02*
X8608856Y-10475644D01*
X8538144Y-10475644D01*
X8538144Y-10546356D01*
X8608856Y-10546356D01*
X8608856Y-12324356D02*
X8608856Y-12253644D01*
X8538144Y-12253644D01*
X8538144Y-12324356D01*
X8608856Y-12324356D01*
X8862856Y-10546356D02*
X8862856Y-10475644D01*
X8792144Y-10475644D01*
X8792144Y-10546356D01*
X8862856Y-10546356D01*
X8862856Y-12324356D02*
X8862856Y-12253644D01*
X8792144Y-12253644D01*
X8792144Y-12324356D01*
X8862856Y-12324356D01*
X9116856Y-10546356D02*
X9116856Y-10475644D01*
X9046144Y-10475644D01*
X9046144Y-10546356D01*
X9116856Y-10546356D01*
X9116856Y-12324356D02*
X9116856Y-12253644D01*
X9046144Y-12253644D01*
X9046144Y-12324356D01*
X9116856Y-12324356D01*
X9370856Y-10546356D02*
X9370856Y-10475644D01*
X9300144Y-10475644D01*
X9300144Y-10546356D01*
X9370856Y-10546356D01*
X9370856Y-12324356D02*
X9370856Y-12253644D01*
X9300144Y-12253644D01*
X9300144Y-12324356D01*
X9370856Y-12324356D01*
X9624856Y-10546356D02*
X9624856Y-10475644D01*
X9554144Y-10475644D01*
X9554144Y-10546356D01*
X9624856Y-10546356D01*
X9624856Y-12324356D02*
X9624856Y-12253644D01*
X9554144Y-12253644D01*
X9554144Y-12324356D01*
X9624856Y-12324356D01*
X9878856Y-10546356D02*
X9878856Y-10475644D01*
X9808144Y-10475644D01*
X9808144Y-10546356D01*
X9878856Y-10546356D01*
X9878856Y-12324356D02*
X9878856Y-12253644D01*
X9808144Y-12253644D01*
X9808144Y-12324356D01*
X9878856Y-12324356D01*
X10132856Y-10546356D02*
X10132856Y-10475644D01*
X10062144Y-10475644D01*
X10062144Y-10546356D01*
X10132856Y-10546356D01*
X10132856Y-12324356D02*
X10132856Y-12253644D01*
X10062144Y-12253644D01*
X10062144Y-12324356D01*
X10132856Y-12324356D01*
X10386856Y-10546356D02*
X10386856Y-10475644D01*
X10316144Y-10475644D01*
X10316144Y-10546356D01*
X10386856Y-10546356D01*
X10386856Y-12324356D02*
X10386856Y-12253644D01*
X10316144Y-12253644D01*
X10316144Y-12324356D01*
X10386856Y-12324356D01*
X10640856Y-10546356D02*
X10640856Y-10475644D01*
X10570144Y-10475644D01*
X10570144Y-10546356D01*
X10640856Y-10546356D01*
X10640856Y-12324356D02*
X10640856Y-12253644D01*
X10570144Y-12253644D01*
X10570144Y-12324356D01*
X10640856Y-12324356D01*
X10894856Y-10546356D02*
X10894856Y-10475644D01*
X10824144Y-10475644D01*
X10824144Y-10546356D01*
X10894856Y-10546356D01*
X10894856Y-12324356D02*
X10894856Y-12253644D01*
X10824144Y-12253644D01*
X10824144Y-12324356D01*
X10894856Y-12324356D01*
X11148856Y-10546356D02*
X11148856Y-10475644D01*
X11078144Y-10475644D01*
X11078144Y-10546356D01*
X11148856Y-10546356D01*
X11148856Y-12324356D02*
X11148856Y-12253644D01*
X11078144Y-12253644D01*
X11078144Y-12324356D01*
X11148856Y-12324356D01*
X11402856Y-10546356D02*
X11402856Y-10475644D01*
X11332144Y-10475644D01*
X11332144Y-10546356D01*
X11402856Y-10546356D01*
X11402856Y-12324356D02*
X11402856Y-12253644D01*
X11332144Y-12253644D01*
X11332144Y-12324356D01*
X11402856Y-12324356D01*
X11656856Y-10546356D02*
X11656856Y-10475644D01*
X11586144Y-10475644D01*
X11586144Y-10546356D01*
X11656856Y-10546356D01*
X11656856Y-12324356D02*
X11656856Y-12253644D01*
X11586144Y-12253644D01*
X11586144Y-12324356D01*
X11656856Y-12324356D01*
X11910856Y-10546356D02*
X11910856Y-10475644D01*
X11840144Y-10475644D01*
X11840144Y-10546356D01*
X11910856Y-10546356D01*
X11910856Y-12324356D02*
X11910856Y-12253644D01*
X11840144Y-12253644D01*
X11840144Y-12324356D01*
X11910856Y-12324356D01*
D12*
X10250000Y-13468500D02*
X10305000Y-13413500D01*
X10250000Y-13358500D01*
X10195000Y-13413500D01*
X10250000Y-13468500D01*
X10250000Y-13976500D02*
X10305000Y-13921500D01*
X10250000Y-13866500D01*
X10195000Y-13921500D01*
X10250000Y-13976500D01*
X11813200Y-7924500D02*
X11868200Y-7869500D01*
X11813200Y-7814500D01*
X11758200Y-7869500D01*
X11813200Y-7924500D01*
X12044000Y-9702500D02*
X12099000Y-9647500D01*
X12044000Y-9592500D01*
X11989000Y-9647500D01*
X12044000Y-9702500D01*
X12163200Y-7924500D02*
X12218200Y-7869500D01*
X12163200Y-7814500D01*
X12108200Y-7869500D01*
X12163200Y-7924500D01*
X12298000Y-9702500D02*
X12353000Y-9647500D01*
X12298000Y-9592500D01*
X12243000Y-9647500D01*
X12298000Y-9702500D01*
X12552000Y-9702500D02*
X12607000Y-9647500D01*
X12552000Y-9592500D01*
X12497000Y-9647500D01*
X12552000Y-9702500D01*
X12676800Y-7924500D02*
X12731800Y-7869500D01*
X12676800Y-7814500D01*
X12621800Y-7869500D01*
X12676800Y-7924500D01*
X12806000Y-9702500D02*
X12861000Y-9647500D01*
X12806000Y-9592500D01*
X12751000Y-9647500D01*
X12806000Y-9702500D01*
X13026800Y-7924500D02*
X13081800Y-7869500D01*
X13026800Y-7814500D01*
X12971800Y-7869500D01*
X13026800Y-7924500D01*
X14113200Y-7924500D02*
X14168200Y-7869500D01*
X14113200Y-7814500D01*
X14058200Y-7869500D01*
X14113200Y-7924500D01*
X14344000Y-9702500D02*
X14399000Y-9647500D01*
X14344000Y-9592500D01*
X14289000Y-9647500D01*
X14344000Y-9702500D01*
X14463200Y-7924500D02*
X14518200Y-7869500D01*
X14463200Y-7814500D01*
X14408200Y-7869500D01*
X14463200Y-7924500D01*
X14598000Y-9702500D02*
X14653000Y-9647500D01*
X14598000Y-9592500D01*
X14543000Y-9647500D01*
X14598000Y-9702500D01*
X14852000Y-9702500D02*
X14907000Y-9647500D01*
X14852000Y-9592500D01*
X14797000Y-9647500D01*
X14852000Y-9702500D01*
X14976800Y-7924500D02*
X15031800Y-7869500D01*
X14976800Y-7814500D01*
X14921800Y-7869500D01*
X14976800Y-7924500D01*
X15106000Y-9702500D02*
X15161000Y-9647500D01*
X15106000Y-9592500D01*
X15051000Y-9647500D01*
X15106000Y-9702500D01*
X15326800Y-7924500D02*
X15381800Y-7869500D01*
X15326800Y-7814500D01*
X15271800Y-7869500D01*
X15326800Y-7924500D01*
X16413200Y-7924500D02*
X16468200Y-7869500D01*
X16413200Y-7814500D01*
X16358200Y-7869500D01*
X16413200Y-7924500D01*
X16644000Y-9702500D02*
X16699000Y-9647500D01*
X16644000Y-9592500D01*
X16589000Y-9647500D01*
X16644000Y-9702500D01*
X16763200Y-7924500D02*
X16818200Y-7869500D01*
X16763200Y-7814500D01*
X16708200Y-7869500D01*
X16763200Y-7924500D01*
X16898000Y-9702500D02*
X16953000Y-9647500D01*
X16898000Y-9592500D01*
X16843000Y-9647500D01*
X16898000Y-9702500D01*
X17152000Y-9702500D02*
X17207000Y-9647500D01*
X17152000Y-9592500D01*
X17097000Y-9647500D01*
X17152000Y-9702500D01*
X17276800Y-7924500D02*
X17331800Y-7869500D01*
X17276800Y-7814500D01*
X17221800Y-7869500D01*
X17276800Y-7924500D01*
X17406000Y-9702500D02*
X17461000Y-9647500D01*
X17406000Y-9592500D01*
X17351000Y-9647500D01*
X17406000Y-9702500D01*
X17626800Y-7924500D02*
X17681800Y-7869500D01*
X17626800Y-7814500D01*
X17571800Y-7869500D01*
X17626800Y-7924500D01*
X18713200Y-7924500D02*
X18768200Y-7869500D01*
X18713200Y-7814500D01*
X18658200Y-7869500D01*
X18713200Y-7924500D01*
X18944000Y-9702500D02*
X18999000Y-9647500D01*
X18944000Y-9592500D01*
X18889000Y-9647500D01*
X18944000Y-9702500D01*
X19063200Y-7924500D02*
X19118200Y-7869500D01*
X19063200Y-7814500D01*
X19008200Y-7869500D01*
X19063200Y-7924500D01*
X19198000Y-9702500D02*
X19253000Y-9647500D01*
X19198000Y-9592500D01*
X19143000Y-9647500D01*
X19198000Y-9702500D01*
X19452000Y-9702500D02*
X19507000Y-9647500D01*
X19452000Y-9592500D01*
X19397000Y-9647500D01*
X19452000Y-9702500D01*
X19576800Y-7924500D02*
X19631800Y-7869500D01*
X19576800Y-7814500D01*
X19521800Y-7869500D01*
X19576800Y-7924500D01*
X19706000Y-9702500D02*
X19761000Y-9647500D01*
X19706000Y-9592500D01*
X19651000Y-9647500D01*
X19706000Y-9702500D01*
X19926800Y-7924500D02*
X19981800Y-7869500D01*
X19926800Y-7814500D01*
X19871800Y-7869500D01*
X19926800Y-7924500D01*
D13*
X10865000Y-12920000D02*
X10985000Y-13040000D01*
X10985000Y-12920000D02*
X10865000Y-13040000D01*
X10985000Y-12980000D02*
G75*
G02*
X10865000Y-12980000I-60000J0D01*
G01*
X10865000Y-12980000D02*
G75*
G02*
X10985000Y-12980000I60000J0D01*
G01*
X11215000Y-12920000D02*
X11335000Y-13040000D01*
X11335000Y-12920000D02*
X11215000Y-13040000D01*
X11335000Y-12980000D02*
G75*
G02*
X11215000Y-12980000I-60000J0D01*
G01*
X11215000Y-12980000D02*
G75*
G02*
X11335000Y-12980000I60000J0D01*
G01*
X18565000Y-12220000D02*
X18685000Y-12340000D01*
X18685000Y-12220000D02*
X18565000Y-12340000D01*
X18685000Y-12280000D02*
G75*
G02*
X18565000Y-12280000I-60000J0D01*
G01*
X18565000Y-12280000D02*
G75*
G02*
X18685000Y-12280000I60000J0D01*
G01*
X18915000Y-12220000D02*
X19035000Y-12340000D01*
X19035000Y-12220000D02*
X18915000Y-12340000D01*
X19035000Y-12280000D02*
G75*
G02*
X18915000Y-12280000I-60000J0D01*
G01*
X18915000Y-12280000D02*
G75*
G02*
X19035000Y-12280000I60000J0D01*
G01*
X19665000Y-12220000D02*
X19785000Y-12340000D01*
X19785000Y-12220000D02*
X19665000Y-12340000D01*
X19785000Y-12280000D02*
G75*
G02*
X19665000Y-12280000I-60000J0D01*
G01*
X19665000Y-12280000D02*
G75*
G02*
X19785000Y-12280000I60000J0D01*
G01*
X20015000Y-12220000D02*
X20135000Y-12340000D01*
X20135000Y-12220000D02*
X20015000Y-12340000D01*
X20135000Y-12280000D02*
G75*
G02*
X20015000Y-12280000I-60000J0D01*
G01*
X20015000Y-12280000D02*
G75*
G02*
X20135000Y-12280000I60000J0D01*
G01*
X20965000Y-12220000D02*
X21085000Y-12340000D01*
X21085000Y-12220000D02*
X20965000Y-12340000D01*
X21085000Y-12280000D02*
G75*
G02*
X20965000Y-12280000I-60000J0D01*
G01*
X20965000Y-12280000D02*
G75*
G02*
X21085000Y-12280000I60000J0D01*
G01*
X21315000Y-12220000D02*
X21435000Y-12340000D01*
X21435000Y-12220000D02*
X21315000Y-12340000D01*
X21435000Y-12280000D02*
G75*
G02*
X21315000Y-12280000I-60000J0D01*
G01*
X21315000Y-12280000D02*
G75*
G02*
X21435000Y-12280000I60000J0D01*
G01*
D14*
X21941000Y-11415000D02*
X22119000Y-11593000D01*
X22119000Y-11415000D02*
X21941000Y-11593000D01*
X22030000Y-11415000D02*
X22030000Y-11593000D01*
X21941000Y-11504000D02*
X22119000Y-11504000D01*
X21941000Y-12407000D02*
X22119000Y-12585000D01*
X22119000Y-12407000D02*
X21941000Y-12585000D01*
X22030000Y-12407000D02*
X22030000Y-12585000D01*
X21941000Y-12496000D02*
X22119000Y-12496000D01*
X22281000Y-11415000D02*
X22459000Y-11593000D01*
X22459000Y-11415000D02*
X22281000Y-11593000D01*
X22370000Y-11415000D02*
X22370000Y-11593000D01*
X22281000Y-11504000D02*
X22459000Y-11504000D01*
X22281000Y-12407000D02*
X22459000Y-12585000D01*
X22459000Y-12407000D02*
X22281000Y-12585000D01*
X22370000Y-12407000D02*
X22370000Y-12585000D01*
X22281000Y-12496000D02*
X22459000Y-12496000D01*
D11*
X6455777Y-14916484D02*
X6455777Y-14716484D01*
X6455777Y-14716484D02*
X6503396Y-14716484D01*
X6503396Y-14716484D02*
X6531967Y-14726008D01*
X6531967Y-14726008D02*
X6551015Y-14745055D01*
X6551015Y-14745055D02*
X6560539Y-14764103D01*
X6560539Y-14764103D02*
X6570062Y-14802198D01*
X6570062Y-14802198D02*
X6570062Y-14830769D01*
X6570062Y-14830769D02*
X6560539Y-14868865D01*
X6560539Y-14868865D02*
X6551015Y-14887912D01*
X6551015Y-14887912D02*
X6531967Y-14906960D01*
X6531967Y-14906960D02*
X6503396Y-14916484D01*
X6503396Y-14916484D02*
X6455777Y-14916484D01*
X6655777Y-14916484D02*
X6655777Y-14783150D01*
X6655777Y-14821246D02*
X6665301Y-14802198D01*
X6665301Y-14802198D02*
X6674824Y-14792674D01*
X6674824Y-14792674D02*
X6693872Y-14783150D01*
X6693872Y-14783150D02*
X6712920Y-14783150D01*
X6779586Y-14916484D02*
X6779586Y-14783150D01*
X6779586Y-14716484D02*
X6770062Y-14726008D01*
X6770062Y-14726008D02*
X6779586Y-14735531D01*
X6779586Y-14735531D02*
X6789110Y-14726008D01*
X6789110Y-14726008D02*
X6779586Y-14716484D01*
X6779586Y-14716484D02*
X6779586Y-14735531D01*
X6903396Y-14916484D02*
X6884348Y-14906960D01*
X6884348Y-14906960D02*
X6874824Y-14887912D01*
X6874824Y-14887912D02*
X6874824Y-14716484D01*
X7008158Y-14916484D02*
X6989110Y-14906960D01*
X6989110Y-14906960D02*
X6979586Y-14887912D01*
X6979586Y-14887912D02*
X6979586Y-14716484D01*
X7236729Y-14916484D02*
X7236729Y-14716484D01*
X7236729Y-14716484D02*
X7303396Y-14859341D01*
X7303396Y-14859341D02*
X7370062Y-14716484D01*
X7370062Y-14716484D02*
X7370062Y-14916484D01*
X7551015Y-14916484D02*
X7551015Y-14811722D01*
X7551015Y-14811722D02*
X7541491Y-14792674D01*
X7541491Y-14792674D02*
X7522443Y-14783150D01*
X7522443Y-14783150D02*
X7484348Y-14783150D01*
X7484348Y-14783150D02*
X7465301Y-14792674D01*
X7551015Y-14906960D02*
X7531967Y-14916484D01*
X7531967Y-14916484D02*
X7484348Y-14916484D01*
X7484348Y-14916484D02*
X7465301Y-14906960D01*
X7465301Y-14906960D02*
X7455777Y-14887912D01*
X7455777Y-14887912D02*
X7455777Y-14868865D01*
X7455777Y-14868865D02*
X7465301Y-14849817D01*
X7465301Y-14849817D02*
X7484348Y-14840293D01*
X7484348Y-14840293D02*
X7531967Y-14840293D01*
X7531967Y-14840293D02*
X7551015Y-14830769D01*
X7646253Y-14783150D02*
X7646253Y-14983150D01*
X7646253Y-14792674D02*
X7665301Y-14783150D01*
X7665301Y-14783150D02*
X7703396Y-14783150D01*
X7703396Y-14783150D02*
X7722443Y-14792674D01*
X7722443Y-14792674D02*
X7731967Y-14802198D01*
X7731967Y-14802198D02*
X7741491Y-14821246D01*
X7741491Y-14821246D02*
X7741491Y-14878388D01*
X7741491Y-14878388D02*
X7731967Y-14897436D01*
X7731967Y-14897436D02*
X7722443Y-14906960D01*
X7722443Y-14906960D02*
X7703396Y-14916484D01*
X7703396Y-14916484D02*
X7665301Y-14916484D01*
X7665301Y-14916484D02*
X7646253Y-14906960D01*
X7827205Y-14897436D02*
X7836729Y-14906960D01*
X7836729Y-14906960D02*
X7827205Y-14916484D01*
X7827205Y-14916484D02*
X7817682Y-14906960D01*
X7817682Y-14906960D02*
X7827205Y-14897436D01*
X7827205Y-14897436D02*
X7827205Y-14916484D01*
X7827205Y-14792674D02*
X7836729Y-14802198D01*
X7836729Y-14802198D02*
X7827205Y-14811722D01*
X7827205Y-14811722D02*
X7817682Y-14802198D01*
X7817682Y-14802198D02*
X7827205Y-14792674D01*
X7827205Y-14792674D02*
X7827205Y-14811722D01*
D10*
X6145000Y-15220000D02*
X6195000Y-15270000D01*
X6195000Y-15220000D02*
X6145000Y-15270000D01*
D11*
X6493872Y-15136484D02*
X6512920Y-15136484D01*
X6512920Y-15136484D02*
X6531967Y-15146008D01*
X6531967Y-15146008D02*
X6541491Y-15155531D01*
X6541491Y-15155531D02*
X6551015Y-15174579D01*
X6551015Y-15174579D02*
X6560539Y-15212674D01*
X6560539Y-15212674D02*
X6560539Y-15260293D01*
X6560539Y-15260293D02*
X6551015Y-15298388D01*
X6551015Y-15298388D02*
X6541491Y-15317436D01*
X6541491Y-15317436D02*
X6531967Y-15326960D01*
X6531967Y-15326960D02*
X6512920Y-15336484D01*
X6512920Y-15336484D02*
X6493872Y-15336484D01*
X6493872Y-15336484D02*
X6474824Y-15326960D01*
X6474824Y-15326960D02*
X6465301Y-15317436D01*
X6465301Y-15317436D02*
X6455777Y-15298388D01*
X6455777Y-15298388D02*
X6446253Y-15260293D01*
X6446253Y-15260293D02*
X6446253Y-15212674D01*
X6446253Y-15212674D02*
X6455777Y-15174579D01*
X6455777Y-15174579D02*
X6465301Y-15155531D01*
X6465301Y-15155531D02*
X6474824Y-15146008D01*
X6474824Y-15146008D02*
X6493872Y-15136484D01*
X6646253Y-15317436D02*
X6655777Y-15326960D01*
X6655777Y-15326960D02*
X6646253Y-15336484D01*
X6646253Y-15336484D02*
X6636729Y-15326960D01*
X6636729Y-15326960D02*
X6646253Y-15317436D01*
X6646253Y-15317436D02*
X6646253Y-15336484D01*
X6836729Y-15136484D02*
X6741491Y-15136484D01*
X6741491Y-15136484D02*
X6731967Y-15231722D01*
X6731967Y-15231722D02*
X6741491Y-15222198D01*
X6741491Y-15222198D02*
X6760539Y-15212674D01*
X6760539Y-15212674D02*
X6808158Y-15212674D01*
X6808158Y-15212674D02*
X6827205Y-15222198D01*
X6827205Y-15222198D02*
X6836729Y-15231722D01*
X6836729Y-15231722D02*
X6846253Y-15250769D01*
X6846253Y-15250769D02*
X6846253Y-15298388D01*
X6846253Y-15298388D02*
X6836729Y-15317436D01*
X6836729Y-15317436D02*
X6827205Y-15326960D01*
X6827205Y-15326960D02*
X6808158Y-15336484D01*
X6808158Y-15336484D02*
X6760539Y-15336484D01*
X6760539Y-15336484D02*
X6741491Y-15326960D01*
X6741491Y-15326960D02*
X6731967Y-15317436D01*
X6970062Y-15136484D02*
X6989110Y-15136484D01*
X6989110Y-15136484D02*
X7008158Y-15146008D01*
X7008158Y-15146008D02*
X7017682Y-15155531D01*
X7017682Y-15155531D02*
X7027205Y-15174579D01*
X7027205Y-15174579D02*
X7036729Y-15212674D01*
X7036729Y-15212674D02*
X7036729Y-15260293D01*
X7036729Y-15260293D02*
X7027205Y-15298388D01*
X7027205Y-15298388D02*
X7017682Y-15317436D01*
X7017682Y-15317436D02*
X7008158Y-15326960D01*
X7008158Y-15326960D02*
X6989110Y-15336484D01*
X6989110Y-15336484D02*
X6970062Y-15336484D01*
X6970062Y-15336484D02*
X6951015Y-15326960D01*
X6951015Y-15326960D02*
X6941491Y-15317436D01*
X6941491Y-15317436D02*
X6931967Y-15298388D01*
X6931967Y-15298388D02*
X6922443Y-15260293D01*
X6922443Y-15260293D02*
X6922443Y-15212674D01*
X6922443Y-15212674D02*
X6931967Y-15174579D01*
X6931967Y-15174579D02*
X6941491Y-15155531D01*
X6941491Y-15155531D02*
X6951015Y-15146008D01*
X6951015Y-15146008D02*
X6970062Y-15136484D01*
X7160539Y-15136484D02*
X7179586Y-15136484D01*
X7179586Y-15136484D02*
X7198634Y-15146008D01*
X7198634Y-15146008D02*
X7208158Y-15155531D01*
X7208158Y-15155531D02*
X7217682Y-15174579D01*
X7217682Y-15174579D02*
X7227205Y-15212674D01*
X7227205Y-15212674D02*
X7227205Y-15260293D01*
X7227205Y-15260293D02*
X7217682Y-15298388D01*
X7217682Y-15298388D02*
X7208158Y-15317436D01*
X7208158Y-15317436D02*
X7198634Y-15326960D01*
X7198634Y-15326960D02*
X7179586Y-15336484D01*
X7179586Y-15336484D02*
X7160539Y-15336484D01*
X7160539Y-15336484D02*
X7141491Y-15326960D01*
X7141491Y-15326960D02*
X7131967Y-15317436D01*
X7131967Y-15317436D02*
X7122443Y-15298388D01*
X7122443Y-15298388D02*
X7112920Y-15260293D01*
X7112920Y-15260293D02*
X7112920Y-15212674D01*
X7112920Y-15212674D02*
X7122443Y-15174579D01*
X7122443Y-15174579D02*
X7131967Y-15155531D01*
X7131967Y-15155531D02*
X7141491Y-15146008D01*
X7141491Y-15146008D02*
X7160539Y-15136484D01*
X7312920Y-15336484D02*
X7312920Y-15203150D01*
X7312920Y-15222198D02*
X7322443Y-15212674D01*
X7322443Y-15212674D02*
X7341491Y-15203150D01*
X7341491Y-15203150D02*
X7370063Y-15203150D01*
X7370063Y-15203150D02*
X7389110Y-15212674D01*
X7389110Y-15212674D02*
X7398634Y-15231722D01*
X7398634Y-15231722D02*
X7398634Y-15336484D01*
X7398634Y-15231722D02*
X7408158Y-15212674D01*
X7408158Y-15212674D02*
X7427205Y-15203150D01*
X7427205Y-15203150D02*
X7455777Y-15203150D01*
X7455777Y-15203150D02*
X7474824Y-15212674D01*
X7474824Y-15212674D02*
X7484348Y-15231722D01*
X7484348Y-15231722D02*
X7484348Y-15336484D01*
X7579586Y-15336484D02*
X7579586Y-15203150D01*
X7579586Y-15222198D02*
X7589110Y-15212674D01*
X7589110Y-15212674D02*
X7608158Y-15203150D01*
X7608158Y-15203150D02*
X7636729Y-15203150D01*
X7636729Y-15203150D02*
X7655777Y-15212674D01*
X7655777Y-15212674D02*
X7665301Y-15231722D01*
X7665301Y-15231722D02*
X7665301Y-15336484D01*
X7665301Y-15231722D02*
X7674824Y-15212674D01*
X7674824Y-15212674D02*
X7693872Y-15203150D01*
X7693872Y-15203150D02*
X7722443Y-15203150D01*
X7722443Y-15203150D02*
X7741491Y-15212674D01*
X7741491Y-15212674D02*
X7751015Y-15231722D01*
X7751015Y-15231722D02*
X7751015Y-15336484D01*
X8141491Y-15126960D02*
X7970063Y-15384103D01*
X8398634Y-15136484D02*
X8417682Y-15136484D01*
X8417682Y-15136484D02*
X8436729Y-15146008D01*
X8436729Y-15146008D02*
X8446253Y-15155531D01*
X8446253Y-15155531D02*
X8455777Y-15174579D01*
X8455777Y-15174579D02*
X8465301Y-15212674D01*
X8465301Y-15212674D02*
X8465301Y-15260293D01*
X8465301Y-15260293D02*
X8455777Y-15298388D01*
X8455777Y-15298388D02*
X8446253Y-15317436D01*
X8446253Y-15317436D02*
X8436729Y-15326960D01*
X8436729Y-15326960D02*
X8417682Y-15336484D01*
X8417682Y-15336484D02*
X8398634Y-15336484D01*
X8398634Y-15336484D02*
X8379586Y-15326960D01*
X8379586Y-15326960D02*
X8370063Y-15317436D01*
X8370063Y-15317436D02*
X8360539Y-15298388D01*
X8360539Y-15298388D02*
X8351015Y-15260293D01*
X8351015Y-15260293D02*
X8351015Y-15212674D01*
X8351015Y-15212674D02*
X8360539Y-15174579D01*
X8360539Y-15174579D02*
X8370063Y-15155531D01*
X8370063Y-15155531D02*
X8379586Y-15146008D01*
X8379586Y-15146008D02*
X8398634Y-15136484D01*
X8551015Y-15317436D02*
X8560539Y-15326960D01*
X8560539Y-15326960D02*
X8551015Y-15336484D01*
X8551015Y-15336484D02*
X8541491Y-15326960D01*
X8541491Y-15326960D02*
X8551015Y-15317436D01*
X8551015Y-15317436D02*
X8551015Y-15336484D01*
X8684348Y-15136484D02*
X8703396Y-15136484D01*
X8703396Y-15136484D02*
X8722444Y-15146008D01*
X8722444Y-15146008D02*
X8731968Y-15155531D01*
X8731968Y-15155531D02*
X8741491Y-15174579D01*
X8741491Y-15174579D02*
X8751015Y-15212674D01*
X8751015Y-15212674D02*
X8751015Y-15260293D01*
X8751015Y-15260293D02*
X8741491Y-15298388D01*
X8741491Y-15298388D02*
X8731968Y-15317436D01*
X8731968Y-15317436D02*
X8722444Y-15326960D01*
X8722444Y-15326960D02*
X8703396Y-15336484D01*
X8703396Y-15336484D02*
X8684348Y-15336484D01*
X8684348Y-15336484D02*
X8665301Y-15326960D01*
X8665301Y-15326960D02*
X8655777Y-15317436D01*
X8655777Y-15317436D02*
X8646253Y-15298388D01*
X8646253Y-15298388D02*
X8636729Y-15260293D01*
X8636729Y-15260293D02*
X8636729Y-15212674D01*
X8636729Y-15212674D02*
X8646253Y-15174579D01*
X8646253Y-15174579D02*
X8655777Y-15155531D01*
X8655777Y-15155531D02*
X8665301Y-15146008D01*
X8665301Y-15146008D02*
X8684348Y-15136484D01*
X8941491Y-15336484D02*
X8827206Y-15336484D01*
X8884348Y-15336484D02*
X8884348Y-15136484D01*
X8884348Y-15136484D02*
X8865301Y-15165055D01*
X8865301Y-15165055D02*
X8846253Y-15184103D01*
X8846253Y-15184103D02*
X8827206Y-15193627D01*
X9036729Y-15336484D02*
X9074825Y-15336484D01*
X9074825Y-15336484D02*
X9093872Y-15326960D01*
X9093872Y-15326960D02*
X9103396Y-15317436D01*
X9103396Y-15317436D02*
X9122444Y-15288865D01*
X9122444Y-15288865D02*
X9131968Y-15250769D01*
X9131968Y-15250769D02*
X9131968Y-15174579D01*
X9131968Y-15174579D02*
X9122444Y-15155531D01*
X9122444Y-15155531D02*
X9112920Y-15146008D01*
X9112920Y-15146008D02*
X9093872Y-15136484D01*
X9093872Y-15136484D02*
X9055777Y-15136484D01*
X9055777Y-15136484D02*
X9036729Y-15146008D01*
X9036729Y-15146008D02*
X9027206Y-15155531D01*
X9027206Y-15155531D02*
X9017682Y-15174579D01*
X9017682Y-15174579D02*
X9017682Y-15222198D01*
X9017682Y-15222198D02*
X9027206Y-15241246D01*
X9027206Y-15241246D02*
X9036729Y-15250769D01*
X9036729Y-15250769D02*
X9055777Y-15260293D01*
X9055777Y-15260293D02*
X9093872Y-15260293D01*
X9093872Y-15260293D02*
X9112920Y-15250769D01*
X9112920Y-15250769D02*
X9122444Y-15241246D01*
X9122444Y-15241246D02*
X9131968Y-15222198D01*
X9198634Y-15136484D02*
X9331968Y-15136484D01*
X9331968Y-15136484D02*
X9246253Y-15336484D01*
X9398634Y-15136484D02*
X9398634Y-15174579D01*
X9474825Y-15136484D02*
X9474825Y-15174579D01*
X9770063Y-15412674D02*
X9760539Y-15403150D01*
X9760539Y-15403150D02*
X9741491Y-15374579D01*
X9741491Y-15374579D02*
X9731968Y-15355531D01*
X9731968Y-15355531D02*
X9722444Y-15326960D01*
X9722444Y-15326960D02*
X9712920Y-15279341D01*
X9712920Y-15279341D02*
X9712920Y-15241246D01*
X9712920Y-15241246D02*
X9722444Y-15193627D01*
X9722444Y-15193627D02*
X9731968Y-15165055D01*
X9731968Y-15165055D02*
X9741491Y-15146008D01*
X9741491Y-15146008D02*
X9760539Y-15117436D01*
X9760539Y-15117436D02*
X9770063Y-15107912D01*
X9836730Y-15155531D02*
X9846253Y-15146008D01*
X9846253Y-15146008D02*
X9865301Y-15136484D01*
X9865301Y-15136484D02*
X9912920Y-15136484D01*
X9912920Y-15136484D02*
X9931968Y-15146008D01*
X9931968Y-15146008D02*
X9941491Y-15155531D01*
X9941491Y-15155531D02*
X9951015Y-15174579D01*
X9951015Y-15174579D02*
X9951015Y-15193627D01*
X9951015Y-15193627D02*
X9941491Y-15222198D01*
X9941491Y-15222198D02*
X9827206Y-15336484D01*
X9827206Y-15336484D02*
X9951015Y-15336484D01*
X10017682Y-15136484D02*
X10141491Y-15136484D01*
X10141491Y-15136484D02*
X10074825Y-15212674D01*
X10074825Y-15212674D02*
X10103396Y-15212674D01*
X10103396Y-15212674D02*
X10122444Y-15222198D01*
X10122444Y-15222198D02*
X10131968Y-15231722D01*
X10131968Y-15231722D02*
X10141491Y-15250769D01*
X10141491Y-15250769D02*
X10141491Y-15298388D01*
X10141491Y-15298388D02*
X10131968Y-15317436D01*
X10131968Y-15317436D02*
X10122444Y-15326960D01*
X10122444Y-15326960D02*
X10103396Y-15336484D01*
X10103396Y-15336484D02*
X10046253Y-15336484D01*
X10046253Y-15336484D02*
X10027206Y-15326960D01*
X10027206Y-15326960D02*
X10017682Y-15317436D01*
X10379587Y-15336484D02*
X10379587Y-15136484D01*
X10465301Y-15336484D02*
X10465301Y-15231722D01*
X10465301Y-15231722D02*
X10455777Y-15212674D01*
X10455777Y-15212674D02*
X10436730Y-15203150D01*
X10436730Y-15203150D02*
X10408158Y-15203150D01*
X10408158Y-15203150D02*
X10389111Y-15212674D01*
X10389111Y-15212674D02*
X10379587Y-15222198D01*
X10589111Y-15336484D02*
X10570063Y-15326960D01*
X10570063Y-15326960D02*
X10560539Y-15317436D01*
X10560539Y-15317436D02*
X10551015Y-15298388D01*
X10551015Y-15298388D02*
X10551015Y-15241246D01*
X10551015Y-15241246D02*
X10560539Y-15222198D01*
X10560539Y-15222198D02*
X10570063Y-15212674D01*
X10570063Y-15212674D02*
X10589111Y-15203150D01*
X10589111Y-15203150D02*
X10617682Y-15203150D01*
X10617682Y-15203150D02*
X10636730Y-15212674D01*
X10636730Y-15212674D02*
X10646253Y-15222198D01*
X10646253Y-15222198D02*
X10655777Y-15241246D01*
X10655777Y-15241246D02*
X10655777Y-15298388D01*
X10655777Y-15298388D02*
X10646253Y-15317436D01*
X10646253Y-15317436D02*
X10636730Y-15326960D01*
X10636730Y-15326960D02*
X10617682Y-15336484D01*
X10617682Y-15336484D02*
X10589111Y-15336484D01*
X10770063Y-15336484D02*
X10751015Y-15326960D01*
X10751015Y-15326960D02*
X10741492Y-15307912D01*
X10741492Y-15307912D02*
X10741492Y-15136484D01*
X10922444Y-15326960D02*
X10903396Y-15336484D01*
X10903396Y-15336484D02*
X10865301Y-15336484D01*
X10865301Y-15336484D02*
X10846253Y-15326960D01*
X10846253Y-15326960D02*
X10836730Y-15307912D01*
X10836730Y-15307912D02*
X10836730Y-15231722D01*
X10836730Y-15231722D02*
X10846253Y-15212674D01*
X10846253Y-15212674D02*
X10865301Y-15203150D01*
X10865301Y-15203150D02*
X10903396Y-15203150D01*
X10903396Y-15203150D02*
X10922444Y-15212674D01*
X10922444Y-15212674D02*
X10931968Y-15231722D01*
X10931968Y-15231722D02*
X10931968Y-15250769D01*
X10931968Y-15250769D02*
X10836730Y-15269817D01*
X11008158Y-15326960D02*
X11027206Y-15336484D01*
X11027206Y-15336484D02*
X11065301Y-15336484D01*
X11065301Y-15336484D02*
X11084349Y-15326960D01*
X11084349Y-15326960D02*
X11093873Y-15307912D01*
X11093873Y-15307912D02*
X11093873Y-15298388D01*
X11093873Y-15298388D02*
X11084349Y-15279341D01*
X11084349Y-15279341D02*
X11065301Y-15269817D01*
X11065301Y-15269817D02*
X11036730Y-15269817D01*
X11036730Y-15269817D02*
X11017682Y-15260293D01*
X11017682Y-15260293D02*
X11008158Y-15241246D01*
X11008158Y-15241246D02*
X11008158Y-15231722D01*
X11008158Y-15231722D02*
X11017682Y-15212674D01*
X11017682Y-15212674D02*
X11036730Y-15203150D01*
X11036730Y-15203150D02*
X11065301Y-15203150D01*
X11065301Y-15203150D02*
X11084349Y-15212674D01*
X11160539Y-15412674D02*
X11170063Y-15403150D01*
X11170063Y-15403150D02*
X11189111Y-15374579D01*
X11189111Y-15374579D02*
X11198634Y-15355531D01*
X11198634Y-15355531D02*
X11208158Y-15326960D01*
X11208158Y-15326960D02*
X11217682Y-15279341D01*
X11217682Y-15279341D02*
X11217682Y-15241246D01*
X11217682Y-15241246D02*
X11208158Y-15193627D01*
X11208158Y-15193627D02*
X11198634Y-15165055D01*
X11198634Y-15165055D02*
X11189111Y-15146008D01*
X11189111Y-15146008D02*
X11170063Y-15117436D01*
X11170063Y-15117436D02*
X11160539Y-15107912D01*
D10*
X6195000Y-15509000D02*
G75*
G02*
X6120000Y-15509000I-37500J0D01*
G01*
X6120000Y-15509000D02*
G75*
G02*
X6195000Y-15509000I37500J0D01*
G01*
D11*
X6493872Y-15400484D02*
X6512920Y-15400484D01*
X6512920Y-15400484D02*
X6531967Y-15410008D01*
X6531967Y-15410008D02*
X6541491Y-15419531D01*
X6541491Y-15419531D02*
X6551015Y-15438579D01*
X6551015Y-15438579D02*
X6560539Y-15476674D01*
X6560539Y-15476674D02*
X6560539Y-15524293D01*
X6560539Y-15524293D02*
X6551015Y-15562388D01*
X6551015Y-15562388D02*
X6541491Y-15581436D01*
X6541491Y-15581436D02*
X6531967Y-15590960D01*
X6531967Y-15590960D02*
X6512920Y-15600484D01*
X6512920Y-15600484D02*
X6493872Y-15600484D01*
X6493872Y-15600484D02*
X6474824Y-15590960D01*
X6474824Y-15590960D02*
X6465301Y-15581436D01*
X6465301Y-15581436D02*
X6455777Y-15562388D01*
X6455777Y-15562388D02*
X6446253Y-15524293D01*
X6446253Y-15524293D02*
X6446253Y-15476674D01*
X6446253Y-15476674D02*
X6455777Y-15438579D01*
X6455777Y-15438579D02*
X6465301Y-15419531D01*
X6465301Y-15419531D02*
X6474824Y-15410008D01*
X6474824Y-15410008D02*
X6493872Y-15400484D01*
X6646253Y-15581436D02*
X6655777Y-15590960D01*
X6655777Y-15590960D02*
X6646253Y-15600484D01*
X6646253Y-15600484D02*
X6636729Y-15590960D01*
X6636729Y-15590960D02*
X6646253Y-15581436D01*
X6646253Y-15581436D02*
X6646253Y-15600484D01*
X6722443Y-15400484D02*
X6855777Y-15400484D01*
X6855777Y-15400484D02*
X6770062Y-15600484D01*
X7027205Y-15400484D02*
X6931967Y-15400484D01*
X6931967Y-15400484D02*
X6922443Y-15495722D01*
X6922443Y-15495722D02*
X6931967Y-15486198D01*
X6931967Y-15486198D02*
X6951015Y-15476674D01*
X6951015Y-15476674D02*
X6998634Y-15476674D01*
X6998634Y-15476674D02*
X7017682Y-15486198D01*
X7017682Y-15486198D02*
X7027205Y-15495722D01*
X7027205Y-15495722D02*
X7036729Y-15514769D01*
X7036729Y-15514769D02*
X7036729Y-15562388D01*
X7036729Y-15562388D02*
X7027205Y-15581436D01*
X7027205Y-15581436D02*
X7017682Y-15590960D01*
X7017682Y-15590960D02*
X6998634Y-15600484D01*
X6998634Y-15600484D02*
X6951015Y-15600484D01*
X6951015Y-15600484D02*
X6931967Y-15590960D01*
X6931967Y-15590960D02*
X6922443Y-15581436D01*
X7160539Y-15400484D02*
X7179586Y-15400484D01*
X7179586Y-15400484D02*
X7198634Y-15410008D01*
X7198634Y-15410008D02*
X7208158Y-15419531D01*
X7208158Y-15419531D02*
X7217682Y-15438579D01*
X7217682Y-15438579D02*
X7227205Y-15476674D01*
X7227205Y-15476674D02*
X7227205Y-15524293D01*
X7227205Y-15524293D02*
X7217682Y-15562388D01*
X7217682Y-15562388D02*
X7208158Y-15581436D01*
X7208158Y-15581436D02*
X7198634Y-15590960D01*
X7198634Y-15590960D02*
X7179586Y-15600484D01*
X7179586Y-15600484D02*
X7160539Y-15600484D01*
X7160539Y-15600484D02*
X7141491Y-15590960D01*
X7141491Y-15590960D02*
X7131967Y-15581436D01*
X7131967Y-15581436D02*
X7122443Y-15562388D01*
X7122443Y-15562388D02*
X7112920Y-15524293D01*
X7112920Y-15524293D02*
X7112920Y-15476674D01*
X7112920Y-15476674D02*
X7122443Y-15438579D01*
X7122443Y-15438579D02*
X7131967Y-15419531D01*
X7131967Y-15419531D02*
X7141491Y-15410008D01*
X7141491Y-15410008D02*
X7160539Y-15400484D01*
X7312920Y-15600484D02*
X7312920Y-15467150D01*
X7312920Y-15486198D02*
X7322443Y-15476674D01*
X7322443Y-15476674D02*
X7341491Y-15467150D01*
X7341491Y-15467150D02*
X7370063Y-15467150D01*
X7370063Y-15467150D02*
X7389110Y-15476674D01*
X7389110Y-15476674D02*
X7398634Y-15495722D01*
X7398634Y-15495722D02*
X7398634Y-15600484D01*
X7398634Y-15495722D02*
X7408158Y-15476674D01*
X7408158Y-15476674D02*
X7427205Y-15467150D01*
X7427205Y-15467150D02*
X7455777Y-15467150D01*
X7455777Y-15467150D02*
X7474824Y-15476674D01*
X7474824Y-15476674D02*
X7484348Y-15495722D01*
X7484348Y-15495722D02*
X7484348Y-15600484D01*
X7579586Y-15600484D02*
X7579586Y-15467150D01*
X7579586Y-15486198D02*
X7589110Y-15476674D01*
X7589110Y-15476674D02*
X7608158Y-15467150D01*
X7608158Y-15467150D02*
X7636729Y-15467150D01*
X7636729Y-15467150D02*
X7655777Y-15476674D01*
X7655777Y-15476674D02*
X7665301Y-15495722D01*
X7665301Y-15495722D02*
X7665301Y-15600484D01*
X7665301Y-15495722D02*
X7674824Y-15476674D01*
X7674824Y-15476674D02*
X7693872Y-15467150D01*
X7693872Y-15467150D02*
X7722443Y-15467150D01*
X7722443Y-15467150D02*
X7741491Y-15476674D01*
X7741491Y-15476674D02*
X7751015Y-15495722D01*
X7751015Y-15495722D02*
X7751015Y-15600484D01*
X8141491Y-15390960D02*
X7970063Y-15648103D01*
X8398634Y-15400484D02*
X8417682Y-15400484D01*
X8417682Y-15400484D02*
X8436729Y-15410008D01*
X8436729Y-15410008D02*
X8446253Y-15419531D01*
X8446253Y-15419531D02*
X8455777Y-15438579D01*
X8455777Y-15438579D02*
X8465301Y-15476674D01*
X8465301Y-15476674D02*
X8465301Y-15524293D01*
X8465301Y-15524293D02*
X8455777Y-15562388D01*
X8455777Y-15562388D02*
X8446253Y-15581436D01*
X8446253Y-15581436D02*
X8436729Y-15590960D01*
X8436729Y-15590960D02*
X8417682Y-15600484D01*
X8417682Y-15600484D02*
X8398634Y-15600484D01*
X8398634Y-15600484D02*
X8379586Y-15590960D01*
X8379586Y-15590960D02*
X8370063Y-15581436D01*
X8370063Y-15581436D02*
X8360539Y-15562388D01*
X8360539Y-15562388D02*
X8351015Y-15524293D01*
X8351015Y-15524293D02*
X8351015Y-15476674D01*
X8351015Y-15476674D02*
X8360539Y-15438579D01*
X8360539Y-15438579D02*
X8370063Y-15419531D01*
X8370063Y-15419531D02*
X8379586Y-15410008D01*
X8379586Y-15410008D02*
X8398634Y-15400484D01*
X8551015Y-15581436D02*
X8560539Y-15590960D01*
X8560539Y-15590960D02*
X8551015Y-15600484D01*
X8551015Y-15600484D02*
X8541491Y-15590960D01*
X8541491Y-15590960D02*
X8551015Y-15581436D01*
X8551015Y-15581436D02*
X8551015Y-15600484D01*
X8684348Y-15400484D02*
X8703396Y-15400484D01*
X8703396Y-15400484D02*
X8722444Y-15410008D01*
X8722444Y-15410008D02*
X8731968Y-15419531D01*
X8731968Y-15419531D02*
X8741491Y-15438579D01*
X8741491Y-15438579D02*
X8751015Y-15476674D01*
X8751015Y-15476674D02*
X8751015Y-15524293D01*
X8751015Y-15524293D02*
X8741491Y-15562388D01*
X8741491Y-15562388D02*
X8731968Y-15581436D01*
X8731968Y-15581436D02*
X8722444Y-15590960D01*
X8722444Y-15590960D02*
X8703396Y-15600484D01*
X8703396Y-15600484D02*
X8684348Y-15600484D01*
X8684348Y-15600484D02*
X8665301Y-15590960D01*
X8665301Y-15590960D02*
X8655777Y-15581436D01*
X8655777Y-15581436D02*
X8646253Y-15562388D01*
X8646253Y-15562388D02*
X8636729Y-15524293D01*
X8636729Y-15524293D02*
X8636729Y-15476674D01*
X8636729Y-15476674D02*
X8646253Y-15438579D01*
X8646253Y-15438579D02*
X8655777Y-15419531D01*
X8655777Y-15419531D02*
X8665301Y-15410008D01*
X8665301Y-15410008D02*
X8684348Y-15400484D01*
X8827206Y-15419531D02*
X8836729Y-15410008D01*
X8836729Y-15410008D02*
X8855777Y-15400484D01*
X8855777Y-15400484D02*
X8903396Y-15400484D01*
X8903396Y-15400484D02*
X8922444Y-15410008D01*
X8922444Y-15410008D02*
X8931968Y-15419531D01*
X8931968Y-15419531D02*
X8941491Y-15438579D01*
X8941491Y-15438579D02*
X8941491Y-15457627D01*
X8941491Y-15457627D02*
X8931968Y-15486198D01*
X8931968Y-15486198D02*
X8817682Y-15600484D01*
X8817682Y-15600484D02*
X8941491Y-15600484D01*
X9036729Y-15600484D02*
X9074825Y-15600484D01*
X9074825Y-15600484D02*
X9093872Y-15590960D01*
X9093872Y-15590960D02*
X9103396Y-15581436D01*
X9103396Y-15581436D02*
X9122444Y-15552865D01*
X9122444Y-15552865D02*
X9131968Y-15514769D01*
X9131968Y-15514769D02*
X9131968Y-15438579D01*
X9131968Y-15438579D02*
X9122444Y-15419531D01*
X9122444Y-15419531D02*
X9112920Y-15410008D01*
X9112920Y-15410008D02*
X9093872Y-15400484D01*
X9093872Y-15400484D02*
X9055777Y-15400484D01*
X9055777Y-15400484D02*
X9036729Y-15410008D01*
X9036729Y-15410008D02*
X9027206Y-15419531D01*
X9027206Y-15419531D02*
X9017682Y-15438579D01*
X9017682Y-15438579D02*
X9017682Y-15486198D01*
X9017682Y-15486198D02*
X9027206Y-15505246D01*
X9027206Y-15505246D02*
X9036729Y-15514769D01*
X9036729Y-15514769D02*
X9055777Y-15524293D01*
X9055777Y-15524293D02*
X9093872Y-15524293D01*
X9093872Y-15524293D02*
X9112920Y-15514769D01*
X9112920Y-15514769D02*
X9122444Y-15505246D01*
X9122444Y-15505246D02*
X9131968Y-15486198D01*
X9312920Y-15400484D02*
X9217682Y-15400484D01*
X9217682Y-15400484D02*
X9208158Y-15495722D01*
X9208158Y-15495722D02*
X9217682Y-15486198D01*
X9217682Y-15486198D02*
X9236729Y-15476674D01*
X9236729Y-15476674D02*
X9284349Y-15476674D01*
X9284349Y-15476674D02*
X9303396Y-15486198D01*
X9303396Y-15486198D02*
X9312920Y-15495722D01*
X9312920Y-15495722D02*
X9322444Y-15514769D01*
X9322444Y-15514769D02*
X9322444Y-15562388D01*
X9322444Y-15562388D02*
X9312920Y-15581436D01*
X9312920Y-15581436D02*
X9303396Y-15590960D01*
X9303396Y-15590960D02*
X9284349Y-15600484D01*
X9284349Y-15600484D02*
X9236729Y-15600484D01*
X9236729Y-15600484D02*
X9217682Y-15590960D01*
X9217682Y-15590960D02*
X9208158Y-15581436D01*
X9398634Y-15400484D02*
X9398634Y-15438579D01*
X9474825Y-15400484D02*
X9474825Y-15438579D01*
X9770063Y-15676674D02*
X9760539Y-15667150D01*
X9760539Y-15667150D02*
X9741491Y-15638579D01*
X9741491Y-15638579D02*
X9731968Y-15619531D01*
X9731968Y-15619531D02*
X9722444Y-15590960D01*
X9722444Y-15590960D02*
X9712920Y-15543341D01*
X9712920Y-15543341D02*
X9712920Y-15505246D01*
X9712920Y-15505246D02*
X9722444Y-15457627D01*
X9722444Y-15457627D02*
X9731968Y-15429055D01*
X9731968Y-15429055D02*
X9741491Y-15410008D01*
X9741491Y-15410008D02*
X9760539Y-15381436D01*
X9760539Y-15381436D02*
X9770063Y-15371912D01*
X9827206Y-15400484D02*
X9951015Y-15400484D01*
X9951015Y-15400484D02*
X9884349Y-15476674D01*
X9884349Y-15476674D02*
X9912920Y-15476674D01*
X9912920Y-15476674D02*
X9931968Y-15486198D01*
X9931968Y-15486198D02*
X9941491Y-15495722D01*
X9941491Y-15495722D02*
X9951015Y-15514769D01*
X9951015Y-15514769D02*
X9951015Y-15562388D01*
X9951015Y-15562388D02*
X9941491Y-15581436D01*
X9941491Y-15581436D02*
X9931968Y-15590960D01*
X9931968Y-15590960D02*
X9912920Y-15600484D01*
X9912920Y-15600484D02*
X9855777Y-15600484D01*
X9855777Y-15600484D02*
X9836730Y-15590960D01*
X9836730Y-15590960D02*
X9827206Y-15581436D01*
X10131968Y-15400484D02*
X10036730Y-15400484D01*
X10036730Y-15400484D02*
X10027206Y-15495722D01*
X10027206Y-15495722D02*
X10036730Y-15486198D01*
X10036730Y-15486198D02*
X10055777Y-15476674D01*
X10055777Y-15476674D02*
X10103396Y-15476674D01*
X10103396Y-15476674D02*
X10122444Y-15486198D01*
X10122444Y-15486198D02*
X10131968Y-15495722D01*
X10131968Y-15495722D02*
X10141491Y-15514769D01*
X10141491Y-15514769D02*
X10141491Y-15562388D01*
X10141491Y-15562388D02*
X10131968Y-15581436D01*
X10131968Y-15581436D02*
X10122444Y-15590960D01*
X10122444Y-15590960D02*
X10103396Y-15600484D01*
X10103396Y-15600484D02*
X10055777Y-15600484D01*
X10055777Y-15600484D02*
X10036730Y-15590960D01*
X10036730Y-15590960D02*
X10027206Y-15581436D01*
X10379587Y-15600484D02*
X10379587Y-15400484D01*
X10465301Y-15600484D02*
X10465301Y-15495722D01*
X10465301Y-15495722D02*
X10455777Y-15476674D01*
X10455777Y-15476674D02*
X10436730Y-15467150D01*
X10436730Y-15467150D02*
X10408158Y-15467150D01*
X10408158Y-15467150D02*
X10389111Y-15476674D01*
X10389111Y-15476674D02*
X10379587Y-15486198D01*
X10589111Y-15600484D02*
X10570063Y-15590960D01*
X10570063Y-15590960D02*
X10560539Y-15581436D01*
X10560539Y-15581436D02*
X10551015Y-15562388D01*
X10551015Y-15562388D02*
X10551015Y-15505246D01*
X10551015Y-15505246D02*
X10560539Y-15486198D01*
X10560539Y-15486198D02*
X10570063Y-15476674D01*
X10570063Y-15476674D02*
X10589111Y-15467150D01*
X10589111Y-15467150D02*
X10617682Y-15467150D01*
X10617682Y-15467150D02*
X10636730Y-15476674D01*
X10636730Y-15476674D02*
X10646253Y-15486198D01*
X10646253Y-15486198D02*
X10655777Y-15505246D01*
X10655777Y-15505246D02*
X10655777Y-15562388D01*
X10655777Y-15562388D02*
X10646253Y-15581436D01*
X10646253Y-15581436D02*
X10636730Y-15590960D01*
X10636730Y-15590960D02*
X10617682Y-15600484D01*
X10617682Y-15600484D02*
X10589111Y-15600484D01*
X10770063Y-15600484D02*
X10751015Y-15590960D01*
X10751015Y-15590960D02*
X10741492Y-15571912D01*
X10741492Y-15571912D02*
X10741492Y-15400484D01*
X10922444Y-15590960D02*
X10903396Y-15600484D01*
X10903396Y-15600484D02*
X10865301Y-15600484D01*
X10865301Y-15600484D02*
X10846253Y-15590960D01*
X10846253Y-15590960D02*
X10836730Y-15571912D01*
X10836730Y-15571912D02*
X10836730Y-15495722D01*
X10836730Y-15495722D02*
X10846253Y-15476674D01*
X10846253Y-15476674D02*
X10865301Y-15467150D01*
X10865301Y-15467150D02*
X10903396Y-15467150D01*
X10903396Y-15467150D02*
X10922444Y-15476674D01*
X10922444Y-15476674D02*
X10931968Y-15495722D01*
X10931968Y-15495722D02*
X10931968Y-15514769D01*
X10931968Y-15514769D02*
X10836730Y-15533817D01*
X11008158Y-15590960D02*
X11027206Y-15600484D01*
X11027206Y-15600484D02*
X11065301Y-15600484D01*
X11065301Y-15600484D02*
X11084349Y-15590960D01*
X11084349Y-15590960D02*
X11093873Y-15571912D01*
X11093873Y-15571912D02*
X11093873Y-15562388D01*
X11093873Y-15562388D02*
X11084349Y-15543341D01*
X11084349Y-15543341D02*
X11065301Y-15533817D01*
X11065301Y-15533817D02*
X11036730Y-15533817D01*
X11036730Y-15533817D02*
X11017682Y-15524293D01*
X11017682Y-15524293D02*
X11008158Y-15505246D01*
X11008158Y-15505246D02*
X11008158Y-15495722D01*
X11008158Y-15495722D02*
X11017682Y-15476674D01*
X11017682Y-15476674D02*
X11036730Y-15467150D01*
X11036730Y-15467150D02*
X11065301Y-15467150D01*
X11065301Y-15467150D02*
X11084349Y-15476674D01*
X11160539Y-15676674D02*
X11170063Y-15667150D01*
X11170063Y-15667150D02*
X11189111Y-15638579D01*
X11189111Y-15638579D02*
X11198634Y-15619531D01*
X11198634Y-15619531D02*
X11208158Y-15590960D01*
X11208158Y-15590960D02*
X11217682Y-15543341D01*
X11217682Y-15543341D02*
X11217682Y-15505246D01*
X11217682Y-15505246D02*
X11208158Y-15457627D01*
X11208158Y-15457627D02*
X11198634Y-15429055D01*
X11198634Y-15429055D02*
X11189111Y-15410008D01*
X11189111Y-15410008D02*
X11170063Y-15381436D01*
X11170063Y-15381436D02*
X11160539Y-15371912D01*
D10*
X6155000Y-15733000D02*
X6155000Y-15813000D01*
X6115000Y-15773000D02*
X6195000Y-15773000D01*
D11*
X6493872Y-15664484D02*
X6512920Y-15664484D01*
X6512920Y-15664484D02*
X6531967Y-15674008D01*
X6531967Y-15674008D02*
X6541491Y-15683531D01*
X6541491Y-15683531D02*
X6551015Y-15702579D01*
X6551015Y-15702579D02*
X6560539Y-15740674D01*
X6560539Y-15740674D02*
X6560539Y-15788293D01*
X6560539Y-15788293D02*
X6551015Y-15826388D01*
X6551015Y-15826388D02*
X6541491Y-15845436D01*
X6541491Y-15845436D02*
X6531967Y-15854960D01*
X6531967Y-15854960D02*
X6512920Y-15864484D01*
X6512920Y-15864484D02*
X6493872Y-15864484D01*
X6493872Y-15864484D02*
X6474824Y-15854960D01*
X6474824Y-15854960D02*
X6465301Y-15845436D01*
X6465301Y-15845436D02*
X6455777Y-15826388D01*
X6455777Y-15826388D02*
X6446253Y-15788293D01*
X6446253Y-15788293D02*
X6446253Y-15740674D01*
X6446253Y-15740674D02*
X6455777Y-15702579D01*
X6455777Y-15702579D02*
X6465301Y-15683531D01*
X6465301Y-15683531D02*
X6474824Y-15674008D01*
X6474824Y-15674008D02*
X6493872Y-15664484D01*
X6646253Y-15845436D02*
X6655777Y-15854960D01*
X6655777Y-15854960D02*
X6646253Y-15864484D01*
X6646253Y-15864484D02*
X6636729Y-15854960D01*
X6636729Y-15854960D02*
X6646253Y-15845436D01*
X6646253Y-15845436D02*
X6646253Y-15864484D01*
X6770062Y-15750198D02*
X6751015Y-15740674D01*
X6751015Y-15740674D02*
X6741491Y-15731150D01*
X6741491Y-15731150D02*
X6731967Y-15712103D01*
X6731967Y-15712103D02*
X6731967Y-15702579D01*
X6731967Y-15702579D02*
X6741491Y-15683531D01*
X6741491Y-15683531D02*
X6751015Y-15674008D01*
X6751015Y-15674008D02*
X6770062Y-15664484D01*
X6770062Y-15664484D02*
X6808158Y-15664484D01*
X6808158Y-15664484D02*
X6827205Y-15674008D01*
X6827205Y-15674008D02*
X6836729Y-15683531D01*
X6836729Y-15683531D02*
X6846253Y-15702579D01*
X6846253Y-15702579D02*
X6846253Y-15712103D01*
X6846253Y-15712103D02*
X6836729Y-15731150D01*
X6836729Y-15731150D02*
X6827205Y-15740674D01*
X6827205Y-15740674D02*
X6808158Y-15750198D01*
X6808158Y-15750198D02*
X6770062Y-15750198D01*
X6770062Y-15750198D02*
X6751015Y-15759722D01*
X6751015Y-15759722D02*
X6741491Y-15769246D01*
X6741491Y-15769246D02*
X6731967Y-15788293D01*
X6731967Y-15788293D02*
X6731967Y-15826388D01*
X6731967Y-15826388D02*
X6741491Y-15845436D01*
X6741491Y-15845436D02*
X6751015Y-15854960D01*
X6751015Y-15854960D02*
X6770062Y-15864484D01*
X6770062Y-15864484D02*
X6808158Y-15864484D01*
X6808158Y-15864484D02*
X6827205Y-15854960D01*
X6827205Y-15854960D02*
X6836729Y-15845436D01*
X6836729Y-15845436D02*
X6846253Y-15826388D01*
X6846253Y-15826388D02*
X6846253Y-15788293D01*
X6846253Y-15788293D02*
X6836729Y-15769246D01*
X6836729Y-15769246D02*
X6827205Y-15759722D01*
X6827205Y-15759722D02*
X6808158Y-15750198D01*
X6970062Y-15664484D02*
X6989110Y-15664484D01*
X6989110Y-15664484D02*
X7008158Y-15674008D01*
X7008158Y-15674008D02*
X7017682Y-15683531D01*
X7017682Y-15683531D02*
X7027205Y-15702579D01*
X7027205Y-15702579D02*
X7036729Y-15740674D01*
X7036729Y-15740674D02*
X7036729Y-15788293D01*
X7036729Y-15788293D02*
X7027205Y-15826388D01*
X7027205Y-15826388D02*
X7017682Y-15845436D01*
X7017682Y-15845436D02*
X7008158Y-15854960D01*
X7008158Y-15854960D02*
X6989110Y-15864484D01*
X6989110Y-15864484D02*
X6970062Y-15864484D01*
X6970062Y-15864484D02*
X6951015Y-15854960D01*
X6951015Y-15854960D02*
X6941491Y-15845436D01*
X6941491Y-15845436D02*
X6931967Y-15826388D01*
X6931967Y-15826388D02*
X6922443Y-15788293D01*
X6922443Y-15788293D02*
X6922443Y-15740674D01*
X6922443Y-15740674D02*
X6931967Y-15702579D01*
X6931967Y-15702579D02*
X6941491Y-15683531D01*
X6941491Y-15683531D02*
X6951015Y-15674008D01*
X6951015Y-15674008D02*
X6970062Y-15664484D01*
X7160539Y-15664484D02*
X7179586Y-15664484D01*
X7179586Y-15664484D02*
X7198634Y-15674008D01*
X7198634Y-15674008D02*
X7208158Y-15683531D01*
X7208158Y-15683531D02*
X7217682Y-15702579D01*
X7217682Y-15702579D02*
X7227205Y-15740674D01*
X7227205Y-15740674D02*
X7227205Y-15788293D01*
X7227205Y-15788293D02*
X7217682Y-15826388D01*
X7217682Y-15826388D02*
X7208158Y-15845436D01*
X7208158Y-15845436D02*
X7198634Y-15854960D01*
X7198634Y-15854960D02*
X7179586Y-15864484D01*
X7179586Y-15864484D02*
X7160539Y-15864484D01*
X7160539Y-15864484D02*
X7141491Y-15854960D01*
X7141491Y-15854960D02*
X7131967Y-15845436D01*
X7131967Y-15845436D02*
X7122443Y-15826388D01*
X7122443Y-15826388D02*
X7112920Y-15788293D01*
X7112920Y-15788293D02*
X7112920Y-15740674D01*
X7112920Y-15740674D02*
X7122443Y-15702579D01*
X7122443Y-15702579D02*
X7131967Y-15683531D01*
X7131967Y-15683531D02*
X7141491Y-15674008D01*
X7141491Y-15674008D02*
X7160539Y-15664484D01*
X7312920Y-15864484D02*
X7312920Y-15731150D01*
X7312920Y-15750198D02*
X7322443Y-15740674D01*
X7322443Y-15740674D02*
X7341491Y-15731150D01*
X7341491Y-15731150D02*
X7370063Y-15731150D01*
X7370063Y-15731150D02*
X7389110Y-15740674D01*
X7389110Y-15740674D02*
X7398634Y-15759722D01*
X7398634Y-15759722D02*
X7398634Y-15864484D01*
X7398634Y-15759722D02*
X7408158Y-15740674D01*
X7408158Y-15740674D02*
X7427205Y-15731150D01*
X7427205Y-15731150D02*
X7455777Y-15731150D01*
X7455777Y-15731150D02*
X7474824Y-15740674D01*
X7474824Y-15740674D02*
X7484348Y-15759722D01*
X7484348Y-15759722D02*
X7484348Y-15864484D01*
X7579586Y-15864484D02*
X7579586Y-15731150D01*
X7579586Y-15750198D02*
X7589110Y-15740674D01*
X7589110Y-15740674D02*
X7608158Y-15731150D01*
X7608158Y-15731150D02*
X7636729Y-15731150D01*
X7636729Y-15731150D02*
X7655777Y-15740674D01*
X7655777Y-15740674D02*
X7665301Y-15759722D01*
X7665301Y-15759722D02*
X7665301Y-15864484D01*
X7665301Y-15759722D02*
X7674824Y-15740674D01*
X7674824Y-15740674D02*
X7693872Y-15731150D01*
X7693872Y-15731150D02*
X7722443Y-15731150D01*
X7722443Y-15731150D02*
X7741491Y-15740674D01*
X7741491Y-15740674D02*
X7751015Y-15759722D01*
X7751015Y-15759722D02*
X7751015Y-15864484D01*
X8141491Y-15654960D02*
X7970063Y-15912103D01*
X8398634Y-15664484D02*
X8417682Y-15664484D01*
X8417682Y-15664484D02*
X8436729Y-15674008D01*
X8436729Y-15674008D02*
X8446253Y-15683531D01*
X8446253Y-15683531D02*
X8455777Y-15702579D01*
X8455777Y-15702579D02*
X8465301Y-15740674D01*
X8465301Y-15740674D02*
X8465301Y-15788293D01*
X8465301Y-15788293D02*
X8455777Y-15826388D01*
X8455777Y-15826388D02*
X8446253Y-15845436D01*
X8446253Y-15845436D02*
X8436729Y-15854960D01*
X8436729Y-15854960D02*
X8417682Y-15864484D01*
X8417682Y-15864484D02*
X8398634Y-15864484D01*
X8398634Y-15864484D02*
X8379586Y-15854960D01*
X8379586Y-15854960D02*
X8370063Y-15845436D01*
X8370063Y-15845436D02*
X8360539Y-15826388D01*
X8360539Y-15826388D02*
X8351015Y-15788293D01*
X8351015Y-15788293D02*
X8351015Y-15740674D01*
X8351015Y-15740674D02*
X8360539Y-15702579D01*
X8360539Y-15702579D02*
X8370063Y-15683531D01*
X8370063Y-15683531D02*
X8379586Y-15674008D01*
X8379586Y-15674008D02*
X8398634Y-15664484D01*
X8551015Y-15845436D02*
X8560539Y-15854960D01*
X8560539Y-15854960D02*
X8551015Y-15864484D01*
X8551015Y-15864484D02*
X8541491Y-15854960D01*
X8541491Y-15854960D02*
X8551015Y-15845436D01*
X8551015Y-15845436D02*
X8551015Y-15864484D01*
X8684348Y-15664484D02*
X8703396Y-15664484D01*
X8703396Y-15664484D02*
X8722444Y-15674008D01*
X8722444Y-15674008D02*
X8731968Y-15683531D01*
X8731968Y-15683531D02*
X8741491Y-15702579D01*
X8741491Y-15702579D02*
X8751015Y-15740674D01*
X8751015Y-15740674D02*
X8751015Y-15788293D01*
X8751015Y-15788293D02*
X8741491Y-15826388D01*
X8741491Y-15826388D02*
X8731968Y-15845436D01*
X8731968Y-15845436D02*
X8722444Y-15854960D01*
X8722444Y-15854960D02*
X8703396Y-15864484D01*
X8703396Y-15864484D02*
X8684348Y-15864484D01*
X8684348Y-15864484D02*
X8665301Y-15854960D01*
X8665301Y-15854960D02*
X8655777Y-15845436D01*
X8655777Y-15845436D02*
X8646253Y-15826388D01*
X8646253Y-15826388D02*
X8636729Y-15788293D01*
X8636729Y-15788293D02*
X8636729Y-15740674D01*
X8636729Y-15740674D02*
X8646253Y-15702579D01*
X8646253Y-15702579D02*
X8655777Y-15683531D01*
X8655777Y-15683531D02*
X8665301Y-15674008D01*
X8665301Y-15674008D02*
X8684348Y-15664484D01*
X8817682Y-15664484D02*
X8941491Y-15664484D01*
X8941491Y-15664484D02*
X8874825Y-15740674D01*
X8874825Y-15740674D02*
X8903396Y-15740674D01*
X8903396Y-15740674D02*
X8922444Y-15750198D01*
X8922444Y-15750198D02*
X8931968Y-15759722D01*
X8931968Y-15759722D02*
X8941491Y-15778769D01*
X8941491Y-15778769D02*
X8941491Y-15826388D01*
X8941491Y-15826388D02*
X8931968Y-15845436D01*
X8931968Y-15845436D02*
X8922444Y-15854960D01*
X8922444Y-15854960D02*
X8903396Y-15864484D01*
X8903396Y-15864484D02*
X8846253Y-15864484D01*
X8846253Y-15864484D02*
X8827206Y-15854960D01*
X8827206Y-15854960D02*
X8817682Y-15845436D01*
X9131968Y-15864484D02*
X9017682Y-15864484D01*
X9074825Y-15864484D02*
X9074825Y-15664484D01*
X9074825Y-15664484D02*
X9055777Y-15693055D01*
X9055777Y-15693055D02*
X9036729Y-15712103D01*
X9036729Y-15712103D02*
X9017682Y-15721627D01*
X9312920Y-15664484D02*
X9217682Y-15664484D01*
X9217682Y-15664484D02*
X9208158Y-15759722D01*
X9208158Y-15759722D02*
X9217682Y-15750198D01*
X9217682Y-15750198D02*
X9236729Y-15740674D01*
X9236729Y-15740674D02*
X9284349Y-15740674D01*
X9284349Y-15740674D02*
X9303396Y-15750198D01*
X9303396Y-15750198D02*
X9312920Y-15759722D01*
X9312920Y-15759722D02*
X9322444Y-15778769D01*
X9322444Y-15778769D02*
X9322444Y-15826388D01*
X9322444Y-15826388D02*
X9312920Y-15845436D01*
X9312920Y-15845436D02*
X9303396Y-15854960D01*
X9303396Y-15854960D02*
X9284349Y-15864484D01*
X9284349Y-15864484D02*
X9236729Y-15864484D01*
X9236729Y-15864484D02*
X9217682Y-15854960D01*
X9217682Y-15854960D02*
X9208158Y-15845436D01*
X9398634Y-15664484D02*
X9398634Y-15702579D01*
X9474825Y-15664484D02*
X9474825Y-15702579D01*
X9770063Y-15940674D02*
X9760539Y-15931150D01*
X9760539Y-15931150D02*
X9741491Y-15902579D01*
X9741491Y-15902579D02*
X9731968Y-15883531D01*
X9731968Y-15883531D02*
X9722444Y-15854960D01*
X9722444Y-15854960D02*
X9712920Y-15807341D01*
X9712920Y-15807341D02*
X9712920Y-15769246D01*
X9712920Y-15769246D02*
X9722444Y-15721627D01*
X9722444Y-15721627D02*
X9731968Y-15693055D01*
X9731968Y-15693055D02*
X9741491Y-15674008D01*
X9741491Y-15674008D02*
X9760539Y-15645436D01*
X9760539Y-15645436D02*
X9770063Y-15635912D01*
X9836730Y-15683531D02*
X9846253Y-15674008D01*
X9846253Y-15674008D02*
X9865301Y-15664484D01*
X9865301Y-15664484D02*
X9912920Y-15664484D01*
X9912920Y-15664484D02*
X9931968Y-15674008D01*
X9931968Y-15674008D02*
X9941491Y-15683531D01*
X9941491Y-15683531D02*
X9951015Y-15702579D01*
X9951015Y-15702579D02*
X9951015Y-15721627D01*
X9951015Y-15721627D02*
X9941491Y-15750198D01*
X9941491Y-15750198D02*
X9827206Y-15864484D01*
X9827206Y-15864484D02*
X9951015Y-15864484D01*
X10017682Y-15664484D02*
X10151015Y-15664484D01*
X10151015Y-15664484D02*
X10065301Y-15864484D01*
X10379587Y-15864484D02*
X10379587Y-15664484D01*
X10465301Y-15864484D02*
X10465301Y-15759722D01*
X10465301Y-15759722D02*
X10455777Y-15740674D01*
X10455777Y-15740674D02*
X10436730Y-15731150D01*
X10436730Y-15731150D02*
X10408158Y-15731150D01*
X10408158Y-15731150D02*
X10389111Y-15740674D01*
X10389111Y-15740674D02*
X10379587Y-15750198D01*
X10589111Y-15864484D02*
X10570063Y-15854960D01*
X10570063Y-15854960D02*
X10560539Y-15845436D01*
X10560539Y-15845436D02*
X10551015Y-15826388D01*
X10551015Y-15826388D02*
X10551015Y-15769246D01*
X10551015Y-15769246D02*
X10560539Y-15750198D01*
X10560539Y-15750198D02*
X10570063Y-15740674D01*
X10570063Y-15740674D02*
X10589111Y-15731150D01*
X10589111Y-15731150D02*
X10617682Y-15731150D01*
X10617682Y-15731150D02*
X10636730Y-15740674D01*
X10636730Y-15740674D02*
X10646253Y-15750198D01*
X10646253Y-15750198D02*
X10655777Y-15769246D01*
X10655777Y-15769246D02*
X10655777Y-15826388D01*
X10655777Y-15826388D02*
X10646253Y-15845436D01*
X10646253Y-15845436D02*
X10636730Y-15854960D01*
X10636730Y-15854960D02*
X10617682Y-15864484D01*
X10617682Y-15864484D02*
X10589111Y-15864484D01*
X10770063Y-15864484D02*
X10751015Y-15854960D01*
X10751015Y-15854960D02*
X10741492Y-15835912D01*
X10741492Y-15835912D02*
X10741492Y-15664484D01*
X10922444Y-15854960D02*
X10903396Y-15864484D01*
X10903396Y-15864484D02*
X10865301Y-15864484D01*
X10865301Y-15864484D02*
X10846253Y-15854960D01*
X10846253Y-15854960D02*
X10836730Y-15835912D01*
X10836730Y-15835912D02*
X10836730Y-15759722D01*
X10836730Y-15759722D02*
X10846253Y-15740674D01*
X10846253Y-15740674D02*
X10865301Y-15731150D01*
X10865301Y-15731150D02*
X10903396Y-15731150D01*
X10903396Y-15731150D02*
X10922444Y-15740674D01*
X10922444Y-15740674D02*
X10931968Y-15759722D01*
X10931968Y-15759722D02*
X10931968Y-15778769D01*
X10931968Y-15778769D02*
X10836730Y-15797817D01*
X11008158Y-15854960D02*
X11027206Y-15864484D01*
X11027206Y-15864484D02*
X11065301Y-15864484D01*
X11065301Y-15864484D02*
X11084349Y-15854960D01*
X11084349Y-15854960D02*
X11093873Y-15835912D01*
X11093873Y-15835912D02*
X11093873Y-15826388D01*
X11093873Y-15826388D02*
X11084349Y-15807341D01*
X11084349Y-15807341D02*
X11065301Y-15797817D01*
X11065301Y-15797817D02*
X11036730Y-15797817D01*
X11036730Y-15797817D02*
X11017682Y-15788293D01*
X11017682Y-15788293D02*
X11008158Y-15769246D01*
X11008158Y-15769246D02*
X11008158Y-15759722D01*
X11008158Y-15759722D02*
X11017682Y-15740674D01*
X11017682Y-15740674D02*
X11036730Y-15731150D01*
X11036730Y-15731150D02*
X11065301Y-15731150D01*
X11065301Y-15731150D02*
X11084349Y-15740674D01*
X11160539Y-15940674D02*
X11170063Y-15931150D01*
X11170063Y-15931150D02*
X11189111Y-15902579D01*
X11189111Y-15902579D02*
X11198634Y-15883531D01*
X11198634Y-15883531D02*
X11208158Y-15854960D01*
X11208158Y-15854960D02*
X11217682Y-15807341D01*
X11217682Y-15807341D02*
X11217682Y-15769246D01*
X11217682Y-15769246D02*
X11208158Y-15721627D01*
X11208158Y-15721627D02*
X11198634Y-15693055D01*
X11198634Y-15693055D02*
X11189111Y-15674008D01*
X11189111Y-15674008D02*
X11170063Y-15645436D01*
X11170063Y-15645436D02*
X11160539Y-15635912D01*
D10*
X6180356Y-16072356D02*
X6180356Y-16001644D01*
X6109644Y-16001644D01*
X6109644Y-16072356D01*
X6180356Y-16072356D01*
D11*
X6560539Y-16128484D02*
X6446253Y-16128484D01*
X6503396Y-16128484D02*
X6503396Y-15928484D01*
X6503396Y-15928484D02*
X6484348Y-15957055D01*
X6484348Y-15957055D02*
X6465301Y-15976103D01*
X6465301Y-15976103D02*
X6446253Y-15985627D01*
X6646253Y-16109436D02*
X6655777Y-16118960D01*
X6655777Y-16118960D02*
X6646253Y-16128484D01*
X6646253Y-16128484D02*
X6636729Y-16118960D01*
X6636729Y-16118960D02*
X6646253Y-16109436D01*
X6646253Y-16109436D02*
X6646253Y-16128484D01*
X6779586Y-15928484D02*
X6798634Y-15928484D01*
X6798634Y-15928484D02*
X6817682Y-15938008D01*
X6817682Y-15938008D02*
X6827205Y-15947531D01*
X6827205Y-15947531D02*
X6836729Y-15966579D01*
X6836729Y-15966579D02*
X6846253Y-16004674D01*
X6846253Y-16004674D02*
X6846253Y-16052293D01*
X6846253Y-16052293D02*
X6836729Y-16090388D01*
X6836729Y-16090388D02*
X6827205Y-16109436D01*
X6827205Y-16109436D02*
X6817682Y-16118960D01*
X6817682Y-16118960D02*
X6798634Y-16128484D01*
X6798634Y-16128484D02*
X6779586Y-16128484D01*
X6779586Y-16128484D02*
X6760539Y-16118960D01*
X6760539Y-16118960D02*
X6751015Y-16109436D01*
X6751015Y-16109436D02*
X6741491Y-16090388D01*
X6741491Y-16090388D02*
X6731967Y-16052293D01*
X6731967Y-16052293D02*
X6731967Y-16004674D01*
X6731967Y-16004674D02*
X6741491Y-15966579D01*
X6741491Y-15966579D02*
X6751015Y-15947531D01*
X6751015Y-15947531D02*
X6760539Y-15938008D01*
X6760539Y-15938008D02*
X6779586Y-15928484D01*
X6970062Y-15928484D02*
X6989110Y-15928484D01*
X6989110Y-15928484D02*
X7008158Y-15938008D01*
X7008158Y-15938008D02*
X7017682Y-15947531D01*
X7017682Y-15947531D02*
X7027205Y-15966579D01*
X7027205Y-15966579D02*
X7036729Y-16004674D01*
X7036729Y-16004674D02*
X7036729Y-16052293D01*
X7036729Y-16052293D02*
X7027205Y-16090388D01*
X7027205Y-16090388D02*
X7017682Y-16109436D01*
X7017682Y-16109436D02*
X7008158Y-16118960D01*
X7008158Y-16118960D02*
X6989110Y-16128484D01*
X6989110Y-16128484D02*
X6970062Y-16128484D01*
X6970062Y-16128484D02*
X6951015Y-16118960D01*
X6951015Y-16118960D02*
X6941491Y-16109436D01*
X6941491Y-16109436D02*
X6931967Y-16090388D01*
X6931967Y-16090388D02*
X6922443Y-16052293D01*
X6922443Y-16052293D02*
X6922443Y-16004674D01*
X6922443Y-16004674D02*
X6931967Y-15966579D01*
X6931967Y-15966579D02*
X6941491Y-15947531D01*
X6941491Y-15947531D02*
X6951015Y-15938008D01*
X6951015Y-15938008D02*
X6970062Y-15928484D01*
X7160539Y-15928484D02*
X7179586Y-15928484D01*
X7179586Y-15928484D02*
X7198634Y-15938008D01*
X7198634Y-15938008D02*
X7208158Y-15947531D01*
X7208158Y-15947531D02*
X7217682Y-15966579D01*
X7217682Y-15966579D02*
X7227205Y-16004674D01*
X7227205Y-16004674D02*
X7227205Y-16052293D01*
X7227205Y-16052293D02*
X7217682Y-16090388D01*
X7217682Y-16090388D02*
X7208158Y-16109436D01*
X7208158Y-16109436D02*
X7198634Y-16118960D01*
X7198634Y-16118960D02*
X7179586Y-16128484D01*
X7179586Y-16128484D02*
X7160539Y-16128484D01*
X7160539Y-16128484D02*
X7141491Y-16118960D01*
X7141491Y-16118960D02*
X7131967Y-16109436D01*
X7131967Y-16109436D02*
X7122443Y-16090388D01*
X7122443Y-16090388D02*
X7112920Y-16052293D01*
X7112920Y-16052293D02*
X7112920Y-16004674D01*
X7112920Y-16004674D02*
X7122443Y-15966579D01*
X7122443Y-15966579D02*
X7131967Y-15947531D01*
X7131967Y-15947531D02*
X7141491Y-15938008D01*
X7141491Y-15938008D02*
X7160539Y-15928484D01*
X7312920Y-16128484D02*
X7312920Y-15995150D01*
X7312920Y-16014198D02*
X7322443Y-16004674D01*
X7322443Y-16004674D02*
X7341491Y-15995150D01*
X7341491Y-15995150D02*
X7370063Y-15995150D01*
X7370063Y-15995150D02*
X7389110Y-16004674D01*
X7389110Y-16004674D02*
X7398634Y-16023722D01*
X7398634Y-16023722D02*
X7398634Y-16128484D01*
X7398634Y-16023722D02*
X7408158Y-16004674D01*
X7408158Y-16004674D02*
X7427205Y-15995150D01*
X7427205Y-15995150D02*
X7455777Y-15995150D01*
X7455777Y-15995150D02*
X7474824Y-16004674D01*
X7474824Y-16004674D02*
X7484348Y-16023722D01*
X7484348Y-16023722D02*
X7484348Y-16128484D01*
X7579586Y-16128484D02*
X7579586Y-15995150D01*
X7579586Y-16014198D02*
X7589110Y-16004674D01*
X7589110Y-16004674D02*
X7608158Y-15995150D01*
X7608158Y-15995150D02*
X7636729Y-15995150D01*
X7636729Y-15995150D02*
X7655777Y-16004674D01*
X7655777Y-16004674D02*
X7665301Y-16023722D01*
X7665301Y-16023722D02*
X7665301Y-16128484D01*
X7665301Y-16023722D02*
X7674824Y-16004674D01*
X7674824Y-16004674D02*
X7693872Y-15995150D01*
X7693872Y-15995150D02*
X7722443Y-15995150D01*
X7722443Y-15995150D02*
X7741491Y-16004674D01*
X7741491Y-16004674D02*
X7751015Y-16023722D01*
X7751015Y-16023722D02*
X7751015Y-16128484D01*
X8141491Y-15918960D02*
X7970063Y-16176103D01*
X8398634Y-15928484D02*
X8417682Y-15928484D01*
X8417682Y-15928484D02*
X8436729Y-15938008D01*
X8436729Y-15938008D02*
X8446253Y-15947531D01*
X8446253Y-15947531D02*
X8455777Y-15966579D01*
X8455777Y-15966579D02*
X8465301Y-16004674D01*
X8465301Y-16004674D02*
X8465301Y-16052293D01*
X8465301Y-16052293D02*
X8455777Y-16090388D01*
X8455777Y-16090388D02*
X8446253Y-16109436D01*
X8446253Y-16109436D02*
X8436729Y-16118960D01*
X8436729Y-16118960D02*
X8417682Y-16128484D01*
X8417682Y-16128484D02*
X8398634Y-16128484D01*
X8398634Y-16128484D02*
X8379586Y-16118960D01*
X8379586Y-16118960D02*
X8370063Y-16109436D01*
X8370063Y-16109436D02*
X8360539Y-16090388D01*
X8360539Y-16090388D02*
X8351015Y-16052293D01*
X8351015Y-16052293D02*
X8351015Y-16004674D01*
X8351015Y-16004674D02*
X8360539Y-15966579D01*
X8360539Y-15966579D02*
X8370063Y-15947531D01*
X8370063Y-15947531D02*
X8379586Y-15938008D01*
X8379586Y-15938008D02*
X8398634Y-15928484D01*
X8551015Y-16109436D02*
X8560539Y-16118960D01*
X8560539Y-16118960D02*
X8551015Y-16128484D01*
X8551015Y-16128484D02*
X8541491Y-16118960D01*
X8541491Y-16118960D02*
X8551015Y-16109436D01*
X8551015Y-16109436D02*
X8551015Y-16128484D01*
X8684348Y-15928484D02*
X8703396Y-15928484D01*
X8703396Y-15928484D02*
X8722444Y-15938008D01*
X8722444Y-15938008D02*
X8731968Y-15947531D01*
X8731968Y-15947531D02*
X8741491Y-15966579D01*
X8741491Y-15966579D02*
X8751015Y-16004674D01*
X8751015Y-16004674D02*
X8751015Y-16052293D01*
X8751015Y-16052293D02*
X8741491Y-16090388D01*
X8741491Y-16090388D02*
X8731968Y-16109436D01*
X8731968Y-16109436D02*
X8722444Y-16118960D01*
X8722444Y-16118960D02*
X8703396Y-16128484D01*
X8703396Y-16128484D02*
X8684348Y-16128484D01*
X8684348Y-16128484D02*
X8665301Y-16118960D01*
X8665301Y-16118960D02*
X8655777Y-16109436D01*
X8655777Y-16109436D02*
X8646253Y-16090388D01*
X8646253Y-16090388D02*
X8636729Y-16052293D01*
X8636729Y-16052293D02*
X8636729Y-16004674D01*
X8636729Y-16004674D02*
X8646253Y-15966579D01*
X8646253Y-15966579D02*
X8655777Y-15947531D01*
X8655777Y-15947531D02*
X8665301Y-15938008D01*
X8665301Y-15938008D02*
X8684348Y-15928484D01*
X8817682Y-15928484D02*
X8941491Y-15928484D01*
X8941491Y-15928484D02*
X8874825Y-16004674D01*
X8874825Y-16004674D02*
X8903396Y-16004674D01*
X8903396Y-16004674D02*
X8922444Y-16014198D01*
X8922444Y-16014198D02*
X8931968Y-16023722D01*
X8931968Y-16023722D02*
X8941491Y-16042769D01*
X8941491Y-16042769D02*
X8941491Y-16090388D01*
X8941491Y-16090388D02*
X8931968Y-16109436D01*
X8931968Y-16109436D02*
X8922444Y-16118960D01*
X8922444Y-16118960D02*
X8903396Y-16128484D01*
X8903396Y-16128484D02*
X8846253Y-16128484D01*
X8846253Y-16128484D02*
X8827206Y-16118960D01*
X8827206Y-16118960D02*
X8817682Y-16109436D01*
X9036729Y-16128484D02*
X9074825Y-16128484D01*
X9074825Y-16128484D02*
X9093872Y-16118960D01*
X9093872Y-16118960D02*
X9103396Y-16109436D01*
X9103396Y-16109436D02*
X9122444Y-16080865D01*
X9122444Y-16080865D02*
X9131968Y-16042769D01*
X9131968Y-16042769D02*
X9131968Y-15966579D01*
X9131968Y-15966579D02*
X9122444Y-15947531D01*
X9122444Y-15947531D02*
X9112920Y-15938008D01*
X9112920Y-15938008D02*
X9093872Y-15928484D01*
X9093872Y-15928484D02*
X9055777Y-15928484D01*
X9055777Y-15928484D02*
X9036729Y-15938008D01*
X9036729Y-15938008D02*
X9027206Y-15947531D01*
X9027206Y-15947531D02*
X9017682Y-15966579D01*
X9017682Y-15966579D02*
X9017682Y-16014198D01*
X9017682Y-16014198D02*
X9027206Y-16033246D01*
X9027206Y-16033246D02*
X9036729Y-16042769D01*
X9036729Y-16042769D02*
X9055777Y-16052293D01*
X9055777Y-16052293D02*
X9093872Y-16052293D01*
X9093872Y-16052293D02*
X9112920Y-16042769D01*
X9112920Y-16042769D02*
X9122444Y-16033246D01*
X9122444Y-16033246D02*
X9131968Y-16014198D01*
X9303396Y-15995150D02*
X9303396Y-16128484D01*
X9255777Y-15918960D02*
X9208158Y-16061817D01*
X9208158Y-16061817D02*
X9331968Y-16061817D01*
X9398634Y-15928484D02*
X9398634Y-15966579D01*
X9474825Y-15928484D02*
X9474825Y-15966579D01*
X9770063Y-16204674D02*
X9760539Y-16195150D01*
X9760539Y-16195150D02*
X9741491Y-16166579D01*
X9741491Y-16166579D02*
X9731968Y-16147531D01*
X9731968Y-16147531D02*
X9722444Y-16118960D01*
X9722444Y-16118960D02*
X9712920Y-16071341D01*
X9712920Y-16071341D02*
X9712920Y-16033246D01*
X9712920Y-16033246D02*
X9722444Y-15985627D01*
X9722444Y-15985627D02*
X9731968Y-15957055D01*
X9731968Y-15957055D02*
X9741491Y-15938008D01*
X9741491Y-15938008D02*
X9760539Y-15909436D01*
X9760539Y-15909436D02*
X9770063Y-15899912D01*
X9931968Y-15995150D02*
X9931968Y-16128484D01*
X9884349Y-15918960D02*
X9836730Y-16061817D01*
X9836730Y-16061817D02*
X9960539Y-16061817D01*
X10074825Y-15928484D02*
X10093872Y-15928484D01*
X10093872Y-15928484D02*
X10112920Y-15938008D01*
X10112920Y-15938008D02*
X10122444Y-15947531D01*
X10122444Y-15947531D02*
X10131968Y-15966579D01*
X10131968Y-15966579D02*
X10141491Y-16004674D01*
X10141491Y-16004674D02*
X10141491Y-16052293D01*
X10141491Y-16052293D02*
X10131968Y-16090388D01*
X10131968Y-16090388D02*
X10122444Y-16109436D01*
X10122444Y-16109436D02*
X10112920Y-16118960D01*
X10112920Y-16118960D02*
X10093872Y-16128484D01*
X10093872Y-16128484D02*
X10074825Y-16128484D01*
X10074825Y-16128484D02*
X10055777Y-16118960D01*
X10055777Y-16118960D02*
X10046253Y-16109436D01*
X10046253Y-16109436D02*
X10036730Y-16090388D01*
X10036730Y-16090388D02*
X10027206Y-16052293D01*
X10027206Y-16052293D02*
X10027206Y-16004674D01*
X10027206Y-16004674D02*
X10036730Y-15966579D01*
X10036730Y-15966579D02*
X10046253Y-15947531D01*
X10046253Y-15947531D02*
X10055777Y-15938008D01*
X10055777Y-15938008D02*
X10074825Y-15928484D01*
X10379587Y-16128484D02*
X10379587Y-15928484D01*
X10465301Y-16128484D02*
X10465301Y-16023722D01*
X10465301Y-16023722D02*
X10455777Y-16004674D01*
X10455777Y-16004674D02*
X10436730Y-15995150D01*
X10436730Y-15995150D02*
X10408158Y-15995150D01*
X10408158Y-15995150D02*
X10389111Y-16004674D01*
X10389111Y-16004674D02*
X10379587Y-16014198D01*
X10589111Y-16128484D02*
X10570063Y-16118960D01*
X10570063Y-16118960D02*
X10560539Y-16109436D01*
X10560539Y-16109436D02*
X10551015Y-16090388D01*
X10551015Y-16090388D02*
X10551015Y-16033246D01*
X10551015Y-16033246D02*
X10560539Y-16014198D01*
X10560539Y-16014198D02*
X10570063Y-16004674D01*
X10570063Y-16004674D02*
X10589111Y-15995150D01*
X10589111Y-15995150D02*
X10617682Y-15995150D01*
X10617682Y-15995150D02*
X10636730Y-16004674D01*
X10636730Y-16004674D02*
X10646253Y-16014198D01*
X10646253Y-16014198D02*
X10655777Y-16033246D01*
X10655777Y-16033246D02*
X10655777Y-16090388D01*
X10655777Y-16090388D02*
X10646253Y-16109436D01*
X10646253Y-16109436D02*
X10636730Y-16118960D01*
X10636730Y-16118960D02*
X10617682Y-16128484D01*
X10617682Y-16128484D02*
X10589111Y-16128484D01*
X10770063Y-16128484D02*
X10751015Y-16118960D01*
X10751015Y-16118960D02*
X10741492Y-16099912D01*
X10741492Y-16099912D02*
X10741492Y-15928484D01*
X10922444Y-16118960D02*
X10903396Y-16128484D01*
X10903396Y-16128484D02*
X10865301Y-16128484D01*
X10865301Y-16128484D02*
X10846253Y-16118960D01*
X10846253Y-16118960D02*
X10836730Y-16099912D01*
X10836730Y-16099912D02*
X10836730Y-16023722D01*
X10836730Y-16023722D02*
X10846253Y-16004674D01*
X10846253Y-16004674D02*
X10865301Y-15995150D01*
X10865301Y-15995150D02*
X10903396Y-15995150D01*
X10903396Y-15995150D02*
X10922444Y-16004674D01*
X10922444Y-16004674D02*
X10931968Y-16023722D01*
X10931968Y-16023722D02*
X10931968Y-16042769D01*
X10931968Y-16042769D02*
X10836730Y-16061817D01*
X11008158Y-16118960D02*
X11027206Y-16128484D01*
X11027206Y-16128484D02*
X11065301Y-16128484D01*
X11065301Y-16128484D02*
X11084349Y-16118960D01*
X11084349Y-16118960D02*
X11093873Y-16099912D01*
X11093873Y-16099912D02*
X11093873Y-16090388D01*
X11093873Y-16090388D02*
X11084349Y-16071341D01*
X11084349Y-16071341D02*
X11065301Y-16061817D01*
X11065301Y-16061817D02*
X11036730Y-16061817D01*
X11036730Y-16061817D02*
X11017682Y-16052293D01*
X11017682Y-16052293D02*
X11008158Y-16033246D01*
X11008158Y-16033246D02*
X11008158Y-16023722D01*
X11008158Y-16023722D02*
X11017682Y-16004674D01*
X11017682Y-16004674D02*
X11036730Y-15995150D01*
X11036730Y-15995150D02*
X11065301Y-15995150D01*
X11065301Y-15995150D02*
X11084349Y-16004674D01*
X11160539Y-16204674D02*
X11170063Y-16195150D01*
X11170063Y-16195150D02*
X11189111Y-16166579D01*
X11189111Y-16166579D02*
X11198634Y-16147531D01*
X11198634Y-16147531D02*
X11208158Y-16118960D01*
X11208158Y-16118960D02*
X11217682Y-16071341D01*
X11217682Y-16071341D02*
X11217682Y-16033246D01*
X11217682Y-16033246D02*
X11208158Y-15985627D01*
X11208158Y-15985627D02*
X11198634Y-15957055D01*
X11198634Y-15957055D02*
X11189111Y-15938008D01*
X11189111Y-15938008D02*
X11170063Y-15909436D01*
X11170063Y-15909436D02*
X11160539Y-15899912D01*
D12*
X6140000Y-16356000D02*
X6195000Y-16301000D01*
X6140000Y-16246000D01*
X6085000Y-16301000D01*
X6140000Y-16356000D01*
D11*
X6560539Y-16392484D02*
X6446253Y-16392484D01*
X6503396Y-16392484D02*
X6503396Y-16192484D01*
X6503396Y-16192484D02*
X6484348Y-16221055D01*
X6484348Y-16221055D02*
X6465301Y-16240103D01*
X6465301Y-16240103D02*
X6446253Y-16249627D01*
X6646253Y-16373436D02*
X6655777Y-16382960D01*
X6655777Y-16382960D02*
X6646253Y-16392484D01*
X6646253Y-16392484D02*
X6636729Y-16382960D01*
X6636729Y-16382960D02*
X6646253Y-16373436D01*
X6646253Y-16373436D02*
X6646253Y-16392484D01*
X6846253Y-16392484D02*
X6731967Y-16392484D01*
X6789110Y-16392484D02*
X6789110Y-16192484D01*
X6789110Y-16192484D02*
X6770062Y-16221055D01*
X6770062Y-16221055D02*
X6751015Y-16240103D01*
X6751015Y-16240103D02*
X6731967Y-16249627D01*
X6970062Y-16192484D02*
X6989110Y-16192484D01*
X6989110Y-16192484D02*
X7008158Y-16202008D01*
X7008158Y-16202008D02*
X7017682Y-16211531D01*
X7017682Y-16211531D02*
X7027205Y-16230579D01*
X7027205Y-16230579D02*
X7036729Y-16268674D01*
X7036729Y-16268674D02*
X7036729Y-16316293D01*
X7036729Y-16316293D02*
X7027205Y-16354388D01*
X7027205Y-16354388D02*
X7017682Y-16373436D01*
X7017682Y-16373436D02*
X7008158Y-16382960D01*
X7008158Y-16382960D02*
X6989110Y-16392484D01*
X6989110Y-16392484D02*
X6970062Y-16392484D01*
X6970062Y-16392484D02*
X6951015Y-16382960D01*
X6951015Y-16382960D02*
X6941491Y-16373436D01*
X6941491Y-16373436D02*
X6931967Y-16354388D01*
X6931967Y-16354388D02*
X6922443Y-16316293D01*
X6922443Y-16316293D02*
X6922443Y-16268674D01*
X6922443Y-16268674D02*
X6931967Y-16230579D01*
X6931967Y-16230579D02*
X6941491Y-16211531D01*
X6941491Y-16211531D02*
X6951015Y-16202008D01*
X6951015Y-16202008D02*
X6970062Y-16192484D01*
X7160539Y-16192484D02*
X7179586Y-16192484D01*
X7179586Y-16192484D02*
X7198634Y-16202008D01*
X7198634Y-16202008D02*
X7208158Y-16211531D01*
X7208158Y-16211531D02*
X7217682Y-16230579D01*
X7217682Y-16230579D02*
X7227205Y-16268674D01*
X7227205Y-16268674D02*
X7227205Y-16316293D01*
X7227205Y-16316293D02*
X7217682Y-16354388D01*
X7217682Y-16354388D02*
X7208158Y-16373436D01*
X7208158Y-16373436D02*
X7198634Y-16382960D01*
X7198634Y-16382960D02*
X7179586Y-16392484D01*
X7179586Y-16392484D02*
X7160539Y-16392484D01*
X7160539Y-16392484D02*
X7141491Y-16382960D01*
X7141491Y-16382960D02*
X7131967Y-16373436D01*
X7131967Y-16373436D02*
X7122443Y-16354388D01*
X7122443Y-16354388D02*
X7112920Y-16316293D01*
X7112920Y-16316293D02*
X7112920Y-16268674D01*
X7112920Y-16268674D02*
X7122443Y-16230579D01*
X7122443Y-16230579D02*
X7131967Y-16211531D01*
X7131967Y-16211531D02*
X7141491Y-16202008D01*
X7141491Y-16202008D02*
X7160539Y-16192484D01*
X7312920Y-16392484D02*
X7312920Y-16259150D01*
X7312920Y-16278198D02*
X7322443Y-16268674D01*
X7322443Y-16268674D02*
X7341491Y-16259150D01*
X7341491Y-16259150D02*
X7370063Y-16259150D01*
X7370063Y-16259150D02*
X7389110Y-16268674D01*
X7389110Y-16268674D02*
X7398634Y-16287722D01*
X7398634Y-16287722D02*
X7398634Y-16392484D01*
X7398634Y-16287722D02*
X7408158Y-16268674D01*
X7408158Y-16268674D02*
X7427205Y-16259150D01*
X7427205Y-16259150D02*
X7455777Y-16259150D01*
X7455777Y-16259150D02*
X7474824Y-16268674D01*
X7474824Y-16268674D02*
X7484348Y-16287722D01*
X7484348Y-16287722D02*
X7484348Y-16392484D01*
X7579586Y-16392484D02*
X7579586Y-16259150D01*
X7579586Y-16278198D02*
X7589110Y-16268674D01*
X7589110Y-16268674D02*
X7608158Y-16259150D01*
X7608158Y-16259150D02*
X7636729Y-16259150D01*
X7636729Y-16259150D02*
X7655777Y-16268674D01*
X7655777Y-16268674D02*
X7665301Y-16287722D01*
X7665301Y-16287722D02*
X7665301Y-16392484D01*
X7665301Y-16287722D02*
X7674824Y-16268674D01*
X7674824Y-16268674D02*
X7693872Y-16259150D01*
X7693872Y-16259150D02*
X7722443Y-16259150D01*
X7722443Y-16259150D02*
X7741491Y-16268674D01*
X7741491Y-16268674D02*
X7751015Y-16287722D01*
X7751015Y-16287722D02*
X7751015Y-16392484D01*
X8141491Y-16182960D02*
X7970063Y-16440103D01*
X8398634Y-16192484D02*
X8417682Y-16192484D01*
X8417682Y-16192484D02*
X8436729Y-16202008D01*
X8436729Y-16202008D02*
X8446253Y-16211531D01*
X8446253Y-16211531D02*
X8455777Y-16230579D01*
X8455777Y-16230579D02*
X8465301Y-16268674D01*
X8465301Y-16268674D02*
X8465301Y-16316293D01*
X8465301Y-16316293D02*
X8455777Y-16354388D01*
X8455777Y-16354388D02*
X8446253Y-16373436D01*
X8446253Y-16373436D02*
X8436729Y-16382960D01*
X8436729Y-16382960D02*
X8417682Y-16392484D01*
X8417682Y-16392484D02*
X8398634Y-16392484D01*
X8398634Y-16392484D02*
X8379586Y-16382960D01*
X8379586Y-16382960D02*
X8370063Y-16373436D01*
X8370063Y-16373436D02*
X8360539Y-16354388D01*
X8360539Y-16354388D02*
X8351015Y-16316293D01*
X8351015Y-16316293D02*
X8351015Y-16268674D01*
X8351015Y-16268674D02*
X8360539Y-16230579D01*
X8360539Y-16230579D02*
X8370063Y-16211531D01*
X8370063Y-16211531D02*
X8379586Y-16202008D01*
X8379586Y-16202008D02*
X8398634Y-16192484D01*
X8551015Y-16373436D02*
X8560539Y-16382960D01*
X8560539Y-16382960D02*
X8551015Y-16392484D01*
X8551015Y-16392484D02*
X8541491Y-16382960D01*
X8541491Y-16382960D02*
X8551015Y-16373436D01*
X8551015Y-16373436D02*
X8551015Y-16392484D01*
X8684348Y-16192484D02*
X8703396Y-16192484D01*
X8703396Y-16192484D02*
X8722444Y-16202008D01*
X8722444Y-16202008D02*
X8731968Y-16211531D01*
X8731968Y-16211531D02*
X8741491Y-16230579D01*
X8741491Y-16230579D02*
X8751015Y-16268674D01*
X8751015Y-16268674D02*
X8751015Y-16316293D01*
X8751015Y-16316293D02*
X8741491Y-16354388D01*
X8741491Y-16354388D02*
X8731968Y-16373436D01*
X8731968Y-16373436D02*
X8722444Y-16382960D01*
X8722444Y-16382960D02*
X8703396Y-16392484D01*
X8703396Y-16392484D02*
X8684348Y-16392484D01*
X8684348Y-16392484D02*
X8665301Y-16382960D01*
X8665301Y-16382960D02*
X8655777Y-16373436D01*
X8655777Y-16373436D02*
X8646253Y-16354388D01*
X8646253Y-16354388D02*
X8636729Y-16316293D01*
X8636729Y-16316293D02*
X8636729Y-16268674D01*
X8636729Y-16268674D02*
X8646253Y-16230579D01*
X8646253Y-16230579D02*
X8655777Y-16211531D01*
X8655777Y-16211531D02*
X8665301Y-16202008D01*
X8665301Y-16202008D02*
X8684348Y-16192484D01*
X8922444Y-16259150D02*
X8922444Y-16392484D01*
X8874825Y-16182960D02*
X8827206Y-16325817D01*
X8827206Y-16325817D02*
X8951015Y-16325817D01*
X9008158Y-16192484D02*
X9131968Y-16192484D01*
X9131968Y-16192484D02*
X9065301Y-16268674D01*
X9065301Y-16268674D02*
X9093872Y-16268674D01*
X9093872Y-16268674D02*
X9112920Y-16278198D01*
X9112920Y-16278198D02*
X9122444Y-16287722D01*
X9122444Y-16287722D02*
X9131968Y-16306769D01*
X9131968Y-16306769D02*
X9131968Y-16354388D01*
X9131968Y-16354388D02*
X9122444Y-16373436D01*
X9122444Y-16373436D02*
X9112920Y-16382960D01*
X9112920Y-16382960D02*
X9093872Y-16392484D01*
X9093872Y-16392484D02*
X9036729Y-16392484D01*
X9036729Y-16392484D02*
X9017682Y-16382960D01*
X9017682Y-16382960D02*
X9008158Y-16373436D01*
X9198634Y-16192484D02*
X9322444Y-16192484D01*
X9322444Y-16192484D02*
X9255777Y-16268674D01*
X9255777Y-16268674D02*
X9284349Y-16268674D01*
X9284349Y-16268674D02*
X9303396Y-16278198D01*
X9303396Y-16278198D02*
X9312920Y-16287722D01*
X9312920Y-16287722D02*
X9322444Y-16306769D01*
X9322444Y-16306769D02*
X9322444Y-16354388D01*
X9322444Y-16354388D02*
X9312920Y-16373436D01*
X9312920Y-16373436D02*
X9303396Y-16382960D01*
X9303396Y-16382960D02*
X9284349Y-16392484D01*
X9284349Y-16392484D02*
X9227206Y-16392484D01*
X9227206Y-16392484D02*
X9208158Y-16382960D01*
X9208158Y-16382960D02*
X9198634Y-16373436D01*
X9398634Y-16192484D02*
X9398634Y-16230579D01*
X9474825Y-16192484D02*
X9474825Y-16230579D01*
X9770063Y-16468674D02*
X9760539Y-16459150D01*
X9760539Y-16459150D02*
X9741491Y-16430579D01*
X9741491Y-16430579D02*
X9731968Y-16411531D01*
X9731968Y-16411531D02*
X9722444Y-16382960D01*
X9722444Y-16382960D02*
X9712920Y-16335341D01*
X9712920Y-16335341D02*
X9712920Y-16297246D01*
X9712920Y-16297246D02*
X9722444Y-16249627D01*
X9722444Y-16249627D02*
X9731968Y-16221055D01*
X9731968Y-16221055D02*
X9741491Y-16202008D01*
X9741491Y-16202008D02*
X9760539Y-16173436D01*
X9760539Y-16173436D02*
X9770063Y-16163912D01*
X9827206Y-16192484D02*
X9951015Y-16192484D01*
X9951015Y-16192484D02*
X9884349Y-16268674D01*
X9884349Y-16268674D02*
X9912920Y-16268674D01*
X9912920Y-16268674D02*
X9931968Y-16278198D01*
X9931968Y-16278198D02*
X9941491Y-16287722D01*
X9941491Y-16287722D02*
X9951015Y-16306769D01*
X9951015Y-16306769D02*
X9951015Y-16354388D01*
X9951015Y-16354388D02*
X9941491Y-16373436D01*
X9941491Y-16373436D02*
X9931968Y-16382960D01*
X9931968Y-16382960D02*
X9912920Y-16392484D01*
X9912920Y-16392484D02*
X9855777Y-16392484D01*
X9855777Y-16392484D02*
X9836730Y-16382960D01*
X9836730Y-16382960D02*
X9827206Y-16373436D01*
X10122444Y-16259150D02*
X10122444Y-16392484D01*
X10074825Y-16182960D02*
X10027206Y-16325817D01*
X10027206Y-16325817D02*
X10151015Y-16325817D01*
X10379587Y-16392484D02*
X10379587Y-16192484D01*
X10465301Y-16392484D02*
X10465301Y-16287722D01*
X10465301Y-16287722D02*
X10455777Y-16268674D01*
X10455777Y-16268674D02*
X10436730Y-16259150D01*
X10436730Y-16259150D02*
X10408158Y-16259150D01*
X10408158Y-16259150D02*
X10389111Y-16268674D01*
X10389111Y-16268674D02*
X10379587Y-16278198D01*
X10589111Y-16392484D02*
X10570063Y-16382960D01*
X10570063Y-16382960D02*
X10560539Y-16373436D01*
X10560539Y-16373436D02*
X10551015Y-16354388D01*
X10551015Y-16354388D02*
X10551015Y-16297246D01*
X10551015Y-16297246D02*
X10560539Y-16278198D01*
X10560539Y-16278198D02*
X10570063Y-16268674D01*
X10570063Y-16268674D02*
X10589111Y-16259150D01*
X10589111Y-16259150D02*
X10617682Y-16259150D01*
X10617682Y-16259150D02*
X10636730Y-16268674D01*
X10636730Y-16268674D02*
X10646253Y-16278198D01*
X10646253Y-16278198D02*
X10655777Y-16297246D01*
X10655777Y-16297246D02*
X10655777Y-16354388D01*
X10655777Y-16354388D02*
X10646253Y-16373436D01*
X10646253Y-16373436D02*
X10636730Y-16382960D01*
X10636730Y-16382960D02*
X10617682Y-16392484D01*
X10617682Y-16392484D02*
X10589111Y-16392484D01*
X10770063Y-16392484D02*
X10751015Y-16382960D01*
X10751015Y-16382960D02*
X10741492Y-16363912D01*
X10741492Y-16363912D02*
X10741492Y-16192484D01*
X10922444Y-16382960D02*
X10903396Y-16392484D01*
X10903396Y-16392484D02*
X10865301Y-16392484D01*
X10865301Y-16392484D02*
X10846253Y-16382960D01*
X10846253Y-16382960D02*
X10836730Y-16363912D01*
X10836730Y-16363912D02*
X10836730Y-16287722D01*
X10836730Y-16287722D02*
X10846253Y-16268674D01*
X10846253Y-16268674D02*
X10865301Y-16259150D01*
X10865301Y-16259150D02*
X10903396Y-16259150D01*
X10903396Y-16259150D02*
X10922444Y-16268674D01*
X10922444Y-16268674D02*
X10931968Y-16287722D01*
X10931968Y-16287722D02*
X10931968Y-16306769D01*
X10931968Y-16306769D02*
X10836730Y-16325817D01*
X11008158Y-16382960D02*
X11027206Y-16392484D01*
X11027206Y-16392484D02*
X11065301Y-16392484D01*
X11065301Y-16392484D02*
X11084349Y-16382960D01*
X11084349Y-16382960D02*
X11093873Y-16363912D01*
X11093873Y-16363912D02*
X11093873Y-16354388D01*
X11093873Y-16354388D02*
X11084349Y-16335341D01*
X11084349Y-16335341D02*
X11065301Y-16325817D01*
X11065301Y-16325817D02*
X11036730Y-16325817D01*
X11036730Y-16325817D02*
X11017682Y-16316293D01*
X11017682Y-16316293D02*
X11008158Y-16297246D01*
X11008158Y-16297246D02*
X11008158Y-16287722D01*
X11008158Y-16287722D02*
X11017682Y-16268674D01*
X11017682Y-16268674D02*
X11036730Y-16259150D01*
X11036730Y-16259150D02*
X11065301Y-16259150D01*
X11065301Y-16259150D02*
X11084349Y-16268674D01*
X11160539Y-16468674D02*
X11170063Y-16459150D01*
X11170063Y-16459150D02*
X11189111Y-16430579D01*
X11189111Y-16430579D02*
X11198634Y-16411531D01*
X11198634Y-16411531D02*
X11208158Y-16382960D01*
X11208158Y-16382960D02*
X11217682Y-16335341D01*
X11217682Y-16335341D02*
X11217682Y-16297246D01*
X11217682Y-16297246D02*
X11208158Y-16249627D01*
X11208158Y-16249627D02*
X11198634Y-16221055D01*
X11198634Y-16221055D02*
X11189111Y-16202008D01*
X11189111Y-16202008D02*
X11170063Y-16173436D01*
X11170063Y-16173436D02*
X11160539Y-16163912D01*
D13*
X6075000Y-16505000D02*
X6195000Y-16625000D01*
X6195000Y-16505000D02*
X6075000Y-16625000D01*
X6195000Y-16565000D02*
G75*
G02*
X6075000Y-16565000I-60000J0D01*
G01*
X6075000Y-16565000D02*
G75*
G02*
X6195000Y-16565000I60000J0D01*
G01*
D11*
X6560539Y-16656484D02*
X6446253Y-16656484D01*
X6503396Y-16656484D02*
X6503396Y-16456484D01*
X6503396Y-16456484D02*
X6484348Y-16485055D01*
X6484348Y-16485055D02*
X6465301Y-16504103D01*
X6465301Y-16504103D02*
X6446253Y-16513627D01*
X6646253Y-16637436D02*
X6655777Y-16646960D01*
X6655777Y-16646960D02*
X6646253Y-16656484D01*
X6646253Y-16656484D02*
X6636729Y-16646960D01*
X6636729Y-16646960D02*
X6646253Y-16637436D01*
X6646253Y-16637436D02*
X6646253Y-16656484D01*
X6731967Y-16475531D02*
X6741491Y-16466008D01*
X6741491Y-16466008D02*
X6760539Y-16456484D01*
X6760539Y-16456484D02*
X6808158Y-16456484D01*
X6808158Y-16456484D02*
X6827205Y-16466008D01*
X6827205Y-16466008D02*
X6836729Y-16475531D01*
X6836729Y-16475531D02*
X6846253Y-16494579D01*
X6846253Y-16494579D02*
X6846253Y-16513627D01*
X6846253Y-16513627D02*
X6836729Y-16542198D01*
X6836729Y-16542198D02*
X6722443Y-16656484D01*
X6722443Y-16656484D02*
X6846253Y-16656484D01*
X6970062Y-16456484D02*
X6989110Y-16456484D01*
X6989110Y-16456484D02*
X7008158Y-16466008D01*
X7008158Y-16466008D02*
X7017682Y-16475531D01*
X7017682Y-16475531D02*
X7027205Y-16494579D01*
X7027205Y-16494579D02*
X7036729Y-16532674D01*
X7036729Y-16532674D02*
X7036729Y-16580293D01*
X7036729Y-16580293D02*
X7027205Y-16618388D01*
X7027205Y-16618388D02*
X7017682Y-16637436D01*
X7017682Y-16637436D02*
X7008158Y-16646960D01*
X7008158Y-16646960D02*
X6989110Y-16656484D01*
X6989110Y-16656484D02*
X6970062Y-16656484D01*
X6970062Y-16656484D02*
X6951015Y-16646960D01*
X6951015Y-16646960D02*
X6941491Y-16637436D01*
X6941491Y-16637436D02*
X6931967Y-16618388D01*
X6931967Y-16618388D02*
X6922443Y-16580293D01*
X6922443Y-16580293D02*
X6922443Y-16532674D01*
X6922443Y-16532674D02*
X6931967Y-16494579D01*
X6931967Y-16494579D02*
X6941491Y-16475531D01*
X6941491Y-16475531D02*
X6951015Y-16466008D01*
X6951015Y-16466008D02*
X6970062Y-16456484D01*
X7160539Y-16456484D02*
X7179586Y-16456484D01*
X7179586Y-16456484D02*
X7198634Y-16466008D01*
X7198634Y-16466008D02*
X7208158Y-16475531D01*
X7208158Y-16475531D02*
X7217682Y-16494579D01*
X7217682Y-16494579D02*
X7227205Y-16532674D01*
X7227205Y-16532674D02*
X7227205Y-16580293D01*
X7227205Y-16580293D02*
X7217682Y-16618388D01*
X7217682Y-16618388D02*
X7208158Y-16637436D01*
X7208158Y-16637436D02*
X7198634Y-16646960D01*
X7198634Y-16646960D02*
X7179586Y-16656484D01*
X7179586Y-16656484D02*
X7160539Y-16656484D01*
X7160539Y-16656484D02*
X7141491Y-16646960D01*
X7141491Y-16646960D02*
X7131967Y-16637436D01*
X7131967Y-16637436D02*
X7122443Y-16618388D01*
X7122443Y-16618388D02*
X7112920Y-16580293D01*
X7112920Y-16580293D02*
X7112920Y-16532674D01*
X7112920Y-16532674D02*
X7122443Y-16494579D01*
X7122443Y-16494579D02*
X7131967Y-16475531D01*
X7131967Y-16475531D02*
X7141491Y-16466008D01*
X7141491Y-16466008D02*
X7160539Y-16456484D01*
X7312920Y-16656484D02*
X7312920Y-16523150D01*
X7312920Y-16542198D02*
X7322443Y-16532674D01*
X7322443Y-16532674D02*
X7341491Y-16523150D01*
X7341491Y-16523150D02*
X7370063Y-16523150D01*
X7370063Y-16523150D02*
X7389110Y-16532674D01*
X7389110Y-16532674D02*
X7398634Y-16551722D01*
X7398634Y-16551722D02*
X7398634Y-16656484D01*
X7398634Y-16551722D02*
X7408158Y-16532674D01*
X7408158Y-16532674D02*
X7427205Y-16523150D01*
X7427205Y-16523150D02*
X7455777Y-16523150D01*
X7455777Y-16523150D02*
X7474824Y-16532674D01*
X7474824Y-16532674D02*
X7484348Y-16551722D01*
X7484348Y-16551722D02*
X7484348Y-16656484D01*
X7579586Y-16656484D02*
X7579586Y-16523150D01*
X7579586Y-16542198D02*
X7589110Y-16532674D01*
X7589110Y-16532674D02*
X7608158Y-16523150D01*
X7608158Y-16523150D02*
X7636729Y-16523150D01*
X7636729Y-16523150D02*
X7655777Y-16532674D01*
X7655777Y-16532674D02*
X7665301Y-16551722D01*
X7665301Y-16551722D02*
X7665301Y-16656484D01*
X7665301Y-16551722D02*
X7674824Y-16532674D01*
X7674824Y-16532674D02*
X7693872Y-16523150D01*
X7693872Y-16523150D02*
X7722443Y-16523150D01*
X7722443Y-16523150D02*
X7741491Y-16532674D01*
X7741491Y-16532674D02*
X7751015Y-16551722D01*
X7751015Y-16551722D02*
X7751015Y-16656484D01*
X8141491Y-16446960D02*
X7970063Y-16704103D01*
X8398634Y-16456484D02*
X8417682Y-16456484D01*
X8417682Y-16456484D02*
X8436729Y-16466008D01*
X8436729Y-16466008D02*
X8446253Y-16475531D01*
X8446253Y-16475531D02*
X8455777Y-16494579D01*
X8455777Y-16494579D02*
X8465301Y-16532674D01*
X8465301Y-16532674D02*
X8465301Y-16580293D01*
X8465301Y-16580293D02*
X8455777Y-16618388D01*
X8455777Y-16618388D02*
X8446253Y-16637436D01*
X8446253Y-16637436D02*
X8436729Y-16646960D01*
X8436729Y-16646960D02*
X8417682Y-16656484D01*
X8417682Y-16656484D02*
X8398634Y-16656484D01*
X8398634Y-16656484D02*
X8379586Y-16646960D01*
X8379586Y-16646960D02*
X8370063Y-16637436D01*
X8370063Y-16637436D02*
X8360539Y-16618388D01*
X8360539Y-16618388D02*
X8351015Y-16580293D01*
X8351015Y-16580293D02*
X8351015Y-16532674D01*
X8351015Y-16532674D02*
X8360539Y-16494579D01*
X8360539Y-16494579D02*
X8370063Y-16475531D01*
X8370063Y-16475531D02*
X8379586Y-16466008D01*
X8379586Y-16466008D02*
X8398634Y-16456484D01*
X8551015Y-16637436D02*
X8560539Y-16646960D01*
X8560539Y-16646960D02*
X8551015Y-16656484D01*
X8551015Y-16656484D02*
X8541491Y-16646960D01*
X8541491Y-16646960D02*
X8551015Y-16637436D01*
X8551015Y-16637436D02*
X8551015Y-16656484D01*
X8684348Y-16456484D02*
X8703396Y-16456484D01*
X8703396Y-16456484D02*
X8722444Y-16466008D01*
X8722444Y-16466008D02*
X8731968Y-16475531D01*
X8731968Y-16475531D02*
X8741491Y-16494579D01*
X8741491Y-16494579D02*
X8751015Y-16532674D01*
X8751015Y-16532674D02*
X8751015Y-16580293D01*
X8751015Y-16580293D02*
X8741491Y-16618388D01*
X8741491Y-16618388D02*
X8731968Y-16637436D01*
X8731968Y-16637436D02*
X8722444Y-16646960D01*
X8722444Y-16646960D02*
X8703396Y-16656484D01*
X8703396Y-16656484D02*
X8684348Y-16656484D01*
X8684348Y-16656484D02*
X8665301Y-16646960D01*
X8665301Y-16646960D02*
X8655777Y-16637436D01*
X8655777Y-16637436D02*
X8646253Y-16618388D01*
X8646253Y-16618388D02*
X8636729Y-16580293D01*
X8636729Y-16580293D02*
X8636729Y-16532674D01*
X8636729Y-16532674D02*
X8646253Y-16494579D01*
X8646253Y-16494579D02*
X8655777Y-16475531D01*
X8655777Y-16475531D02*
X8665301Y-16466008D01*
X8665301Y-16466008D02*
X8684348Y-16456484D01*
X8922444Y-16523150D02*
X8922444Y-16656484D01*
X8874825Y-16446960D02*
X8827206Y-16589817D01*
X8827206Y-16589817D02*
X8951015Y-16589817D01*
X9008158Y-16456484D02*
X9141491Y-16456484D01*
X9141491Y-16456484D02*
X9055777Y-16656484D01*
X9208158Y-16475531D02*
X9217682Y-16466008D01*
X9217682Y-16466008D02*
X9236729Y-16456484D01*
X9236729Y-16456484D02*
X9284349Y-16456484D01*
X9284349Y-16456484D02*
X9303396Y-16466008D01*
X9303396Y-16466008D02*
X9312920Y-16475531D01*
X9312920Y-16475531D02*
X9322444Y-16494579D01*
X9322444Y-16494579D02*
X9322444Y-16513627D01*
X9322444Y-16513627D02*
X9312920Y-16542198D01*
X9312920Y-16542198D02*
X9198634Y-16656484D01*
X9198634Y-16656484D02*
X9322444Y-16656484D01*
X9398634Y-16456484D02*
X9398634Y-16494579D01*
X9474825Y-16456484D02*
X9474825Y-16494579D01*
X9770063Y-16732674D02*
X9760539Y-16723150D01*
X9760539Y-16723150D02*
X9741491Y-16694579D01*
X9741491Y-16694579D02*
X9731968Y-16675531D01*
X9731968Y-16675531D02*
X9722444Y-16646960D01*
X9722444Y-16646960D02*
X9712920Y-16599341D01*
X9712920Y-16599341D02*
X9712920Y-16561246D01*
X9712920Y-16561246D02*
X9722444Y-16513627D01*
X9722444Y-16513627D02*
X9731968Y-16485055D01*
X9731968Y-16485055D02*
X9741491Y-16466008D01*
X9741491Y-16466008D02*
X9760539Y-16437436D01*
X9760539Y-16437436D02*
X9770063Y-16427912D01*
X9874825Y-16542198D02*
X9855777Y-16532674D01*
X9855777Y-16532674D02*
X9846253Y-16523150D01*
X9846253Y-16523150D02*
X9836730Y-16504103D01*
X9836730Y-16504103D02*
X9836730Y-16494579D01*
X9836730Y-16494579D02*
X9846253Y-16475531D01*
X9846253Y-16475531D02*
X9855777Y-16466008D01*
X9855777Y-16466008D02*
X9874825Y-16456484D01*
X9874825Y-16456484D02*
X9912920Y-16456484D01*
X9912920Y-16456484D02*
X9931968Y-16466008D01*
X9931968Y-16466008D02*
X9941491Y-16475531D01*
X9941491Y-16475531D02*
X9951015Y-16494579D01*
X9951015Y-16494579D02*
X9951015Y-16504103D01*
X9951015Y-16504103D02*
X9941491Y-16523150D01*
X9941491Y-16523150D02*
X9931968Y-16532674D01*
X9931968Y-16532674D02*
X9912920Y-16542198D01*
X9912920Y-16542198D02*
X9874825Y-16542198D01*
X9874825Y-16542198D02*
X9855777Y-16551722D01*
X9855777Y-16551722D02*
X9846253Y-16561246D01*
X9846253Y-16561246D02*
X9836730Y-16580293D01*
X9836730Y-16580293D02*
X9836730Y-16618388D01*
X9836730Y-16618388D02*
X9846253Y-16637436D01*
X9846253Y-16637436D02*
X9855777Y-16646960D01*
X9855777Y-16646960D02*
X9874825Y-16656484D01*
X9874825Y-16656484D02*
X9912920Y-16656484D01*
X9912920Y-16656484D02*
X9931968Y-16646960D01*
X9931968Y-16646960D02*
X9941491Y-16637436D01*
X9941491Y-16637436D02*
X9951015Y-16618388D01*
X9951015Y-16618388D02*
X9951015Y-16580293D01*
X9951015Y-16580293D02*
X9941491Y-16561246D01*
X9941491Y-16561246D02*
X9931968Y-16551722D01*
X9931968Y-16551722D02*
X9912920Y-16542198D01*
X10189111Y-16656484D02*
X10189111Y-16456484D01*
X10274825Y-16656484D02*
X10274825Y-16551722D01*
X10274825Y-16551722D02*
X10265301Y-16532674D01*
X10265301Y-16532674D02*
X10246253Y-16523150D01*
X10246253Y-16523150D02*
X10217682Y-16523150D01*
X10217682Y-16523150D02*
X10198634Y-16532674D01*
X10198634Y-16532674D02*
X10189111Y-16542198D01*
X10398634Y-16656484D02*
X10379587Y-16646960D01*
X10379587Y-16646960D02*
X10370063Y-16637436D01*
X10370063Y-16637436D02*
X10360539Y-16618388D01*
X10360539Y-16618388D02*
X10360539Y-16561246D01*
X10360539Y-16561246D02*
X10370063Y-16542198D01*
X10370063Y-16542198D02*
X10379587Y-16532674D01*
X10379587Y-16532674D02*
X10398634Y-16523150D01*
X10398634Y-16523150D02*
X10427206Y-16523150D01*
X10427206Y-16523150D02*
X10446253Y-16532674D01*
X10446253Y-16532674D02*
X10455777Y-16542198D01*
X10455777Y-16542198D02*
X10465301Y-16561246D01*
X10465301Y-16561246D02*
X10465301Y-16618388D01*
X10465301Y-16618388D02*
X10455777Y-16637436D01*
X10455777Y-16637436D02*
X10446253Y-16646960D01*
X10446253Y-16646960D02*
X10427206Y-16656484D01*
X10427206Y-16656484D02*
X10398634Y-16656484D01*
X10579587Y-16656484D02*
X10560539Y-16646960D01*
X10560539Y-16646960D02*
X10551015Y-16627912D01*
X10551015Y-16627912D02*
X10551015Y-16456484D01*
X10731968Y-16646960D02*
X10712920Y-16656484D01*
X10712920Y-16656484D02*
X10674825Y-16656484D01*
X10674825Y-16656484D02*
X10655777Y-16646960D01*
X10655777Y-16646960D02*
X10646253Y-16627912D01*
X10646253Y-16627912D02*
X10646253Y-16551722D01*
X10646253Y-16551722D02*
X10655777Y-16532674D01*
X10655777Y-16532674D02*
X10674825Y-16523150D01*
X10674825Y-16523150D02*
X10712920Y-16523150D01*
X10712920Y-16523150D02*
X10731968Y-16532674D01*
X10731968Y-16532674D02*
X10741492Y-16551722D01*
X10741492Y-16551722D02*
X10741492Y-16570769D01*
X10741492Y-16570769D02*
X10646253Y-16589817D01*
X10817682Y-16646960D02*
X10836730Y-16656484D01*
X10836730Y-16656484D02*
X10874825Y-16656484D01*
X10874825Y-16656484D02*
X10893873Y-16646960D01*
X10893873Y-16646960D02*
X10903396Y-16627912D01*
X10903396Y-16627912D02*
X10903396Y-16618388D01*
X10903396Y-16618388D02*
X10893873Y-16599341D01*
X10893873Y-16599341D02*
X10874825Y-16589817D01*
X10874825Y-16589817D02*
X10846253Y-16589817D01*
X10846253Y-16589817D02*
X10827206Y-16580293D01*
X10827206Y-16580293D02*
X10817682Y-16561246D01*
X10817682Y-16561246D02*
X10817682Y-16551722D01*
X10817682Y-16551722D02*
X10827206Y-16532674D01*
X10827206Y-16532674D02*
X10846253Y-16523150D01*
X10846253Y-16523150D02*
X10874825Y-16523150D01*
X10874825Y-16523150D02*
X10893873Y-16532674D01*
X10970063Y-16732674D02*
X10979587Y-16723150D01*
X10979587Y-16723150D02*
X10998634Y-16694579D01*
X10998634Y-16694579D02*
X11008158Y-16675531D01*
X11008158Y-16675531D02*
X11017682Y-16646960D01*
X11017682Y-16646960D02*
X11027206Y-16599341D01*
X11027206Y-16599341D02*
X11027206Y-16561246D01*
X11027206Y-16561246D02*
X11017682Y-16513627D01*
X11017682Y-16513627D02*
X11008158Y-16485055D01*
X11008158Y-16485055D02*
X10998634Y-16466008D01*
X10998634Y-16466008D02*
X10979587Y-16437436D01*
X10979587Y-16437436D02*
X10970063Y-16427912D01*
D14*
X6017000Y-16740000D02*
X6195000Y-16918000D01*
X6195000Y-16740000D02*
X6017000Y-16918000D01*
X6106000Y-16740000D02*
X6106000Y-16918000D01*
X6017000Y-16829000D02*
X6195000Y-16829000D01*
D11*
X6560539Y-16920484D02*
X6446253Y-16920484D01*
X6503396Y-16920484D02*
X6503396Y-16720484D01*
X6503396Y-16720484D02*
X6484348Y-16749055D01*
X6484348Y-16749055D02*
X6465301Y-16768103D01*
X6465301Y-16768103D02*
X6446253Y-16777627D01*
X6646253Y-16901436D02*
X6655777Y-16910960D01*
X6655777Y-16910960D02*
X6646253Y-16920484D01*
X6646253Y-16920484D02*
X6636729Y-16910960D01*
X6636729Y-16910960D02*
X6646253Y-16901436D01*
X6646253Y-16901436D02*
X6646253Y-16920484D01*
X6722443Y-16720484D02*
X6855777Y-16720484D01*
X6855777Y-16720484D02*
X6770062Y-16920484D01*
X6960539Y-16806198D02*
X6941491Y-16796674D01*
X6941491Y-16796674D02*
X6931967Y-16787150D01*
X6931967Y-16787150D02*
X6922443Y-16768103D01*
X6922443Y-16768103D02*
X6922443Y-16758579D01*
X6922443Y-16758579D02*
X6931967Y-16739531D01*
X6931967Y-16739531D02*
X6941491Y-16730008D01*
X6941491Y-16730008D02*
X6960539Y-16720484D01*
X6960539Y-16720484D02*
X6998634Y-16720484D01*
X6998634Y-16720484D02*
X7017682Y-16730008D01*
X7017682Y-16730008D02*
X7027205Y-16739531D01*
X7027205Y-16739531D02*
X7036729Y-16758579D01*
X7036729Y-16758579D02*
X7036729Y-16768103D01*
X7036729Y-16768103D02*
X7027205Y-16787150D01*
X7027205Y-16787150D02*
X7017682Y-16796674D01*
X7017682Y-16796674D02*
X6998634Y-16806198D01*
X6998634Y-16806198D02*
X6960539Y-16806198D01*
X6960539Y-16806198D02*
X6941491Y-16815722D01*
X6941491Y-16815722D02*
X6931967Y-16825246D01*
X6931967Y-16825246D02*
X6922443Y-16844293D01*
X6922443Y-16844293D02*
X6922443Y-16882389D01*
X6922443Y-16882389D02*
X6931967Y-16901436D01*
X6931967Y-16901436D02*
X6941491Y-16910960D01*
X6941491Y-16910960D02*
X6960539Y-16920484D01*
X6960539Y-16920484D02*
X6998634Y-16920484D01*
X6998634Y-16920484D02*
X7017682Y-16910960D01*
X7017682Y-16910960D02*
X7027205Y-16901436D01*
X7027205Y-16901436D02*
X7036729Y-16882389D01*
X7036729Y-16882389D02*
X7036729Y-16844293D01*
X7036729Y-16844293D02*
X7027205Y-16825246D01*
X7027205Y-16825246D02*
X7017682Y-16815722D01*
X7017682Y-16815722D02*
X6998634Y-16806198D01*
X7160539Y-16720484D02*
X7179586Y-16720484D01*
X7179586Y-16720484D02*
X7198634Y-16730008D01*
X7198634Y-16730008D02*
X7208158Y-16739531D01*
X7208158Y-16739531D02*
X7217682Y-16758579D01*
X7217682Y-16758579D02*
X7227205Y-16796674D01*
X7227205Y-16796674D02*
X7227205Y-16844293D01*
X7227205Y-16844293D02*
X7217682Y-16882389D01*
X7217682Y-16882389D02*
X7208158Y-16901436D01*
X7208158Y-16901436D02*
X7198634Y-16910960D01*
X7198634Y-16910960D02*
X7179586Y-16920484D01*
X7179586Y-16920484D02*
X7160539Y-16920484D01*
X7160539Y-16920484D02*
X7141491Y-16910960D01*
X7141491Y-16910960D02*
X7131967Y-16901436D01*
X7131967Y-16901436D02*
X7122443Y-16882389D01*
X7122443Y-16882389D02*
X7112920Y-16844293D01*
X7112920Y-16844293D02*
X7112920Y-16796674D01*
X7112920Y-16796674D02*
X7122443Y-16758579D01*
X7122443Y-16758579D02*
X7131967Y-16739531D01*
X7131967Y-16739531D02*
X7141491Y-16730008D01*
X7141491Y-16730008D02*
X7160539Y-16720484D01*
X7312920Y-16920484D02*
X7312920Y-16787150D01*
X7312920Y-16806198D02*
X7322443Y-16796674D01*
X7322443Y-16796674D02*
X7341491Y-16787150D01*
X7341491Y-16787150D02*
X7370063Y-16787150D01*
X7370063Y-16787150D02*
X7389110Y-16796674D01*
X7389110Y-16796674D02*
X7398634Y-16815722D01*
X7398634Y-16815722D02*
X7398634Y-16920484D01*
X7398634Y-16815722D02*
X7408158Y-16796674D01*
X7408158Y-16796674D02*
X7427205Y-16787150D01*
X7427205Y-16787150D02*
X7455777Y-16787150D01*
X7455777Y-16787150D02*
X7474824Y-16796674D01*
X7474824Y-16796674D02*
X7484348Y-16815722D01*
X7484348Y-16815722D02*
X7484348Y-16920484D01*
X7579586Y-16920484D02*
X7579586Y-16787150D01*
X7579586Y-16806198D02*
X7589110Y-16796674D01*
X7589110Y-16796674D02*
X7608158Y-16787150D01*
X7608158Y-16787150D02*
X7636729Y-16787150D01*
X7636729Y-16787150D02*
X7655777Y-16796674D01*
X7655777Y-16796674D02*
X7665301Y-16815722D01*
X7665301Y-16815722D02*
X7665301Y-16920484D01*
X7665301Y-16815722D02*
X7674824Y-16796674D01*
X7674824Y-16796674D02*
X7693872Y-16787150D01*
X7693872Y-16787150D02*
X7722443Y-16787150D01*
X7722443Y-16787150D02*
X7741491Y-16796674D01*
X7741491Y-16796674D02*
X7751015Y-16815722D01*
X7751015Y-16815722D02*
X7751015Y-16920484D01*
X8141491Y-16710960D02*
X7970063Y-16968103D01*
X8398634Y-16720484D02*
X8417682Y-16720484D01*
X8417682Y-16720484D02*
X8436729Y-16730008D01*
X8436729Y-16730008D02*
X8446253Y-16739531D01*
X8446253Y-16739531D02*
X8455777Y-16758579D01*
X8455777Y-16758579D02*
X8465301Y-16796674D01*
X8465301Y-16796674D02*
X8465301Y-16844293D01*
X8465301Y-16844293D02*
X8455777Y-16882389D01*
X8455777Y-16882389D02*
X8446253Y-16901436D01*
X8446253Y-16901436D02*
X8436729Y-16910960D01*
X8436729Y-16910960D02*
X8417682Y-16920484D01*
X8417682Y-16920484D02*
X8398634Y-16920484D01*
X8398634Y-16920484D02*
X8379586Y-16910960D01*
X8379586Y-16910960D02*
X8370063Y-16901436D01*
X8370063Y-16901436D02*
X8360539Y-16882389D01*
X8360539Y-16882389D02*
X8351015Y-16844293D01*
X8351015Y-16844293D02*
X8351015Y-16796674D01*
X8351015Y-16796674D02*
X8360539Y-16758579D01*
X8360539Y-16758579D02*
X8370063Y-16739531D01*
X8370063Y-16739531D02*
X8379586Y-16730008D01*
X8379586Y-16730008D02*
X8398634Y-16720484D01*
X8551015Y-16901436D02*
X8560539Y-16910960D01*
X8560539Y-16910960D02*
X8551015Y-16920484D01*
X8551015Y-16920484D02*
X8541491Y-16910960D01*
X8541491Y-16910960D02*
X8551015Y-16901436D01*
X8551015Y-16901436D02*
X8551015Y-16920484D01*
X8684348Y-16720484D02*
X8703396Y-16720484D01*
X8703396Y-16720484D02*
X8722444Y-16730008D01*
X8722444Y-16730008D02*
X8731968Y-16739531D01*
X8731968Y-16739531D02*
X8741491Y-16758579D01*
X8741491Y-16758579D02*
X8751015Y-16796674D01*
X8751015Y-16796674D02*
X8751015Y-16844293D01*
X8751015Y-16844293D02*
X8741491Y-16882389D01*
X8741491Y-16882389D02*
X8731968Y-16901436D01*
X8731968Y-16901436D02*
X8722444Y-16910960D01*
X8722444Y-16910960D02*
X8703396Y-16920484D01*
X8703396Y-16920484D02*
X8684348Y-16920484D01*
X8684348Y-16920484D02*
X8665301Y-16910960D01*
X8665301Y-16910960D02*
X8655777Y-16901436D01*
X8655777Y-16901436D02*
X8646253Y-16882389D01*
X8646253Y-16882389D02*
X8636729Y-16844293D01*
X8636729Y-16844293D02*
X8636729Y-16796674D01*
X8636729Y-16796674D02*
X8646253Y-16758579D01*
X8646253Y-16758579D02*
X8655777Y-16739531D01*
X8655777Y-16739531D02*
X8665301Y-16730008D01*
X8665301Y-16730008D02*
X8684348Y-16720484D01*
X8817682Y-16720484D02*
X8951015Y-16720484D01*
X8951015Y-16720484D02*
X8865301Y-16920484D01*
X9065301Y-16720484D02*
X9084349Y-16720484D01*
X9084349Y-16720484D02*
X9103396Y-16730008D01*
X9103396Y-16730008D02*
X9112920Y-16739531D01*
X9112920Y-16739531D02*
X9122444Y-16758579D01*
X9122444Y-16758579D02*
X9131968Y-16796674D01*
X9131968Y-16796674D02*
X9131968Y-16844293D01*
X9131968Y-16844293D02*
X9122444Y-16882389D01*
X9122444Y-16882389D02*
X9112920Y-16901436D01*
X9112920Y-16901436D02*
X9103396Y-16910960D01*
X9103396Y-16910960D02*
X9084349Y-16920484D01*
X9084349Y-16920484D02*
X9065301Y-16920484D01*
X9065301Y-16920484D02*
X9046253Y-16910960D01*
X9046253Y-16910960D02*
X9036729Y-16901436D01*
X9036729Y-16901436D02*
X9027206Y-16882389D01*
X9027206Y-16882389D02*
X9017682Y-16844293D01*
X9017682Y-16844293D02*
X9017682Y-16796674D01*
X9017682Y-16796674D02*
X9027206Y-16758579D01*
X9027206Y-16758579D02*
X9036729Y-16739531D01*
X9036729Y-16739531D02*
X9046253Y-16730008D01*
X9046253Y-16730008D02*
X9065301Y-16720484D01*
X9322444Y-16920484D02*
X9208158Y-16920484D01*
X9265301Y-16920484D02*
X9265301Y-16720484D01*
X9265301Y-16720484D02*
X9246253Y-16749055D01*
X9246253Y-16749055D02*
X9227206Y-16768103D01*
X9227206Y-16768103D02*
X9208158Y-16777627D01*
X9398634Y-16720484D02*
X9398634Y-16758579D01*
X9474825Y-16720484D02*
X9474825Y-16758579D01*
X9770063Y-16996674D02*
X9760539Y-16987150D01*
X9760539Y-16987150D02*
X9741491Y-16958579D01*
X9741491Y-16958579D02*
X9731968Y-16939531D01*
X9731968Y-16939531D02*
X9722444Y-16910960D01*
X9722444Y-16910960D02*
X9712920Y-16863341D01*
X9712920Y-16863341D02*
X9712920Y-16825246D01*
X9712920Y-16825246D02*
X9722444Y-16777627D01*
X9722444Y-16777627D02*
X9731968Y-16749055D01*
X9731968Y-16749055D02*
X9741491Y-16730008D01*
X9741491Y-16730008D02*
X9760539Y-16701436D01*
X9760539Y-16701436D02*
X9770063Y-16691912D01*
X9931968Y-16787150D02*
X9931968Y-16920484D01*
X9884349Y-16710960D02*
X9836730Y-16853817D01*
X9836730Y-16853817D02*
X9960539Y-16853817D01*
X10189111Y-16920484D02*
X10189111Y-16720484D01*
X10274825Y-16920484D02*
X10274825Y-16815722D01*
X10274825Y-16815722D02*
X10265301Y-16796674D01*
X10265301Y-16796674D02*
X10246253Y-16787150D01*
X10246253Y-16787150D02*
X10217682Y-16787150D01*
X10217682Y-16787150D02*
X10198634Y-16796674D01*
X10198634Y-16796674D02*
X10189111Y-16806198D01*
X10398634Y-16920484D02*
X10379587Y-16910960D01*
X10379587Y-16910960D02*
X10370063Y-16901436D01*
X10370063Y-16901436D02*
X10360539Y-16882389D01*
X10360539Y-16882389D02*
X10360539Y-16825246D01*
X10360539Y-16825246D02*
X10370063Y-16806198D01*
X10370063Y-16806198D02*
X10379587Y-16796674D01*
X10379587Y-16796674D02*
X10398634Y-16787150D01*
X10398634Y-16787150D02*
X10427206Y-16787150D01*
X10427206Y-16787150D02*
X10446253Y-16796674D01*
X10446253Y-16796674D02*
X10455777Y-16806198D01*
X10455777Y-16806198D02*
X10465301Y-16825246D01*
X10465301Y-16825246D02*
X10465301Y-16882389D01*
X10465301Y-16882389D02*
X10455777Y-16901436D01*
X10455777Y-16901436D02*
X10446253Y-16910960D01*
X10446253Y-16910960D02*
X10427206Y-16920484D01*
X10427206Y-16920484D02*
X10398634Y-16920484D01*
X10579587Y-16920484D02*
X10560539Y-16910960D01*
X10560539Y-16910960D02*
X10551015Y-16891912D01*
X10551015Y-16891912D02*
X10551015Y-16720484D01*
X10731968Y-16910960D02*
X10712920Y-16920484D01*
X10712920Y-16920484D02*
X10674825Y-16920484D01*
X10674825Y-16920484D02*
X10655777Y-16910960D01*
X10655777Y-16910960D02*
X10646253Y-16891912D01*
X10646253Y-16891912D02*
X10646253Y-16815722D01*
X10646253Y-16815722D02*
X10655777Y-16796674D01*
X10655777Y-16796674D02*
X10674825Y-16787150D01*
X10674825Y-16787150D02*
X10712920Y-16787150D01*
X10712920Y-16787150D02*
X10731968Y-16796674D01*
X10731968Y-16796674D02*
X10741492Y-16815722D01*
X10741492Y-16815722D02*
X10741492Y-16834770D01*
X10741492Y-16834770D02*
X10646253Y-16853817D01*
X10817682Y-16910960D02*
X10836730Y-16920484D01*
X10836730Y-16920484D02*
X10874825Y-16920484D01*
X10874825Y-16920484D02*
X10893873Y-16910960D01*
X10893873Y-16910960D02*
X10903396Y-16891912D01*
X10903396Y-16891912D02*
X10903396Y-16882389D01*
X10903396Y-16882389D02*
X10893873Y-16863341D01*
X10893873Y-16863341D02*
X10874825Y-16853817D01*
X10874825Y-16853817D02*
X10846253Y-16853817D01*
X10846253Y-16853817D02*
X10827206Y-16844293D01*
X10827206Y-16844293D02*
X10817682Y-16825246D01*
X10817682Y-16825246D02*
X10817682Y-16815722D01*
X10817682Y-16815722D02*
X10827206Y-16796674D01*
X10827206Y-16796674D02*
X10846253Y-16787150D01*
X10846253Y-16787150D02*
X10874825Y-16787150D01*
X10874825Y-16787150D02*
X10893873Y-16796674D01*
X10970063Y-16996674D02*
X10979587Y-16987150D01*
X10979587Y-16987150D02*
X10998634Y-16958579D01*
X10998634Y-16958579D02*
X11008158Y-16939531D01*
X11008158Y-16939531D02*
X11017682Y-16910960D01*
X11017682Y-16910960D02*
X11027206Y-16863341D01*
X11027206Y-16863341D02*
X11027206Y-16825246D01*
X11027206Y-16825246D02*
X11017682Y-16777627D01*
X11017682Y-16777627D02*
X11008158Y-16749055D01*
X11008158Y-16749055D02*
X10998634Y-16730008D01*
X10998634Y-16730008D02*
X10979587Y-16701436D01*
X10979587Y-16701436D02*
X10970063Y-16691912D01*
M02*
