M48
; DRILL file {KiCad 9.0.3+dfsg-1} date 2026-10-04T13:47:33-0500
; FORMAT={-:-/ absolute / metric / decimal}
; #@! TF.CreationDate,2026-10-04T13:47:33-05:00
; #@! TF.GenerationSoftware,Kicad,Pcbnew,9.0.3+dfsg-1
; #@! TF.FileFunction,Plated,1,2,PTH
FMAT,2
METRIC
; #@! TA.AperFunction,Plated,PTH,ViaDrill
T1C0.500
; #@! TA.AperFunction,Plated,PTH,ComponentDrill
T2C0.750
; #@! TA.AperFunction,Plated,PTH,ComponentDrill
T3C0.800
; #@! TA.AperFunction,Plated,PTH,ComponentDrill
T4C1.000
; #@! TA.AperFunction,Plated,PTH,ComponentDrill
T5C1.100
; #@! TA.AperFunction,Plated,PTH,ComponentDrill
T6C1.200
; #@! TA.AperFunction,Plated,PTH,ComponentDrill
T7C1.780
%
G90
G05
T1
X86.25Y-127.75
X89.25Y-133.75
X90.25Y-87.25
X92.25Y-85.25
X123.0Y-101.75
X130.25Y-98.75
X135.0Y-98.75
X136.0Y-85.25
X136.0Y-87.25
X136.0Y-90.75
X136.0Y-94.25
X136.25Y-89.0
X136.25Y-92.5
X143.0Y-65.25
X145.0Y-65.25
X163.0Y-92.75
X165.25Y-64.5
X167.25Y-64.5
X182.5Y-89.25
X193.25Y-85.75
X199.25Y-91.75
X207.0Y-98.0
X212.5Y-92.5
T2
X64.5Y-130.45
X66.5Y-130.45
X68.5Y-130.45
X86.5Y-130.45
X88.0Y-141.45
X88.5Y-130.45
X90.0Y-141.45
X90.5Y-130.45
X92.5Y-130.45
X94.5Y-130.45
X96.5Y-130.45
X119.2Y-69.0
X121.2Y-69.0
X123.2Y-69.0
X125.2Y-69.0
X127.2Y-69.0
X129.2Y-69.0
X142.2Y-69.0
X144.2Y-69.0
X146.2Y-69.0
X148.2Y-69.0
X150.2Y-69.0
X152.2Y-69.0
X165.2Y-69.0
X167.2Y-69.0
X169.2Y-69.0
X171.2Y-69.0
X173.2Y-69.0
X175.2Y-69.0
X206.75Y-85.5
X206.75Y-87.5
X206.75Y-89.5
X206.75Y-91.5
X206.75Y-93.5
X206.75Y-95.5
T3
X66.38Y-136.185
X66.38Y-143.805
X68.92Y-136.185
X68.92Y-143.805
X71.46Y-136.185
X71.46Y-143.805
X72.955Y-131.0
X74.0Y-136.185
X74.0Y-143.805
X75.495Y-131.0
X76.54Y-136.185
X76.54Y-143.805
X79.08Y-136.185
X79.08Y-143.805
X79.25Y-131.0
X81.62Y-136.185
X81.62Y-143.805
X81.75Y-131.0
X93.96Y-142.36
X95.455Y-136.0
X96.5Y-142.36
X97.995Y-136.0
X99.04Y-142.36
X101.955Y-142.8
X104.495Y-142.8
X210.251Y-110.0
X213.751Y-110.0
T4
X70.495Y-105.11
X70.495Y-122.89
X73.035Y-105.11
X73.035Y-122.89
X75.575Y-105.11
X75.575Y-122.89
X78.115Y-105.11
X78.115Y-122.89
X80.655Y-105.11
X80.655Y-122.89
X83.195Y-105.11
X83.195Y-122.89
X85.735Y-105.11
X85.735Y-122.89
X88.275Y-105.11
X88.275Y-122.89
X90.815Y-105.11
X90.815Y-122.89
X93.355Y-105.11
X93.355Y-122.89
X95.895Y-105.11
X95.895Y-122.89
X98.435Y-105.11
X98.435Y-122.89
X100.975Y-105.11
X100.975Y-122.89
X103.515Y-105.11
X103.515Y-122.89
X106.055Y-105.11
X106.055Y-122.89
X108.595Y-105.11
X108.595Y-122.89
X111.135Y-105.11
X111.135Y-122.89
X113.675Y-105.11
X113.675Y-122.89
X116.215Y-105.11
X116.215Y-122.89
X118.755Y-105.11
X118.755Y-122.89
T5
X102.5Y-134.135
X102.5Y-139.215
X118.132Y-78.695
X120.44Y-96.475
X121.632Y-78.695
X122.98Y-96.475
X125.52Y-96.475
X126.768Y-78.695
X128.06Y-96.475
X130.268Y-78.695
X141.132Y-78.695
X143.44Y-96.475
X144.632Y-78.695
X145.98Y-96.475
X148.52Y-96.475
X149.768Y-78.695
X151.06Y-96.475
X153.268Y-78.695
X164.132Y-78.695
X166.44Y-96.475
X167.632Y-78.695
X168.98Y-96.475
X171.52Y-96.475
X172.768Y-78.695
X174.06Y-96.475
X176.268Y-78.695
X187.132Y-78.695
X189.44Y-96.475
X190.632Y-78.695
X191.98Y-96.475
X194.52Y-96.475
X195.768Y-78.695
X197.06Y-96.475
X199.268Y-78.695
T6
X109.25Y-129.8
X112.75Y-129.8
X186.25Y-122.8
X189.75Y-122.8
X197.25Y-122.8
X200.75Y-122.8
X210.25Y-122.8
X213.75Y-122.8
T7
X220.3Y-115.04
X220.3Y-124.96
X223.7Y-115.04
X223.7Y-124.96
M30
