%TF.GenerationSoftware,KiCad,Pcbnew,9.0.3+dfsg-1*%
%TF.CreationDate,2026-10-04T13:47:34-05:00*%
%TF.ProjectId,Lampara_4R,4c616d70-6172-4615-9f34-522e6b696361,rev?*%
%TF.SameCoordinates,Original*%
%TF.FileFunction,Drillmap*%
%TF.FilePolarity,Positive*%
%FSLAX45Y45*%
G04 Gerber Fmt 4.5, Leading zero omitted, Abs format (unit mm)*
G04 Created by KiCad (PCBNEW 9.0.3+dfsg-1) date 2026-10-04 13:47:34*
%MOMM*%
%LPD*%
G01*
G04 APERTURE LIST*
%ADD10C,0.100000*%
%ADD11C,0.200000*%
%ADD12C,0.270000*%
%ADD13C,0.320000*%
G04 APERTURE END LIST*
D10*
X11476493Y-6177591D02*
X11323058Y-6240428D01*
X22301786Y-8922672D02*
X22194610Y-8796164D01*
X6552755Y-10653272D02*
X6478180Y-10801358D01*
X20047262Y-7323593D02*
X19602249Y-7307898D01*
X15535130Y-5515084D02*
X15369514Y-5507189D01*
X12150000Y-13100000D02*
X12350000Y-12800000D01*
X6629902Y-10506509D02*
X6552755Y-10653272D01*
X20480056Y-7239910D02*
X20353344Y-7156007D01*
X14872192Y-5500860D02*
X14706429Y-5504537D01*
X24226927Y-12738626D02*
X24186056Y-12577938D01*
X23555131Y-10869656D02*
X23481743Y-10720978D01*
X10883160Y-6441958D02*
X10892430Y-6493711D01*
X18439939Y-6144673D02*
X18284868Y-6085986D01*
X11786538Y-6059997D02*
X11631002Y-6117441D01*
X21384925Y-7965604D02*
X21261186Y-7855243D01*
X12100497Y-5953294D02*
X11943052Y-6005276D01*
X8922672Y-7698214D02*
X8796164Y-7805390D01*
X6709599Y-10361115D02*
X6629902Y-10506509D01*
X23625912Y-11019593D02*
X23555131Y-10869656D01*
X9716159Y-7211786D02*
X9662114Y-7169620D01*
X23246173Y-10282942D02*
X23162593Y-10139745D01*
X12850000Y-12100000D02*
X12850000Y-10150000D01*
X9582191Y-7196325D02*
X9446823Y-7292067D01*
X16849967Y-5681866D02*
X16687062Y-5650999D01*
X11323058Y-6240428D02*
X11170742Y-6305934D01*
X7641083Y-8991977D02*
X7537349Y-9121323D01*
X7239910Y-9519944D02*
X7145452Y-9656211D01*
X10117633Y-7349301D02*
X9831084Y-7278817D01*
X12417988Y-5857614D02*
X12258825Y-5904069D01*
X23162593Y-10139745D02*
X23076526Y-9998028D01*
X7336732Y-9385347D02*
X7239910Y-9519944D01*
X13879962Y-5566257D02*
X13715491Y-5587241D01*
X7435889Y-9252459D02*
X7336732Y-9385347D01*
X20747541Y-7435889D02*
X20614653Y-7336732D01*
X22609842Y-9313147D02*
X22509434Y-9181203D01*
X14706429Y-5504537D02*
X14540755Y-5511107D01*
X19112782Y-6462123D02*
X19049276Y-6406202D01*
X11019593Y-6374088D02*
X10883160Y-6441958D01*
X24265000Y-12900000D02*
X24226927Y-12738626D01*
X24095931Y-12258825D02*
X24046705Y-12100497D01*
X20614653Y-7336732D02*
X20480056Y-7239910D01*
X10640408Y-7167451D02*
X10117633Y-7349301D01*
X22988000Y-9857835D02*
X22897040Y-9719209D01*
X8796164Y-7805390D02*
X8671545Y-7914757D01*
X12258825Y-5904069D02*
X12100497Y-5953294D01*
X16195461Y-5575517D02*
X16030799Y-5556089D01*
X9662114Y-7169620D02*
X9582191Y-7196325D01*
X23405772Y-10573603D02*
X23327241Y-10427576D01*
X14209877Y-5532915D02*
X14044774Y-5548146D01*
X17813843Y-5926286D02*
X17655056Y-5878559D01*
X9051031Y-7593262D02*
X8922672Y-7698214D01*
X21506720Y-8078107D02*
X21384925Y-7965604D01*
X13650000Y-11500000D02*
X16100000Y-11500000D01*
X6478180Y-10801358D02*
X6406202Y-10950724D01*
X15369514Y-5507189D02*
X15203785Y-5502186D01*
X24186056Y-12577938D02*
X24142386Y-12417988D01*
X19184355Y-6945566D02*
X19102624Y-6662686D01*
X16523642Y-5622979D02*
X16359758Y-5597816D01*
X15700583Y-5525868D02*
X15535130Y-5515084D01*
X13650000Y-10150000D02*
X13650000Y-11500000D01*
X21626533Y-8192720D02*
X21506720Y-8078107D01*
X23994724Y-11943052D02*
X23940003Y-11786538D01*
X20353344Y-7156007D02*
X20313094Y-7189952D01*
X22707932Y-9446823D02*
X22609842Y-9313147D01*
X23759572Y-11323058D02*
X23694066Y-11170742D01*
X6406202Y-10950724D02*
X6336841Y-11101323D01*
X17450000Y-12600000D02*
X17650000Y-12800000D01*
X6270119Y-11253110D02*
X6206057Y-11406038D01*
X9313147Y-7390158D02*
X9181203Y-7490566D01*
X18128797Y-6030015D02*
X17971773Y-5976776D01*
X11950000Y-13400000D02*
X12150000Y-13100000D01*
X23822409Y-11476493D02*
X23759572Y-11323058D01*
X17655056Y-5878559D02*
X17495461Y-5833612D01*
X8309405Y-8255673D02*
X8192720Y-8373467D01*
X19602249Y-7307898D02*
X19184355Y-6945566D01*
X17495461Y-5833612D02*
X17335105Y-5791456D01*
X23327241Y-10427576D02*
X23246173Y-10282942D01*
X11550000Y-14000000D02*
X11750000Y-13700000D01*
X7145452Y-9656211D02*
X7053386Y-9794106D01*
X8548855Y-8026283D02*
X8428129Y-8139933D01*
X15865823Y-5539537D02*
X15700583Y-5525868D01*
X9181203Y-7490566D02*
X9051031Y-7593262D01*
X21008023Y-7641083D02*
X20878677Y-7537349D01*
X24142386Y-12417988D02*
X24095931Y-12258825D01*
X20878677Y-7537349D02*
X20747541Y-7435889D01*
X13551411Y-5611092D02*
X13387773Y-5637803D01*
X9446823Y-7292067D02*
X9313147Y-7390158D01*
X8192720Y-8373467D02*
X8078107Y-8493280D01*
X8671545Y-7914757D02*
X8548855Y-8026283D01*
X6791822Y-10217134D02*
X6709599Y-10361115D01*
X22406738Y-9051031D02*
X22301786Y-8922672D01*
X12738626Y-5773073D02*
X12577938Y-5813944D01*
X9831084Y-7278817D02*
X9716159Y-7211786D01*
X12577938Y-5813944D02*
X12417988Y-5857614D01*
X7855243Y-8738814D02*
X7747058Y-8864461D01*
X11631002Y-6117441D02*
X11476493Y-6177591D01*
X7053386Y-9794106D02*
X6963741Y-9933586D01*
X6963741Y-9933586D02*
X6876544Y-10074610D01*
X14540755Y-5511107D02*
X14375220Y-5520567D01*
X17174038Y-5752105D02*
X17012309Y-5715571D01*
X6206057Y-11406038D02*
X6200000Y-11420894D01*
X22803675Y-9582191D02*
X22707932Y-9446823D01*
X17335105Y-5791456D02*
X17174038Y-5752105D01*
X19103283Y-6529901D02*
X19112782Y-6462123D01*
X17971773Y-5976776D02*
X17813843Y-5926286D01*
X7537349Y-9121323D02*
X7435889Y-9252459D01*
X16030799Y-5556089D02*
X15865823Y-5539537D01*
X23481743Y-10720978D02*
X23405772Y-10573603D01*
X7965604Y-8615075D02*
X7855243Y-8738814D01*
X6336841Y-11101323D02*
X6270119Y-11253110D01*
X17650000Y-12800000D02*
X17750000Y-12900000D01*
X22194610Y-8796164D02*
X22085243Y-8671545D01*
X13387773Y-5637803D02*
X13224625Y-5667367D01*
X23694066Y-11170742D02*
X23625912Y-11019593D01*
X6200000Y-11420894D02*
X6200000Y-14600000D01*
X15037994Y-5500076D02*
X14872192Y-5500860D01*
X13715491Y-5587241D02*
X13551411Y-5611092D01*
X20233483Y-7244547D02*
X20047262Y-7323593D01*
X22085243Y-8671545D02*
X21973717Y-8548855D01*
X21973717Y-8548855D02*
X21860067Y-8428129D01*
X19049276Y-6406202D02*
X18898677Y-6336841D01*
X11750000Y-13700000D02*
X11950000Y-13400000D01*
X21261186Y-7855243D02*
X21135539Y-7747058D01*
X11943052Y-6005276D02*
X11786538Y-6059997D01*
X12550000Y-12550000D02*
X12750000Y-12300000D01*
X17012309Y-5715571D02*
X16849967Y-5681866D01*
X23882559Y-11631002D02*
X23822409Y-11476493D01*
X16359758Y-5597816D02*
X16195461Y-5575517D01*
X16100000Y-11500000D02*
X16550000Y-12000000D01*
X19102624Y-6662686D02*
X19103283Y-6529901D01*
X11170742Y-6305934D02*
X11019593Y-6374088D01*
X24046705Y-12100497D02*
X23994724Y-11943052D01*
X10875490Y-6790168D02*
X10640408Y-7167451D01*
X16950000Y-12200000D02*
X17250000Y-12400000D01*
X6200000Y-14600000D02*
X11450000Y-14600000D01*
X18284868Y-6085986D02*
X18128797Y-6030015D01*
X22509434Y-9181203D02*
X22406738Y-9051031D01*
X16687062Y-5650999D02*
X16523642Y-5622979D01*
X17750000Y-12900000D02*
X24265000Y-12900000D01*
X23076526Y-9998028D02*
X22988000Y-9857835D01*
X7747058Y-8864461D02*
X7641083Y-8991977D01*
X21744327Y-8309405D02*
X21626533Y-8192720D01*
X21860067Y-8428129D02*
X21744327Y-8309405D01*
X18593962Y-6206057D02*
X18439939Y-6144673D01*
X12850000Y-10150000D02*
X13650000Y-10150000D01*
X14044774Y-5548146D02*
X13879962Y-5566257D01*
X12900003Y-5735011D02*
X12738626Y-5773073D01*
X13062019Y-5699773D02*
X12900003Y-5735011D01*
X17250000Y-12400000D02*
X17450000Y-12600000D01*
X8078107Y-8493280D02*
X7965604Y-8615075D01*
X12350000Y-12800000D02*
X12550000Y-12550000D01*
X15203785Y-5502186D02*
X15037994Y-5500076D01*
X16550000Y-12000000D02*
X16950000Y-12200000D01*
X6876544Y-10074610D02*
X6791822Y-10217134D01*
X13224625Y-5667367D02*
X13062019Y-5699773D01*
X18746890Y-6270119D02*
X18593962Y-6206057D01*
X10892430Y-6493711D02*
X10899930Y-6589781D01*
X18898677Y-6336841D02*
X18746890Y-6270119D01*
X14375220Y-5520567D02*
X14209877Y-5532915D01*
X20313094Y-7189952D02*
X20233483Y-7244547D01*
X10899930Y-6589781D02*
X10875490Y-6790168D01*
X12750000Y-12300000D02*
X12850000Y-12100000D01*
X21135539Y-7747058D02*
X21008023Y-7641083D01*
X11450000Y-14600000D02*
X11550000Y-14000000D01*
X8428129Y-8139933D02*
X8309405Y-8255673D01*
X23940003Y-11786538D02*
X23882559Y-11631002D01*
X22897040Y-9719209D02*
X22803675Y-9582191D01*
D11*
D12*
X11528000Y-9512500D02*
X11798000Y-9782500D01*
X11798000Y-9512500D02*
X11528000Y-9782500D01*
X13052000Y-9512500D02*
X13322000Y-9782500D01*
X13322000Y-9512500D02*
X13052000Y-9782500D01*
X13828000Y-9512500D02*
X14098000Y-9782500D01*
X14098000Y-9512500D02*
X13828000Y-9782500D01*
X15352000Y-9512500D02*
X15622000Y-9782500D01*
X15622000Y-9512500D02*
X15352000Y-9782500D01*
X16128000Y-9512500D02*
X16398000Y-9782500D01*
X16398000Y-9512500D02*
X16128000Y-9782500D01*
X17652000Y-9512500D02*
X17922000Y-9782500D01*
X17922000Y-9512500D02*
X17652000Y-9782500D01*
X18428000Y-9512500D02*
X18698000Y-9782500D01*
X18698000Y-9512500D02*
X18428000Y-9782500D01*
X19952000Y-9512500D02*
X20222000Y-9782500D01*
X20222000Y-9512500D02*
X19952000Y-9782500D01*
D13*
X8659874Y-8800000D02*
G75*
G02*
X8339874Y-8800000I-160000J0D01*
G01*
X8339874Y-8800000D02*
G75*
G02*
X8659874Y-8800000I160000J0D01*
G01*
X10459874Y-12910000D02*
G75*
G02*
X10139874Y-12910000I-160000J0D01*
G01*
X10139874Y-12910000D02*
G75*
G02*
X10459874Y-12910000I160000J0D01*
G01*
X16029874Y-6900000D02*
G75*
G02*
X15709874Y-6900000I-160000J0D01*
G01*
X15709874Y-6900000D02*
G75*
G02*
X16029874Y-6900000I160000J0D01*
G01*
X19959874Y-11400000D02*
G75*
G02*
X19639874Y-11400000I-160000J0D01*
G01*
X19639874Y-11400000D02*
G75*
G02*
X19959874Y-11400000I160000J0D01*
G01*
X23009874Y-10650000D02*
G75*
G02*
X22689874Y-10650000I-160000J0D01*
G01*
X22689874Y-10650000D02*
G75*
G02*
X23009874Y-10650000I160000J0D01*
G01*
D11*
X6455777Y-14916484D02*
X6455777Y-14716484D01*
X6455777Y-14716484D02*
X6503396Y-14716484D01*
X6503396Y-14716484D02*
X6531967Y-14726008D01*
X6531967Y-14726008D02*
X6551015Y-14745055D01*
X6551015Y-14745055D02*
X6560539Y-14764103D01*
X6560539Y-14764103D02*
X6570062Y-14802198D01*
X6570062Y-14802198D02*
X6570062Y-14830769D01*
X6570062Y-14830769D02*
X6560539Y-14868865D01*
X6560539Y-14868865D02*
X6551015Y-14887912D01*
X6551015Y-14887912D02*
X6531967Y-14906960D01*
X6531967Y-14906960D02*
X6503396Y-14916484D01*
X6503396Y-14916484D02*
X6455777Y-14916484D01*
X6655777Y-14916484D02*
X6655777Y-14783150D01*
X6655777Y-14821246D02*
X6665301Y-14802198D01*
X6665301Y-14802198D02*
X6674824Y-14792674D01*
X6674824Y-14792674D02*
X6693872Y-14783150D01*
X6693872Y-14783150D02*
X6712920Y-14783150D01*
X6779586Y-14916484D02*
X6779586Y-14783150D01*
X6779586Y-14716484D02*
X6770062Y-14726008D01*
X6770062Y-14726008D02*
X6779586Y-14735531D01*
X6779586Y-14735531D02*
X6789110Y-14726008D01*
X6789110Y-14726008D02*
X6779586Y-14716484D01*
X6779586Y-14716484D02*
X6779586Y-14735531D01*
X6903396Y-14916484D02*
X6884348Y-14906960D01*
X6884348Y-14906960D02*
X6874824Y-14887912D01*
X6874824Y-14887912D02*
X6874824Y-14716484D01*
X7008158Y-14916484D02*
X6989110Y-14906960D01*
X6989110Y-14906960D02*
X6979586Y-14887912D01*
X6979586Y-14887912D02*
X6979586Y-14716484D01*
X7236729Y-14916484D02*
X7236729Y-14716484D01*
X7236729Y-14716484D02*
X7303396Y-14859341D01*
X7303396Y-14859341D02*
X7370062Y-14716484D01*
X7370062Y-14716484D02*
X7370062Y-14916484D01*
X7551015Y-14916484D02*
X7551015Y-14811722D01*
X7551015Y-14811722D02*
X7541491Y-14792674D01*
X7541491Y-14792674D02*
X7522443Y-14783150D01*
X7522443Y-14783150D02*
X7484348Y-14783150D01*
X7484348Y-14783150D02*
X7465301Y-14792674D01*
X7551015Y-14906960D02*
X7531967Y-14916484D01*
X7531967Y-14916484D02*
X7484348Y-14916484D01*
X7484348Y-14916484D02*
X7465301Y-14906960D01*
X7465301Y-14906960D02*
X7455777Y-14887912D01*
X7455777Y-14887912D02*
X7455777Y-14868865D01*
X7455777Y-14868865D02*
X7465301Y-14849817D01*
X7465301Y-14849817D02*
X7484348Y-14840293D01*
X7484348Y-14840293D02*
X7531967Y-14840293D01*
X7531967Y-14840293D02*
X7551015Y-14830769D01*
X7646253Y-14783150D02*
X7646253Y-14983150D01*
X7646253Y-14792674D02*
X7665301Y-14783150D01*
X7665301Y-14783150D02*
X7703396Y-14783150D01*
X7703396Y-14783150D02*
X7722443Y-14792674D01*
X7722443Y-14792674D02*
X7731967Y-14802198D01*
X7731967Y-14802198D02*
X7741491Y-14821246D01*
X7741491Y-14821246D02*
X7741491Y-14878388D01*
X7741491Y-14878388D02*
X7731967Y-14897436D01*
X7731967Y-14897436D02*
X7722443Y-14906960D01*
X7722443Y-14906960D02*
X7703396Y-14916484D01*
X7703396Y-14916484D02*
X7665301Y-14916484D01*
X7665301Y-14916484D02*
X7646253Y-14906960D01*
X7827205Y-14897436D02*
X7836729Y-14906960D01*
X7836729Y-14906960D02*
X7827205Y-14916484D01*
X7827205Y-14916484D02*
X7817682Y-14906960D01*
X7817682Y-14906960D02*
X7827205Y-14897436D01*
X7827205Y-14897436D02*
X7827205Y-14916484D01*
X7827205Y-14792674D02*
X7836729Y-14802198D01*
X7836729Y-14802198D02*
X7827205Y-14811722D01*
X7827205Y-14811722D02*
X7817682Y-14802198D01*
X7817682Y-14802198D02*
X7827205Y-14792674D01*
X7827205Y-14792674D02*
X7827205Y-14811722D01*
X5995000Y-15145000D02*
X6195000Y-15345000D01*
X6195000Y-15145000D02*
X5995000Y-15345000D01*
X6446253Y-15155531D02*
X6455777Y-15146008D01*
X6455777Y-15146008D02*
X6474824Y-15136484D01*
X6474824Y-15136484D02*
X6522443Y-15136484D01*
X6522443Y-15136484D02*
X6541491Y-15146008D01*
X6541491Y-15146008D02*
X6551015Y-15155531D01*
X6551015Y-15155531D02*
X6560539Y-15174579D01*
X6560539Y-15174579D02*
X6560539Y-15193627D01*
X6560539Y-15193627D02*
X6551015Y-15222198D01*
X6551015Y-15222198D02*
X6436729Y-15336484D01*
X6436729Y-15336484D02*
X6560539Y-15336484D01*
X6646253Y-15317436D02*
X6655777Y-15326960D01*
X6655777Y-15326960D02*
X6646253Y-15336484D01*
X6646253Y-15336484D02*
X6636729Y-15326960D01*
X6636729Y-15326960D02*
X6646253Y-15317436D01*
X6646253Y-15317436D02*
X6646253Y-15336484D01*
X6722443Y-15136484D02*
X6855777Y-15136484D01*
X6855777Y-15136484D02*
X6770062Y-15336484D01*
X6970062Y-15136484D02*
X6989110Y-15136484D01*
X6989110Y-15136484D02*
X7008158Y-15146008D01*
X7008158Y-15146008D02*
X7017682Y-15155531D01*
X7017682Y-15155531D02*
X7027205Y-15174579D01*
X7027205Y-15174579D02*
X7036729Y-15212674D01*
X7036729Y-15212674D02*
X7036729Y-15260293D01*
X7036729Y-15260293D02*
X7027205Y-15298388D01*
X7027205Y-15298388D02*
X7017682Y-15317436D01*
X7017682Y-15317436D02*
X7008158Y-15326960D01*
X7008158Y-15326960D02*
X6989110Y-15336484D01*
X6989110Y-15336484D02*
X6970062Y-15336484D01*
X6970062Y-15336484D02*
X6951015Y-15326960D01*
X6951015Y-15326960D02*
X6941491Y-15317436D01*
X6941491Y-15317436D02*
X6931967Y-15298388D01*
X6931967Y-15298388D02*
X6922443Y-15260293D01*
X6922443Y-15260293D02*
X6922443Y-15212674D01*
X6922443Y-15212674D02*
X6931967Y-15174579D01*
X6931967Y-15174579D02*
X6941491Y-15155531D01*
X6941491Y-15155531D02*
X6951015Y-15146008D01*
X6951015Y-15146008D02*
X6970062Y-15136484D01*
X7160539Y-15136484D02*
X7179586Y-15136484D01*
X7179586Y-15136484D02*
X7198634Y-15146008D01*
X7198634Y-15146008D02*
X7208158Y-15155531D01*
X7208158Y-15155531D02*
X7217682Y-15174579D01*
X7217682Y-15174579D02*
X7227205Y-15212674D01*
X7227205Y-15212674D02*
X7227205Y-15260293D01*
X7227205Y-15260293D02*
X7217682Y-15298388D01*
X7217682Y-15298388D02*
X7208158Y-15317436D01*
X7208158Y-15317436D02*
X7198634Y-15326960D01*
X7198634Y-15326960D02*
X7179586Y-15336484D01*
X7179586Y-15336484D02*
X7160539Y-15336484D01*
X7160539Y-15336484D02*
X7141491Y-15326960D01*
X7141491Y-15326960D02*
X7131967Y-15317436D01*
X7131967Y-15317436D02*
X7122443Y-15298388D01*
X7122443Y-15298388D02*
X7112920Y-15260293D01*
X7112920Y-15260293D02*
X7112920Y-15212674D01*
X7112920Y-15212674D02*
X7122443Y-15174579D01*
X7122443Y-15174579D02*
X7131967Y-15155531D01*
X7131967Y-15155531D02*
X7141491Y-15146008D01*
X7141491Y-15146008D02*
X7160539Y-15136484D01*
X7312920Y-15336484D02*
X7312920Y-15203150D01*
X7312920Y-15222198D02*
X7322443Y-15212674D01*
X7322443Y-15212674D02*
X7341491Y-15203150D01*
X7341491Y-15203150D02*
X7370063Y-15203150D01*
X7370063Y-15203150D02*
X7389110Y-15212674D01*
X7389110Y-15212674D02*
X7398634Y-15231722D01*
X7398634Y-15231722D02*
X7398634Y-15336484D01*
X7398634Y-15231722D02*
X7408158Y-15212674D01*
X7408158Y-15212674D02*
X7427205Y-15203150D01*
X7427205Y-15203150D02*
X7455777Y-15203150D01*
X7455777Y-15203150D02*
X7474824Y-15212674D01*
X7474824Y-15212674D02*
X7484348Y-15231722D01*
X7484348Y-15231722D02*
X7484348Y-15336484D01*
X7579586Y-15336484D02*
X7579586Y-15203150D01*
X7579586Y-15222198D02*
X7589110Y-15212674D01*
X7589110Y-15212674D02*
X7608158Y-15203150D01*
X7608158Y-15203150D02*
X7636729Y-15203150D01*
X7636729Y-15203150D02*
X7655777Y-15212674D01*
X7655777Y-15212674D02*
X7665301Y-15231722D01*
X7665301Y-15231722D02*
X7665301Y-15336484D01*
X7665301Y-15231722D02*
X7674824Y-15212674D01*
X7674824Y-15212674D02*
X7693872Y-15203150D01*
X7693872Y-15203150D02*
X7722443Y-15203150D01*
X7722443Y-15203150D02*
X7741491Y-15212674D01*
X7741491Y-15212674D02*
X7751015Y-15231722D01*
X7751015Y-15231722D02*
X7751015Y-15336484D01*
X8141491Y-15126960D02*
X7970063Y-15384103D01*
X8398634Y-15136484D02*
X8417682Y-15136484D01*
X8417682Y-15136484D02*
X8436729Y-15146008D01*
X8436729Y-15146008D02*
X8446253Y-15155531D01*
X8446253Y-15155531D02*
X8455777Y-15174579D01*
X8455777Y-15174579D02*
X8465301Y-15212674D01*
X8465301Y-15212674D02*
X8465301Y-15260293D01*
X8465301Y-15260293D02*
X8455777Y-15298388D01*
X8455777Y-15298388D02*
X8446253Y-15317436D01*
X8446253Y-15317436D02*
X8436729Y-15326960D01*
X8436729Y-15326960D02*
X8417682Y-15336484D01*
X8417682Y-15336484D02*
X8398634Y-15336484D01*
X8398634Y-15336484D02*
X8379586Y-15326960D01*
X8379586Y-15326960D02*
X8370063Y-15317436D01*
X8370063Y-15317436D02*
X8360539Y-15298388D01*
X8360539Y-15298388D02*
X8351015Y-15260293D01*
X8351015Y-15260293D02*
X8351015Y-15212674D01*
X8351015Y-15212674D02*
X8360539Y-15174579D01*
X8360539Y-15174579D02*
X8370063Y-15155531D01*
X8370063Y-15155531D02*
X8379586Y-15146008D01*
X8379586Y-15146008D02*
X8398634Y-15136484D01*
X8551015Y-15317436D02*
X8560539Y-15326960D01*
X8560539Y-15326960D02*
X8551015Y-15336484D01*
X8551015Y-15336484D02*
X8541491Y-15326960D01*
X8541491Y-15326960D02*
X8551015Y-15317436D01*
X8551015Y-15317436D02*
X8551015Y-15336484D01*
X8751015Y-15336484D02*
X8636729Y-15336484D01*
X8693872Y-15336484D02*
X8693872Y-15136484D01*
X8693872Y-15136484D02*
X8674825Y-15165055D01*
X8674825Y-15165055D02*
X8655777Y-15184103D01*
X8655777Y-15184103D02*
X8636729Y-15193627D01*
X8874825Y-15136484D02*
X8893872Y-15136484D01*
X8893872Y-15136484D02*
X8912920Y-15146008D01*
X8912920Y-15146008D02*
X8922444Y-15155531D01*
X8922444Y-15155531D02*
X8931968Y-15174579D01*
X8931968Y-15174579D02*
X8941491Y-15212674D01*
X8941491Y-15212674D02*
X8941491Y-15260293D01*
X8941491Y-15260293D02*
X8931968Y-15298388D01*
X8931968Y-15298388D02*
X8922444Y-15317436D01*
X8922444Y-15317436D02*
X8912920Y-15326960D01*
X8912920Y-15326960D02*
X8893872Y-15336484D01*
X8893872Y-15336484D02*
X8874825Y-15336484D01*
X8874825Y-15336484D02*
X8855777Y-15326960D01*
X8855777Y-15326960D02*
X8846253Y-15317436D01*
X8846253Y-15317436D02*
X8836729Y-15298388D01*
X8836729Y-15298388D02*
X8827206Y-15260293D01*
X8827206Y-15260293D02*
X8827206Y-15212674D01*
X8827206Y-15212674D02*
X8836729Y-15174579D01*
X8836729Y-15174579D02*
X8846253Y-15155531D01*
X8846253Y-15155531D02*
X8855777Y-15146008D01*
X8855777Y-15146008D02*
X8874825Y-15136484D01*
X9112920Y-15136484D02*
X9074825Y-15136484D01*
X9074825Y-15136484D02*
X9055777Y-15146008D01*
X9055777Y-15146008D02*
X9046253Y-15155531D01*
X9046253Y-15155531D02*
X9027206Y-15184103D01*
X9027206Y-15184103D02*
X9017682Y-15222198D01*
X9017682Y-15222198D02*
X9017682Y-15298388D01*
X9017682Y-15298388D02*
X9027206Y-15317436D01*
X9027206Y-15317436D02*
X9036729Y-15326960D01*
X9036729Y-15326960D02*
X9055777Y-15336484D01*
X9055777Y-15336484D02*
X9093872Y-15336484D01*
X9093872Y-15336484D02*
X9112920Y-15326960D01*
X9112920Y-15326960D02*
X9122444Y-15317436D01*
X9122444Y-15317436D02*
X9131968Y-15298388D01*
X9131968Y-15298388D02*
X9131968Y-15250769D01*
X9131968Y-15250769D02*
X9122444Y-15231722D01*
X9122444Y-15231722D02*
X9112920Y-15222198D01*
X9112920Y-15222198D02*
X9093872Y-15212674D01*
X9093872Y-15212674D02*
X9055777Y-15212674D01*
X9055777Y-15212674D02*
X9036729Y-15222198D01*
X9036729Y-15222198D02*
X9027206Y-15231722D01*
X9027206Y-15231722D02*
X9017682Y-15250769D01*
X9198634Y-15136484D02*
X9322444Y-15136484D01*
X9322444Y-15136484D02*
X9255777Y-15212674D01*
X9255777Y-15212674D02*
X9284349Y-15212674D01*
X9284349Y-15212674D02*
X9303396Y-15222198D01*
X9303396Y-15222198D02*
X9312920Y-15231722D01*
X9312920Y-15231722D02*
X9322444Y-15250769D01*
X9322444Y-15250769D02*
X9322444Y-15298388D01*
X9322444Y-15298388D02*
X9312920Y-15317436D01*
X9312920Y-15317436D02*
X9303396Y-15326960D01*
X9303396Y-15326960D02*
X9284349Y-15336484D01*
X9284349Y-15336484D02*
X9227206Y-15336484D01*
X9227206Y-15336484D02*
X9208158Y-15326960D01*
X9208158Y-15326960D02*
X9198634Y-15317436D01*
X9398634Y-15136484D02*
X9398634Y-15174579D01*
X9474825Y-15136484D02*
X9474825Y-15174579D01*
X9770063Y-15412674D02*
X9760539Y-15403150D01*
X9760539Y-15403150D02*
X9741491Y-15374579D01*
X9741491Y-15374579D02*
X9731968Y-15355531D01*
X9731968Y-15355531D02*
X9722444Y-15326960D01*
X9722444Y-15326960D02*
X9712920Y-15279341D01*
X9712920Y-15279341D02*
X9712920Y-15241246D01*
X9712920Y-15241246D02*
X9722444Y-15193627D01*
X9722444Y-15193627D02*
X9731968Y-15165055D01*
X9731968Y-15165055D02*
X9741491Y-15146008D01*
X9741491Y-15146008D02*
X9760539Y-15117436D01*
X9760539Y-15117436D02*
X9770063Y-15107912D01*
X9874825Y-15222198D02*
X9855777Y-15212674D01*
X9855777Y-15212674D02*
X9846253Y-15203150D01*
X9846253Y-15203150D02*
X9836730Y-15184103D01*
X9836730Y-15184103D02*
X9836730Y-15174579D01*
X9836730Y-15174579D02*
X9846253Y-15155531D01*
X9846253Y-15155531D02*
X9855777Y-15146008D01*
X9855777Y-15146008D02*
X9874825Y-15136484D01*
X9874825Y-15136484D02*
X9912920Y-15136484D01*
X9912920Y-15136484D02*
X9931968Y-15146008D01*
X9931968Y-15146008D02*
X9941491Y-15155531D01*
X9941491Y-15155531D02*
X9951015Y-15174579D01*
X9951015Y-15174579D02*
X9951015Y-15184103D01*
X9951015Y-15184103D02*
X9941491Y-15203150D01*
X9941491Y-15203150D02*
X9931968Y-15212674D01*
X9931968Y-15212674D02*
X9912920Y-15222198D01*
X9912920Y-15222198D02*
X9874825Y-15222198D01*
X9874825Y-15222198D02*
X9855777Y-15231722D01*
X9855777Y-15231722D02*
X9846253Y-15241246D01*
X9846253Y-15241246D02*
X9836730Y-15260293D01*
X9836730Y-15260293D02*
X9836730Y-15298388D01*
X9836730Y-15298388D02*
X9846253Y-15317436D01*
X9846253Y-15317436D02*
X9855777Y-15326960D01*
X9855777Y-15326960D02*
X9874825Y-15336484D01*
X9874825Y-15336484D02*
X9912920Y-15336484D01*
X9912920Y-15336484D02*
X9931968Y-15326960D01*
X9931968Y-15326960D02*
X9941491Y-15317436D01*
X9941491Y-15317436D02*
X9951015Y-15298388D01*
X9951015Y-15298388D02*
X9951015Y-15260293D01*
X9951015Y-15260293D02*
X9941491Y-15241246D01*
X9941491Y-15241246D02*
X9931968Y-15231722D01*
X9931968Y-15231722D02*
X9912920Y-15222198D01*
X10189111Y-15336484D02*
X10189111Y-15136484D01*
X10274825Y-15336484D02*
X10274825Y-15231722D01*
X10274825Y-15231722D02*
X10265301Y-15212674D01*
X10265301Y-15212674D02*
X10246253Y-15203150D01*
X10246253Y-15203150D02*
X10217682Y-15203150D01*
X10217682Y-15203150D02*
X10198634Y-15212674D01*
X10198634Y-15212674D02*
X10189111Y-15222198D01*
X10398634Y-15336484D02*
X10379587Y-15326960D01*
X10379587Y-15326960D02*
X10370063Y-15317436D01*
X10370063Y-15317436D02*
X10360539Y-15298388D01*
X10360539Y-15298388D02*
X10360539Y-15241246D01*
X10360539Y-15241246D02*
X10370063Y-15222198D01*
X10370063Y-15222198D02*
X10379587Y-15212674D01*
X10379587Y-15212674D02*
X10398634Y-15203150D01*
X10398634Y-15203150D02*
X10427206Y-15203150D01*
X10427206Y-15203150D02*
X10446253Y-15212674D01*
X10446253Y-15212674D02*
X10455777Y-15222198D01*
X10455777Y-15222198D02*
X10465301Y-15241246D01*
X10465301Y-15241246D02*
X10465301Y-15298388D01*
X10465301Y-15298388D02*
X10455777Y-15317436D01*
X10455777Y-15317436D02*
X10446253Y-15326960D01*
X10446253Y-15326960D02*
X10427206Y-15336484D01*
X10427206Y-15336484D02*
X10398634Y-15336484D01*
X10579587Y-15336484D02*
X10560539Y-15326960D01*
X10560539Y-15326960D02*
X10551015Y-15307912D01*
X10551015Y-15307912D02*
X10551015Y-15136484D01*
X10731968Y-15326960D02*
X10712920Y-15336484D01*
X10712920Y-15336484D02*
X10674825Y-15336484D01*
X10674825Y-15336484D02*
X10655777Y-15326960D01*
X10655777Y-15326960D02*
X10646253Y-15307912D01*
X10646253Y-15307912D02*
X10646253Y-15231722D01*
X10646253Y-15231722D02*
X10655777Y-15212674D01*
X10655777Y-15212674D02*
X10674825Y-15203150D01*
X10674825Y-15203150D02*
X10712920Y-15203150D01*
X10712920Y-15203150D02*
X10731968Y-15212674D01*
X10731968Y-15212674D02*
X10741492Y-15231722D01*
X10741492Y-15231722D02*
X10741492Y-15250769D01*
X10741492Y-15250769D02*
X10646253Y-15269817D01*
X10817682Y-15326960D02*
X10836730Y-15336484D01*
X10836730Y-15336484D02*
X10874825Y-15336484D01*
X10874825Y-15336484D02*
X10893873Y-15326960D01*
X10893873Y-15326960D02*
X10903396Y-15307912D01*
X10903396Y-15307912D02*
X10903396Y-15298388D01*
X10903396Y-15298388D02*
X10893873Y-15279341D01*
X10893873Y-15279341D02*
X10874825Y-15269817D01*
X10874825Y-15269817D02*
X10846253Y-15269817D01*
X10846253Y-15269817D02*
X10827206Y-15260293D01*
X10827206Y-15260293D02*
X10817682Y-15241246D01*
X10817682Y-15241246D02*
X10817682Y-15231722D01*
X10817682Y-15231722D02*
X10827206Y-15212674D01*
X10827206Y-15212674D02*
X10846253Y-15203150D01*
X10846253Y-15203150D02*
X10874825Y-15203150D01*
X10874825Y-15203150D02*
X10893873Y-15212674D01*
X10970063Y-15412674D02*
X10979587Y-15403150D01*
X10979587Y-15403150D02*
X10998634Y-15374579D01*
X10998634Y-15374579D02*
X11008158Y-15355531D01*
X11008158Y-15355531D02*
X11017682Y-15326960D01*
X11017682Y-15326960D02*
X11027206Y-15279341D01*
X11027206Y-15279341D02*
X11027206Y-15241246D01*
X11027206Y-15241246D02*
X11017682Y-15193627D01*
X11017682Y-15193627D02*
X11008158Y-15165055D01*
X11008158Y-15165055D02*
X10998634Y-15146008D01*
X10998634Y-15146008D02*
X10979587Y-15117436D01*
X10979587Y-15117436D02*
X10970063Y-15107912D01*
X11331968Y-15412674D02*
X11322444Y-15403150D01*
X11322444Y-15403150D02*
X11303396Y-15374579D01*
X11303396Y-15374579D02*
X11293872Y-15355531D01*
X11293872Y-15355531D02*
X11284349Y-15326960D01*
X11284349Y-15326960D02*
X11274825Y-15279341D01*
X11274825Y-15279341D02*
X11274825Y-15241246D01*
X11274825Y-15241246D02*
X11284349Y-15193627D01*
X11284349Y-15193627D02*
X11293872Y-15165055D01*
X11293872Y-15165055D02*
X11303396Y-15146008D01*
X11303396Y-15146008D02*
X11322444Y-15117436D01*
X11322444Y-15117436D02*
X11331968Y-15107912D01*
X11408158Y-15203150D02*
X11408158Y-15336484D01*
X11408158Y-15222198D02*
X11417682Y-15212674D01*
X11417682Y-15212674D02*
X11436730Y-15203150D01*
X11436730Y-15203150D02*
X11465301Y-15203150D01*
X11465301Y-15203150D02*
X11484349Y-15212674D01*
X11484349Y-15212674D02*
X11493872Y-15231722D01*
X11493872Y-15231722D02*
X11493872Y-15336484D01*
X11617682Y-15336484D02*
X11598634Y-15326960D01*
X11598634Y-15326960D02*
X11589111Y-15317436D01*
X11589111Y-15317436D02*
X11579587Y-15298388D01*
X11579587Y-15298388D02*
X11579587Y-15241246D01*
X11579587Y-15241246D02*
X11589111Y-15222198D01*
X11589111Y-15222198D02*
X11598634Y-15212674D01*
X11598634Y-15212674D02*
X11617682Y-15203150D01*
X11617682Y-15203150D02*
X11646253Y-15203150D01*
X11646253Y-15203150D02*
X11665301Y-15212674D01*
X11665301Y-15212674D02*
X11674825Y-15222198D01*
X11674825Y-15222198D02*
X11684349Y-15241246D01*
X11684349Y-15241246D02*
X11684349Y-15298388D01*
X11684349Y-15298388D02*
X11674825Y-15317436D01*
X11674825Y-15317436D02*
X11665301Y-15326960D01*
X11665301Y-15326960D02*
X11646253Y-15336484D01*
X11646253Y-15336484D02*
X11617682Y-15336484D01*
X11741492Y-15203150D02*
X11817682Y-15203150D01*
X11770063Y-15136484D02*
X11770063Y-15307912D01*
X11770063Y-15307912D02*
X11779587Y-15326960D01*
X11779587Y-15326960D02*
X11798634Y-15336484D01*
X11798634Y-15336484D02*
X11817682Y-15336484D01*
X12036730Y-15203150D02*
X12036730Y-15403150D01*
X12036730Y-15212674D02*
X12055777Y-15203150D01*
X12055777Y-15203150D02*
X12093873Y-15203150D01*
X12093873Y-15203150D02*
X12112920Y-15212674D01*
X12112920Y-15212674D02*
X12122444Y-15222198D01*
X12122444Y-15222198D02*
X12131968Y-15241246D01*
X12131968Y-15241246D02*
X12131968Y-15298388D01*
X12131968Y-15298388D02*
X12122444Y-15317436D01*
X12122444Y-15317436D02*
X12112920Y-15326960D01*
X12112920Y-15326960D02*
X12093873Y-15336484D01*
X12093873Y-15336484D02*
X12055777Y-15336484D01*
X12055777Y-15336484D02*
X12036730Y-15326960D01*
X12246253Y-15336484D02*
X12227206Y-15326960D01*
X12227206Y-15326960D02*
X12217682Y-15307912D01*
X12217682Y-15307912D02*
X12217682Y-15136484D01*
X12408158Y-15336484D02*
X12408158Y-15231722D01*
X12408158Y-15231722D02*
X12398634Y-15212674D01*
X12398634Y-15212674D02*
X12379587Y-15203150D01*
X12379587Y-15203150D02*
X12341492Y-15203150D01*
X12341492Y-15203150D02*
X12322444Y-15212674D01*
X12408158Y-15326960D02*
X12389111Y-15336484D01*
X12389111Y-15336484D02*
X12341492Y-15336484D01*
X12341492Y-15336484D02*
X12322444Y-15326960D01*
X12322444Y-15326960D02*
X12312920Y-15307912D01*
X12312920Y-15307912D02*
X12312920Y-15288865D01*
X12312920Y-15288865D02*
X12322444Y-15269817D01*
X12322444Y-15269817D02*
X12341492Y-15260293D01*
X12341492Y-15260293D02*
X12389111Y-15260293D01*
X12389111Y-15260293D02*
X12408158Y-15250769D01*
X12474825Y-15203150D02*
X12551015Y-15203150D01*
X12503396Y-15136484D02*
X12503396Y-15307912D01*
X12503396Y-15307912D02*
X12512920Y-15326960D01*
X12512920Y-15326960D02*
X12531968Y-15336484D01*
X12531968Y-15336484D02*
X12551015Y-15336484D01*
X12693873Y-15326960D02*
X12674825Y-15336484D01*
X12674825Y-15336484D02*
X12636730Y-15336484D01*
X12636730Y-15336484D02*
X12617682Y-15326960D01*
X12617682Y-15326960D02*
X12608158Y-15307912D01*
X12608158Y-15307912D02*
X12608158Y-15231722D01*
X12608158Y-15231722D02*
X12617682Y-15212674D01*
X12617682Y-15212674D02*
X12636730Y-15203150D01*
X12636730Y-15203150D02*
X12674825Y-15203150D01*
X12674825Y-15203150D02*
X12693873Y-15212674D01*
X12693873Y-15212674D02*
X12703396Y-15231722D01*
X12703396Y-15231722D02*
X12703396Y-15250769D01*
X12703396Y-15250769D02*
X12608158Y-15269817D01*
X12874825Y-15336484D02*
X12874825Y-15136484D01*
X12874825Y-15326960D02*
X12855777Y-15336484D01*
X12855777Y-15336484D02*
X12817682Y-15336484D01*
X12817682Y-15336484D02*
X12798634Y-15326960D01*
X12798634Y-15326960D02*
X12789111Y-15317436D01*
X12789111Y-15317436D02*
X12779587Y-15298388D01*
X12779587Y-15298388D02*
X12779587Y-15241246D01*
X12779587Y-15241246D02*
X12789111Y-15222198D01*
X12789111Y-15222198D02*
X12798634Y-15212674D01*
X12798634Y-15212674D02*
X12817682Y-15203150D01*
X12817682Y-15203150D02*
X12855777Y-15203150D01*
X12855777Y-15203150D02*
X12874825Y-15212674D01*
X12951015Y-15412674D02*
X12960539Y-15403150D01*
X12960539Y-15403150D02*
X12979587Y-15374579D01*
X12979587Y-15374579D02*
X12989111Y-15355531D01*
X12989111Y-15355531D02*
X12998634Y-15326960D01*
X12998634Y-15326960D02*
X13008158Y-15279341D01*
X13008158Y-15279341D02*
X13008158Y-15241246D01*
X13008158Y-15241246D02*
X12998634Y-15193627D01*
X12998634Y-15193627D02*
X12989111Y-15165055D01*
X12989111Y-15165055D02*
X12979587Y-15146008D01*
X12979587Y-15146008D02*
X12960539Y-15117436D01*
X12960539Y-15117436D02*
X12951015Y-15107912D01*
X6195000Y-15565000D02*
G75*
G02*
X5995000Y-15565000I-100000J0D01*
G01*
X5995000Y-15565000D02*
G75*
G02*
X6195000Y-15565000I100000J0D01*
G01*
X6436729Y-15456484D02*
X6560539Y-15456484D01*
X6560539Y-15456484D02*
X6493872Y-15532674D01*
X6493872Y-15532674D02*
X6522443Y-15532674D01*
X6522443Y-15532674D02*
X6541491Y-15542198D01*
X6541491Y-15542198D02*
X6551015Y-15551722D01*
X6551015Y-15551722D02*
X6560539Y-15570769D01*
X6560539Y-15570769D02*
X6560539Y-15618388D01*
X6560539Y-15618388D02*
X6551015Y-15637436D01*
X6551015Y-15637436D02*
X6541491Y-15646960D01*
X6541491Y-15646960D02*
X6522443Y-15656484D01*
X6522443Y-15656484D02*
X6465301Y-15656484D01*
X6465301Y-15656484D02*
X6446253Y-15646960D01*
X6446253Y-15646960D02*
X6436729Y-15637436D01*
X6646253Y-15637436D02*
X6655777Y-15646960D01*
X6655777Y-15646960D02*
X6646253Y-15656484D01*
X6646253Y-15656484D02*
X6636729Y-15646960D01*
X6636729Y-15646960D02*
X6646253Y-15637436D01*
X6646253Y-15637436D02*
X6646253Y-15656484D01*
X6731967Y-15475531D02*
X6741491Y-15466008D01*
X6741491Y-15466008D02*
X6760539Y-15456484D01*
X6760539Y-15456484D02*
X6808158Y-15456484D01*
X6808158Y-15456484D02*
X6827205Y-15466008D01*
X6827205Y-15466008D02*
X6836729Y-15475531D01*
X6836729Y-15475531D02*
X6846253Y-15494579D01*
X6846253Y-15494579D02*
X6846253Y-15513627D01*
X6846253Y-15513627D02*
X6836729Y-15542198D01*
X6836729Y-15542198D02*
X6722443Y-15656484D01*
X6722443Y-15656484D02*
X6846253Y-15656484D01*
X6970062Y-15456484D02*
X6989110Y-15456484D01*
X6989110Y-15456484D02*
X7008158Y-15466008D01*
X7008158Y-15466008D02*
X7017682Y-15475531D01*
X7017682Y-15475531D02*
X7027205Y-15494579D01*
X7027205Y-15494579D02*
X7036729Y-15532674D01*
X7036729Y-15532674D02*
X7036729Y-15580293D01*
X7036729Y-15580293D02*
X7027205Y-15618388D01*
X7027205Y-15618388D02*
X7017682Y-15637436D01*
X7017682Y-15637436D02*
X7008158Y-15646960D01*
X7008158Y-15646960D02*
X6989110Y-15656484D01*
X6989110Y-15656484D02*
X6970062Y-15656484D01*
X6970062Y-15656484D02*
X6951015Y-15646960D01*
X6951015Y-15646960D02*
X6941491Y-15637436D01*
X6941491Y-15637436D02*
X6931967Y-15618388D01*
X6931967Y-15618388D02*
X6922443Y-15580293D01*
X6922443Y-15580293D02*
X6922443Y-15532674D01*
X6922443Y-15532674D02*
X6931967Y-15494579D01*
X6931967Y-15494579D02*
X6941491Y-15475531D01*
X6941491Y-15475531D02*
X6951015Y-15466008D01*
X6951015Y-15466008D02*
X6970062Y-15456484D01*
X7160539Y-15456484D02*
X7179586Y-15456484D01*
X7179586Y-15456484D02*
X7198634Y-15466008D01*
X7198634Y-15466008D02*
X7208158Y-15475531D01*
X7208158Y-15475531D02*
X7217682Y-15494579D01*
X7217682Y-15494579D02*
X7227205Y-15532674D01*
X7227205Y-15532674D02*
X7227205Y-15580293D01*
X7227205Y-15580293D02*
X7217682Y-15618388D01*
X7217682Y-15618388D02*
X7208158Y-15637436D01*
X7208158Y-15637436D02*
X7198634Y-15646960D01*
X7198634Y-15646960D02*
X7179586Y-15656484D01*
X7179586Y-15656484D02*
X7160539Y-15656484D01*
X7160539Y-15656484D02*
X7141491Y-15646960D01*
X7141491Y-15646960D02*
X7131967Y-15637436D01*
X7131967Y-15637436D02*
X7122443Y-15618388D01*
X7122443Y-15618388D02*
X7112920Y-15580293D01*
X7112920Y-15580293D02*
X7112920Y-15532674D01*
X7112920Y-15532674D02*
X7122443Y-15494579D01*
X7122443Y-15494579D02*
X7131967Y-15475531D01*
X7131967Y-15475531D02*
X7141491Y-15466008D01*
X7141491Y-15466008D02*
X7160539Y-15456484D01*
X7312920Y-15656484D02*
X7312920Y-15523150D01*
X7312920Y-15542198D02*
X7322443Y-15532674D01*
X7322443Y-15532674D02*
X7341491Y-15523150D01*
X7341491Y-15523150D02*
X7370063Y-15523150D01*
X7370063Y-15523150D02*
X7389110Y-15532674D01*
X7389110Y-15532674D02*
X7398634Y-15551722D01*
X7398634Y-15551722D02*
X7398634Y-15656484D01*
X7398634Y-15551722D02*
X7408158Y-15532674D01*
X7408158Y-15532674D02*
X7427205Y-15523150D01*
X7427205Y-15523150D02*
X7455777Y-15523150D01*
X7455777Y-15523150D02*
X7474824Y-15532674D01*
X7474824Y-15532674D02*
X7484348Y-15551722D01*
X7484348Y-15551722D02*
X7484348Y-15656484D01*
X7579586Y-15656484D02*
X7579586Y-15523150D01*
X7579586Y-15542198D02*
X7589110Y-15532674D01*
X7589110Y-15532674D02*
X7608158Y-15523150D01*
X7608158Y-15523150D02*
X7636729Y-15523150D01*
X7636729Y-15523150D02*
X7655777Y-15532674D01*
X7655777Y-15532674D02*
X7665301Y-15551722D01*
X7665301Y-15551722D02*
X7665301Y-15656484D01*
X7665301Y-15551722D02*
X7674824Y-15532674D01*
X7674824Y-15532674D02*
X7693872Y-15523150D01*
X7693872Y-15523150D02*
X7722443Y-15523150D01*
X7722443Y-15523150D02*
X7741491Y-15532674D01*
X7741491Y-15532674D02*
X7751015Y-15551722D01*
X7751015Y-15551722D02*
X7751015Y-15656484D01*
X8141491Y-15446960D02*
X7970063Y-15704103D01*
X8398634Y-15456484D02*
X8417682Y-15456484D01*
X8417682Y-15456484D02*
X8436729Y-15466008D01*
X8436729Y-15466008D02*
X8446253Y-15475531D01*
X8446253Y-15475531D02*
X8455777Y-15494579D01*
X8455777Y-15494579D02*
X8465301Y-15532674D01*
X8465301Y-15532674D02*
X8465301Y-15580293D01*
X8465301Y-15580293D02*
X8455777Y-15618388D01*
X8455777Y-15618388D02*
X8446253Y-15637436D01*
X8446253Y-15637436D02*
X8436729Y-15646960D01*
X8436729Y-15646960D02*
X8417682Y-15656484D01*
X8417682Y-15656484D02*
X8398634Y-15656484D01*
X8398634Y-15656484D02*
X8379586Y-15646960D01*
X8379586Y-15646960D02*
X8370063Y-15637436D01*
X8370063Y-15637436D02*
X8360539Y-15618388D01*
X8360539Y-15618388D02*
X8351015Y-15580293D01*
X8351015Y-15580293D02*
X8351015Y-15532674D01*
X8351015Y-15532674D02*
X8360539Y-15494579D01*
X8360539Y-15494579D02*
X8370063Y-15475531D01*
X8370063Y-15475531D02*
X8379586Y-15466008D01*
X8379586Y-15466008D02*
X8398634Y-15456484D01*
X8551015Y-15637436D02*
X8560539Y-15646960D01*
X8560539Y-15646960D02*
X8551015Y-15656484D01*
X8551015Y-15656484D02*
X8541491Y-15646960D01*
X8541491Y-15646960D02*
X8551015Y-15637436D01*
X8551015Y-15637436D02*
X8551015Y-15656484D01*
X8751015Y-15656484D02*
X8636729Y-15656484D01*
X8693872Y-15656484D02*
X8693872Y-15456484D01*
X8693872Y-15456484D02*
X8674825Y-15485055D01*
X8674825Y-15485055D02*
X8655777Y-15504103D01*
X8655777Y-15504103D02*
X8636729Y-15513627D01*
X8827206Y-15475531D02*
X8836729Y-15466008D01*
X8836729Y-15466008D02*
X8855777Y-15456484D01*
X8855777Y-15456484D02*
X8903396Y-15456484D01*
X8903396Y-15456484D02*
X8922444Y-15466008D01*
X8922444Y-15466008D02*
X8931968Y-15475531D01*
X8931968Y-15475531D02*
X8941491Y-15494579D01*
X8941491Y-15494579D02*
X8941491Y-15513627D01*
X8941491Y-15513627D02*
X8931968Y-15542198D01*
X8931968Y-15542198D02*
X8817682Y-15656484D01*
X8817682Y-15656484D02*
X8941491Y-15656484D01*
X9112920Y-15456484D02*
X9074825Y-15456484D01*
X9074825Y-15456484D02*
X9055777Y-15466008D01*
X9055777Y-15466008D02*
X9046253Y-15475531D01*
X9046253Y-15475531D02*
X9027206Y-15504103D01*
X9027206Y-15504103D02*
X9017682Y-15542198D01*
X9017682Y-15542198D02*
X9017682Y-15618388D01*
X9017682Y-15618388D02*
X9027206Y-15637436D01*
X9027206Y-15637436D02*
X9036729Y-15646960D01*
X9036729Y-15646960D02*
X9055777Y-15656484D01*
X9055777Y-15656484D02*
X9093872Y-15656484D01*
X9093872Y-15656484D02*
X9112920Y-15646960D01*
X9112920Y-15646960D02*
X9122444Y-15637436D01*
X9122444Y-15637436D02*
X9131968Y-15618388D01*
X9131968Y-15618388D02*
X9131968Y-15570769D01*
X9131968Y-15570769D02*
X9122444Y-15551722D01*
X9122444Y-15551722D02*
X9112920Y-15542198D01*
X9112920Y-15542198D02*
X9093872Y-15532674D01*
X9093872Y-15532674D02*
X9055777Y-15532674D01*
X9055777Y-15532674D02*
X9036729Y-15542198D01*
X9036729Y-15542198D02*
X9027206Y-15551722D01*
X9027206Y-15551722D02*
X9017682Y-15570769D01*
X9255777Y-15456484D02*
X9274825Y-15456484D01*
X9274825Y-15456484D02*
X9293872Y-15466008D01*
X9293872Y-15466008D02*
X9303396Y-15475531D01*
X9303396Y-15475531D02*
X9312920Y-15494579D01*
X9312920Y-15494579D02*
X9322444Y-15532674D01*
X9322444Y-15532674D02*
X9322444Y-15580293D01*
X9322444Y-15580293D02*
X9312920Y-15618388D01*
X9312920Y-15618388D02*
X9303396Y-15637436D01*
X9303396Y-15637436D02*
X9293872Y-15646960D01*
X9293872Y-15646960D02*
X9274825Y-15656484D01*
X9274825Y-15656484D02*
X9255777Y-15656484D01*
X9255777Y-15656484D02*
X9236729Y-15646960D01*
X9236729Y-15646960D02*
X9227206Y-15637436D01*
X9227206Y-15637436D02*
X9217682Y-15618388D01*
X9217682Y-15618388D02*
X9208158Y-15580293D01*
X9208158Y-15580293D02*
X9208158Y-15532674D01*
X9208158Y-15532674D02*
X9217682Y-15494579D01*
X9217682Y-15494579D02*
X9227206Y-15475531D01*
X9227206Y-15475531D02*
X9236729Y-15466008D01*
X9236729Y-15466008D02*
X9255777Y-15456484D01*
X9398634Y-15456484D02*
X9398634Y-15494579D01*
X9474825Y-15456484D02*
X9474825Y-15494579D01*
X9770063Y-15732674D02*
X9760539Y-15723150D01*
X9760539Y-15723150D02*
X9741491Y-15694579D01*
X9741491Y-15694579D02*
X9731968Y-15675531D01*
X9731968Y-15675531D02*
X9722444Y-15646960D01*
X9722444Y-15646960D02*
X9712920Y-15599341D01*
X9712920Y-15599341D02*
X9712920Y-15561246D01*
X9712920Y-15561246D02*
X9722444Y-15513627D01*
X9722444Y-15513627D02*
X9731968Y-15485055D01*
X9731968Y-15485055D02*
X9741491Y-15466008D01*
X9741491Y-15466008D02*
X9760539Y-15437436D01*
X9760539Y-15437436D02*
X9770063Y-15427912D01*
X9941491Y-15456484D02*
X9846253Y-15456484D01*
X9846253Y-15456484D02*
X9836730Y-15551722D01*
X9836730Y-15551722D02*
X9846253Y-15542198D01*
X9846253Y-15542198D02*
X9865301Y-15532674D01*
X9865301Y-15532674D02*
X9912920Y-15532674D01*
X9912920Y-15532674D02*
X9931968Y-15542198D01*
X9931968Y-15542198D02*
X9941491Y-15551722D01*
X9941491Y-15551722D02*
X9951015Y-15570769D01*
X9951015Y-15570769D02*
X9951015Y-15618388D01*
X9951015Y-15618388D02*
X9941491Y-15637436D01*
X9941491Y-15637436D02*
X9931968Y-15646960D01*
X9931968Y-15646960D02*
X9912920Y-15656484D01*
X9912920Y-15656484D02*
X9865301Y-15656484D01*
X9865301Y-15656484D02*
X9846253Y-15646960D01*
X9846253Y-15646960D02*
X9836730Y-15637436D01*
X10189111Y-15656484D02*
X10189111Y-15456484D01*
X10274825Y-15656484D02*
X10274825Y-15551722D01*
X10274825Y-15551722D02*
X10265301Y-15532674D01*
X10265301Y-15532674D02*
X10246253Y-15523150D01*
X10246253Y-15523150D02*
X10217682Y-15523150D01*
X10217682Y-15523150D02*
X10198634Y-15532674D01*
X10198634Y-15532674D02*
X10189111Y-15542198D01*
X10398634Y-15656484D02*
X10379587Y-15646960D01*
X10379587Y-15646960D02*
X10370063Y-15637436D01*
X10370063Y-15637436D02*
X10360539Y-15618388D01*
X10360539Y-15618388D02*
X10360539Y-15561246D01*
X10360539Y-15561246D02*
X10370063Y-15542198D01*
X10370063Y-15542198D02*
X10379587Y-15532674D01*
X10379587Y-15532674D02*
X10398634Y-15523150D01*
X10398634Y-15523150D02*
X10427206Y-15523150D01*
X10427206Y-15523150D02*
X10446253Y-15532674D01*
X10446253Y-15532674D02*
X10455777Y-15542198D01*
X10455777Y-15542198D02*
X10465301Y-15561246D01*
X10465301Y-15561246D02*
X10465301Y-15618388D01*
X10465301Y-15618388D02*
X10455777Y-15637436D01*
X10455777Y-15637436D02*
X10446253Y-15646960D01*
X10446253Y-15646960D02*
X10427206Y-15656484D01*
X10427206Y-15656484D02*
X10398634Y-15656484D01*
X10579587Y-15656484D02*
X10560539Y-15646960D01*
X10560539Y-15646960D02*
X10551015Y-15627912D01*
X10551015Y-15627912D02*
X10551015Y-15456484D01*
X10731968Y-15646960D02*
X10712920Y-15656484D01*
X10712920Y-15656484D02*
X10674825Y-15656484D01*
X10674825Y-15656484D02*
X10655777Y-15646960D01*
X10655777Y-15646960D02*
X10646253Y-15627912D01*
X10646253Y-15627912D02*
X10646253Y-15551722D01*
X10646253Y-15551722D02*
X10655777Y-15532674D01*
X10655777Y-15532674D02*
X10674825Y-15523150D01*
X10674825Y-15523150D02*
X10712920Y-15523150D01*
X10712920Y-15523150D02*
X10731968Y-15532674D01*
X10731968Y-15532674D02*
X10741492Y-15551722D01*
X10741492Y-15551722D02*
X10741492Y-15570769D01*
X10741492Y-15570769D02*
X10646253Y-15589817D01*
X10817682Y-15646960D02*
X10836730Y-15656484D01*
X10836730Y-15656484D02*
X10874825Y-15656484D01*
X10874825Y-15656484D02*
X10893873Y-15646960D01*
X10893873Y-15646960D02*
X10903396Y-15627912D01*
X10903396Y-15627912D02*
X10903396Y-15618388D01*
X10903396Y-15618388D02*
X10893873Y-15599341D01*
X10893873Y-15599341D02*
X10874825Y-15589817D01*
X10874825Y-15589817D02*
X10846253Y-15589817D01*
X10846253Y-15589817D02*
X10827206Y-15580293D01*
X10827206Y-15580293D02*
X10817682Y-15561246D01*
X10817682Y-15561246D02*
X10817682Y-15551722D01*
X10817682Y-15551722D02*
X10827206Y-15532674D01*
X10827206Y-15532674D02*
X10846253Y-15523150D01*
X10846253Y-15523150D02*
X10874825Y-15523150D01*
X10874825Y-15523150D02*
X10893873Y-15532674D01*
X10970063Y-15732674D02*
X10979587Y-15723150D01*
X10979587Y-15723150D02*
X10998634Y-15694579D01*
X10998634Y-15694579D02*
X11008158Y-15675531D01*
X11008158Y-15675531D02*
X11017682Y-15646960D01*
X11017682Y-15646960D02*
X11027206Y-15599341D01*
X11027206Y-15599341D02*
X11027206Y-15561246D01*
X11027206Y-15561246D02*
X11017682Y-15513627D01*
X11017682Y-15513627D02*
X11008158Y-15485055D01*
X11008158Y-15485055D02*
X10998634Y-15466008D01*
X10998634Y-15466008D02*
X10979587Y-15437436D01*
X10979587Y-15437436D02*
X10970063Y-15427912D01*
X11331968Y-15732674D02*
X11322444Y-15723150D01*
X11322444Y-15723150D02*
X11303396Y-15694579D01*
X11303396Y-15694579D02*
X11293872Y-15675531D01*
X11293872Y-15675531D02*
X11284349Y-15646960D01*
X11284349Y-15646960D02*
X11274825Y-15599341D01*
X11274825Y-15599341D02*
X11274825Y-15561246D01*
X11274825Y-15561246D02*
X11284349Y-15513627D01*
X11284349Y-15513627D02*
X11293872Y-15485055D01*
X11293872Y-15485055D02*
X11303396Y-15466008D01*
X11303396Y-15466008D02*
X11322444Y-15437436D01*
X11322444Y-15437436D02*
X11331968Y-15427912D01*
X11408158Y-15523150D02*
X11408158Y-15656484D01*
X11408158Y-15542198D02*
X11417682Y-15532674D01*
X11417682Y-15532674D02*
X11436730Y-15523150D01*
X11436730Y-15523150D02*
X11465301Y-15523150D01*
X11465301Y-15523150D02*
X11484349Y-15532674D01*
X11484349Y-15532674D02*
X11493872Y-15551722D01*
X11493872Y-15551722D02*
X11493872Y-15656484D01*
X11617682Y-15656484D02*
X11598634Y-15646960D01*
X11598634Y-15646960D02*
X11589111Y-15637436D01*
X11589111Y-15637436D02*
X11579587Y-15618388D01*
X11579587Y-15618388D02*
X11579587Y-15561246D01*
X11579587Y-15561246D02*
X11589111Y-15542198D01*
X11589111Y-15542198D02*
X11598634Y-15532674D01*
X11598634Y-15532674D02*
X11617682Y-15523150D01*
X11617682Y-15523150D02*
X11646253Y-15523150D01*
X11646253Y-15523150D02*
X11665301Y-15532674D01*
X11665301Y-15532674D02*
X11674825Y-15542198D01*
X11674825Y-15542198D02*
X11684349Y-15561246D01*
X11684349Y-15561246D02*
X11684349Y-15618388D01*
X11684349Y-15618388D02*
X11674825Y-15637436D01*
X11674825Y-15637436D02*
X11665301Y-15646960D01*
X11665301Y-15646960D02*
X11646253Y-15656484D01*
X11646253Y-15656484D02*
X11617682Y-15656484D01*
X11741492Y-15523150D02*
X11817682Y-15523150D01*
X11770063Y-15456484D02*
X11770063Y-15627912D01*
X11770063Y-15627912D02*
X11779587Y-15646960D01*
X11779587Y-15646960D02*
X11798634Y-15656484D01*
X11798634Y-15656484D02*
X11817682Y-15656484D01*
X12036730Y-15523150D02*
X12036730Y-15723150D01*
X12036730Y-15532674D02*
X12055777Y-15523150D01*
X12055777Y-15523150D02*
X12093873Y-15523150D01*
X12093873Y-15523150D02*
X12112920Y-15532674D01*
X12112920Y-15532674D02*
X12122444Y-15542198D01*
X12122444Y-15542198D02*
X12131968Y-15561246D01*
X12131968Y-15561246D02*
X12131968Y-15618388D01*
X12131968Y-15618388D02*
X12122444Y-15637436D01*
X12122444Y-15637436D02*
X12112920Y-15646960D01*
X12112920Y-15646960D02*
X12093873Y-15656484D01*
X12093873Y-15656484D02*
X12055777Y-15656484D01*
X12055777Y-15656484D02*
X12036730Y-15646960D01*
X12246253Y-15656484D02*
X12227206Y-15646960D01*
X12227206Y-15646960D02*
X12217682Y-15627912D01*
X12217682Y-15627912D02*
X12217682Y-15456484D01*
X12408158Y-15656484D02*
X12408158Y-15551722D01*
X12408158Y-15551722D02*
X12398634Y-15532674D01*
X12398634Y-15532674D02*
X12379587Y-15523150D01*
X12379587Y-15523150D02*
X12341492Y-15523150D01*
X12341492Y-15523150D02*
X12322444Y-15532674D01*
X12408158Y-15646960D02*
X12389111Y-15656484D01*
X12389111Y-15656484D02*
X12341492Y-15656484D01*
X12341492Y-15656484D02*
X12322444Y-15646960D01*
X12322444Y-15646960D02*
X12312920Y-15627912D01*
X12312920Y-15627912D02*
X12312920Y-15608865D01*
X12312920Y-15608865D02*
X12322444Y-15589817D01*
X12322444Y-15589817D02*
X12341492Y-15580293D01*
X12341492Y-15580293D02*
X12389111Y-15580293D01*
X12389111Y-15580293D02*
X12408158Y-15570769D01*
X12474825Y-15523150D02*
X12551015Y-15523150D01*
X12503396Y-15456484D02*
X12503396Y-15627912D01*
X12503396Y-15627912D02*
X12512920Y-15646960D01*
X12512920Y-15646960D02*
X12531968Y-15656484D01*
X12531968Y-15656484D02*
X12551015Y-15656484D01*
X12693873Y-15646960D02*
X12674825Y-15656484D01*
X12674825Y-15656484D02*
X12636730Y-15656484D01*
X12636730Y-15656484D02*
X12617682Y-15646960D01*
X12617682Y-15646960D02*
X12608158Y-15627912D01*
X12608158Y-15627912D02*
X12608158Y-15551722D01*
X12608158Y-15551722D02*
X12617682Y-15532674D01*
X12617682Y-15532674D02*
X12636730Y-15523150D01*
X12636730Y-15523150D02*
X12674825Y-15523150D01*
X12674825Y-15523150D02*
X12693873Y-15532674D01*
X12693873Y-15532674D02*
X12703396Y-15551722D01*
X12703396Y-15551722D02*
X12703396Y-15570769D01*
X12703396Y-15570769D02*
X12608158Y-15589817D01*
X12874825Y-15656484D02*
X12874825Y-15456484D01*
X12874825Y-15646960D02*
X12855777Y-15656484D01*
X12855777Y-15656484D02*
X12817682Y-15656484D01*
X12817682Y-15656484D02*
X12798634Y-15646960D01*
X12798634Y-15646960D02*
X12789111Y-15637436D01*
X12789111Y-15637436D02*
X12779587Y-15618388D01*
X12779587Y-15618388D02*
X12779587Y-15561246D01*
X12779587Y-15561246D02*
X12789111Y-15542198D01*
X12789111Y-15542198D02*
X12798634Y-15532674D01*
X12798634Y-15532674D02*
X12817682Y-15523150D01*
X12817682Y-15523150D02*
X12855777Y-15523150D01*
X12855777Y-15523150D02*
X12874825Y-15532674D01*
X12951015Y-15732674D02*
X12960539Y-15723150D01*
X12960539Y-15723150D02*
X12979587Y-15694579D01*
X12979587Y-15694579D02*
X12989111Y-15675531D01*
X12989111Y-15675531D02*
X12998634Y-15646960D01*
X12998634Y-15646960D02*
X13008158Y-15599341D01*
X13008158Y-15599341D02*
X13008158Y-15561246D01*
X13008158Y-15561246D02*
X12998634Y-15513627D01*
X12998634Y-15513627D02*
X12989111Y-15485055D01*
X12989111Y-15485055D02*
X12979587Y-15466008D01*
X12979587Y-15466008D02*
X12960539Y-15437436D01*
X12960539Y-15437436D02*
X12951015Y-15427912D01*
M02*
