%TF.GenerationSoftware,KiCad,Pcbnew,9.0.3+dfsg-1*%
%TF.CreationDate,2026-10-04T13:47:33-05:00*%
%TF.ProjectId,Lampara_4R,4c616d70-6172-4615-9f34-522e6b696361,rev?*%
%TF.SameCoordinates,Original*%
%TF.FileFunction,Legend,Top*%
%TF.FilePolarity,Positive*%
%FSLAX46Y46*%
G04 Gerber Fmt 4.6, Leading zero omitted, Abs format (unit mm)*
G04 Created by KiCad (PCBNEW 9.0.3+dfsg-1) date 2026-10-04 13:47:33*
%MOMM*%
%LPD*%
G01*
G04 APERTURE LIST*
G04 Aperture macros list*
%AMRoundRect*
0 Rectangle with rounded corners*
0 $1 Rounding radius*
0 $2 $3 $4 $5 $6 $7 $8 $9 X,Y pos of 4 corners*
0 Add a 4 corners polygon primitive as box body*
4,1,4,$2,$3,$4,$5,$6,$7,$8,$9,$2,$3,0*
0 Add four circle primitives for the rounded corners*
1,1,$1+$1,$2,$3*
1,1,$1+$1,$4,$5*
1,1,$1+$1,$6,$7*
1,1,$1+$1,$8,$9*
0 Add four rect primitives between the rounded corners*
20,1,$1+$1,$2,$3,$4,$5,0*
20,1,$1+$1,$4,$5,$6,$7,0*
20,1,$1+$1,$6,$7,$8,$9,0*
20,1,$1+$1,$8,$9,$2,$3,0*%
%AMFreePoly0*
4,1,37,0.603843,0.796157,0.639018,0.796157,0.711114,0.766294,0.766294,0.711114,0.796157,0.639018,0.796157,0.603843,0.800000,0.600000,0.800000,-0.600000,0.796157,-0.603843,0.796157,-0.639018,0.766294,-0.711114,0.711114,-0.766294,0.639018,-0.796157,0.603843,-0.796157,0.600000,-0.800000,0.000000,-0.800000,0.000000,-0.796148,-0.078414,-0.796148,-0.232228,-0.765552,-0.377117,-0.705537,
-0.507515,-0.618408,-0.618408,-0.507515,-0.705537,-0.377117,-0.765552,-0.232228,-0.796148,-0.078414,-0.796148,0.078414,-0.765552,0.232228,-0.705537,0.377117,-0.618408,0.507515,-0.507515,0.618408,-0.377117,0.705537,-0.232228,0.765552,-0.078414,0.796148,0.000000,0.796148,0.000000,0.800000,0.600000,0.800000,0.603843,0.796157,0.603843,0.796157,$1*%
%AMFreePoly1*
4,1,37,0.000000,0.796148,0.078414,0.796148,0.232228,0.765552,0.377117,0.705537,0.507515,0.618408,0.618408,0.507515,0.705537,0.377117,0.765552,0.232228,0.796148,0.078414,0.796148,-0.078414,0.765552,-0.232228,0.705537,-0.377117,0.618408,-0.507515,0.507515,-0.618408,0.377117,-0.705537,0.232228,-0.765552,0.078414,-0.796148,0.000000,-0.796148,0.000000,-0.800000,-0.600000,-0.800000,
-0.603843,-0.796157,-0.639018,-0.796157,-0.711114,-0.766294,-0.766294,-0.711114,-0.796157,-0.639018,-0.796157,-0.603843,-0.800000,-0.600000,-0.800000,0.600000,-0.796157,0.603843,-0.796157,0.639018,-0.766294,0.711114,-0.711114,0.766294,-0.639018,0.796157,-0.603843,0.796157,-0.600000,0.800000,0.000000,0.800000,0.000000,0.796148,0.000000,0.796148,$1*%
G04 Aperture macros list end*
%ADD10C,0.150000*%
%ADD11C,0.120000*%
%ADD12RoundRect,0.200000X-0.600000X0.600000X-0.600000X-0.600000X0.600000X-0.600000X0.600000X0.600000X0*%
%ADD13C,1.600000*%
%ADD14FreePoly0,270.000000*%
%ADD15FreePoly1,270.000000*%
%ADD16RoundRect,0.250000X-0.350000X-0.625000X0.350000X-0.625000X0.350000X0.625000X-0.350000X0.625000X0*%
%ADD17O,1.200000X1.750000*%
%ADD18C,2.700000*%
%ADD19R,1.900000X1.900000*%
%ADD20C,1.900000*%
%ADD21R,1.500000X1.500000*%
%ADD22C,1.500000*%
%ADD23RoundRect,0.249999X0.850001X-0.850001X0.850001X0.850001X-0.850001X0.850001X-0.850001X-0.850001X0*%
%ADD24C,2.200000*%
%ADD25C,3.200000*%
%ADD26C,2.780000*%
%ADD27RoundRect,0.250000X-0.550000X-0.550000X0.550000X-0.550000X0.550000X0.550000X-0.550000X0.550000X0*%
%ADD28RoundRect,0.250000X0.625000X-0.350000X0.625000X0.350000X-0.625000X0.350000X-0.625000X-0.350000X0*%
%ADD29O,1.750000X1.200000*%
%ADD30RoundRect,0.250000X0.550000X-0.550000X0.550000X0.550000X-0.550000X0.550000X-0.550000X-0.550000X0*%
%ADD31RoundRect,0.250001X-0.949999X-0.949999X0.949999X-0.949999X0.949999X0.949999X-0.949999X0.949999X0*%
%ADD32C,2.400000*%
G04 APERTURE END LIST*
D10*
X69690895Y-126036660D02*
X69690895Y-126512850D01*
X69405180Y-125941422D02*
X70405180Y-126274755D01*
X70405180Y-126274755D02*
X69405180Y-126608088D01*
X69405180Y-127465231D02*
X69405180Y-126893803D01*
X69405180Y-127179517D02*
X70405180Y-127179517D01*
X70405180Y-127179517D02*
X70262323Y-127084279D01*
X70262323Y-127084279D02*
X70167085Y-126989041D01*
X70167085Y-126989041D02*
X70119466Y-126893803D01*
X88190476Y-138004819D02*
X88190476Y-138719104D01*
X88190476Y-138719104D02*
X88142857Y-138861961D01*
X88142857Y-138861961D02*
X88047619Y-138957200D01*
X88047619Y-138957200D02*
X87904762Y-139004819D01*
X87904762Y-139004819D02*
X87809524Y-139004819D01*
X89190476Y-139004819D02*
X88619048Y-139004819D01*
X88904762Y-139004819D02*
X88904762Y-138004819D01*
X88904762Y-138004819D02*
X88809524Y-138147676D01*
X88809524Y-138147676D02*
X88714286Y-138242914D01*
X88714286Y-138242914D02*
X88619048Y-138290533D01*
X89809524Y-138004819D02*
X89904762Y-138004819D01*
X89904762Y-138004819D02*
X90000000Y-138052438D01*
X90000000Y-138052438D02*
X90047619Y-138100057D01*
X90047619Y-138100057D02*
X90095238Y-138195295D01*
X90095238Y-138195295D02*
X90142857Y-138385771D01*
X90142857Y-138385771D02*
X90142857Y-138623866D01*
X90142857Y-138623866D02*
X90095238Y-138814342D01*
X90095238Y-138814342D02*
X90047619Y-138909580D01*
X90047619Y-138909580D02*
X90000000Y-138957200D01*
X90000000Y-138957200D02*
X89904762Y-139004819D01*
X89904762Y-139004819D02*
X89809524Y-139004819D01*
X89809524Y-139004819D02*
X89714286Y-138957200D01*
X89714286Y-138957200D02*
X89666667Y-138909580D01*
X89666667Y-138909580D02*
X89619048Y-138814342D01*
X89619048Y-138814342D02*
X89571429Y-138623866D01*
X89571429Y-138623866D02*
X89571429Y-138385771D01*
X89571429Y-138385771D02*
X89619048Y-138195295D01*
X89619048Y-138195295D02*
X89666667Y-138100057D01*
X89666667Y-138100057D02*
X89714286Y-138052438D01*
X89714286Y-138052438D02*
X89809524Y-138004819D01*
X123866666Y-65554819D02*
X123866666Y-66269104D01*
X123866666Y-66269104D02*
X123819047Y-66411961D01*
X123819047Y-66411961D02*
X123723809Y-66507200D01*
X123723809Y-66507200D02*
X123580952Y-66554819D01*
X123580952Y-66554819D02*
X123485714Y-66554819D01*
X124866666Y-66554819D02*
X124295238Y-66554819D01*
X124580952Y-66554819D02*
X124580952Y-65554819D01*
X124580952Y-65554819D02*
X124485714Y-65697676D01*
X124485714Y-65697676D02*
X124390476Y-65792914D01*
X124390476Y-65792914D02*
X124295238Y-65840533D01*
X92233333Y-136454819D02*
X91900000Y-135978628D01*
X91661905Y-136454819D02*
X91661905Y-135454819D01*
X91661905Y-135454819D02*
X92042857Y-135454819D01*
X92042857Y-135454819D02*
X92138095Y-135502438D01*
X92138095Y-135502438D02*
X92185714Y-135550057D01*
X92185714Y-135550057D02*
X92233333Y-135645295D01*
X92233333Y-135645295D02*
X92233333Y-135788152D01*
X92233333Y-135788152D02*
X92185714Y-135883390D01*
X92185714Y-135883390D02*
X92138095Y-135931009D01*
X92138095Y-135931009D02*
X92042857Y-135978628D01*
X92042857Y-135978628D02*
X91661905Y-135978628D01*
X92614286Y-135550057D02*
X92661905Y-135502438D01*
X92661905Y-135502438D02*
X92757143Y-135454819D01*
X92757143Y-135454819D02*
X92995238Y-135454819D01*
X92995238Y-135454819D02*
X93090476Y-135502438D01*
X93090476Y-135502438D02*
X93138095Y-135550057D01*
X93138095Y-135550057D02*
X93185714Y-135645295D01*
X93185714Y-135645295D02*
X93185714Y-135740533D01*
X93185714Y-135740533D02*
X93138095Y-135883390D01*
X93138095Y-135883390D02*
X92566667Y-136454819D01*
X92566667Y-136454819D02*
X93185714Y-136454819D01*
X90690476Y-127004819D02*
X90690476Y-127719104D01*
X90690476Y-127719104D02*
X90642857Y-127861961D01*
X90642857Y-127861961D02*
X90547619Y-127957200D01*
X90547619Y-127957200D02*
X90404762Y-128004819D01*
X90404762Y-128004819D02*
X90309524Y-128004819D01*
X91690476Y-128004819D02*
X91119048Y-128004819D01*
X91404762Y-128004819D02*
X91404762Y-127004819D01*
X91404762Y-127004819D02*
X91309524Y-127147676D01*
X91309524Y-127147676D02*
X91214286Y-127242914D01*
X91214286Y-127242914D02*
X91119048Y-127290533D01*
X92642857Y-128004819D02*
X92071429Y-128004819D01*
X92357143Y-128004819D02*
X92357143Y-127004819D01*
X92357143Y-127004819D02*
X92261905Y-127147676D01*
X92261905Y-127147676D02*
X92166667Y-127242914D01*
X92166667Y-127242914D02*
X92071429Y-127290533D01*
X146232380Y-86894726D02*
X146232380Y-87922821D01*
X146232380Y-87922821D02*
X146292857Y-88043773D01*
X146292857Y-88043773D02*
X146353333Y-88104250D01*
X146353333Y-88104250D02*
X146474285Y-88164726D01*
X146474285Y-88164726D02*
X146716190Y-88164726D01*
X146716190Y-88164726D02*
X146837142Y-88104250D01*
X146837142Y-88104250D02*
X146897619Y-88043773D01*
X146897619Y-88043773D02*
X146958095Y-87922821D01*
X146958095Y-87922821D02*
X146958095Y-86894726D01*
X147502380Y-87015678D02*
X147562856Y-86955202D01*
X147562856Y-86955202D02*
X147683809Y-86894726D01*
X147683809Y-86894726D02*
X147986190Y-86894726D01*
X147986190Y-86894726D02*
X148107142Y-86955202D01*
X148107142Y-86955202D02*
X148167618Y-87015678D01*
X148167618Y-87015678D02*
X148228095Y-87136630D01*
X148228095Y-87136630D02*
X148228095Y-87257583D01*
X148228095Y-87257583D02*
X148167618Y-87439011D01*
X148167618Y-87439011D02*
X147441904Y-88164726D01*
X147441904Y-88164726D02*
X148228095Y-88164726D01*
D11*
X140564287Y-80925117D02*
X140735715Y-80925117D01*
X140735715Y-80925117D02*
X140821430Y-80967974D01*
X140821430Y-80967974D02*
X140907144Y-81053688D01*
X140907144Y-81053688D02*
X140950001Y-81225117D01*
X140950001Y-81225117D02*
X140950001Y-81525117D01*
X140950001Y-81525117D02*
X140907144Y-81696545D01*
X140907144Y-81696545D02*
X140821430Y-81782260D01*
X140821430Y-81782260D02*
X140735715Y-81825117D01*
X140735715Y-81825117D02*
X140564287Y-81825117D01*
X140564287Y-81825117D02*
X140478573Y-81782260D01*
X140478573Y-81782260D02*
X140392858Y-81696545D01*
X140392858Y-81696545D02*
X140350001Y-81525117D01*
X140350001Y-81525117D02*
X140350001Y-81225117D01*
X140350001Y-81225117D02*
X140392858Y-81053688D01*
X140392858Y-81053688D02*
X140478573Y-80967974D01*
X140478573Y-80967974D02*
X140564287Y-80925117D01*
X141335715Y-80925117D02*
X141335715Y-81653688D01*
X141335715Y-81653688D02*
X141378572Y-81739402D01*
X141378572Y-81739402D02*
X141421430Y-81782260D01*
X141421430Y-81782260D02*
X141507144Y-81825117D01*
X141507144Y-81825117D02*
X141678572Y-81825117D01*
X141678572Y-81825117D02*
X141764287Y-81782260D01*
X141764287Y-81782260D02*
X141807144Y-81739402D01*
X141807144Y-81739402D02*
X141850001Y-81653688D01*
X141850001Y-81653688D02*
X141850001Y-80925117D01*
X142150001Y-80925117D02*
X142664287Y-80925117D01*
X142407144Y-81825117D02*
X142407144Y-80925117D01*
X142921429Y-81010831D02*
X142964286Y-80967974D01*
X142964286Y-80967974D02*
X143050001Y-80925117D01*
X143050001Y-80925117D02*
X143264286Y-80925117D01*
X143264286Y-80925117D02*
X143350001Y-80967974D01*
X143350001Y-80967974D02*
X143392858Y-81010831D01*
X143392858Y-81010831D02*
X143435715Y-81096545D01*
X143435715Y-81096545D02*
X143435715Y-81182260D01*
X143435715Y-81182260D02*
X143392858Y-81310831D01*
X143392858Y-81310831D02*
X142878572Y-81825117D01*
X142878572Y-81825117D02*
X143435715Y-81825117D01*
X144678572Y-80925117D02*
X144850000Y-80925117D01*
X144850000Y-80925117D02*
X144935715Y-80967974D01*
X144935715Y-80967974D02*
X145021429Y-81053688D01*
X145021429Y-81053688D02*
X145064286Y-81225117D01*
X145064286Y-81225117D02*
X145064286Y-81525117D01*
X145064286Y-81525117D02*
X145021429Y-81696545D01*
X145021429Y-81696545D02*
X144935715Y-81782260D01*
X144935715Y-81782260D02*
X144850000Y-81825117D01*
X144850000Y-81825117D02*
X144678572Y-81825117D01*
X144678572Y-81825117D02*
X144592858Y-81782260D01*
X144592858Y-81782260D02*
X144507143Y-81696545D01*
X144507143Y-81696545D02*
X144464286Y-81525117D01*
X144464286Y-81525117D02*
X144464286Y-81225117D01*
X144464286Y-81225117D02*
X144507143Y-81053688D01*
X144507143Y-81053688D02*
X144592858Y-80967974D01*
X144592858Y-80967974D02*
X144678572Y-80925117D01*
X145450000Y-80925117D02*
X145450000Y-81653688D01*
X145450000Y-81653688D02*
X145492857Y-81739402D01*
X145492857Y-81739402D02*
X145535715Y-81782260D01*
X145535715Y-81782260D02*
X145621429Y-81825117D01*
X145621429Y-81825117D02*
X145792857Y-81825117D01*
X145792857Y-81825117D02*
X145878572Y-81782260D01*
X145878572Y-81782260D02*
X145921429Y-81739402D01*
X145921429Y-81739402D02*
X145964286Y-81653688D01*
X145964286Y-81653688D02*
X145964286Y-80925117D01*
X146264286Y-80925117D02*
X146778572Y-80925117D01*
X146521429Y-81825117D02*
X146521429Y-80925117D01*
X147550000Y-81825117D02*
X147035714Y-81825117D01*
X147292857Y-81825117D02*
X147292857Y-80925117D01*
X147292857Y-80925117D02*
X147207143Y-81053688D01*
X147207143Y-81053688D02*
X147121428Y-81139402D01*
X147121428Y-81139402D02*
X147035714Y-81182260D01*
X149178571Y-80925117D02*
X149478571Y-81825117D01*
X149478571Y-81825117D02*
X149778571Y-80925117D01*
X150078571Y-81825117D02*
X150078571Y-80925117D01*
X150078571Y-80925117D02*
X150378571Y-81567974D01*
X150378571Y-81567974D02*
X150678571Y-80925117D01*
X150678571Y-80925117D02*
X150678571Y-81825117D01*
X152264285Y-80967974D02*
X152178571Y-80925117D01*
X152178571Y-80925117D02*
X152049999Y-80925117D01*
X152049999Y-80925117D02*
X151921428Y-80967974D01*
X151921428Y-80967974D02*
X151835713Y-81053688D01*
X151835713Y-81053688D02*
X151792856Y-81139402D01*
X151792856Y-81139402D02*
X151749999Y-81310831D01*
X151749999Y-81310831D02*
X151749999Y-81439402D01*
X151749999Y-81439402D02*
X151792856Y-81610831D01*
X151792856Y-81610831D02*
X151835713Y-81696545D01*
X151835713Y-81696545D02*
X151921428Y-81782260D01*
X151921428Y-81782260D02*
X152049999Y-81825117D01*
X152049999Y-81825117D02*
X152135713Y-81825117D01*
X152135713Y-81825117D02*
X152264285Y-81782260D01*
X152264285Y-81782260D02*
X152307142Y-81739402D01*
X152307142Y-81739402D02*
X152307142Y-81439402D01*
X152307142Y-81439402D02*
X152135713Y-81439402D01*
X152692856Y-81825117D02*
X152692856Y-80925117D01*
X152692856Y-80925117D02*
X153207142Y-81825117D01*
X153207142Y-81825117D02*
X153207142Y-80925117D01*
X153635713Y-81825117D02*
X153635713Y-80925117D01*
X153635713Y-80925117D02*
X153849999Y-80925117D01*
X153849999Y-80925117D02*
X153978570Y-80967974D01*
X153978570Y-80967974D02*
X154064285Y-81053688D01*
X154064285Y-81053688D02*
X154107142Y-81139402D01*
X154107142Y-81139402D02*
X154149999Y-81310831D01*
X154149999Y-81310831D02*
X154149999Y-81439402D01*
X154149999Y-81439402D02*
X154107142Y-81610831D01*
X154107142Y-81610831D02*
X154064285Y-81696545D01*
X154064285Y-81696545D02*
X153978570Y-81782260D01*
X153978570Y-81782260D02*
X153849999Y-81825117D01*
X153849999Y-81825117D02*
X153635713Y-81825117D01*
X142407144Y-93567974D02*
X142321430Y-93525117D01*
X142321430Y-93525117D02*
X142192858Y-93525117D01*
X142192858Y-93525117D02*
X142064287Y-93567974D01*
X142064287Y-93567974D02*
X141978572Y-93653688D01*
X141978572Y-93653688D02*
X141935715Y-93739402D01*
X141935715Y-93739402D02*
X141892858Y-93910831D01*
X141892858Y-93910831D02*
X141892858Y-94039402D01*
X141892858Y-94039402D02*
X141935715Y-94210831D01*
X141935715Y-94210831D02*
X141978572Y-94296545D01*
X141978572Y-94296545D02*
X142064287Y-94382260D01*
X142064287Y-94382260D02*
X142192858Y-94425117D01*
X142192858Y-94425117D02*
X142278572Y-94425117D01*
X142278572Y-94425117D02*
X142407144Y-94382260D01*
X142407144Y-94382260D02*
X142450001Y-94339402D01*
X142450001Y-94339402D02*
X142450001Y-94039402D01*
X142450001Y-94039402D02*
X142278572Y-94039402D01*
X142835715Y-94425117D02*
X142835715Y-93525117D01*
X142835715Y-93525117D02*
X143350001Y-94425117D01*
X143350001Y-94425117D02*
X143350001Y-93525117D01*
X143778572Y-94425117D02*
X143778572Y-93525117D01*
X143778572Y-93525117D02*
X143992858Y-93525117D01*
X143992858Y-93525117D02*
X144121429Y-93567974D01*
X144121429Y-93567974D02*
X144207144Y-93653688D01*
X144207144Y-93653688D02*
X144250001Y-93739402D01*
X144250001Y-93739402D02*
X144292858Y-93910831D01*
X144292858Y-93910831D02*
X144292858Y-94039402D01*
X144292858Y-94039402D02*
X144250001Y-94210831D01*
X144250001Y-94210831D02*
X144207144Y-94296545D01*
X144207144Y-94296545D02*
X144121429Y-94382260D01*
X144121429Y-94382260D02*
X143992858Y-94425117D01*
X143992858Y-94425117D02*
X143778572Y-94425117D01*
X145235715Y-93525117D02*
X145535715Y-94425117D01*
X145535715Y-94425117D02*
X145835715Y-93525117D01*
X146135715Y-94425117D02*
X146135715Y-93525117D01*
X146135715Y-93525117D02*
X146435715Y-94167974D01*
X146435715Y-94167974D02*
X146735715Y-93525117D01*
X146735715Y-93525117D02*
X146735715Y-94425117D01*
X147850000Y-94425117D02*
X147850000Y-93525117D01*
X148278571Y-94425117D02*
X148278571Y-93525117D01*
X148278571Y-93525117D02*
X148792857Y-94425117D01*
X148792857Y-94425117D02*
X148792857Y-93525117D01*
X149692857Y-94425117D02*
X149178571Y-94425117D01*
X149435714Y-94425117D02*
X149435714Y-93525117D01*
X149435714Y-93525117D02*
X149350000Y-93653688D01*
X149350000Y-93653688D02*
X149264285Y-93739402D01*
X149264285Y-93739402D02*
X149178571Y-93782260D01*
X150764285Y-94425117D02*
X150764285Y-93525117D01*
X151192856Y-94425117D02*
X151192856Y-93525117D01*
X151192856Y-93525117D02*
X151707142Y-94425117D01*
X151707142Y-94425117D02*
X151707142Y-93525117D01*
X152092856Y-93610831D02*
X152135713Y-93567974D01*
X152135713Y-93567974D02*
X152221428Y-93525117D01*
X152221428Y-93525117D02*
X152435713Y-93525117D01*
X152435713Y-93525117D02*
X152521428Y-93567974D01*
X152521428Y-93567974D02*
X152564285Y-93610831D01*
X152564285Y-93610831D02*
X152607142Y-93696545D01*
X152607142Y-93696545D02*
X152607142Y-93782260D01*
X152607142Y-93782260D02*
X152564285Y-93910831D01*
X152564285Y-93910831D02*
X152049999Y-94425117D01*
X152049999Y-94425117D02*
X152607142Y-94425117D01*
D10*
X96404761Y-139350057D02*
X96309523Y-139302438D01*
X96309523Y-139302438D02*
X96214285Y-139207200D01*
X96214285Y-139207200D02*
X96071428Y-139064342D01*
X96071428Y-139064342D02*
X95976190Y-139016723D01*
X95976190Y-139016723D02*
X95880952Y-139016723D01*
X95928571Y-139254819D02*
X95833333Y-139207200D01*
X95833333Y-139207200D02*
X95738095Y-139111961D01*
X95738095Y-139111961D02*
X95690476Y-138921485D01*
X95690476Y-138921485D02*
X95690476Y-138588152D01*
X95690476Y-138588152D02*
X95738095Y-138397676D01*
X95738095Y-138397676D02*
X95833333Y-138302438D01*
X95833333Y-138302438D02*
X95928571Y-138254819D01*
X95928571Y-138254819D02*
X96119047Y-138254819D01*
X96119047Y-138254819D02*
X96214285Y-138302438D01*
X96214285Y-138302438D02*
X96309523Y-138397676D01*
X96309523Y-138397676D02*
X96357142Y-138588152D01*
X96357142Y-138588152D02*
X96357142Y-138921485D01*
X96357142Y-138921485D02*
X96309523Y-139111961D01*
X96309523Y-139111961D02*
X96214285Y-139207200D01*
X96214285Y-139207200D02*
X96119047Y-139254819D01*
X96119047Y-139254819D02*
X95928571Y-139254819D01*
X97309523Y-139254819D02*
X96738095Y-139254819D01*
X97023809Y-139254819D02*
X97023809Y-138254819D01*
X97023809Y-138254819D02*
X96928571Y-138397676D01*
X96928571Y-138397676D02*
X96833333Y-138492914D01*
X96833333Y-138492914D02*
X96738095Y-138540533D01*
X100204184Y-137413094D02*
X99204184Y-137413094D01*
X99204184Y-137413094D02*
X99204184Y-137174999D01*
X99204184Y-137174999D02*
X99251803Y-137032142D01*
X99251803Y-137032142D02*
X99347041Y-136936904D01*
X99347041Y-136936904D02*
X99442279Y-136889285D01*
X99442279Y-136889285D02*
X99632755Y-136841666D01*
X99632755Y-136841666D02*
X99775612Y-136841666D01*
X99775612Y-136841666D02*
X99966088Y-136889285D01*
X99966088Y-136889285D02*
X100061326Y-136936904D01*
X100061326Y-136936904D02*
X100156565Y-137032142D01*
X100156565Y-137032142D02*
X100204184Y-137174999D01*
X100204184Y-137174999D02*
X100204184Y-137413094D01*
X100204184Y-135889285D02*
X100204184Y-136460713D01*
X100204184Y-136174999D02*
X99204184Y-136174999D01*
X99204184Y-136174999D02*
X99347041Y-136270237D01*
X99347041Y-136270237D02*
X99442279Y-136365475D01*
X99442279Y-136365475D02*
X99489898Y-136460713D01*
X103769104Y-136173094D02*
X103769104Y-135696904D01*
X104054819Y-136268332D02*
X103054819Y-135934999D01*
X103054819Y-135934999D02*
X104054819Y-135601666D01*
X123232380Y-86894726D02*
X123232380Y-87922821D01*
X123232380Y-87922821D02*
X123292857Y-88043773D01*
X123292857Y-88043773D02*
X123353333Y-88104250D01*
X123353333Y-88104250D02*
X123474285Y-88164726D01*
X123474285Y-88164726D02*
X123716190Y-88164726D01*
X123716190Y-88164726D02*
X123837142Y-88104250D01*
X123837142Y-88104250D02*
X123897619Y-88043773D01*
X123897619Y-88043773D02*
X123958095Y-87922821D01*
X123958095Y-87922821D02*
X123958095Y-86894726D01*
X125228095Y-88164726D02*
X124502380Y-88164726D01*
X124865237Y-88164726D02*
X124865237Y-86894726D01*
X124865237Y-86894726D02*
X124744285Y-87076154D01*
X124744285Y-87076154D02*
X124623333Y-87197107D01*
X124623333Y-87197107D02*
X124502380Y-87257583D01*
D11*
X117564287Y-80925117D02*
X117735715Y-80925117D01*
X117735715Y-80925117D02*
X117821430Y-80967974D01*
X117821430Y-80967974D02*
X117907144Y-81053688D01*
X117907144Y-81053688D02*
X117950001Y-81225117D01*
X117950001Y-81225117D02*
X117950001Y-81525117D01*
X117950001Y-81525117D02*
X117907144Y-81696545D01*
X117907144Y-81696545D02*
X117821430Y-81782260D01*
X117821430Y-81782260D02*
X117735715Y-81825117D01*
X117735715Y-81825117D02*
X117564287Y-81825117D01*
X117564287Y-81825117D02*
X117478573Y-81782260D01*
X117478573Y-81782260D02*
X117392858Y-81696545D01*
X117392858Y-81696545D02*
X117350001Y-81525117D01*
X117350001Y-81525117D02*
X117350001Y-81225117D01*
X117350001Y-81225117D02*
X117392858Y-81053688D01*
X117392858Y-81053688D02*
X117478573Y-80967974D01*
X117478573Y-80967974D02*
X117564287Y-80925117D01*
X118335715Y-80925117D02*
X118335715Y-81653688D01*
X118335715Y-81653688D02*
X118378572Y-81739402D01*
X118378572Y-81739402D02*
X118421430Y-81782260D01*
X118421430Y-81782260D02*
X118507144Y-81825117D01*
X118507144Y-81825117D02*
X118678572Y-81825117D01*
X118678572Y-81825117D02*
X118764287Y-81782260D01*
X118764287Y-81782260D02*
X118807144Y-81739402D01*
X118807144Y-81739402D02*
X118850001Y-81653688D01*
X118850001Y-81653688D02*
X118850001Y-80925117D01*
X119150001Y-80925117D02*
X119664287Y-80925117D01*
X119407144Y-81825117D02*
X119407144Y-80925117D01*
X119921429Y-81010831D02*
X119964286Y-80967974D01*
X119964286Y-80967974D02*
X120050001Y-80925117D01*
X120050001Y-80925117D02*
X120264286Y-80925117D01*
X120264286Y-80925117D02*
X120350001Y-80967974D01*
X120350001Y-80967974D02*
X120392858Y-81010831D01*
X120392858Y-81010831D02*
X120435715Y-81096545D01*
X120435715Y-81096545D02*
X120435715Y-81182260D01*
X120435715Y-81182260D02*
X120392858Y-81310831D01*
X120392858Y-81310831D02*
X119878572Y-81825117D01*
X119878572Y-81825117D02*
X120435715Y-81825117D01*
X121678572Y-80925117D02*
X121850000Y-80925117D01*
X121850000Y-80925117D02*
X121935715Y-80967974D01*
X121935715Y-80967974D02*
X122021429Y-81053688D01*
X122021429Y-81053688D02*
X122064286Y-81225117D01*
X122064286Y-81225117D02*
X122064286Y-81525117D01*
X122064286Y-81525117D02*
X122021429Y-81696545D01*
X122021429Y-81696545D02*
X121935715Y-81782260D01*
X121935715Y-81782260D02*
X121850000Y-81825117D01*
X121850000Y-81825117D02*
X121678572Y-81825117D01*
X121678572Y-81825117D02*
X121592858Y-81782260D01*
X121592858Y-81782260D02*
X121507143Y-81696545D01*
X121507143Y-81696545D02*
X121464286Y-81525117D01*
X121464286Y-81525117D02*
X121464286Y-81225117D01*
X121464286Y-81225117D02*
X121507143Y-81053688D01*
X121507143Y-81053688D02*
X121592858Y-80967974D01*
X121592858Y-80967974D02*
X121678572Y-80925117D01*
X122450000Y-80925117D02*
X122450000Y-81653688D01*
X122450000Y-81653688D02*
X122492857Y-81739402D01*
X122492857Y-81739402D02*
X122535715Y-81782260D01*
X122535715Y-81782260D02*
X122621429Y-81825117D01*
X122621429Y-81825117D02*
X122792857Y-81825117D01*
X122792857Y-81825117D02*
X122878572Y-81782260D01*
X122878572Y-81782260D02*
X122921429Y-81739402D01*
X122921429Y-81739402D02*
X122964286Y-81653688D01*
X122964286Y-81653688D02*
X122964286Y-80925117D01*
X123264286Y-80925117D02*
X123778572Y-80925117D01*
X123521429Y-81825117D02*
X123521429Y-80925117D01*
X124550000Y-81825117D02*
X124035714Y-81825117D01*
X124292857Y-81825117D02*
X124292857Y-80925117D01*
X124292857Y-80925117D02*
X124207143Y-81053688D01*
X124207143Y-81053688D02*
X124121428Y-81139402D01*
X124121428Y-81139402D02*
X124035714Y-81182260D01*
X126178571Y-80925117D02*
X126478571Y-81825117D01*
X126478571Y-81825117D02*
X126778571Y-80925117D01*
X127078571Y-81825117D02*
X127078571Y-80925117D01*
X127078571Y-80925117D02*
X127378571Y-81567974D01*
X127378571Y-81567974D02*
X127678571Y-80925117D01*
X127678571Y-80925117D02*
X127678571Y-81825117D01*
X129264285Y-80967974D02*
X129178571Y-80925117D01*
X129178571Y-80925117D02*
X129049999Y-80925117D01*
X129049999Y-80925117D02*
X128921428Y-80967974D01*
X128921428Y-80967974D02*
X128835713Y-81053688D01*
X128835713Y-81053688D02*
X128792856Y-81139402D01*
X128792856Y-81139402D02*
X128749999Y-81310831D01*
X128749999Y-81310831D02*
X128749999Y-81439402D01*
X128749999Y-81439402D02*
X128792856Y-81610831D01*
X128792856Y-81610831D02*
X128835713Y-81696545D01*
X128835713Y-81696545D02*
X128921428Y-81782260D01*
X128921428Y-81782260D02*
X129049999Y-81825117D01*
X129049999Y-81825117D02*
X129135713Y-81825117D01*
X129135713Y-81825117D02*
X129264285Y-81782260D01*
X129264285Y-81782260D02*
X129307142Y-81739402D01*
X129307142Y-81739402D02*
X129307142Y-81439402D01*
X129307142Y-81439402D02*
X129135713Y-81439402D01*
X129692856Y-81825117D02*
X129692856Y-80925117D01*
X129692856Y-80925117D02*
X130207142Y-81825117D01*
X130207142Y-81825117D02*
X130207142Y-80925117D01*
X130635713Y-81825117D02*
X130635713Y-80925117D01*
X130635713Y-80925117D02*
X130849999Y-80925117D01*
X130849999Y-80925117D02*
X130978570Y-80967974D01*
X130978570Y-80967974D02*
X131064285Y-81053688D01*
X131064285Y-81053688D02*
X131107142Y-81139402D01*
X131107142Y-81139402D02*
X131149999Y-81310831D01*
X131149999Y-81310831D02*
X131149999Y-81439402D01*
X131149999Y-81439402D02*
X131107142Y-81610831D01*
X131107142Y-81610831D02*
X131064285Y-81696545D01*
X131064285Y-81696545D02*
X130978570Y-81782260D01*
X130978570Y-81782260D02*
X130849999Y-81825117D01*
X130849999Y-81825117D02*
X130635713Y-81825117D01*
X119407144Y-93567974D02*
X119321430Y-93525117D01*
X119321430Y-93525117D02*
X119192858Y-93525117D01*
X119192858Y-93525117D02*
X119064287Y-93567974D01*
X119064287Y-93567974D02*
X118978572Y-93653688D01*
X118978572Y-93653688D02*
X118935715Y-93739402D01*
X118935715Y-93739402D02*
X118892858Y-93910831D01*
X118892858Y-93910831D02*
X118892858Y-94039402D01*
X118892858Y-94039402D02*
X118935715Y-94210831D01*
X118935715Y-94210831D02*
X118978572Y-94296545D01*
X118978572Y-94296545D02*
X119064287Y-94382260D01*
X119064287Y-94382260D02*
X119192858Y-94425117D01*
X119192858Y-94425117D02*
X119278572Y-94425117D01*
X119278572Y-94425117D02*
X119407144Y-94382260D01*
X119407144Y-94382260D02*
X119450001Y-94339402D01*
X119450001Y-94339402D02*
X119450001Y-94039402D01*
X119450001Y-94039402D02*
X119278572Y-94039402D01*
X119835715Y-94425117D02*
X119835715Y-93525117D01*
X119835715Y-93525117D02*
X120350001Y-94425117D01*
X120350001Y-94425117D02*
X120350001Y-93525117D01*
X120778572Y-94425117D02*
X120778572Y-93525117D01*
X120778572Y-93525117D02*
X120992858Y-93525117D01*
X120992858Y-93525117D02*
X121121429Y-93567974D01*
X121121429Y-93567974D02*
X121207144Y-93653688D01*
X121207144Y-93653688D02*
X121250001Y-93739402D01*
X121250001Y-93739402D02*
X121292858Y-93910831D01*
X121292858Y-93910831D02*
X121292858Y-94039402D01*
X121292858Y-94039402D02*
X121250001Y-94210831D01*
X121250001Y-94210831D02*
X121207144Y-94296545D01*
X121207144Y-94296545D02*
X121121429Y-94382260D01*
X121121429Y-94382260D02*
X120992858Y-94425117D01*
X120992858Y-94425117D02*
X120778572Y-94425117D01*
X122235715Y-93525117D02*
X122535715Y-94425117D01*
X122535715Y-94425117D02*
X122835715Y-93525117D01*
X123135715Y-94425117D02*
X123135715Y-93525117D01*
X123135715Y-93525117D02*
X123435715Y-94167974D01*
X123435715Y-94167974D02*
X123735715Y-93525117D01*
X123735715Y-93525117D02*
X123735715Y-94425117D01*
X124850000Y-94425117D02*
X124850000Y-93525117D01*
X125278571Y-94425117D02*
X125278571Y-93525117D01*
X125278571Y-93525117D02*
X125792857Y-94425117D01*
X125792857Y-94425117D02*
X125792857Y-93525117D01*
X126692857Y-94425117D02*
X126178571Y-94425117D01*
X126435714Y-94425117D02*
X126435714Y-93525117D01*
X126435714Y-93525117D02*
X126350000Y-93653688D01*
X126350000Y-93653688D02*
X126264285Y-93739402D01*
X126264285Y-93739402D02*
X126178571Y-93782260D01*
X127764285Y-94425117D02*
X127764285Y-93525117D01*
X128192856Y-94425117D02*
X128192856Y-93525117D01*
X128192856Y-93525117D02*
X128707142Y-94425117D01*
X128707142Y-94425117D02*
X128707142Y-93525117D01*
X129092856Y-93610831D02*
X129135713Y-93567974D01*
X129135713Y-93567974D02*
X129221428Y-93525117D01*
X129221428Y-93525117D02*
X129435713Y-93525117D01*
X129435713Y-93525117D02*
X129521428Y-93567974D01*
X129521428Y-93567974D02*
X129564285Y-93610831D01*
X129564285Y-93610831D02*
X129607142Y-93696545D01*
X129607142Y-93696545D02*
X129607142Y-93782260D01*
X129607142Y-93782260D02*
X129564285Y-93910831D01*
X129564285Y-93910831D02*
X129049999Y-94425117D01*
X129049999Y-94425117D02*
X129607142Y-94425117D01*
D10*
X66166666Y-127004819D02*
X66166666Y-127719104D01*
X66166666Y-127719104D02*
X66119047Y-127861961D01*
X66119047Y-127861961D02*
X66023809Y-127957200D01*
X66023809Y-127957200D02*
X65880952Y-128004819D01*
X65880952Y-128004819D02*
X65785714Y-128004819D01*
X66690476Y-128004819D02*
X66880952Y-128004819D01*
X66880952Y-128004819D02*
X66976190Y-127957200D01*
X66976190Y-127957200D02*
X67023809Y-127909580D01*
X67023809Y-127909580D02*
X67119047Y-127766723D01*
X67119047Y-127766723D02*
X67166666Y-127576247D01*
X67166666Y-127576247D02*
X67166666Y-127195295D01*
X67166666Y-127195295D02*
X67119047Y-127100057D01*
X67119047Y-127100057D02*
X67071428Y-127052438D01*
X67071428Y-127052438D02*
X66976190Y-127004819D01*
X66976190Y-127004819D02*
X66785714Y-127004819D01*
X66785714Y-127004819D02*
X66690476Y-127052438D01*
X66690476Y-127052438D02*
X66642857Y-127100057D01*
X66642857Y-127100057D02*
X66595238Y-127195295D01*
X66595238Y-127195295D02*
X66595238Y-127433390D01*
X66595238Y-127433390D02*
X66642857Y-127528628D01*
X66642857Y-127528628D02*
X66690476Y-127576247D01*
X66690476Y-127576247D02*
X66785714Y-127623866D01*
X66785714Y-127623866D02*
X66976190Y-127623866D01*
X66976190Y-127623866D02*
X67071428Y-127576247D01*
X67071428Y-127576247D02*
X67119047Y-127528628D01*
X67119047Y-127528628D02*
X67166666Y-127433390D01*
X98638095Y-127154819D02*
X98638095Y-126154819D01*
X98638095Y-126631009D02*
X99209523Y-126631009D01*
X99209523Y-127154819D02*
X99209523Y-126154819D01*
X100209523Y-127154819D02*
X99638095Y-127154819D01*
X99923809Y-127154819D02*
X99923809Y-126154819D01*
X99923809Y-126154819D02*
X99828571Y-126297676D01*
X99828571Y-126297676D02*
X99733333Y-126392914D01*
X99733333Y-126392914D02*
X99638095Y-126440533D01*
X217561009Y-120333333D02*
X217561009Y-120666666D01*
X218084819Y-120666666D02*
X217084819Y-120666666D01*
X217084819Y-120666666D02*
X217084819Y-120190476D01*
X218084819Y-119285714D02*
X218084819Y-119857142D01*
X218084819Y-119571428D02*
X217084819Y-119571428D01*
X217084819Y-119571428D02*
X217227676Y-119666666D01*
X217227676Y-119666666D02*
X217322914Y-119761904D01*
X217322914Y-119761904D02*
X217370533Y-119857142D01*
X227736831Y-102804819D02*
X227736831Y-101804819D01*
X227736831Y-102281009D02*
X228308259Y-102281009D01*
X228308259Y-102804819D02*
X228308259Y-101804819D01*
X229213021Y-102138152D02*
X229213021Y-102804819D01*
X228974926Y-101757200D02*
X228736831Y-102471485D01*
X228736831Y-102471485D02*
X229355878Y-102471485D01*
X80333333Y-129309580D02*
X80285714Y-129357200D01*
X80285714Y-129357200D02*
X80142857Y-129404819D01*
X80142857Y-129404819D02*
X80047619Y-129404819D01*
X80047619Y-129404819D02*
X79904762Y-129357200D01*
X79904762Y-129357200D02*
X79809524Y-129261961D01*
X79809524Y-129261961D02*
X79761905Y-129166723D01*
X79761905Y-129166723D02*
X79714286Y-128976247D01*
X79714286Y-128976247D02*
X79714286Y-128833390D01*
X79714286Y-128833390D02*
X79761905Y-128642914D01*
X79761905Y-128642914D02*
X79809524Y-128547676D01*
X79809524Y-128547676D02*
X79904762Y-128452438D01*
X79904762Y-128452438D02*
X80047619Y-128404819D01*
X80047619Y-128404819D02*
X80142857Y-128404819D01*
X80142857Y-128404819D02*
X80285714Y-128452438D01*
X80285714Y-128452438D02*
X80333333Y-128500057D01*
X80714286Y-128500057D02*
X80761905Y-128452438D01*
X80761905Y-128452438D02*
X80857143Y-128404819D01*
X80857143Y-128404819D02*
X81095238Y-128404819D01*
X81095238Y-128404819D02*
X81190476Y-128452438D01*
X81190476Y-128452438D02*
X81238095Y-128500057D01*
X81238095Y-128500057D02*
X81285714Y-128595295D01*
X81285714Y-128595295D02*
X81285714Y-128690533D01*
X81285714Y-128690533D02*
X81238095Y-128833390D01*
X81238095Y-128833390D02*
X80666667Y-129404819D01*
X80666667Y-129404819D02*
X81285714Y-129404819D01*
X197236831Y-110304819D02*
X197236831Y-109304819D01*
X197236831Y-109781009D02*
X197808259Y-109781009D01*
X197808259Y-110304819D02*
X197808259Y-109304819D01*
X198236831Y-109400057D02*
X198284450Y-109352438D01*
X198284450Y-109352438D02*
X198379688Y-109304819D01*
X198379688Y-109304819D02*
X198617783Y-109304819D01*
X198617783Y-109304819D02*
X198713021Y-109352438D01*
X198713021Y-109352438D02*
X198760640Y-109400057D01*
X198760640Y-109400057D02*
X198808259Y-109495295D01*
X198808259Y-109495295D02*
X198808259Y-109590533D01*
X198808259Y-109590533D02*
X198760640Y-109733390D01*
X198760640Y-109733390D02*
X198189212Y-110304819D01*
X198189212Y-110304819D02*
X198808259Y-110304819D01*
X211834573Y-105109580D02*
X211786954Y-105157200D01*
X211786954Y-105157200D02*
X211644097Y-105204819D01*
X211644097Y-105204819D02*
X211548859Y-105204819D01*
X211548859Y-105204819D02*
X211406002Y-105157200D01*
X211406002Y-105157200D02*
X211310764Y-105061961D01*
X211310764Y-105061961D02*
X211263145Y-104966723D01*
X211263145Y-104966723D02*
X211215526Y-104776247D01*
X211215526Y-104776247D02*
X211215526Y-104633390D01*
X211215526Y-104633390D02*
X211263145Y-104442914D01*
X211263145Y-104442914D02*
X211310764Y-104347676D01*
X211310764Y-104347676D02*
X211406002Y-104252438D01*
X211406002Y-104252438D02*
X211548859Y-104204819D01*
X211548859Y-104204819D02*
X211644097Y-104204819D01*
X211644097Y-104204819D02*
X211786954Y-104252438D01*
X211786954Y-104252438D02*
X211834573Y-104300057D01*
X212786954Y-105204819D02*
X212215526Y-105204819D01*
X212501240Y-105204819D02*
X212501240Y-104204819D01*
X212501240Y-104204819D02*
X212406002Y-104347676D01*
X212406002Y-104347676D02*
X212310764Y-104442914D01*
X212310764Y-104442914D02*
X212215526Y-104490533D01*
X84236831Y-84304819D02*
X84236831Y-83304819D01*
X84236831Y-83781009D02*
X84808259Y-83781009D01*
X84808259Y-84304819D02*
X84808259Y-83304819D01*
X85760640Y-83304819D02*
X85284450Y-83304819D01*
X85284450Y-83304819D02*
X85236831Y-83781009D01*
X85236831Y-83781009D02*
X85284450Y-83733390D01*
X85284450Y-83733390D02*
X85379688Y-83685771D01*
X85379688Y-83685771D02*
X85617783Y-83685771D01*
X85617783Y-83685771D02*
X85713021Y-83733390D01*
X85713021Y-83733390D02*
X85760640Y-83781009D01*
X85760640Y-83781009D02*
X85808259Y-83876247D01*
X85808259Y-83876247D02*
X85808259Y-84114342D01*
X85808259Y-84114342D02*
X85760640Y-84209580D01*
X85760640Y-84209580D02*
X85713021Y-84257200D01*
X85713021Y-84257200D02*
X85617783Y-84304819D01*
X85617783Y-84304819D02*
X85379688Y-84304819D01*
X85379688Y-84304819D02*
X85284450Y-84257200D01*
X85284450Y-84257200D02*
X85236831Y-84209580D01*
X210854819Y-90833333D02*
X211569104Y-90833333D01*
X211569104Y-90833333D02*
X211711961Y-90880952D01*
X211711961Y-90880952D02*
X211807200Y-90976190D01*
X211807200Y-90976190D02*
X211854819Y-91119047D01*
X211854819Y-91119047D02*
X211854819Y-91214285D01*
X211188152Y-89928571D02*
X211854819Y-89928571D01*
X210807200Y-90166666D02*
X211521485Y-90404761D01*
X211521485Y-90404761D02*
X211521485Y-89785714D01*
X157936831Y-65304819D02*
X157936831Y-64304819D01*
X157936831Y-64781009D02*
X158508259Y-64781009D01*
X158508259Y-65304819D02*
X158508259Y-64304819D01*
X158889212Y-64304819D02*
X159508259Y-64304819D01*
X159508259Y-64304819D02*
X159174926Y-64685771D01*
X159174926Y-64685771D02*
X159317783Y-64685771D01*
X159317783Y-64685771D02*
X159413021Y-64733390D01*
X159413021Y-64733390D02*
X159460640Y-64781009D01*
X159460640Y-64781009D02*
X159508259Y-64876247D01*
X159508259Y-64876247D02*
X159508259Y-65114342D01*
X159508259Y-65114342D02*
X159460640Y-65209580D01*
X159460640Y-65209580D02*
X159413021Y-65257200D01*
X159413021Y-65257200D02*
X159317783Y-65304819D01*
X159317783Y-65304819D02*
X159032069Y-65304819D01*
X159032069Y-65304819D02*
X158936831Y-65257200D01*
X158936831Y-65257200D02*
X158889212Y-65209580D01*
X63504819Y-140756904D02*
X64314342Y-140756904D01*
X64314342Y-140756904D02*
X64409580Y-140709285D01*
X64409580Y-140709285D02*
X64457200Y-140661666D01*
X64457200Y-140661666D02*
X64504819Y-140566428D01*
X64504819Y-140566428D02*
X64504819Y-140375952D01*
X64504819Y-140375952D02*
X64457200Y-140280714D01*
X64457200Y-140280714D02*
X64409580Y-140233095D01*
X64409580Y-140233095D02*
X64314342Y-140185476D01*
X64314342Y-140185476D02*
X63504819Y-140185476D01*
X63504819Y-139233095D02*
X63504819Y-139709285D01*
X63504819Y-139709285D02*
X63981009Y-139756904D01*
X63981009Y-139756904D02*
X63933390Y-139709285D01*
X63933390Y-139709285D02*
X63885771Y-139614047D01*
X63885771Y-139614047D02*
X63885771Y-139375952D01*
X63885771Y-139375952D02*
X63933390Y-139280714D01*
X63933390Y-139280714D02*
X63981009Y-139233095D01*
X63981009Y-139233095D02*
X64076247Y-139185476D01*
X64076247Y-139185476D02*
X64314342Y-139185476D01*
X64314342Y-139185476D02*
X64409580Y-139233095D01*
X64409580Y-139233095D02*
X64457200Y-139280714D01*
X64457200Y-139280714D02*
X64504819Y-139375952D01*
X64504819Y-139375952D02*
X64504819Y-139614047D01*
X64504819Y-139614047D02*
X64457200Y-139709285D01*
X64457200Y-139709285D02*
X64409580Y-139756904D01*
X169232380Y-86894726D02*
X169232380Y-87922821D01*
X169232380Y-87922821D02*
X169292857Y-88043773D01*
X169292857Y-88043773D02*
X169353333Y-88104250D01*
X169353333Y-88104250D02*
X169474285Y-88164726D01*
X169474285Y-88164726D02*
X169716190Y-88164726D01*
X169716190Y-88164726D02*
X169837142Y-88104250D01*
X169837142Y-88104250D02*
X169897619Y-88043773D01*
X169897619Y-88043773D02*
X169958095Y-87922821D01*
X169958095Y-87922821D02*
X169958095Y-86894726D01*
X170441904Y-86894726D02*
X171228095Y-86894726D01*
X171228095Y-86894726D02*
X170804761Y-87378535D01*
X170804761Y-87378535D02*
X170986190Y-87378535D01*
X170986190Y-87378535D02*
X171107142Y-87439011D01*
X171107142Y-87439011D02*
X171167618Y-87499488D01*
X171167618Y-87499488D02*
X171228095Y-87620440D01*
X171228095Y-87620440D02*
X171228095Y-87922821D01*
X171228095Y-87922821D02*
X171167618Y-88043773D01*
X171167618Y-88043773D02*
X171107142Y-88104250D01*
X171107142Y-88104250D02*
X170986190Y-88164726D01*
X170986190Y-88164726D02*
X170623333Y-88164726D01*
X170623333Y-88164726D02*
X170502380Y-88104250D01*
X170502380Y-88104250D02*
X170441904Y-88043773D01*
D11*
X163564287Y-80925117D02*
X163735715Y-80925117D01*
X163735715Y-80925117D02*
X163821430Y-80967974D01*
X163821430Y-80967974D02*
X163907144Y-81053688D01*
X163907144Y-81053688D02*
X163950001Y-81225117D01*
X163950001Y-81225117D02*
X163950001Y-81525117D01*
X163950001Y-81525117D02*
X163907144Y-81696545D01*
X163907144Y-81696545D02*
X163821430Y-81782260D01*
X163821430Y-81782260D02*
X163735715Y-81825117D01*
X163735715Y-81825117D02*
X163564287Y-81825117D01*
X163564287Y-81825117D02*
X163478573Y-81782260D01*
X163478573Y-81782260D02*
X163392858Y-81696545D01*
X163392858Y-81696545D02*
X163350001Y-81525117D01*
X163350001Y-81525117D02*
X163350001Y-81225117D01*
X163350001Y-81225117D02*
X163392858Y-81053688D01*
X163392858Y-81053688D02*
X163478573Y-80967974D01*
X163478573Y-80967974D02*
X163564287Y-80925117D01*
X164335715Y-80925117D02*
X164335715Y-81653688D01*
X164335715Y-81653688D02*
X164378572Y-81739402D01*
X164378572Y-81739402D02*
X164421430Y-81782260D01*
X164421430Y-81782260D02*
X164507144Y-81825117D01*
X164507144Y-81825117D02*
X164678572Y-81825117D01*
X164678572Y-81825117D02*
X164764287Y-81782260D01*
X164764287Y-81782260D02*
X164807144Y-81739402D01*
X164807144Y-81739402D02*
X164850001Y-81653688D01*
X164850001Y-81653688D02*
X164850001Y-80925117D01*
X165150001Y-80925117D02*
X165664287Y-80925117D01*
X165407144Y-81825117D02*
X165407144Y-80925117D01*
X165921429Y-81010831D02*
X165964286Y-80967974D01*
X165964286Y-80967974D02*
X166050001Y-80925117D01*
X166050001Y-80925117D02*
X166264286Y-80925117D01*
X166264286Y-80925117D02*
X166350001Y-80967974D01*
X166350001Y-80967974D02*
X166392858Y-81010831D01*
X166392858Y-81010831D02*
X166435715Y-81096545D01*
X166435715Y-81096545D02*
X166435715Y-81182260D01*
X166435715Y-81182260D02*
X166392858Y-81310831D01*
X166392858Y-81310831D02*
X165878572Y-81825117D01*
X165878572Y-81825117D02*
X166435715Y-81825117D01*
X167678572Y-80925117D02*
X167850000Y-80925117D01*
X167850000Y-80925117D02*
X167935715Y-80967974D01*
X167935715Y-80967974D02*
X168021429Y-81053688D01*
X168021429Y-81053688D02*
X168064286Y-81225117D01*
X168064286Y-81225117D02*
X168064286Y-81525117D01*
X168064286Y-81525117D02*
X168021429Y-81696545D01*
X168021429Y-81696545D02*
X167935715Y-81782260D01*
X167935715Y-81782260D02*
X167850000Y-81825117D01*
X167850000Y-81825117D02*
X167678572Y-81825117D01*
X167678572Y-81825117D02*
X167592858Y-81782260D01*
X167592858Y-81782260D02*
X167507143Y-81696545D01*
X167507143Y-81696545D02*
X167464286Y-81525117D01*
X167464286Y-81525117D02*
X167464286Y-81225117D01*
X167464286Y-81225117D02*
X167507143Y-81053688D01*
X167507143Y-81053688D02*
X167592858Y-80967974D01*
X167592858Y-80967974D02*
X167678572Y-80925117D01*
X168450000Y-80925117D02*
X168450000Y-81653688D01*
X168450000Y-81653688D02*
X168492857Y-81739402D01*
X168492857Y-81739402D02*
X168535715Y-81782260D01*
X168535715Y-81782260D02*
X168621429Y-81825117D01*
X168621429Y-81825117D02*
X168792857Y-81825117D01*
X168792857Y-81825117D02*
X168878572Y-81782260D01*
X168878572Y-81782260D02*
X168921429Y-81739402D01*
X168921429Y-81739402D02*
X168964286Y-81653688D01*
X168964286Y-81653688D02*
X168964286Y-80925117D01*
X169264286Y-80925117D02*
X169778572Y-80925117D01*
X169521429Y-81825117D02*
X169521429Y-80925117D01*
X170550000Y-81825117D02*
X170035714Y-81825117D01*
X170292857Y-81825117D02*
X170292857Y-80925117D01*
X170292857Y-80925117D02*
X170207143Y-81053688D01*
X170207143Y-81053688D02*
X170121428Y-81139402D01*
X170121428Y-81139402D02*
X170035714Y-81182260D01*
X172178571Y-80925117D02*
X172478571Y-81825117D01*
X172478571Y-81825117D02*
X172778571Y-80925117D01*
X173078571Y-81825117D02*
X173078571Y-80925117D01*
X173078571Y-80925117D02*
X173378571Y-81567974D01*
X173378571Y-81567974D02*
X173678571Y-80925117D01*
X173678571Y-80925117D02*
X173678571Y-81825117D01*
X175264285Y-80967974D02*
X175178571Y-80925117D01*
X175178571Y-80925117D02*
X175049999Y-80925117D01*
X175049999Y-80925117D02*
X174921428Y-80967974D01*
X174921428Y-80967974D02*
X174835713Y-81053688D01*
X174835713Y-81053688D02*
X174792856Y-81139402D01*
X174792856Y-81139402D02*
X174749999Y-81310831D01*
X174749999Y-81310831D02*
X174749999Y-81439402D01*
X174749999Y-81439402D02*
X174792856Y-81610831D01*
X174792856Y-81610831D02*
X174835713Y-81696545D01*
X174835713Y-81696545D02*
X174921428Y-81782260D01*
X174921428Y-81782260D02*
X175049999Y-81825117D01*
X175049999Y-81825117D02*
X175135713Y-81825117D01*
X175135713Y-81825117D02*
X175264285Y-81782260D01*
X175264285Y-81782260D02*
X175307142Y-81739402D01*
X175307142Y-81739402D02*
X175307142Y-81439402D01*
X175307142Y-81439402D02*
X175135713Y-81439402D01*
X175692856Y-81825117D02*
X175692856Y-80925117D01*
X175692856Y-80925117D02*
X176207142Y-81825117D01*
X176207142Y-81825117D02*
X176207142Y-80925117D01*
X176635713Y-81825117D02*
X176635713Y-80925117D01*
X176635713Y-80925117D02*
X176849999Y-80925117D01*
X176849999Y-80925117D02*
X176978570Y-80967974D01*
X176978570Y-80967974D02*
X177064285Y-81053688D01*
X177064285Y-81053688D02*
X177107142Y-81139402D01*
X177107142Y-81139402D02*
X177149999Y-81310831D01*
X177149999Y-81310831D02*
X177149999Y-81439402D01*
X177149999Y-81439402D02*
X177107142Y-81610831D01*
X177107142Y-81610831D02*
X177064285Y-81696545D01*
X177064285Y-81696545D02*
X176978570Y-81782260D01*
X176978570Y-81782260D02*
X176849999Y-81825117D01*
X176849999Y-81825117D02*
X176635713Y-81825117D01*
X165407144Y-93567974D02*
X165321430Y-93525117D01*
X165321430Y-93525117D02*
X165192858Y-93525117D01*
X165192858Y-93525117D02*
X165064287Y-93567974D01*
X165064287Y-93567974D02*
X164978572Y-93653688D01*
X164978572Y-93653688D02*
X164935715Y-93739402D01*
X164935715Y-93739402D02*
X164892858Y-93910831D01*
X164892858Y-93910831D02*
X164892858Y-94039402D01*
X164892858Y-94039402D02*
X164935715Y-94210831D01*
X164935715Y-94210831D02*
X164978572Y-94296545D01*
X164978572Y-94296545D02*
X165064287Y-94382260D01*
X165064287Y-94382260D02*
X165192858Y-94425117D01*
X165192858Y-94425117D02*
X165278572Y-94425117D01*
X165278572Y-94425117D02*
X165407144Y-94382260D01*
X165407144Y-94382260D02*
X165450001Y-94339402D01*
X165450001Y-94339402D02*
X165450001Y-94039402D01*
X165450001Y-94039402D02*
X165278572Y-94039402D01*
X165835715Y-94425117D02*
X165835715Y-93525117D01*
X165835715Y-93525117D02*
X166350001Y-94425117D01*
X166350001Y-94425117D02*
X166350001Y-93525117D01*
X166778572Y-94425117D02*
X166778572Y-93525117D01*
X166778572Y-93525117D02*
X166992858Y-93525117D01*
X166992858Y-93525117D02*
X167121429Y-93567974D01*
X167121429Y-93567974D02*
X167207144Y-93653688D01*
X167207144Y-93653688D02*
X167250001Y-93739402D01*
X167250001Y-93739402D02*
X167292858Y-93910831D01*
X167292858Y-93910831D02*
X167292858Y-94039402D01*
X167292858Y-94039402D02*
X167250001Y-94210831D01*
X167250001Y-94210831D02*
X167207144Y-94296545D01*
X167207144Y-94296545D02*
X167121429Y-94382260D01*
X167121429Y-94382260D02*
X166992858Y-94425117D01*
X166992858Y-94425117D02*
X166778572Y-94425117D01*
X168235715Y-93525117D02*
X168535715Y-94425117D01*
X168535715Y-94425117D02*
X168835715Y-93525117D01*
X169135715Y-94425117D02*
X169135715Y-93525117D01*
X169135715Y-93525117D02*
X169435715Y-94167974D01*
X169435715Y-94167974D02*
X169735715Y-93525117D01*
X169735715Y-93525117D02*
X169735715Y-94425117D01*
X170850000Y-94425117D02*
X170850000Y-93525117D01*
X171278571Y-94425117D02*
X171278571Y-93525117D01*
X171278571Y-93525117D02*
X171792857Y-94425117D01*
X171792857Y-94425117D02*
X171792857Y-93525117D01*
X172692857Y-94425117D02*
X172178571Y-94425117D01*
X172435714Y-94425117D02*
X172435714Y-93525117D01*
X172435714Y-93525117D02*
X172350000Y-93653688D01*
X172350000Y-93653688D02*
X172264285Y-93739402D01*
X172264285Y-93739402D02*
X172178571Y-93782260D01*
X173764285Y-94425117D02*
X173764285Y-93525117D01*
X174192856Y-94425117D02*
X174192856Y-93525117D01*
X174192856Y-93525117D02*
X174707142Y-94425117D01*
X174707142Y-94425117D02*
X174707142Y-93525117D01*
X175092856Y-93610831D02*
X175135713Y-93567974D01*
X175135713Y-93567974D02*
X175221428Y-93525117D01*
X175221428Y-93525117D02*
X175435713Y-93525117D01*
X175435713Y-93525117D02*
X175521428Y-93567974D01*
X175521428Y-93567974D02*
X175564285Y-93610831D01*
X175564285Y-93610831D02*
X175607142Y-93696545D01*
X175607142Y-93696545D02*
X175607142Y-93782260D01*
X175607142Y-93782260D02*
X175564285Y-93910831D01*
X175564285Y-93910831D02*
X175049999Y-94425117D01*
X175049999Y-94425117D02*
X175607142Y-94425117D01*
D10*
X110666666Y-125034819D02*
X110666666Y-125749104D01*
X110666666Y-125749104D02*
X110619047Y-125891961D01*
X110619047Y-125891961D02*
X110523809Y-125987200D01*
X110523809Y-125987200D02*
X110380952Y-126034819D01*
X110380952Y-126034819D02*
X110285714Y-126034819D01*
X111285714Y-125463390D02*
X111190476Y-125415771D01*
X111190476Y-125415771D02*
X111142857Y-125368152D01*
X111142857Y-125368152D02*
X111095238Y-125272914D01*
X111095238Y-125272914D02*
X111095238Y-125225295D01*
X111095238Y-125225295D02*
X111142857Y-125130057D01*
X111142857Y-125130057D02*
X111190476Y-125082438D01*
X111190476Y-125082438D02*
X111285714Y-125034819D01*
X111285714Y-125034819D02*
X111476190Y-125034819D01*
X111476190Y-125034819D02*
X111571428Y-125082438D01*
X111571428Y-125082438D02*
X111619047Y-125130057D01*
X111619047Y-125130057D02*
X111666666Y-125225295D01*
X111666666Y-125225295D02*
X111666666Y-125272914D01*
X111666666Y-125272914D02*
X111619047Y-125368152D01*
X111619047Y-125368152D02*
X111571428Y-125415771D01*
X111571428Y-125415771D02*
X111476190Y-125463390D01*
X111476190Y-125463390D02*
X111285714Y-125463390D01*
X111285714Y-125463390D02*
X111190476Y-125511009D01*
X111190476Y-125511009D02*
X111142857Y-125558628D01*
X111142857Y-125558628D02*
X111095238Y-125653866D01*
X111095238Y-125653866D02*
X111095238Y-125844342D01*
X111095238Y-125844342D02*
X111142857Y-125939580D01*
X111142857Y-125939580D02*
X111190476Y-125987200D01*
X111190476Y-125987200D02*
X111285714Y-126034819D01*
X111285714Y-126034819D02*
X111476190Y-126034819D01*
X111476190Y-126034819D02*
X111571428Y-125987200D01*
X111571428Y-125987200D02*
X111619047Y-125939580D01*
X111619047Y-125939580D02*
X111666666Y-125844342D01*
X111666666Y-125844342D02*
X111666666Y-125653866D01*
X111666666Y-125653866D02*
X111619047Y-125558628D01*
X111619047Y-125558628D02*
X111571428Y-125511009D01*
X111571428Y-125511009D02*
X111476190Y-125463390D01*
X146866666Y-65554819D02*
X146866666Y-66269104D01*
X146866666Y-66269104D02*
X146819047Y-66411961D01*
X146819047Y-66411961D02*
X146723809Y-66507200D01*
X146723809Y-66507200D02*
X146580952Y-66554819D01*
X146580952Y-66554819D02*
X146485714Y-66554819D01*
X147295238Y-65650057D02*
X147342857Y-65602438D01*
X147342857Y-65602438D02*
X147438095Y-65554819D01*
X147438095Y-65554819D02*
X147676190Y-65554819D01*
X147676190Y-65554819D02*
X147771428Y-65602438D01*
X147771428Y-65602438D02*
X147819047Y-65650057D01*
X147819047Y-65650057D02*
X147866666Y-65745295D01*
X147866666Y-65745295D02*
X147866666Y-65840533D01*
X147866666Y-65840533D02*
X147819047Y-65983390D01*
X147819047Y-65983390D02*
X147247619Y-66554819D01*
X147247619Y-66554819D02*
X147866666Y-66554819D01*
X192232380Y-86894726D02*
X192232380Y-87922821D01*
X192232380Y-87922821D02*
X192292857Y-88043773D01*
X192292857Y-88043773D02*
X192353333Y-88104250D01*
X192353333Y-88104250D02*
X192474285Y-88164726D01*
X192474285Y-88164726D02*
X192716190Y-88164726D01*
X192716190Y-88164726D02*
X192837142Y-88104250D01*
X192837142Y-88104250D02*
X192897619Y-88043773D01*
X192897619Y-88043773D02*
X192958095Y-87922821D01*
X192958095Y-87922821D02*
X192958095Y-86894726D01*
X194107142Y-87318059D02*
X194107142Y-88164726D01*
X193804761Y-86834250D02*
X193502380Y-87741392D01*
X193502380Y-87741392D02*
X194288571Y-87741392D01*
D11*
X188407144Y-93567974D02*
X188321430Y-93525117D01*
X188321430Y-93525117D02*
X188192858Y-93525117D01*
X188192858Y-93525117D02*
X188064287Y-93567974D01*
X188064287Y-93567974D02*
X187978572Y-93653688D01*
X187978572Y-93653688D02*
X187935715Y-93739402D01*
X187935715Y-93739402D02*
X187892858Y-93910831D01*
X187892858Y-93910831D02*
X187892858Y-94039402D01*
X187892858Y-94039402D02*
X187935715Y-94210831D01*
X187935715Y-94210831D02*
X187978572Y-94296545D01*
X187978572Y-94296545D02*
X188064287Y-94382260D01*
X188064287Y-94382260D02*
X188192858Y-94425117D01*
X188192858Y-94425117D02*
X188278572Y-94425117D01*
X188278572Y-94425117D02*
X188407144Y-94382260D01*
X188407144Y-94382260D02*
X188450001Y-94339402D01*
X188450001Y-94339402D02*
X188450001Y-94039402D01*
X188450001Y-94039402D02*
X188278572Y-94039402D01*
X188835715Y-94425117D02*
X188835715Y-93525117D01*
X188835715Y-93525117D02*
X189350001Y-94425117D01*
X189350001Y-94425117D02*
X189350001Y-93525117D01*
X189778572Y-94425117D02*
X189778572Y-93525117D01*
X189778572Y-93525117D02*
X189992858Y-93525117D01*
X189992858Y-93525117D02*
X190121429Y-93567974D01*
X190121429Y-93567974D02*
X190207144Y-93653688D01*
X190207144Y-93653688D02*
X190250001Y-93739402D01*
X190250001Y-93739402D02*
X190292858Y-93910831D01*
X190292858Y-93910831D02*
X190292858Y-94039402D01*
X190292858Y-94039402D02*
X190250001Y-94210831D01*
X190250001Y-94210831D02*
X190207144Y-94296545D01*
X190207144Y-94296545D02*
X190121429Y-94382260D01*
X190121429Y-94382260D02*
X189992858Y-94425117D01*
X189992858Y-94425117D02*
X189778572Y-94425117D01*
X191235715Y-93525117D02*
X191535715Y-94425117D01*
X191535715Y-94425117D02*
X191835715Y-93525117D01*
X192135715Y-94425117D02*
X192135715Y-93525117D01*
X192135715Y-93525117D02*
X192435715Y-94167974D01*
X192435715Y-94167974D02*
X192735715Y-93525117D01*
X192735715Y-93525117D02*
X192735715Y-94425117D01*
X193850000Y-94425117D02*
X193850000Y-93525117D01*
X194278571Y-94425117D02*
X194278571Y-93525117D01*
X194278571Y-93525117D02*
X194792857Y-94425117D01*
X194792857Y-94425117D02*
X194792857Y-93525117D01*
X195692857Y-94425117D02*
X195178571Y-94425117D01*
X195435714Y-94425117D02*
X195435714Y-93525117D01*
X195435714Y-93525117D02*
X195350000Y-93653688D01*
X195350000Y-93653688D02*
X195264285Y-93739402D01*
X195264285Y-93739402D02*
X195178571Y-93782260D01*
X196764285Y-94425117D02*
X196764285Y-93525117D01*
X197192856Y-94425117D02*
X197192856Y-93525117D01*
X197192856Y-93525117D02*
X197707142Y-94425117D01*
X197707142Y-94425117D02*
X197707142Y-93525117D01*
X198092856Y-93610831D02*
X198135713Y-93567974D01*
X198135713Y-93567974D02*
X198221428Y-93525117D01*
X198221428Y-93525117D02*
X198435713Y-93525117D01*
X198435713Y-93525117D02*
X198521428Y-93567974D01*
X198521428Y-93567974D02*
X198564285Y-93610831D01*
X198564285Y-93610831D02*
X198607142Y-93696545D01*
X198607142Y-93696545D02*
X198607142Y-93782260D01*
X198607142Y-93782260D02*
X198564285Y-93910831D01*
X198564285Y-93910831D02*
X198049999Y-94425117D01*
X198049999Y-94425117D02*
X198607142Y-94425117D01*
X186564287Y-80925117D02*
X186735715Y-80925117D01*
X186735715Y-80925117D02*
X186821430Y-80967974D01*
X186821430Y-80967974D02*
X186907144Y-81053688D01*
X186907144Y-81053688D02*
X186950001Y-81225117D01*
X186950001Y-81225117D02*
X186950001Y-81525117D01*
X186950001Y-81525117D02*
X186907144Y-81696545D01*
X186907144Y-81696545D02*
X186821430Y-81782260D01*
X186821430Y-81782260D02*
X186735715Y-81825117D01*
X186735715Y-81825117D02*
X186564287Y-81825117D01*
X186564287Y-81825117D02*
X186478573Y-81782260D01*
X186478573Y-81782260D02*
X186392858Y-81696545D01*
X186392858Y-81696545D02*
X186350001Y-81525117D01*
X186350001Y-81525117D02*
X186350001Y-81225117D01*
X186350001Y-81225117D02*
X186392858Y-81053688D01*
X186392858Y-81053688D02*
X186478573Y-80967974D01*
X186478573Y-80967974D02*
X186564287Y-80925117D01*
X187335715Y-80925117D02*
X187335715Y-81653688D01*
X187335715Y-81653688D02*
X187378572Y-81739402D01*
X187378572Y-81739402D02*
X187421430Y-81782260D01*
X187421430Y-81782260D02*
X187507144Y-81825117D01*
X187507144Y-81825117D02*
X187678572Y-81825117D01*
X187678572Y-81825117D02*
X187764287Y-81782260D01*
X187764287Y-81782260D02*
X187807144Y-81739402D01*
X187807144Y-81739402D02*
X187850001Y-81653688D01*
X187850001Y-81653688D02*
X187850001Y-80925117D01*
X188150001Y-80925117D02*
X188664287Y-80925117D01*
X188407144Y-81825117D02*
X188407144Y-80925117D01*
X188921429Y-81010831D02*
X188964286Y-80967974D01*
X188964286Y-80967974D02*
X189050001Y-80925117D01*
X189050001Y-80925117D02*
X189264286Y-80925117D01*
X189264286Y-80925117D02*
X189350001Y-80967974D01*
X189350001Y-80967974D02*
X189392858Y-81010831D01*
X189392858Y-81010831D02*
X189435715Y-81096545D01*
X189435715Y-81096545D02*
X189435715Y-81182260D01*
X189435715Y-81182260D02*
X189392858Y-81310831D01*
X189392858Y-81310831D02*
X188878572Y-81825117D01*
X188878572Y-81825117D02*
X189435715Y-81825117D01*
X190678572Y-80925117D02*
X190850000Y-80925117D01*
X190850000Y-80925117D02*
X190935715Y-80967974D01*
X190935715Y-80967974D02*
X191021429Y-81053688D01*
X191021429Y-81053688D02*
X191064286Y-81225117D01*
X191064286Y-81225117D02*
X191064286Y-81525117D01*
X191064286Y-81525117D02*
X191021429Y-81696545D01*
X191021429Y-81696545D02*
X190935715Y-81782260D01*
X190935715Y-81782260D02*
X190850000Y-81825117D01*
X190850000Y-81825117D02*
X190678572Y-81825117D01*
X190678572Y-81825117D02*
X190592858Y-81782260D01*
X190592858Y-81782260D02*
X190507143Y-81696545D01*
X190507143Y-81696545D02*
X190464286Y-81525117D01*
X190464286Y-81525117D02*
X190464286Y-81225117D01*
X190464286Y-81225117D02*
X190507143Y-81053688D01*
X190507143Y-81053688D02*
X190592858Y-80967974D01*
X190592858Y-80967974D02*
X190678572Y-80925117D01*
X191450000Y-80925117D02*
X191450000Y-81653688D01*
X191450000Y-81653688D02*
X191492857Y-81739402D01*
X191492857Y-81739402D02*
X191535715Y-81782260D01*
X191535715Y-81782260D02*
X191621429Y-81825117D01*
X191621429Y-81825117D02*
X191792857Y-81825117D01*
X191792857Y-81825117D02*
X191878572Y-81782260D01*
X191878572Y-81782260D02*
X191921429Y-81739402D01*
X191921429Y-81739402D02*
X191964286Y-81653688D01*
X191964286Y-81653688D02*
X191964286Y-80925117D01*
X192264286Y-80925117D02*
X192778572Y-80925117D01*
X192521429Y-81825117D02*
X192521429Y-80925117D01*
X193550000Y-81825117D02*
X193035714Y-81825117D01*
X193292857Y-81825117D02*
X193292857Y-80925117D01*
X193292857Y-80925117D02*
X193207143Y-81053688D01*
X193207143Y-81053688D02*
X193121428Y-81139402D01*
X193121428Y-81139402D02*
X193035714Y-81182260D01*
X195178571Y-80925117D02*
X195478571Y-81825117D01*
X195478571Y-81825117D02*
X195778571Y-80925117D01*
X196078571Y-81825117D02*
X196078571Y-80925117D01*
X196078571Y-80925117D02*
X196378571Y-81567974D01*
X196378571Y-81567974D02*
X196678571Y-80925117D01*
X196678571Y-80925117D02*
X196678571Y-81825117D01*
X198264285Y-80967974D02*
X198178571Y-80925117D01*
X198178571Y-80925117D02*
X198049999Y-80925117D01*
X198049999Y-80925117D02*
X197921428Y-80967974D01*
X197921428Y-80967974D02*
X197835713Y-81053688D01*
X197835713Y-81053688D02*
X197792856Y-81139402D01*
X197792856Y-81139402D02*
X197749999Y-81310831D01*
X197749999Y-81310831D02*
X197749999Y-81439402D01*
X197749999Y-81439402D02*
X197792856Y-81610831D01*
X197792856Y-81610831D02*
X197835713Y-81696545D01*
X197835713Y-81696545D02*
X197921428Y-81782260D01*
X197921428Y-81782260D02*
X198049999Y-81825117D01*
X198049999Y-81825117D02*
X198135713Y-81825117D01*
X198135713Y-81825117D02*
X198264285Y-81782260D01*
X198264285Y-81782260D02*
X198307142Y-81739402D01*
X198307142Y-81739402D02*
X198307142Y-81439402D01*
X198307142Y-81439402D02*
X198135713Y-81439402D01*
X198692856Y-81825117D02*
X198692856Y-80925117D01*
X198692856Y-80925117D02*
X199207142Y-81825117D01*
X199207142Y-81825117D02*
X199207142Y-80925117D01*
X199635713Y-81825117D02*
X199635713Y-80925117D01*
X199635713Y-80925117D02*
X199849999Y-80925117D01*
X199849999Y-80925117D02*
X199978570Y-80967974D01*
X199978570Y-80967974D02*
X200064285Y-81053688D01*
X200064285Y-81053688D02*
X200107142Y-81139402D01*
X200107142Y-81139402D02*
X200149999Y-81310831D01*
X200149999Y-81310831D02*
X200149999Y-81439402D01*
X200149999Y-81439402D02*
X200107142Y-81610831D01*
X200107142Y-81610831D02*
X200064285Y-81696545D01*
X200064285Y-81696545D02*
X199978570Y-81782260D01*
X199978570Y-81782260D02*
X199849999Y-81825117D01*
X199849999Y-81825117D02*
X199635713Y-81825117D01*
D10*
X187666666Y-118034819D02*
X187666666Y-118749104D01*
X187666666Y-118749104D02*
X187619047Y-118891961D01*
X187619047Y-118891961D02*
X187523809Y-118987200D01*
X187523809Y-118987200D02*
X187380952Y-119034819D01*
X187380952Y-119034819D02*
X187285714Y-119034819D01*
X188571428Y-118034819D02*
X188380952Y-118034819D01*
X188380952Y-118034819D02*
X188285714Y-118082438D01*
X188285714Y-118082438D02*
X188238095Y-118130057D01*
X188238095Y-118130057D02*
X188142857Y-118272914D01*
X188142857Y-118272914D02*
X188095238Y-118463390D01*
X188095238Y-118463390D02*
X188095238Y-118844342D01*
X188095238Y-118844342D02*
X188142857Y-118939580D01*
X188142857Y-118939580D02*
X188190476Y-118987200D01*
X188190476Y-118987200D02*
X188285714Y-119034819D01*
X188285714Y-119034819D02*
X188476190Y-119034819D01*
X188476190Y-119034819D02*
X188571428Y-118987200D01*
X188571428Y-118987200D02*
X188619047Y-118939580D01*
X188619047Y-118939580D02*
X188666666Y-118844342D01*
X188666666Y-118844342D02*
X188666666Y-118606247D01*
X188666666Y-118606247D02*
X188619047Y-118511009D01*
X188619047Y-118511009D02*
X188571428Y-118463390D01*
X188571428Y-118463390D02*
X188476190Y-118415771D01*
X188476190Y-118415771D02*
X188285714Y-118415771D01*
X188285714Y-118415771D02*
X188190476Y-118463390D01*
X188190476Y-118463390D02*
X188142857Y-118511009D01*
X188142857Y-118511009D02*
X188095238Y-118606247D01*
X169866666Y-65554819D02*
X169866666Y-66269104D01*
X169866666Y-66269104D02*
X169819047Y-66411961D01*
X169819047Y-66411961D02*
X169723809Y-66507200D01*
X169723809Y-66507200D02*
X169580952Y-66554819D01*
X169580952Y-66554819D02*
X169485714Y-66554819D01*
X170247619Y-65554819D02*
X170866666Y-65554819D01*
X170866666Y-65554819D02*
X170533333Y-65935771D01*
X170533333Y-65935771D02*
X170676190Y-65935771D01*
X170676190Y-65935771D02*
X170771428Y-65983390D01*
X170771428Y-65983390D02*
X170819047Y-66031009D01*
X170819047Y-66031009D02*
X170866666Y-66126247D01*
X170866666Y-66126247D02*
X170866666Y-66364342D01*
X170866666Y-66364342D02*
X170819047Y-66459580D01*
X170819047Y-66459580D02*
X170771428Y-66507200D01*
X170771428Y-66507200D02*
X170676190Y-66554819D01*
X170676190Y-66554819D02*
X170390476Y-66554819D01*
X170390476Y-66554819D02*
X170295238Y-66507200D01*
X170295238Y-66507200D02*
X170247619Y-66459580D01*
X198666666Y-118034819D02*
X198666666Y-118749104D01*
X198666666Y-118749104D02*
X198619047Y-118891961D01*
X198619047Y-118891961D02*
X198523809Y-118987200D01*
X198523809Y-118987200D02*
X198380952Y-119034819D01*
X198380952Y-119034819D02*
X198285714Y-119034819D01*
X199047619Y-118034819D02*
X199714285Y-118034819D01*
X199714285Y-118034819D02*
X199285714Y-119034819D01*
X106233333Y-143254819D02*
X105900000Y-142778628D01*
X105661905Y-143254819D02*
X105661905Y-142254819D01*
X105661905Y-142254819D02*
X106042857Y-142254819D01*
X106042857Y-142254819D02*
X106138095Y-142302438D01*
X106138095Y-142302438D02*
X106185714Y-142350057D01*
X106185714Y-142350057D02*
X106233333Y-142445295D01*
X106233333Y-142445295D02*
X106233333Y-142588152D01*
X106233333Y-142588152D02*
X106185714Y-142683390D01*
X106185714Y-142683390D02*
X106138095Y-142731009D01*
X106138095Y-142731009D02*
X106042857Y-142778628D01*
X106042857Y-142778628D02*
X105661905Y-142778628D01*
X106566667Y-142254819D02*
X107185714Y-142254819D01*
X107185714Y-142254819D02*
X106852381Y-142635771D01*
X106852381Y-142635771D02*
X106995238Y-142635771D01*
X106995238Y-142635771D02*
X107090476Y-142683390D01*
X107090476Y-142683390D02*
X107138095Y-142731009D01*
X107138095Y-142731009D02*
X107185714Y-142826247D01*
X107185714Y-142826247D02*
X107185714Y-143064342D01*
X107185714Y-143064342D02*
X107138095Y-143159580D01*
X107138095Y-143159580D02*
X107090476Y-143207200D01*
X107090476Y-143207200D02*
X106995238Y-143254819D01*
X106995238Y-143254819D02*
X106709524Y-143254819D01*
X106709524Y-143254819D02*
X106614286Y-143207200D01*
X106614286Y-143207200D02*
X106566667Y-143159580D01*
X74058333Y-129084819D02*
X73725000Y-128608628D01*
X73486905Y-129084819D02*
X73486905Y-128084819D01*
X73486905Y-128084819D02*
X73867857Y-128084819D01*
X73867857Y-128084819D02*
X73963095Y-128132438D01*
X73963095Y-128132438D02*
X74010714Y-128180057D01*
X74010714Y-128180057D02*
X74058333Y-128275295D01*
X74058333Y-128275295D02*
X74058333Y-128418152D01*
X74058333Y-128418152D02*
X74010714Y-128513390D01*
X74010714Y-128513390D02*
X73963095Y-128561009D01*
X73963095Y-128561009D02*
X73867857Y-128608628D01*
X73867857Y-128608628D02*
X73486905Y-128608628D01*
X75010714Y-129084819D02*
X74439286Y-129084819D01*
X74725000Y-129084819D02*
X74725000Y-128084819D01*
X74725000Y-128084819D02*
X74629762Y-128227676D01*
X74629762Y-128227676D02*
X74534524Y-128322914D01*
X74534524Y-128322914D02*
X74439286Y-128370533D01*
X211666666Y-118034819D02*
X211666666Y-118749104D01*
X211666666Y-118749104D02*
X211619047Y-118891961D01*
X211619047Y-118891961D02*
X211523809Y-118987200D01*
X211523809Y-118987200D02*
X211380952Y-119034819D01*
X211380952Y-119034819D02*
X211285714Y-119034819D01*
X212619047Y-118034819D02*
X212142857Y-118034819D01*
X212142857Y-118034819D02*
X212095238Y-118511009D01*
X212095238Y-118511009D02*
X212142857Y-118463390D01*
X212142857Y-118463390D02*
X212238095Y-118415771D01*
X212238095Y-118415771D02*
X212476190Y-118415771D01*
X212476190Y-118415771D02*
X212571428Y-118463390D01*
X212571428Y-118463390D02*
X212619047Y-118511009D01*
X212619047Y-118511009D02*
X212666666Y-118606247D01*
X212666666Y-118606247D02*
X212666666Y-118844342D01*
X212666666Y-118844342D02*
X212619047Y-118939580D01*
X212619047Y-118939580D02*
X212571428Y-118987200D01*
X212571428Y-118987200D02*
X212476190Y-119034819D01*
X212476190Y-119034819D02*
X212238095Y-119034819D01*
X212238095Y-119034819D02*
X212142857Y-118987200D01*
X212142857Y-118987200D02*
X212095238Y-118939580D01*
D11*
%TO.C,A1*%
X69015000Y-104000000D02*
X69015000Y-107837939D01*
X69015000Y-110400000D02*
X69015000Y-108762061D01*
X69015000Y-117600000D02*
X69015000Y-110400000D01*
X69015000Y-119237939D02*
X69015000Y-117600000D01*
X69015000Y-120162061D02*
X69015000Y-124000000D01*
X69078000Y-124270000D02*
X120172000Y-124270000D01*
X69928520Y-106490000D02*
X69015000Y-106490000D01*
X69928520Y-121510000D02*
X69015000Y-121510000D01*
X115715000Y-117900000D02*
X115715000Y-110100000D01*
X116928520Y-106490000D02*
X72321480Y-106490000D01*
X116928520Y-121510000D02*
X72321480Y-121510000D01*
X116931000Y-110100000D02*
X115715000Y-110100000D01*
X116931000Y-117900000D02*
X115715000Y-117900000D01*
X117955000Y-103070000D02*
X119555000Y-103070000D01*
X119625000Y-103390000D02*
X69625000Y-103390000D01*
X119625000Y-124610000D02*
X69625000Y-124610000D01*
X120172000Y-103730000D02*
X69078000Y-103730000D01*
X120235000Y-104000000D02*
X120235000Y-106490000D01*
X120235000Y-106490000D02*
X119321480Y-106490000D01*
X120235000Y-106490000D02*
X120235000Y-107837940D01*
X120235000Y-108762061D02*
X120235000Y-109765000D01*
X120235000Y-109765000D02*
X120235000Y-118235000D01*
X120235000Y-118235000D02*
X120235000Y-119237939D01*
X120235000Y-120162061D02*
X120235000Y-121510000D01*
X120235000Y-121510000D02*
X119321480Y-121510000D01*
X120235000Y-124000000D02*
X120235000Y-121510000D01*
X120715000Y-109890000D02*
X120715000Y-110100000D01*
X120715000Y-110100000D02*
X119319000Y-110100000D01*
X120715000Y-117900000D02*
X119319000Y-117900000D01*
X120715000Y-118110000D02*
X120715000Y-117900000D01*
X121535000Y-109890000D02*
X120715000Y-109890000D01*
X121535000Y-109890000D02*
X121535000Y-118110000D01*
X121535000Y-118110000D02*
X120715000Y-118110000D01*
X69015000Y-104000000D02*
G75*
G02*
X69625000Y-103390000I609901J99D01*
G01*
X69625000Y-124610000D02*
G75*
G02*
X69015000Y-124000000I0J610000D01*
G01*
X119625000Y-103390000D02*
G75*
G02*
X120235000Y-104000000I0J-610000D01*
G01*
X120235000Y-124000000D02*
G75*
G02*
X119625000Y-124610000I-610000J0D01*
G01*
%TO.C,J10*%
X85640000Y-139340000D02*
X85640000Y-140590000D01*
X85940000Y-139640000D02*
X85940000Y-144360000D01*
X85940000Y-140950000D02*
X86550000Y-140950000D01*
X85940000Y-142250000D02*
X86550000Y-142250000D01*
X85940000Y-144360000D02*
X92060000Y-144360000D01*
X86550000Y-140250000D02*
X86550000Y-143750000D01*
X86550000Y-143750000D02*
X91450000Y-143750000D01*
X86890000Y-139340000D02*
X85640000Y-139340000D01*
X87400000Y-139440000D02*
X87400000Y-139640000D01*
X87700000Y-139440000D02*
X87400000Y-139440000D01*
X87700000Y-139540000D02*
X87400000Y-139540000D01*
X87700000Y-139640000D02*
X87700000Y-139440000D01*
X88500000Y-139640000D02*
X88500000Y-140250000D01*
X88500000Y-140250000D02*
X86550000Y-140250000D01*
X88900000Y-143250000D02*
X89100000Y-143250000D01*
X88900000Y-143750000D02*
X88900000Y-143250000D01*
X89000000Y-143750000D02*
X89000000Y-143250000D01*
X89100000Y-143250000D02*
X89100000Y-143750000D01*
X89500000Y-140250000D02*
X89500000Y-139640000D01*
X91450000Y-140250000D02*
X89500000Y-140250000D01*
X91450000Y-143750000D02*
X91450000Y-140250000D01*
X92060000Y-139640000D02*
X85940000Y-139640000D01*
X92060000Y-140950000D02*
X91450000Y-140950000D01*
X92060000Y-142250000D02*
X91450000Y-142250000D01*
X92060000Y-144360000D02*
X92060000Y-139640000D01*
%TO.C,J1*%
X116840000Y-66890000D02*
X116840000Y-68140000D01*
X117140000Y-67190000D02*
X117140000Y-71910000D01*
X117140000Y-68500000D02*
X117750000Y-68500000D01*
X117140000Y-69800000D02*
X117750000Y-69800000D01*
X117140000Y-71910000D02*
X131260000Y-71910000D01*
X117750000Y-67800000D02*
X117750000Y-71300000D01*
X117750000Y-71300000D02*
X130650000Y-71300000D01*
X118090000Y-66890000D02*
X116840000Y-66890000D01*
X118600000Y-66990000D02*
X118600000Y-67190000D01*
X118900000Y-66990000D02*
X118600000Y-66990000D01*
X118900000Y-67090000D02*
X118600000Y-67090000D01*
X118900000Y-67190000D02*
X118900000Y-66990000D01*
X119700000Y-67190000D02*
X119700000Y-67800000D01*
X119700000Y-67800000D02*
X117750000Y-67800000D01*
X120100000Y-70800000D02*
X120300000Y-70800000D01*
X120100000Y-71300000D02*
X120100000Y-70800000D01*
X120200000Y-71300000D02*
X120200000Y-70800000D01*
X120300000Y-70800000D02*
X120300000Y-71300000D01*
X122100000Y-70800000D02*
X122300000Y-70800000D01*
X122100000Y-71300000D02*
X122100000Y-70800000D01*
X122200000Y-71300000D02*
X122200000Y-70800000D01*
X122300000Y-70800000D02*
X122300000Y-71300000D01*
X124100000Y-70800000D02*
X124300000Y-70800000D01*
X124100000Y-71300000D02*
X124100000Y-70800000D01*
X124200000Y-71300000D02*
X124200000Y-70800000D01*
X124300000Y-70800000D02*
X124300000Y-71300000D01*
X126100000Y-70800000D02*
X126300000Y-70800000D01*
X126100000Y-71300000D02*
X126100000Y-70800000D01*
X126200000Y-71300000D02*
X126200000Y-70800000D01*
X126300000Y-70800000D02*
X126300000Y-71300000D01*
X128100000Y-70800000D02*
X128300000Y-70800000D01*
X128100000Y-71300000D02*
X128100000Y-70800000D01*
X128200000Y-71300000D02*
X128200000Y-70800000D01*
X128300000Y-70800000D02*
X128300000Y-71300000D01*
X128700000Y-67800000D02*
X128700000Y-67190000D01*
X130650000Y-67800000D02*
X128700000Y-67800000D01*
X130650000Y-71300000D02*
X130650000Y-67800000D01*
X131260000Y-67190000D02*
X117140000Y-67190000D01*
X131260000Y-68500000D02*
X130650000Y-68500000D01*
X131260000Y-69800000D02*
X130650000Y-69800000D01*
X131260000Y-71910000D02*
X131260000Y-67190000D01*
%TO.C,R2*%
X96825000Y-136000000D02*
X96895000Y-136000000D01*
X96825000Y-136000000D02*
G75*
G02*
X94085000Y-136000000I-1370000J0D01*
G01*
X94085000Y-136000000D02*
G75*
G02*
X96825000Y-136000000I1370000J0D01*
G01*
%TO.C,J11*%
X84140000Y-128340000D02*
X84140000Y-129590000D01*
X84440000Y-128640000D02*
X84440000Y-133360000D01*
X84440000Y-129950000D02*
X85050000Y-129950000D01*
X84440000Y-131250000D02*
X85050000Y-131250000D01*
X84440000Y-133360000D02*
X98560000Y-133360000D01*
X85050000Y-129250000D02*
X85050000Y-132750000D01*
X85050000Y-132750000D02*
X97950000Y-132750000D01*
X85390000Y-128340000D02*
X84140000Y-128340000D01*
X85900000Y-128440000D02*
X85900000Y-128640000D01*
X86200000Y-128440000D02*
X85900000Y-128440000D01*
X86200000Y-128540000D02*
X85900000Y-128540000D01*
X86200000Y-128640000D02*
X86200000Y-128440000D01*
X87000000Y-128640000D02*
X87000000Y-129250000D01*
X87000000Y-129250000D02*
X85050000Y-129250000D01*
X87400000Y-132250000D02*
X87600000Y-132250000D01*
X87400000Y-132750000D02*
X87400000Y-132250000D01*
X87500000Y-132750000D02*
X87500000Y-132250000D01*
X87600000Y-132250000D02*
X87600000Y-132750000D01*
X89400000Y-132250000D02*
X89600000Y-132250000D01*
X89400000Y-132750000D02*
X89400000Y-132250000D01*
X89500000Y-132750000D02*
X89500000Y-132250000D01*
X89600000Y-132250000D02*
X89600000Y-132750000D01*
X91400000Y-132250000D02*
X91600000Y-132250000D01*
X91400000Y-132750000D02*
X91400000Y-132250000D01*
X91500000Y-132750000D02*
X91500000Y-132250000D01*
X91600000Y-132250000D02*
X91600000Y-132750000D01*
X93400000Y-132250000D02*
X93600000Y-132250000D01*
X93400000Y-132750000D02*
X93400000Y-132250000D01*
X93500000Y-132750000D02*
X93500000Y-132250000D01*
X93600000Y-132250000D02*
X93600000Y-132750000D01*
X95400000Y-132250000D02*
X95600000Y-132250000D01*
X95400000Y-132750000D02*
X95400000Y-132250000D01*
X95500000Y-132750000D02*
X95500000Y-132250000D01*
X95600000Y-132250000D02*
X95600000Y-132750000D01*
X96000000Y-129250000D02*
X96000000Y-128640000D01*
X97950000Y-129250000D02*
X96000000Y-129250000D01*
X97950000Y-132750000D02*
X97950000Y-129250000D01*
X98560000Y-128640000D02*
X84440000Y-128640000D01*
X98560000Y-129950000D02*
X97950000Y-129950000D01*
X98560000Y-131250000D02*
X97950000Y-131250000D01*
X98560000Y-133360000D02*
X98560000Y-128640000D01*
D10*
%TO.C,U2*%
X137090000Y-74885000D02*
X137090000Y-99015000D01*
X137090000Y-99015000D02*
X157410000Y-99015000D01*
X157410000Y-74885000D02*
X137090000Y-74885000D01*
X157410000Y-99015000D02*
X157410000Y-74885000D01*
D11*
%TO.C,Q1*%
X94700000Y-144210000D02*
X98300000Y-144210000D01*
X94143600Y-141261193D02*
G75*
G02*
X96500000Y-139760000I2356400J-1098807D01*
G01*
X94700000Y-144210000D02*
G75*
G02*
X94175816Y-143482795I1800000J1850000D01*
G01*
X96500000Y-139760000D02*
G75*
G02*
X98856400Y-141261193I0J-2600000D01*
G01*
X98824184Y-143482795D02*
G75*
G02*
X98300000Y-144210000I-2324184J1122795D01*
G01*
%TO.C,D1*%
X102500000Y-137464365D02*
X102500000Y-135535000D01*
X104250635Y-139215000D02*
G75*
G02*
X100749365Y-139215000I-1750635J0D01*
G01*
X100749365Y-139215000D02*
G75*
G02*
X104250635Y-139215000I1750635J0D01*
G01*
D10*
%TO.C,U1*%
X114090000Y-74885000D02*
X114090000Y-99015000D01*
X114090000Y-99015000D02*
X134410000Y-99015000D01*
X134410000Y-74885000D02*
X114090000Y-74885000D01*
X134410000Y-99015000D02*
X134410000Y-74885000D01*
D11*
%TO.C,J9*%
X62140000Y-128340000D02*
X62140000Y-129590000D01*
X62440000Y-128640000D02*
X62440000Y-133360000D01*
X62440000Y-129950000D02*
X63050000Y-129950000D01*
X62440000Y-131250000D02*
X63050000Y-131250000D01*
X62440000Y-133360000D02*
X70560000Y-133360000D01*
X63050000Y-129250000D02*
X63050000Y-132750000D01*
X63050000Y-132750000D02*
X69950000Y-132750000D01*
X63390000Y-128340000D02*
X62140000Y-128340000D01*
X63900000Y-128440000D02*
X63900000Y-128640000D01*
X64200000Y-128440000D02*
X63900000Y-128440000D01*
X64200000Y-128540000D02*
X63900000Y-128540000D01*
X64200000Y-128640000D02*
X64200000Y-128440000D01*
X65000000Y-128640000D02*
X65000000Y-129250000D01*
X65000000Y-129250000D02*
X63050000Y-129250000D01*
X65400000Y-132250000D02*
X65600000Y-132250000D01*
X65400000Y-132750000D02*
X65400000Y-132250000D01*
X65500000Y-132750000D02*
X65500000Y-132250000D01*
X65600000Y-132250000D02*
X65600000Y-132750000D01*
X67400000Y-132250000D02*
X67600000Y-132250000D01*
X67400000Y-132750000D02*
X67400000Y-132250000D01*
X67500000Y-132750000D02*
X67500000Y-132250000D01*
X67600000Y-132250000D02*
X67600000Y-132750000D01*
X68000000Y-129250000D02*
X68000000Y-128640000D01*
X69950000Y-129250000D02*
X68000000Y-129250000D01*
X69950000Y-132750000D02*
X69950000Y-129250000D01*
X70560000Y-128640000D02*
X62440000Y-128640000D01*
X70560000Y-129950000D02*
X69950000Y-129950000D01*
X70560000Y-131250000D02*
X69950000Y-131250000D01*
X70560000Y-133360000D02*
X70560000Y-128640000D01*
%TO.C,F1*%
X218530000Y-111900000D02*
X218530000Y-128100000D01*
X218530000Y-128100000D02*
X225470000Y-128100000D01*
X220000000Y-121600000D02*
X220000000Y-118400000D01*
X222000000Y-120750000D02*
X222000000Y-119250000D01*
X224000000Y-118400000D02*
X224000000Y-121600000D01*
X225470000Y-111900000D02*
X218530000Y-111900000D01*
X225470000Y-128100000D02*
X225470000Y-111900000D01*
%TO.C,C2*%
X79735000Y-130080000D02*
X81265000Y-130080000D01*
X81265000Y-131920000D02*
X79735000Y-131920000D01*
%TO.C,C1*%
X207591542Y-107685000D02*
X208391542Y-107685000D01*
X207991542Y-107285000D02*
X207991542Y-108085000D01*
X212001240Y-105920000D02*
X212001240Y-114080000D01*
X212041240Y-105920000D02*
X212041240Y-114080000D01*
X212081240Y-105921000D02*
X212081240Y-114079000D01*
X212121240Y-105922000D02*
X212121240Y-114078000D01*
X212161240Y-105923000D02*
X212161240Y-114077000D01*
X212201240Y-105925000D02*
X212201240Y-114075000D01*
X212241240Y-105927000D02*
X212241240Y-114073000D01*
X212281240Y-105930000D02*
X212281240Y-114070000D01*
X212321240Y-105932000D02*
X212321240Y-114068000D01*
X212361240Y-105936000D02*
X212361240Y-114064000D01*
X212401240Y-105939000D02*
X212401240Y-114061000D01*
X212441240Y-105944000D02*
X212441240Y-114056000D01*
X212481240Y-105948000D02*
X212481240Y-114052000D01*
X212521240Y-105953000D02*
X212521240Y-114047000D01*
X212561240Y-105958000D02*
X212561240Y-114042000D01*
X212601240Y-105964000D02*
X212601240Y-114036000D01*
X212641240Y-105970000D02*
X212641240Y-114030000D01*
X212681240Y-105977000D02*
X212681240Y-114023000D01*
X212721240Y-105983000D02*
X212721240Y-108960000D01*
X212721240Y-111040000D02*
X212721240Y-114017000D01*
X212761240Y-105991000D02*
X212761240Y-108960000D01*
X212761240Y-111040000D02*
X212761240Y-114009000D01*
X212801240Y-105998000D02*
X212801240Y-108960000D01*
X212801240Y-111040000D02*
X212801240Y-114002000D01*
X212841240Y-106007000D02*
X212841240Y-108960000D01*
X212841240Y-111040000D02*
X212841240Y-113993000D01*
X212881240Y-106015000D02*
X212881240Y-108960000D01*
X212881240Y-111040000D02*
X212881240Y-113985000D01*
X212921240Y-106024000D02*
X212921240Y-108960000D01*
X212921240Y-111040000D02*
X212921240Y-113976000D01*
X212961240Y-106033000D02*
X212961240Y-108960000D01*
X212961240Y-111040000D02*
X212961240Y-113967000D01*
X213001240Y-106043000D02*
X213001240Y-108960000D01*
X213001240Y-111040000D02*
X213001240Y-113957000D01*
X213041240Y-106053000D02*
X213041240Y-108960000D01*
X213041240Y-111040000D02*
X213041240Y-113947000D01*
X213081240Y-106064000D02*
X213081240Y-108960000D01*
X213081240Y-111040000D02*
X213081240Y-113936000D01*
X213121240Y-106075000D02*
X213121240Y-108960000D01*
X213121240Y-111040000D02*
X213121240Y-113925000D01*
X213161240Y-106087000D02*
X213161240Y-108960000D01*
X213161240Y-111040000D02*
X213161240Y-113913000D01*
X213201240Y-106099000D02*
X213201240Y-108960000D01*
X213201240Y-111040000D02*
X213201240Y-113901000D01*
X213241240Y-106111000D02*
X213241240Y-108960000D01*
X213241240Y-111040000D02*
X213241240Y-113889000D01*
X213281240Y-106124000D02*
X213281240Y-108960000D01*
X213281240Y-111040000D02*
X213281240Y-113876000D01*
X213321240Y-106137000D02*
X213321240Y-108960000D01*
X213321240Y-111040000D02*
X213321240Y-113863000D01*
X213361240Y-106151000D02*
X213361240Y-108960000D01*
X213361240Y-111040000D02*
X213361240Y-113849000D01*
X213401240Y-106165000D02*
X213401240Y-108960000D01*
X213401240Y-111040000D02*
X213401240Y-113835000D01*
X213441240Y-106180000D02*
X213441240Y-108960000D01*
X213441240Y-111040000D02*
X213441240Y-113820000D01*
X213481240Y-106195000D02*
X213481240Y-108960000D01*
X213481240Y-111040000D02*
X213481240Y-113805000D01*
X213521240Y-106211000D02*
X213521240Y-108960000D01*
X213521240Y-111040000D02*
X213521240Y-113789000D01*
X213561240Y-106227000D02*
X213561240Y-108960000D01*
X213561240Y-111040000D02*
X213561240Y-113773000D01*
X213601240Y-106243000D02*
X213601240Y-108960000D01*
X213601240Y-111040000D02*
X213601240Y-113757000D01*
X213641240Y-106260000D02*
X213641240Y-108960000D01*
X213641240Y-111040000D02*
X213641240Y-113740000D01*
X213681240Y-106278000D02*
X213681240Y-108960000D01*
X213681240Y-111040000D02*
X213681240Y-113722000D01*
X213721240Y-106296000D02*
X213721240Y-108960000D01*
X213721240Y-111040000D02*
X213721240Y-113704000D01*
X213761240Y-106315000D02*
X213761240Y-108960000D01*
X213761240Y-111040000D02*
X213761240Y-113685000D01*
X213801240Y-106334000D02*
X213801240Y-108960000D01*
X213801240Y-111040000D02*
X213801240Y-113666000D01*
X213841240Y-106354000D02*
X213841240Y-108960000D01*
X213841240Y-111040000D02*
X213841240Y-113646000D01*
X213881240Y-106374000D02*
X213881240Y-108960000D01*
X213881240Y-111040000D02*
X213881240Y-113626000D01*
X213921240Y-106395000D02*
X213921240Y-108960000D01*
X213921240Y-111040000D02*
X213921240Y-113605000D01*
X213961240Y-106416000D02*
X213961240Y-108960000D01*
X213961240Y-111040000D02*
X213961240Y-113584000D01*
X214001240Y-106438000D02*
X214001240Y-108960000D01*
X214001240Y-111040000D02*
X214001240Y-113562000D01*
X214041240Y-106461000D02*
X214041240Y-108960000D01*
X214041240Y-111040000D02*
X214041240Y-113539000D01*
X214081240Y-106484000D02*
X214081240Y-108960000D01*
X214081240Y-111040000D02*
X214081240Y-113516000D01*
X214121240Y-106507000D02*
X214121240Y-108960000D01*
X214121240Y-111040000D02*
X214121240Y-113493000D01*
X214161240Y-106532000D02*
X214161240Y-108960000D01*
X214161240Y-111040000D02*
X214161240Y-113468000D01*
X214201240Y-106557000D02*
X214201240Y-108960000D01*
X214201240Y-111040000D02*
X214201240Y-113443000D01*
X214241240Y-106582000D02*
X214241240Y-108960000D01*
X214241240Y-111040000D02*
X214241240Y-113418000D01*
X214281240Y-106608000D02*
X214281240Y-108960000D01*
X214281240Y-111040000D02*
X214281240Y-113392000D01*
X214321240Y-106635000D02*
X214321240Y-108960000D01*
X214321240Y-111040000D02*
X214321240Y-113365000D01*
X214361240Y-106663000D02*
X214361240Y-108960000D01*
X214361240Y-111040000D02*
X214361240Y-113337000D01*
X214401240Y-106691000D02*
X214401240Y-108960000D01*
X214401240Y-111040000D02*
X214401240Y-113309000D01*
X214441240Y-106720000D02*
X214441240Y-108960000D01*
X214441240Y-111040000D02*
X214441240Y-113280000D01*
X214481240Y-106750000D02*
X214481240Y-108960000D01*
X214481240Y-111040000D02*
X214481240Y-113250000D01*
X214521240Y-106781000D02*
X214521240Y-108960000D01*
X214521240Y-111040000D02*
X214521240Y-113219000D01*
X214561240Y-106812000D02*
X214561240Y-108960000D01*
X214561240Y-111040000D02*
X214561240Y-113188000D01*
X214601240Y-106844000D02*
X214601240Y-108960000D01*
X214601240Y-111040000D02*
X214601240Y-113156000D01*
X214641240Y-106877000D02*
X214641240Y-108960000D01*
X214641240Y-111040000D02*
X214641240Y-113123000D01*
X214681240Y-106911000D02*
X214681240Y-108960000D01*
X214681240Y-111040000D02*
X214681240Y-113089000D01*
X214721240Y-106945000D02*
X214721240Y-108960000D01*
X214721240Y-111040000D02*
X214721240Y-113055000D01*
X214761240Y-106981000D02*
X214761240Y-108960000D01*
X214761240Y-111040000D02*
X214761240Y-113019000D01*
X214801240Y-107018000D02*
X214801240Y-112982000D01*
X214841240Y-107055000D02*
X214841240Y-112945000D01*
X214881240Y-107094000D02*
X214881240Y-112906000D01*
X214921240Y-107133000D02*
X214921240Y-112867000D01*
X214961240Y-107174000D02*
X214961240Y-112826000D01*
X215001240Y-107216000D02*
X215001240Y-112784000D01*
X215041240Y-107259000D02*
X215041240Y-112741000D01*
X215081240Y-107304000D02*
X215081240Y-112696000D01*
X215121240Y-107349000D02*
X215121240Y-112651000D01*
X215161240Y-107396000D02*
X215161240Y-112604000D01*
X215201240Y-107445000D02*
X215201240Y-112555000D01*
X215241240Y-107495000D02*
X215241240Y-112505000D01*
X215281240Y-107547000D02*
X215281240Y-112453000D01*
X215321240Y-107600000D02*
X215321240Y-112400000D01*
X215361240Y-107656000D02*
X215361240Y-112344000D01*
X215401240Y-107713000D02*
X215401240Y-112287000D01*
X215441240Y-107773000D02*
X215441240Y-112227000D01*
X215481240Y-107835000D02*
X215481240Y-112165000D01*
X215521240Y-107899000D02*
X215521240Y-112101000D01*
X215561240Y-107966000D02*
X215561240Y-112034000D01*
X215601240Y-108036000D02*
X215601240Y-111964000D01*
X215641240Y-108110000D02*
X215641240Y-111890000D01*
X215681240Y-108187000D02*
X215681240Y-111813000D01*
X215721240Y-108269000D02*
X215721240Y-111731000D01*
X215761240Y-108356000D02*
X215761240Y-111644000D01*
X215801240Y-108448000D02*
X215801240Y-111552000D01*
X215841240Y-108547000D02*
X215841240Y-111453000D01*
X215881240Y-108654000D02*
X215881240Y-111346000D01*
X215921240Y-108772000D02*
X215921240Y-111228000D01*
X215961240Y-108903000D02*
X215961240Y-111097000D01*
X216001240Y-109053000D02*
X216001240Y-110947000D01*
X216041240Y-109232000D02*
X216041240Y-110768000D01*
X216081240Y-109467000D02*
X216081240Y-110533000D01*
X216121240Y-110000000D02*
G75*
G02*
X207881240Y-110000000I-4120000J0D01*
G01*
X207881240Y-110000000D02*
G75*
G02*
X216121240Y-110000000I4120000J0D01*
G01*
%TO.C,J4*%
X204640000Y-96610000D02*
X204640000Y-97860000D01*
X204640000Y-97860000D02*
X205890000Y-97860000D01*
X204740000Y-95800000D02*
X204740000Y-96100000D01*
X204740000Y-96100000D02*
X204940000Y-96100000D01*
X204840000Y-95800000D02*
X204840000Y-96100000D01*
X204940000Y-83440000D02*
X204940000Y-97560000D01*
X204940000Y-95000000D02*
X205550000Y-95000000D01*
X204940000Y-95800000D02*
X204740000Y-95800000D01*
X204940000Y-97560000D02*
X209660000Y-97560000D01*
X205550000Y-84050000D02*
X205550000Y-86000000D01*
X205550000Y-86000000D02*
X204940000Y-86000000D01*
X205550000Y-95000000D02*
X205550000Y-96950000D01*
X205550000Y-96950000D02*
X209050000Y-96950000D01*
X206250000Y-83440000D02*
X206250000Y-84050000D01*
X206250000Y-97560000D02*
X206250000Y-96950000D01*
X207550000Y-83440000D02*
X207550000Y-84050000D01*
X207550000Y-97560000D02*
X207550000Y-96950000D01*
X208550000Y-86400000D02*
X209050000Y-86400000D01*
X208550000Y-86600000D02*
X208550000Y-86400000D01*
X208550000Y-88400000D02*
X209050000Y-88400000D01*
X208550000Y-88600000D02*
X208550000Y-88400000D01*
X208550000Y-90400000D02*
X209050000Y-90400000D01*
X208550000Y-90600000D02*
X208550000Y-90400000D01*
X208550000Y-92400000D02*
X209050000Y-92400000D01*
X208550000Y-92600000D02*
X208550000Y-92400000D01*
X208550000Y-94400000D02*
X209050000Y-94400000D01*
X208550000Y-94600000D02*
X208550000Y-94400000D01*
X209050000Y-84050000D02*
X205550000Y-84050000D01*
X209050000Y-86500000D02*
X208550000Y-86500000D01*
X209050000Y-86600000D02*
X208550000Y-86600000D01*
X209050000Y-88500000D02*
X208550000Y-88500000D01*
X209050000Y-88600000D02*
X208550000Y-88600000D01*
X209050000Y-90500000D02*
X208550000Y-90500000D01*
X209050000Y-90600000D02*
X208550000Y-90600000D01*
X209050000Y-92500000D02*
X208550000Y-92500000D01*
X209050000Y-92600000D02*
X208550000Y-92600000D01*
X209050000Y-94500000D02*
X208550000Y-94500000D01*
X209050000Y-94600000D02*
X208550000Y-94600000D01*
X209050000Y-96950000D02*
X209050000Y-84050000D01*
X209660000Y-83440000D02*
X204940000Y-83440000D01*
X209660000Y-97560000D02*
X209660000Y-83440000D01*
%TO.C,U5*%
X65050000Y-137345000D02*
X65050000Y-138995000D01*
X65050000Y-140995000D02*
X65050000Y-142645000D01*
X65050000Y-142645000D02*
X82950000Y-142645000D01*
X82950000Y-137345000D02*
X65050000Y-137345000D01*
X82950000Y-142645000D02*
X82950000Y-137345000D01*
X65050000Y-138995000D02*
G75*
G02*
X65050000Y-140995000I0J-1000000D01*
G01*
D10*
%TO.C,U3*%
X160090000Y-74885000D02*
X160090000Y-99015000D01*
X160090000Y-99015000D02*
X180410000Y-99015000D01*
X180410000Y-74885000D02*
X160090000Y-74885000D01*
X180410000Y-99015000D02*
X180410000Y-74885000D01*
D11*
%TO.C,J8*%
X107380000Y-126580000D02*
X114620000Y-126580000D01*
X107380000Y-132800000D02*
X114620000Y-132800000D01*
X107380000Y-133900000D02*
X114620000Y-133900000D01*
X107380000Y-134420000D02*
X107380000Y-126580000D01*
X108950000Y-134420000D02*
X107380000Y-134420000D01*
X114620000Y-126580000D02*
X114620000Y-134420000D01*
X114620000Y-134420000D02*
X109550000Y-134420000D01*
X109690000Y-135030000D02*
X108810000Y-135030000D01*
X109250000Y-134420000D01*
X109690000Y-135030000D01*
G36*
X109690000Y-135030000D02*
G01*
X108810000Y-135030000D01*
X109250000Y-134420000D01*
X109690000Y-135030000D01*
G37*
%TO.C,J2*%
X139840000Y-66890000D02*
X139840000Y-68140000D01*
X140140000Y-67190000D02*
X140140000Y-71910000D01*
X140140000Y-68500000D02*
X140750000Y-68500000D01*
X140140000Y-69800000D02*
X140750000Y-69800000D01*
X140140000Y-71910000D02*
X154260000Y-71910000D01*
X140750000Y-67800000D02*
X140750000Y-71300000D01*
X140750000Y-71300000D02*
X153650000Y-71300000D01*
X141090000Y-66890000D02*
X139840000Y-66890000D01*
X141600000Y-66990000D02*
X141600000Y-67190000D01*
X141900000Y-66990000D02*
X141600000Y-66990000D01*
X141900000Y-67090000D02*
X141600000Y-67090000D01*
X141900000Y-67190000D02*
X141900000Y-66990000D01*
X142700000Y-67190000D02*
X142700000Y-67800000D01*
X142700000Y-67800000D02*
X140750000Y-67800000D01*
X143100000Y-70800000D02*
X143300000Y-70800000D01*
X143100000Y-71300000D02*
X143100000Y-70800000D01*
X143200000Y-71300000D02*
X143200000Y-70800000D01*
X143300000Y-70800000D02*
X143300000Y-71300000D01*
X145100000Y-70800000D02*
X145300000Y-70800000D01*
X145100000Y-71300000D02*
X145100000Y-70800000D01*
X145200000Y-71300000D02*
X145200000Y-70800000D01*
X145300000Y-70800000D02*
X145300000Y-71300000D01*
X147100000Y-70800000D02*
X147300000Y-70800000D01*
X147100000Y-71300000D02*
X147100000Y-70800000D01*
X147200000Y-71300000D02*
X147200000Y-70800000D01*
X147300000Y-70800000D02*
X147300000Y-71300000D01*
X149100000Y-70800000D02*
X149300000Y-70800000D01*
X149100000Y-71300000D02*
X149100000Y-70800000D01*
X149200000Y-71300000D02*
X149200000Y-70800000D01*
X149300000Y-70800000D02*
X149300000Y-71300000D01*
X151100000Y-70800000D02*
X151300000Y-70800000D01*
X151100000Y-71300000D02*
X151100000Y-70800000D01*
X151200000Y-71300000D02*
X151200000Y-70800000D01*
X151300000Y-70800000D02*
X151300000Y-71300000D01*
X151700000Y-67800000D02*
X151700000Y-67190000D01*
X153650000Y-67800000D02*
X151700000Y-67800000D01*
X153650000Y-71300000D02*
X153650000Y-67800000D01*
X154260000Y-67190000D02*
X140140000Y-67190000D01*
X154260000Y-68500000D02*
X153650000Y-68500000D01*
X154260000Y-69800000D02*
X153650000Y-69800000D01*
X154260000Y-71910000D02*
X154260000Y-67190000D01*
D10*
%TO.C,U4*%
X183090000Y-74885000D02*
X183090000Y-99015000D01*
X183090000Y-99015000D02*
X203410000Y-99015000D01*
X203410000Y-74885000D02*
X183090000Y-74885000D01*
X203410000Y-99015000D02*
X203410000Y-74885000D01*
D11*
%TO.C,J6*%
X184380000Y-119580000D02*
X191620000Y-119580000D01*
X184380000Y-125800000D02*
X191620000Y-125800000D01*
X184380000Y-126900000D02*
X191620000Y-126900000D01*
X184380000Y-127420000D02*
X184380000Y-119580000D01*
X185950000Y-127420000D02*
X184380000Y-127420000D01*
X191620000Y-119580000D02*
X191620000Y-127420000D01*
X191620000Y-127420000D02*
X186550000Y-127420000D01*
X186690000Y-128030000D02*
X185810000Y-128030000D01*
X186250000Y-127420000D01*
X186690000Y-128030000D01*
G36*
X186690000Y-128030000D02*
G01*
X185810000Y-128030000D01*
X186250000Y-127420000D01*
X186690000Y-128030000D01*
G37*
%TO.C,J3*%
X162840000Y-66890000D02*
X162840000Y-68140000D01*
X163140000Y-67190000D02*
X163140000Y-71910000D01*
X163140000Y-68500000D02*
X163750000Y-68500000D01*
X163140000Y-69800000D02*
X163750000Y-69800000D01*
X163140000Y-71910000D02*
X177260000Y-71910000D01*
X163750000Y-67800000D02*
X163750000Y-71300000D01*
X163750000Y-71300000D02*
X176650000Y-71300000D01*
X164090000Y-66890000D02*
X162840000Y-66890000D01*
X164600000Y-66990000D02*
X164600000Y-67190000D01*
X164900000Y-66990000D02*
X164600000Y-66990000D01*
X164900000Y-67090000D02*
X164600000Y-67090000D01*
X164900000Y-67190000D02*
X164900000Y-66990000D01*
X165700000Y-67190000D02*
X165700000Y-67800000D01*
X165700000Y-67800000D02*
X163750000Y-67800000D01*
X166100000Y-70800000D02*
X166300000Y-70800000D01*
X166100000Y-71300000D02*
X166100000Y-70800000D01*
X166200000Y-71300000D02*
X166200000Y-70800000D01*
X166300000Y-70800000D02*
X166300000Y-71300000D01*
X168100000Y-70800000D02*
X168300000Y-70800000D01*
X168100000Y-71300000D02*
X168100000Y-70800000D01*
X168200000Y-71300000D02*
X168200000Y-70800000D01*
X168300000Y-70800000D02*
X168300000Y-71300000D01*
X170100000Y-70800000D02*
X170300000Y-70800000D01*
X170100000Y-71300000D02*
X170100000Y-70800000D01*
X170200000Y-71300000D02*
X170200000Y-70800000D01*
X170300000Y-70800000D02*
X170300000Y-71300000D01*
X172100000Y-70800000D02*
X172300000Y-70800000D01*
X172100000Y-71300000D02*
X172100000Y-70800000D01*
X172200000Y-71300000D02*
X172200000Y-70800000D01*
X172300000Y-70800000D02*
X172300000Y-71300000D01*
X174100000Y-70800000D02*
X174300000Y-70800000D01*
X174100000Y-71300000D02*
X174100000Y-70800000D01*
X174200000Y-71300000D02*
X174200000Y-70800000D01*
X174300000Y-70800000D02*
X174300000Y-71300000D01*
X174700000Y-67800000D02*
X174700000Y-67190000D01*
X176650000Y-67800000D02*
X174700000Y-67800000D01*
X176650000Y-71300000D02*
X176650000Y-67800000D01*
X177260000Y-67190000D02*
X163140000Y-67190000D01*
X177260000Y-68500000D02*
X176650000Y-68500000D01*
X177260000Y-69800000D02*
X176650000Y-69800000D01*
X177260000Y-71910000D02*
X177260000Y-67190000D01*
%TO.C,J7*%
X195380000Y-119580000D02*
X202620000Y-119580000D01*
X195380000Y-125800000D02*
X202620000Y-125800000D01*
X195380000Y-126900000D02*
X202620000Y-126900000D01*
X195380000Y-127420000D02*
X195380000Y-119580000D01*
X196950000Y-127420000D02*
X195380000Y-127420000D01*
X202620000Y-119580000D02*
X202620000Y-127420000D01*
X202620000Y-127420000D02*
X197550000Y-127420000D01*
X197690000Y-128030000D02*
X196810000Y-128030000D01*
X197250000Y-127420000D01*
X197690000Y-128030000D01*
G36*
X197690000Y-128030000D02*
G01*
X196810000Y-128030000D01*
X197250000Y-127420000D01*
X197690000Y-128030000D01*
G37*
%TO.C,R3*%
X103325000Y-142800000D02*
X103395000Y-142800000D01*
X103325000Y-142800000D02*
G75*
G02*
X100585000Y-142800000I-1370000J0D01*
G01*
X100585000Y-142800000D02*
G75*
G02*
X103325000Y-142800000I1370000J0D01*
G01*
%TO.C,R1*%
X74325000Y-131000000D02*
X74395000Y-131000000D01*
X74325000Y-131000000D02*
G75*
G02*
X71585000Y-131000000I-1370000J0D01*
G01*
X71585000Y-131000000D02*
G75*
G02*
X74325000Y-131000000I1370000J0D01*
G01*
%TO.C,J5*%
X208380000Y-119580000D02*
X215620000Y-119580000D01*
X208380000Y-125800000D02*
X215620000Y-125800000D01*
X208380000Y-126900000D02*
X215620000Y-126900000D01*
X208380000Y-127420000D02*
X208380000Y-119580000D01*
X209950000Y-127420000D02*
X208380000Y-127420000D01*
X215620000Y-119580000D02*
X215620000Y-127420000D01*
X215620000Y-127420000D02*
X210550000Y-127420000D01*
X210690000Y-128030000D02*
X209810000Y-128030000D01*
X210250000Y-127420000D01*
X210690000Y-128030000D01*
G36*
X210690000Y-128030000D02*
G01*
X209810000Y-128030000D01*
X210250000Y-127420000D01*
X210690000Y-128030000D01*
G37*
%TD*%
%LPC*%
D12*
%TO.C,A1*%
X118755000Y-105110000D03*
D13*
X116215000Y-105110000D03*
D14*
X113675000Y-105110000D03*
D13*
X111135000Y-105110000D03*
X108595000Y-105110000D03*
X106055000Y-105110000D03*
X103515000Y-105110000D03*
D14*
X100975000Y-105110000D03*
D13*
X98435000Y-105110000D03*
X95895000Y-105110000D03*
X93355000Y-105110000D03*
X90815000Y-105110000D03*
D14*
X88275000Y-105110000D03*
D13*
X85735000Y-105110000D03*
X83195000Y-105110000D03*
X80655000Y-105110000D03*
X78115000Y-105110000D03*
D14*
X75575000Y-105110000D03*
D13*
X73035000Y-105110000D03*
X70495000Y-105110000D03*
X70495000Y-122890000D03*
X73035000Y-122890000D03*
D15*
X75575000Y-122890000D03*
D13*
X78115000Y-122890000D03*
X80655000Y-122890000D03*
X83195000Y-122890000D03*
X85735000Y-122890000D03*
D15*
X88275000Y-122890000D03*
D13*
X90815000Y-122890000D03*
X93355000Y-122890000D03*
X95895000Y-122890000D03*
X98435000Y-122890000D03*
D15*
X100975000Y-122890000D03*
D13*
X103515000Y-122890000D03*
X106055000Y-122890000D03*
X108595000Y-122890000D03*
X111135000Y-122890000D03*
D15*
X113675000Y-122890000D03*
D13*
X116215000Y-122890000D03*
X118755000Y-122890000D03*
%TD*%
D16*
%TO.C,J10*%
X88000000Y-141450000D03*
D17*
X90000000Y-141450000D03*
%TD*%
D16*
%TO.C,J1*%
X119200000Y-69000000D03*
D17*
X121200000Y-69000000D03*
X123200000Y-69000000D03*
X125200000Y-69000000D03*
X127200000Y-69000000D03*
X129200000Y-69000000D03*
%TD*%
D13*
%TO.C,R2*%
X95455000Y-136000000D03*
X97995000Y-136000000D03*
%TD*%
D16*
%TO.C,J11*%
X86500000Y-130450000D03*
D17*
X88500000Y-130450000D03*
X90500000Y-130450000D03*
X92500000Y-130450000D03*
X94500000Y-130450000D03*
X96500000Y-130450000D03*
%TD*%
D18*
%TO.C,U2*%
X139630001Y-96475000D03*
X154870000Y-96475000D03*
D19*
X151060000Y-96475000D03*
D20*
X148520000Y-96475000D03*
X145980001Y-96475000D03*
X143440000Y-96475000D03*
X141132000Y-78695000D03*
X144632001Y-78695000D03*
X149768000Y-78695000D03*
X153268000Y-78695000D03*
%TD*%
D21*
%TO.C,Q1*%
X93960000Y-142360000D03*
D22*
X96500000Y-142360000D03*
X99040000Y-142360000D03*
%TD*%
D23*
%TO.C,D1*%
X102500000Y-139215000D03*
D24*
X102500000Y-134135000D03*
%TD*%
D18*
%TO.C,U1*%
X116630001Y-96475000D03*
X131870000Y-96475000D03*
D19*
X128060000Y-96475000D03*
D20*
X125520000Y-96475000D03*
X122980001Y-96475000D03*
X120440000Y-96475000D03*
X118132000Y-78695000D03*
X121632001Y-78695000D03*
X126768000Y-78695000D03*
X130268000Y-78695000D03*
%TD*%
D16*
%TO.C,J9*%
X64500000Y-130450000D03*
D17*
X66500000Y-130450000D03*
X68500000Y-130450000D03*
%TD*%
D25*
%TO.C,H1*%
X102998736Y-129100000D03*
%TD*%
D26*
%TO.C,F1*%
X220300000Y-124960000D03*
X223700000Y-124960000D03*
X220300000Y-115040000D03*
X223700000Y-115040000D03*
%TD*%
D25*
%TO.C,H4*%
X228498736Y-106500000D03*
%TD*%
D13*
%TO.C,C2*%
X79250000Y-131000000D03*
X81750000Y-131000000D03*
%TD*%
D25*
%TO.C,H2*%
X197998736Y-114000000D03*
%TD*%
D27*
%TO.C,C1*%
X210251240Y-110000000D03*
D13*
X213751240Y-110000000D03*
%TD*%
D25*
%TO.C,H5*%
X84998736Y-88000000D03*
%TD*%
D28*
%TO.C,J4*%
X206750000Y-95500000D03*
D29*
X206750000Y-93500000D03*
X206750000Y-91500000D03*
X206750000Y-89500000D03*
X206750000Y-87500000D03*
X206750000Y-85500000D03*
%TD*%
D25*
%TO.C,H3*%
X158698736Y-69000000D03*
%TD*%
D30*
%TO.C,U5*%
X66380000Y-143805000D03*
D13*
X68920000Y-143805000D03*
X71460000Y-143805000D03*
X74000000Y-143805000D03*
X76540000Y-143805000D03*
X79080000Y-143805000D03*
X81620000Y-143805000D03*
X81620000Y-136185000D03*
X79080000Y-136185000D03*
X76540000Y-136185000D03*
X74000000Y-136185000D03*
X71460000Y-136185000D03*
X68920000Y-136185000D03*
X66380000Y-136185000D03*
%TD*%
D18*
%TO.C,U3*%
X162630001Y-96475000D03*
X177870000Y-96475000D03*
D19*
X174060000Y-96475000D03*
D20*
X171520000Y-96475000D03*
X168980001Y-96475000D03*
X166440000Y-96475000D03*
X164132000Y-78695000D03*
X167632001Y-78695000D03*
X172768000Y-78695000D03*
X176268000Y-78695000D03*
%TD*%
D31*
%TO.C,J8*%
X109250000Y-129800000D03*
D32*
X112750000Y-129800000D03*
%TD*%
D16*
%TO.C,J2*%
X142200000Y-69000000D03*
D17*
X144200000Y-69000000D03*
X146200000Y-69000000D03*
X148200000Y-69000000D03*
X150200000Y-69000000D03*
X152200000Y-69000000D03*
%TD*%
D18*
%TO.C,U4*%
X185630001Y-96475000D03*
X200870000Y-96475000D03*
D19*
X197060000Y-96475000D03*
D20*
X194520000Y-96475000D03*
X191980001Y-96475000D03*
X189440000Y-96475000D03*
X187132000Y-78695000D03*
X190632001Y-78695000D03*
X195768000Y-78695000D03*
X199268000Y-78695000D03*
%TD*%
D31*
%TO.C,J6*%
X186250000Y-122800000D03*
D32*
X189750000Y-122800000D03*
%TD*%
D16*
%TO.C,J3*%
X165200000Y-69000000D03*
D17*
X167200000Y-69000000D03*
X169200000Y-69000000D03*
X171200000Y-69000000D03*
X173200000Y-69000000D03*
X175200000Y-69000000D03*
%TD*%
D31*
%TO.C,J7*%
X197250000Y-122800000D03*
D32*
X200750000Y-122800000D03*
%TD*%
D13*
%TO.C,R3*%
X101955000Y-142800000D03*
X104495000Y-142800000D03*
%TD*%
%TO.C,R1*%
X72955000Y-131000000D03*
X75495000Y-131000000D03*
%TD*%
D31*
%TO.C,J5*%
X210250000Y-122800000D03*
D32*
X213750000Y-122800000D03*
%TD*%
%LPD*%
M02*
